<?xml version="1.0" encoding="utf-8"?>
<!-- Generator: Adobe Illustrator 23.0.1, SVG Export Plug-In . SVG Version: 6.00 Build 0)  -->
<svg version="1.1" id="Ebene_1" xmlns="http://www.w3.org/2000/svg" xmlns:xlink="http://www.w3.org/1999/xlink" x="0px" y="0px"
	 viewBox="0 0 48 47" style="enable-background:new 0 0 48 47;" xml:space="preserve">
<style type="text/css">
	.st0{fill:#9B8636;}
</style>
<title>iconBrowse</title>
<desc>Created with Sketch.</desc>
<g id="Symbols">
	<g transform="translate(-6.000000, -7.000000)">
		<g id="iconBrowse" transform="translate(6.000000, 7.000000)">
			<path class="st0" d="M38,42.3l-0.6-0.8c5.8-4.1,9.3-10.7,9.3-17.8C46.7,11.7,37,2,25,2c-1,0-2.1,0.1-3.1,0.2l-0.1-1
				C22.8,1,23.9,1,25,1c12.5,0,22.7,10.2,22.7,22.7C47.7,31.1,44.1,38,38,42.3z"/>
			<path class="st0" d="M32.3,40.8l-0.9-0.5c2.3-4.2,3.7-10.2,3.7-16.7C35.1,11.7,30.6,2,25,2V1c6.2,0,11.1,10,11.1,22.7
				C36.1,30.2,34.7,36.5,32.3,40.8z"/>
			<rect x="24.5" y="1.5" class="st0" width="1" height="37"/>
			<rect x="18.7" y="23.2" class="st0" width="28.5" height="1"/>
			<path class="st0" d="M25,13.6v-1c6.4,0,12.5-1.3,16.7-3.7l0.5,0.9C37.9,12.2,31.6,13.6,25,13.6z"/>
			<path class="st0" d="M41.7,38.4C37.5,36,31.4,34.7,25,34.7c-1.8,0-3.5,0.1-5.2,0.3l-0.1-1c1.7-0.2,3.5-0.3,5.3-0.3
				c6.6,0,12.8,1.4,17.1,3.8L41.7,38.4z"/>
			<path class="st0" d="M25,46.3c-12.5,0-22.7-10.2-22.7-22.7c0-4.3,1.2-8.4,3.4-12L0.5,8.6C0.3,8.5,0.2,8.3,0.2,8.2
				c0-0.2,0.1-0.4,0.3-0.4l18-7.5c0.1-0.1,0.3,0,0.4,0c0.1,0.1,0.2,0.2,0.2,0.4L21.8,20c0,0.2-0.1,0.4-0.2,0.5
				c-0.2,0.1-0.4,0.1-0.5,0l-5.6-3.2c-1,2.4-1.6,4.9-1.6,7.4c0,10.2,8.3,18.5,18.5,18.5c0.7,0,1.4,0,2.3-0.2c0.2,0,0.5,0.1,0.5,0.4
				c0.1,0.2,0,0.5-0.3,0.6C31.8,45.6,28.5,46.3,25,46.3z M1.9,8.3l4.9,2.8c0.1,0.1,0.2,0.2,0.2,0.3c0,0.1,0,0.3-0.1,0.4
				c-2.3,3.5-3.6,7.6-3.6,11.9c0,12,9.7,21.7,21.7,21.7c2.3,0,4.6-0.4,6.8-1.1c-10.5-0.3-19-8.9-19-19.5c0-2.9,0.6-5.7,1.9-8.4
				c0.1-0.1,0.2-0.2,0.3-0.3c0.1,0,0.3,0,0.4,0l5.2,3L18.3,1.4L1.9,8.3z"/>
		</g>
	</g>
</g>
</svg>
