<?xml version="1.0" encoding="utf-8"?>
<!-- Generator: Adobe Illustrator 23.0.1, SVG Export Plug-In . SVG Version: 6.00 Build 0)  -->
<svg version="1.1" id="Ebene_1" xmlns="http://www.w3.org/2000/svg" xmlns:xlink="http://www.w3.org/1999/xlink" x="0px" y="0px"
	 viewBox="0 0 48 40" style="enable-background:new 0 0 48 40;" xml:space="preserve">
<style type="text/css">
	.st0{fill:#998634;}
</style>
<title>Group 5</title>
<desc>Created with Sketch.</desc>
<g id="Symbols">
	<g transform="translate(-6.000000, -10.000000)">
		<g id="Group-5" transform="translate(6.000000, 10.000000)">
			<path class="st0" d="M41.8,29.9c-0.1,0-0.3-0.1-0.4-0.2L34.8,22h-3.6v-1H35c0.1,0,0.3,0.1,0.4,0.2l6,6.9l0-6.6
				c0-0.3,0.2-0.5,0.5-0.5h1.8c1.8,0,3.3-1.5,3.3-3.3V4.4c0-1.8-1.5-3.3-3.3-3.3H23.8c-1.8,0-3.3,1.5-3.3,3.3v2.9h-1V4.4
				c0-2.4,1.9-4.3,4.3-4.3h19.9C46.1,0.1,48,2,48,4.4v13.3c0,2.4-1.9,4.3-4.3,4.3h-1.3l0,7.4c0,0.2-0.1,0.4-0.3,0.5
				C42,29.9,41.9,29.9,41.8,29.9z"/>
			<path class="st0" d="M6.3,39.6c-0.1,0-0.1,0-0.2,0c-0.2-0.1-0.3-0.3-0.3-0.5l0-7.4H4.4c-2.4,0-4.3-1.9-4.3-4.3V14.1
				c0-2.4,1.9-4.3,4.3-4.3h19.9c2.4,0,4.3,1.9,4.3,4.3v13.3c0,2.4-1.9,4.3-4.3,4.3h-11l-6.7,7.8C6.5,39.6,6.4,39.6,6.3,39.6z
				 M4.4,10.8c-1.8,0-3.3,1.5-3.3,3.3v13.3c0,1.8,1.5,3.3,3.3,3.3h1.9c0.3,0,0.5,0.2,0.5,0.5l0,6.6l6-6.9c0.1-0.1,0.2-0.2,0.4-0.2
				h11.2c1.8,0,3.3-1.5,3.3-3.3V14.1c0-1.8-1.5-3.3-3.3-3.3H4.4z"/>
		</g>
	</g>
</g>
</svg>
