<?xml version="1.0" encoding="UTF-8" standalone="no"?>
<!DOCTYPE svg PUBLIC "-//W3C//DTD SVG 1.1//EN" "http://www.w3.org/Graphics/SVG/1.1/DTD/svg11.dtd">
<svg width="100%" height="100%" viewBox="0 0 32 32" version="1.1" xmlns="http://www.w3.org/2000/svg" xmlns:xlink="http://www.w3.org/1999/xlink" xml:space="preserve" xmlns:serif="http://www.serif.com/" style="fill-rule:evenodd;clip-rule:evenodd;stroke-linejoin:round;stroke-miterlimit:2;">
    <g>
        <path d="M28.755,6.968C28.755,6.968 28.448,7.097 28.285,7.117C27.79,7.179 26.317,7.115 25.782,7.34C25.373,7.512 25.278,8.308 25.075,8.469C24.934,8.58 24.703,8.417 24.562,8.306C24.144,7.979 22.95,6.965 22.57,6.51C22.361,6.26 22.389,5.884 22.281,5.576C22.168,5.254 22.112,4.862 21.894,4.58C21.621,4.227 21.097,3.692 20.642,3.457C20.196,3.226 19.417,3.103 19.165,3.168C18.946,3.224 19.005,3.657 19.131,3.844C19.367,4.192 20.219,4.882 20.578,5.256C20.83,5.519 21.301,5.882 21.286,6.09C21.271,6.298 20.731,6.469 20.49,6.506C20.267,6.541 20.053,6.393 19.842,6.315C19.572,6.216 19.027,6.108 18.871,5.91C18.715,5.712 19.084,5.316 18.904,5.127C18.697,4.909 17.913,4.384 17.63,4.603C17.347,4.823 17.492,6.089 17.207,6.444C16.933,6.787 16.116,6.515 15.923,6.735C15.73,6.955 15.774,7.555 16.05,7.762C16.35,7.987 17.396,8.304 17.723,8.084C18.05,7.864 17.734,6.682 18.012,6.443C18.29,6.204 19.056,6.55 19.393,6.647C19.631,6.715 19.793,6.969 20.035,7.023C20.314,7.086 20.799,6.806 21.065,7.023C21.354,7.258 21.447,8.02 21.77,8.435C22.199,8.986 23.35,9.892 23.639,10.331C23.776,10.54 23.739,10.989 23.502,11.068C23.228,11.159 22.483,10.743 21.995,10.876C21.31,11.063 20.138,11.597 19.391,12.191C18.644,12.785 17.869,13.899 17.516,14.44C17.329,14.726 17.425,15.27 17.272,15.436C17.12,15.601 16.814,15.5 16.599,15.436C16.278,15.34 15.757,14.858 15.345,14.858C14.933,14.858 14.279,15.126 14.127,15.436C13.974,15.746 14.223,16.534 14.43,16.721C14.637,16.908 15.125,16.663 15.368,16.556C15.584,16.462 15.295,15.789 15.892,16.081C16.015,16.141 15.709,17.005 15.827,17.235C15.945,17.465 16.38,17.306 16.599,17.461C16.856,17.643 17.032,18.242 17.37,18.327C17.708,18.412 18.194,17.994 18.629,17.973C19.078,17.952 19.593,18.097 20.067,18.2C20.585,18.313 21.32,18.558 21.737,18.649C22.01,18.709 22.348,18.578 22.571,18.747C22.946,19.031 23.421,19.915 23.985,20.352C24.675,20.887 26.553,21.128 26.714,21.957C26.875,22.787 25.554,24.623 24.949,25.329C24.504,25.849 23.514,25.73 23.086,26.195C22.658,26.661 22.84,27.617 22.379,28.122C21.812,28.743 20.18,29.449 19.683,29.922C19.423,30.169 19.396,30.96 19.396,30.96C29.793,28.456 34.803,15.969 28.755,6.968Z" style="fill-rule:nonzero;"/>
        <path d="M17.515,23.917C17.515,23.917 16.387,22.514 16.371,21.796C16.355,21.078 17.421,20.025 17.421,19.608C17.421,19.243 16.674,19.498 16.371,19.294C16,19.044 15.697,18.346 15.192,18.11C14.56,17.815 13.146,17.893 12.58,17.524C12.075,17.195 12.248,15.864 11.794,15.898C11.571,15.914 11.673,16.677 11.499,16.735C11.325,16.792 10.937,16.477 10.75,16.245C10.347,15.745 9.358,14.571 9.08,13.735C8.816,12.942 9.333,12.024 9.08,11.228C8.805,10.363 8.142,8.914 7.43,8.545C6.718,8.176 5.541,8.934 4.81,9.012C4.225,9.074 3.412,9.112 3.045,9.012C2.805,8.947 2.566,8.655 2.607,8.41C2.647,8.163 3.364,7.635 3.29,7.532C3.216,7.429 2.16,7.793 2.16,7.793C0.798,10.119 0.004,12.818 0.004,15.709C0.004,24.382 7.035,31.416 15.709,31.416C16.377,31.416 17.032,31.357 17.68,31.279C17.68,31.279 17.443,30.008 17.516,29.376C17.609,28.572 18.237,27.364 18.237,26.454C18.237,25.575 17.515,23.917 17.515,23.917Z" style="fill-rule:nonzero;"/>
        <path d="M5.84,5.065C6.678,4.893 7.951,4.858 8.63,4.676C9.102,4.549 9.46,4.019 9.916,3.971C10.371,3.923 10.863,4.35 11.363,4.388C11.99,4.436 13.158,4.489 13.675,4.26C14.125,4.061 14.142,3.191 14.467,3.015C14.791,2.839 15.232,3.212 15.622,3.205C16.282,3.193 17.831,3.128 18.427,2.942C18.793,2.828 18.908,2.338 19.2,2.09C19.511,1.827 19.861,1.443 20.29,1.362C20.729,1.279 21.481,1.569 21.832,1.594C22.021,1.607 22.394,1.509 22.394,1.509C20.363,0.553 18.103,0 15.708,0C10.833,0 6.474,2.222 3.596,5.711L3.604,5.711C3.604,5.711 5.08,5.221 5.84,5.065ZM16.372,1.562C16.793,1.319 17.537,0.727 17.976,0.679C18.37,0.636 19.083,0.986 19.006,1.274C18.929,1.562 18.001,2.196 17.515,2.409C17.078,2.601 16.435,2.597 16.091,2.552C15.838,2.519 15.403,2.301 15.45,2.136C15.497,1.971 16.058,1.743 16.372,1.562ZM11.621,1.691C11.865,1.615 12.073,1.986 12.329,1.986C12.602,1.986 13.017,1.594 13.256,1.691C13.495,1.788 14.014,2.344 13.761,2.566C13.489,2.806 12.149,3.135 11.621,3.128C11.224,3.123 10.592,2.766 10.592,2.526C10.592,2.287 11.332,1.781 11.621,1.691Z" style="fill-rule:nonzero;"/>
    </g>
</svg>
