<?xml version="1.0" encoding="utf-8"?>
<!-- Generator: Adobe Illustrator 23.0.1, SVG Export Plug-In . SVG Version: 6.00 Build 0)  -->
<svg version="1.1" id="Ebene_1" xmlns="http://www.w3.org/2000/svg" xmlns:xlink="http://www.w3.org/1999/xlink" x="0px" y="0px"
	 viewBox="0 0 44 50" style="enable-background:new 0 0 44 50;" xml:space="preserve">
<style type="text/css">
	.st0{fill:#9C8736;}
</style>
<title>Letter Icon</title>
<desc>Created with Sketch.</desc>
<g id="Symbols">
	<g transform="translate(-8.000000, -5.000000)">
		<g id="Letter-Icon" transform="translate(9.000000, 6.000000)">
			<g id="Group-11">
				<path class="st0" d="M41.9,48.2H0.3c-0.3,0-0.5-0.2-0.5-0.5V18.5c0-0.3,0.2-0.5,0.5-0.5s0.5,0.2,0.5,0.5v28.8h40.7V18.5
					c0-0.3,0.2-0.5,0.5-0.5s0.5,0.2,0.5,0.5v29.3C42.4,48,42.2,48.2,41.9,48.2z"/>
				<path class="st0" d="M21.1,37.3c-0.1,0-0.2,0-0.3-0.1L-0.1,18.8c-0.2-0.2-0.2-0.5,0-0.7c0.2-0.2,0.5-0.2,0.7,0l20.5,18l20.5-18
					c0.2-0.2,0.5-0.2,0.7,0c0.2,0.2,0.2,0.5,0,0.7L21.4,37.1C21.3,37.2,21.2,37.3,21.1,37.3z"/>
				<path class="st0" d="M41.9,19c-0.1,0-0.2,0-0.3-0.1l-20.5-18l-20.5,18c-0.2,0.2-0.5,0.2-0.7,0s-0.2-0.5,0-0.7L20.8-0.2
					c0.2-0.2,0.5-0.2,0.7,0l20.8,18.3c0.2,0.2,0.2,0.5,0,0.7C42.2,18.9,42.1,19,41.9,19z"/>
				<path class="st0" d="M0.3,48.2c-0.1,0-0.3-0.1-0.4-0.2c-0.2-0.2-0.2-0.5,0-0.7l16.7-14.6c0.2-0.2,0.5-0.2,0.7,0
					c0.2,0.2,0.2,0.5,0,0.7L0.6,48.1C0.5,48.2,0.4,48.2,0.3,48.2z"/>
				<path class="st0" d="M41.9,48.2c-0.1,0-0.2,0-0.3-0.1L24.9,33.5c-0.2-0.2-0.2-0.5,0-0.7c0.2-0.2,0.5-0.2,0.7,0l16.7,14.6
					c0.2,0.2,0.2,0.5,0,0.7C42.2,48.2,42.1,48.2,41.9,48.2z"/>
			</g>
			<path class="st0" d="M35,24.5c-0.3,0-0.5-0.2-0.5-0.5v-8.5h-27V24c0,0.3-0.2,0.5-0.5,0.5S6.5,24.3,6.5,24v-9
				c0-0.3,0.2-0.5,0.5-0.5h28c0.3,0,0.5,0.2,0.5,0.5v9C35.5,24.3,35.3,24.5,35,24.5z"/>
		</g>
	</g>
</g>
</svg>
