<svg id="Ebene_1" data-name="Ebene 1" xmlns="http://www.w3.org/2000/svg" viewBox="0 0 56.51 47.67"><defs><style>.cls-1{fill:#998535;}.cls-2{fill:#998534;fill-rule:evenodd;}</style></defs><title>The Works package icon</title><polygon class="cls-1" points="45.39 47.67 10.98 47.67 10.98 31.3 0 23.09 0.6 22.29 11.98 30.8 11.98 46.67 44.39 46.67 44.39 30.8 55.91 22 56.51 22.8 45.39 31.3 45.39 47.67"/><path class="cls-1" d="M38.13,49l4.25,10.28L46.63,49Zm1.49,1h5.51l-2.75,6.67Z" transform="translate(-14.12 -18.39)"/><path class="cls-1" d="M60.75,35.65V19L47.92,22.06V36.94A4.85,4.85,0,0,0,45,36.07c-2.19,0-3.91,1.21-3.91,2.74s1.72,2.74,3.91,2.74S49,40.35,49,38.81a1.63,1.63,0,0,0,0-.31V26.13l10.83-2.6V34.11a4.79,4.79,0,0,0-2.88-.87c-2.19,0-3.9,1.2-3.9,2.74s1.71,2.74,3.9,2.74,3.91-1.21,3.91-2.74A1.84,1.84,0,0,0,60.75,35.65ZM45,40.55c-1.58,0-2.91-.79-2.91-1.74s1.33-1.74,2.91-1.74,2.91.8,2.91,1.74S46.61,40.55,45,40.55ZM48.92,25.1V22.85l10.83-2.6V22.5Zm7.95,12.62c-1.57,0-2.9-.8-2.9-1.74s1.33-1.74,2.9-1.74S59.78,35,59.78,36,58.45,37.72,56.87,37.72Z" transform="translate(-14.12 -18.39)"/><path class="cls-2" d="M22,39.34a.44.44,0,0,0-.38.49l.11.86a.44.44,0,0,0,.87-.11l-.12-.86A.43.43,0,0,0,22,39.34Z" transform="translate(-14.12 -18.39)"/><path class="cls-2" d="M22.12,36.83,22,36a.44.44,0,1,0-.87.11l.11.86a.44.44,0,0,0,.87-.11Z" transform="translate(-14.12 -18.39)"/><path class="cls-2" d="M21.64,33.08l-.11-.86a.44.44,0,0,0-.49-.38.43.43,0,0,0-.37.49l.11.86a.43.43,0,1,0,.86-.11Z" transform="translate(-14.12 -18.39)"/><path class="cls-2" d="M21.16,29.34l-.11-.87a.43.43,0,1,0-.86.11l.11.86a.44.44,0,0,0,.49.38A.43.43,0,0,0,21.16,29.34Z" transform="translate(-14.12 -18.39)"/><path class="cls-2" d="M20.69,25.59l-.11-.87a.44.44,0,0,0-.87.11l.11.87a.44.44,0,0,0,.87-.11Z" transform="translate(-14.12 -18.39)"/><path class="cls-2" d="M20.21,21.84,20.1,21a.44.44,0,0,0-.49-.37.43.43,0,0,0-.37.48l.11.87a.43.43,0,0,0,.48.38A.44.44,0,0,0,20.21,21.84Z" transform="translate(-14.12 -18.39)"/><path class="cls-2" d="M34,18.76a.44.44,0,0,0-.38.49l.26,2L23.24,22.63l-.26-2a.43.43,0,0,0-.48-.38.44.44,0,0,0-.38.49l2.49,19.6a.44.44,0,1,0,.87-.11l-.26-2,10.67-1.36.26,2a.42.42,0,0,0,.48.37.43.43,0,0,0,.38-.48L34.52,19.14A.44.44,0,0,0,34,18.76Zm0,3.37.84,6.63L24.19,30.12l-.84-6.63Zm-8.91,15.2L24.3,31,35,29.63,35.78,36Z" transform="translate(-14.12 -18.39)"/><path class="cls-2" d="M39.78,37.51a.43.43,0,0,0-.48-.37.43.43,0,0,0-.38.48l.11.87a.44.44,0,0,0,.49.38.42.42,0,0,0,.37-.49Z" transform="translate(-14.12 -18.39)"/><path class="cls-2" d="M39.42,34.63l-.11-.86a.44.44,0,0,0-.87.11l.11.86a.44.44,0,0,0,.87-.11Z" transform="translate(-14.12 -18.39)"/><path class="cls-2" d="M38.94,30.88,38.83,30a.44.44,0,0,0-.49-.38.43.43,0,0,0-.37.49l.11.86a.43.43,0,0,0,.48.38A.44.44,0,0,0,38.94,30.88Z" transform="translate(-14.12 -18.39)"/><path class="cls-2" d="M38.46,27.13l-.11-.86a.43.43,0,0,0-.48-.38.44.44,0,0,0-.38.49l.11.86a.44.44,0,0,0,.49.38A.43.43,0,0,0,38.46,27.13Z" transform="translate(-14.12 -18.39)"/><path class="cls-2" d="M38,23.39l-.11-.87a.44.44,0,0,0-.87.11l.11.87a.44.44,0,0,0,.87-.11Z" transform="translate(-14.12 -18.39)"/><path class="cls-2" d="M37.13,20.13a.44.44,0,0,0,.38-.49l-.11-.87a.43.43,0,0,0-.49-.37.42.42,0,0,0-.37.48l.11.87A.43.43,0,0,0,37.13,20.13Z" transform="translate(-14.12 -18.39)"/></svg>
