<?xml version="1.0" standalone="no"?>
<!DOCTYPE svg PUBLIC "-//W3C//DTD SVG 1.1//EN" "http://www.w3.org/Graphics/SVG/1.1/DTD/svg11.dtd" >
<svg xmlns="http://www.w3.org/2000/svg" xmlns:xlink="http://www.w3.org/1999/xlink" version="1.1">
<metadata>
Created by FontForge 20180321 at Fri Aug 24 16:29:50 2018
 By Josh
Copyright (c) 2017 by Josh Finklea. All rights reserved.
</metadata>
<defs>
<font id="VVCentra2-MediumItalic" horiz-adv-x="600" >
  <font-face 
    font-family="VV Centra 2 Medium"
    font-weight="500"
    font-style="italic"
    font-stretch="normal"
    units-per-em="1000"
    panose-1="0 0 0 0 0 0 0 0 0 0"
    ascent="800"
    descent="-200"
    x-height="490"
    cap-height="700"
    bbox="-247 -251 1178 931"
    underline-thickness="50"
    underline-position="-100"
    unicode-range="U+000D-FB02"
  />
<missing-glyph horiz-adv-x="840" 
d="M70 700h700v-700h-700v700zM140 70h560v560h-560v-560zM233 113l-50 50l188 187l-188 187l50 50l187 -188l187 188l50 -50l-188 -187l188 -187l-50 -50l-187 188z" />
    <glyph glyph-name=".notdef" horiz-adv-x="840" 
d="M70 700h700v-700h-700v700zM140 70h560v560h-560v-560zM233 113l-50 50l188 187l-188 187l50 50l187 -188l187 188l50 -50l-188 -187l188 -187l-50 -50l-187 188z" />
    <glyph glyph-name="NULL" horiz-adv-x="0" 
 />
    <glyph glyph-name="NULL" horiz-adv-x="0" 
 />
    <glyph glyph-name="nonmarkingreturn" unicode="&#xd;" horiz-adv-x="239" 
 />
    <glyph glyph-name="space" unicode=" " horiz-adv-x="239" 
 />
    <glyph glyph-name="A" unicode="A" horiz-adv-x="692" 
d="M466 700l180 -700h-123l-45 177h-282l-96 -177h-126l390 700h102zM251 282h205l-64 260z" />
    <glyph glyph-name="B" unicode="B" horiz-adv-x="622" 
d="M581 528q0 -54 -27 -97.5t-79 -66.5q48 -18 74.5 -56.5t26.5 -92.5t-21.5 -94.5t-57.5 -67.5t-83 -40t-97 -13h-271l105 700h223q39 0 76.5 -10.5t66.5 -31.5t46.5 -53.5t17.5 -76.5zM317 103q26 0 51 7t44.5 21t31 35t11.5 50q0 27 -11 45t-29 29.5t-40.5 16.5t-44.5 5
h-119l-32 -209h138zM464 516q0 22 -9 38t-23.5 25.5t-33.5 14t-38 4.5h-107l-28 -187h117q24 0 46 6.5t39 20t27 33t10 45.5z" />
    <glyph glyph-name="C" unicode="C" horiz-adv-x="643" 
d="M446 596q-53 0 -100.5 -22t-83 -59t-56 -85.5t-20.5 -101.5q0 -47 17 -88t46.5 -71t70 -47t87.5 -17q48 0 94.5 16.5t88.5 42.5l-19 -130q-40 -20 -85 -33t-90 -13q-70 0 -131 25.5t-106 70.5t-71 106t-26 132q0 79 31 150.5t84 124.5t123.5 84.5t149.5 31.5
q58 0 112 -16.5t99 -50.5l-19 -128q-42 36 -90 57t-106 21z" />
    <glyph glyph-name="D" unicode="D" horiz-adv-x="710" 
d="M682 389q0 -81 -32 -152t-86 -123.5t-126.5 -83t-153.5 -30.5h-238l105 700h216q68 0 125.5 -23.5t99.5 -65.5t66 -99t24 -123zM291 112q54 0 103 21.5t85.5 58.5t58 86t21.5 104q0 45 -15 82.5t-41.5 65t-63 43t-80.5 15.5h-106l-71 -476h109z" />
    <glyph glyph-name="E" unicode="E" horiz-adv-x="531" 
d="M151 700h400l-17 -109h-280l-26 -178h258l-16 -106h-258l-30 -198h282l-16 -109h-402z" />
    <glyph glyph-name="F" unicode="F" horiz-adv-x="512" 
d="M166 0h-120l105 700h391l-17 -109h-271l-26 -178h253l-17 -109h-253z" />
    <glyph glyph-name="G" unicode="G" horiz-adv-x="789" 
d="M757 319q-11 -72 -41 -132.5t-77 -105t-108 -69t-133 -24.5q-71 0 -132 26t-106.5 71t-71.5 106.5t-26 132.5q0 79 31 149.5t84.5 123.5t124 84.5t149.5 31.5q50 0 97 -13t87 -37.5t71.5 -60t49.5 -80.5l-113 -47q-25 60 -77 92t-121 32q-54 0 -101.5 -22t-83 -59.5
t-56 -86.5t-20.5 -103q0 -47 16 -88.5t45 -72.5t69 -48.5t88 -17.5q40 0 76 12.5t65.5 35.5t51 54.5t32.5 70.5h-231l15 105h355z" />
    <glyph glyph-name="H" unicode="H" horiz-adv-x="732" 
d="M151 700h120l-43 -283h328l43 283h120l-105 -700h-120l45 303h-328l-45 -303h-120z" />
    <glyph glyph-name="I" unicode="I" horiz-adv-x="284" 
d="M271 700l-105 -700h-120l105 700h120z" />
    <glyph glyph-name="J" unicode="J" horiz-adv-x="517" 
d="M438 198q-7 -46 -25 -84.5t-47.5 -66.5t-68.5 -43.5t-88 -15.5q-78 0 -135 40.5t-75 119.5l106 46q11 -39 37 -66.5t71 -27.5q25 0 43.5 9t31.5 24.5t21 35.5t11 42l73 489h120z" />
    <glyph glyph-name="K" unicode="K" horiz-adv-x="644" 
d="M227 411l304 289h151l-343 -323l258 -377h-146l-199 300l-48 -45l-38 -255h-120l105 700h120z" />
    <glyph glyph-name="L" unicode="L" horiz-adv-x="469" 
d="M271 700l-88 -588h246l-17 -112h-366l105 700h120z" />
    <glyph glyph-name="M" unicode="M" horiz-adv-x="944" 
d="M931 700l-105 -700h-117l74 498l-308 -498h-79l-159 497l-74 -497h-117l105 700h143l166 -531l326 531h145z" />
    <glyph glyph-name="N" unicode="N" horiz-adv-x="774" 
d="M761 700l-105 -700h-115l-302 517l-77 -517h-116l105 700h120l296 -515l78 515h116z" />
    <glyph glyph-name="O" unicode="O" horiz-adv-x="818" 
d="M62 324q0 79 31.5 149.5t85 124t124.5 84.5t149 31q70 0 131.5 -26t107.5 -71.5t72.5 -107t26.5 -131.5q0 -79 -31.5 -149.5t-85 -124t-124.5 -84.5t-149 -31q-70 0 -131.5 26t-107.5 71.5t-72.5 106.5t-26.5 132zM667 372q0 47 -16.5 88t-46 71.5t-69.5 48t-88 17.5
q-53 0 -100.5 -22t-83.5 -59t-57 -85.5t-21 -101.5q0 -47 16.5 -88t46 -71.5t69.5 -48t88 -17.5q53 0 100.5 22t83.5 59t57 85.5t21 101.5z" />
    <glyph glyph-name="P" unicode="P" horiz-adv-x="575" 
d="M365 700q51 0 92 -13t70.5 -37.5t45.5 -61t16 -82.5q0 -54 -20.5 -97t-56 -73.5t-84 -46.5t-105.5 -16h-116l-41 -273h-120l105 700h214zM223 380h106q60 0 100 32t40 87q0 45 -29.5 69t-79.5 24h-106z" />
    <glyph glyph-name="Q" unicode="Q" horiz-adv-x="818" 
d="M676 -16l-68 67q-46 -30 -98.5 -46.5t-109.5 -16.5q-70 0 -131.5 26t-107.5 71.5t-72.5 106.5t-26.5 132q0 79 31.5 149.5t85 124t124.5 84.5t149 31q70 0 131.5 -26t107.5 -71.5t72.5 -107t26.5 -131.5q0 -75 -27.5 -141t-75.5 -118l62 -61zM669 372q0 47 -16.5 88.5
t-46.5 72t-70.5 48.5t-88.5 18q-54 0 -102 -22t-84 -59.5t-57 -86.5t-21 -102q0 -47 16.5 -88.5t46.5 -72.5t70.5 -48.5t88.5 -17.5q63 0 119 31l-66 66l75 73l72 -72q30 35 47 79.5t17 92.5z" />
    <glyph glyph-name="R" unicode="R" horiz-adv-x="605" 
d="M165 0h-119l105 700h210q100 0 159.5 -50.5t59.5 -143.5q0 -43 -14 -79t-39 -64.5t-60.5 -48t-77.5 -29.5l163 -285h-137l-152 277h-57zM221 378h100q30 0 55 8.5t44 24t29.5 37.5t10.5 50q0 45 -30 69.5t-80 24.5h-97z" />
    <glyph glyph-name="S" unicode="S" horiz-adv-x="556" 
d="M326 601q-42 0 -69.5 -22.5t-27.5 -58.5q0 -53 71 -89l80 -41q133 -67 133 -183q0 -51 -19 -91.5t-52 -69t-77 -43.5t-93 -15q-44 0 -84 12t-72.5 35.5t-57 58t-37.5 79.5l108 46q17 -53 55 -85.5t92 -32.5q49 0 81 25t32 70q0 55 -76 93l-82 41q-124 62 -124 182
q0 43 17 80t46.5 64t69.5 42t87 15q79 0 138 -43.5t86 -119.5l-105 -48q-16 42 -45.5 70.5t-74.5 28.5z" />
    <glyph glyph-name="T" unicode="T" horiz-adv-x="547" 
d="M88 700h509l-17 -111h-194l-88 -589h-121l88 589h-194z" />
    <glyph glyph-name="U" unicode="U" horiz-adv-x="694" 
d="M200 285q-12 -81 20 -131t107 -50q37 0 68 13t54 37t38 57.5t21 73.5l62 415h120l-63 -422q-10 -67 -35.5 -120.5t-64.5 -91t-91 -58t-116 -20.5q-68 0 -118 21.5t-80.5 60t-41.5 92.5t-1 119l63 419h120z" />
    <glyph glyph-name="V" unicode="V" horiz-adv-x="649" 
d="M244 0l-166 700h123l116 -511l267 511h128l-376 -700h-92z" />
    <glyph glyph-name="W" unicode="W" horiz-adv-x="1010" 
d="M213 0l-133 700h121l86 -499l242 499h88l91 -499l237 499h125l-344 -700h-90l-92 500l-241 -500h-90z" />
    <glyph glyph-name="X" unicode="X" horiz-adv-x="641" 
d="M410 358l186 -358h-133l-136 268l-217 -268h-140l301 364l-176 336h134l123 -246l199 246h140z" />
    <glyph glyph-name="Y" unicode="Y" horiz-adv-x="638" 
d="M345 0h-120l46 308l-194 392h133l134 -281l218 281h140l-311 -392z" />
    <glyph glyph-name="Z" unicode="Z" horiz-adv-x="611" 
d="M179 108h379l-16 -108h-546l12 80l452 512h-352l17 108h518l-12 -80z" />
    <glyph glyph-name="AE" unicode="&#xc6;" horiz-adv-x="939" 
d="M480 176h-240l-134 -176h-135l534 700h454l-17 -109h-281l-26 -178h259l-16 -106h-259l-30 -198h283l-16 -109h-402zM496 280l45 301l-224 -301h179z" />
    <glyph glyph-name="AEacute" unicode="&#x1fc;" horiz-adv-x="939" 
d="M480 176h-240l-134 -176h-135l534 700h454l-17 -109h-281l-26 -178h259l-16 -106h-259l-30 -198h283l-16 -109h-402zM496 280l45 301l-224 -301h179zM604 755l116 143h130l-140 -143h-106z" />
    <glyph glyph-name="Oslash" unicode="&#xd8;" horiz-adv-x="818" 
d="M732 566q27 -40 42.5 -87.5t15.5 -101.5q0 -79 -31.5 -149.5t-85 -124t-124.5 -84.5t-149 -31q-64 0 -120 21t-101 59l-97 -88l-58 64l98 88q-29 41 -44.5 89.5t-15.5 102.5q0 79 31.5 149.5t85 124t124.5 84.5t149 31q65 0 122 -22t102 -62l100 90l56 -62zM183 329
q0 -64 29 -116l375 336q-28 23 -63.5 36.5t-76.5 13.5q-54 0 -102 -22t-84 -59.5t-57 -86.5t-21 -102zM669 372q0 62 -28 113l-373 -337q28 -22 62.5 -34t74.5 -12q54 0 102 22t84 59.5t57 86.5t21 102z" />
    <glyph glyph-name="Oslashacute" unicode="&#x1fe;" horiz-adv-x="818" 
d="M732 566q27 -40 42.5 -87.5t15.5 -101.5q0 -79 -31.5 -149.5t-85 -124t-124.5 -84.5t-149 -31q-64 0 -120 21t-101 59l-97 -88l-58 64l98 88q-29 41 -44.5 89.5t-15.5 102.5q0 79 31.5 149.5t85 124t124.5 84.5t149 31q65 0 122 -22t102 -62l100 90l56 -62zM183 329
q0 -64 29 -116l375 336q-28 23 -63.5 36.5t-76.5 13.5q-54 0 -102 -22t-84 -59.5t-57 -86.5t-21 -102zM669 372q0 62 -28 113l-373 -337q28 -22 62.5 -34t74.5 -12q54 0 102 22t84 59.5t57 86.5t21 102zM414 755l116 143h130l-140 -143h-106z" />
    <glyph glyph-name="Aring" unicode="&#xc5;" horiz-adv-x="692" 
d="M466 700l180 -700h-123l-45 177h-282l-96 -177h-126l390 700h102zM251 282h205l-64 260zM537 837q0 -22 -8.5 -40.5t-23 -32t-34 -21.5t-41.5 -8q-41 0 -69.5 27t-28.5 68q0 21 8.5 39.5t23 32t34 21.5t41.5 8q41 0 69.5 -26.5t28.5 -67.5zM472 835q0 14 -10.5 25
t-25.5 11q-14 0 -26.5 -11t-12.5 -28q0 -15 10.5 -26t25.5 -11t27 11.5t12 28.5z" />
    <glyph glyph-name="Aacute" unicode="&#xc1;" horiz-adv-x="692" 
d="M466 700l180 -700h-123l-45 177h-282l-96 -177h-126l390 700h102zM251 282h205l-64 260zM376 755l116 143h130l-140 -143h-106z" />
    <glyph glyph-name="Abreve" unicode="&#x102;" horiz-adv-x="692" 
d="M466 700l180 -700h-123l-45 177h-282l-96 -177h-126l390 700h102zM251 282h205l-64 260zM438 832q26 0 44 17t22 46h82q-5 -63 -47.5 -101t-105.5 -38q-31 0 -56.5 10t-43.5 28.5t-26.5 44t-6.5 56.5h82q-1 -29 14 -46t42 -17z" />
    <glyph glyph-name="Acircumflex" unicode="&#xc2;" horiz-adv-x="692" 
d="M466 700l180 -700h-123l-45 177h-282l-96 -177h-126l390 700h102zM251 282h205l-64 260zM268 755l132 143h90l89 -143h-103l-41 68l-60 -68h-107z" />
    <glyph glyph-name="Adieresis" unicode="&#xc4;" horiz-adv-x="692" 
d="M466 700l180 -700h-123l-45 177h-282l-96 -177h-126l390 700h102zM251 282h205l-64 260zM400 828q0 -26 -18.5 -44.5t-44.5 -18.5t-43.5 18t-17.5 43t19 43.5t45 18.5t43 -18t17 -42zM590 828q0 -26 -18.5 -44.5t-44.5 -18.5t-43.5 18t-17.5 43t18.5 43.5t44.5 18.5
t43.5 -18t17.5 -42z" />
    <glyph glyph-name="Adieresis.square" horiz-adv-x="692" 
d="M466 700l180 -700h-123l-45 177h-282l-96 -177h-126l390 700h102zM251 282h205l-64 260zM275 768l17 116h108l-17 -116h-108zM468 768l17 116h108l-17 -116h-108z" />
    <glyph glyph-name="Agrave" unicode="&#xc0;" horiz-adv-x="692" 
d="M466 700l180 -700h-123l-45 177h-282l-96 -177h-126l390 700h102zM251 282h205l-64 260zM369 755l-99 143h123l74 -143h-98z" />
    <glyph glyph-name="Amacron" unicode="&#x100;" horiz-adv-x="692" 
d="M466 700l180 -700h-123l-45 177h-282l-96 -177h-126l390 700h102zM251 282h205l-64 260zM282 772l12 77h288l-12 -77h-288z" />
    <glyph glyph-name="Aogonek" unicode="&#x104;" horiz-adv-x="692" 
d="M466 700l180 -700h-7q-27 -6 -50 -16.5t-40 -23.5t-26.5 -28t-9.5 -30q0 -17 11 -25t31 -8q25 0 47 13l-11 -74q-28 -14 -63 -14q-49 0 -76 23.5t-27 63.5q0 36 25 67t73 52l-45 177h-282l-96 -177h-126l390 700h102zM251 282h205l-64 260z" />
    <glyph glyph-name="Atilde" unicode="&#xc3;" horiz-adv-x="692" 
d="M466 700l180 -700h-123l-45 177h-282l-96 -177h-126l390 700h102zM251 282h205l-64 260zM258 765q3 61 33.5 90t74.5 29q25 0 42.5 -7.5t31 -16.5t25 -16.5t25.5 -7.5q18 0 28 12t12 32h72q-3 -62 -33.5 -90.5t-74.5 -28.5q-26 0 -43 7.5t-30.5 16.5t-25 16.5t-25.5 7.5
q-19 0 -28.5 -12t-11.5 -32h-72z" />
    <glyph glyph-name="Anocross" horiz-adv-x="692" 
d="M100 0h-126l390 700h100l180 -700h-123l-131 534z" />
    <glyph glyph-name="Cacute" unicode="&#x106;" horiz-adv-x="643" 
d="M446 596q-53 0 -100.5 -22t-83 -59t-56 -85.5t-20.5 -101.5q0 -47 17 -88t46.5 -71t70 -47t87.5 -17q48 0 94.5 16.5t88.5 42.5l-19 -130q-40 -20 -85 -33t-90 -13q-70 0 -131 25.5t-106 70.5t-71 106t-26 132q0 79 31 150.5t84 124.5t123.5 84.5t149.5 31.5
q58 0 112 -16.5t99 -50.5l-19 -128q-42 36 -90 57t-106 21zM406 755l116 143h130l-140 -143h-106z" />
    <glyph glyph-name="Ccaron" unicode="&#x10c;" horiz-adv-x="643" 
d="M446 596q-53 0 -100.5 -22t-83 -59t-56 -85.5t-20.5 -101.5q0 -47 17 -88t46.5 -71t70 -47t87.5 -17q48 0 94.5 16.5t88.5 42.5l-19 -130q-40 -20 -85 -33t-90 -13q-70 0 -131 25.5t-106 70.5t-71 106t-26 132q0 79 31 150.5t84 124.5t123.5 84.5t149.5 31.5
q58 0 112 -16.5t99 -50.5l-19 -128q-42 36 -90 57t-106 21zM654 898l-131 -143h-90l-90 143h103l41 -68l61 68h106z" />
    <glyph glyph-name="Ccedilla" unicode="&#xc7;" horiz-adv-x="643" 
d="M435 -128q0 -42 -30.5 -69.5t-75.5 -27.5q-42 0 -68.5 24t-28.5 59h70q1 -8 9 -16t22 -8q15 0 25 9.5t10 23.5q0 13 -8.5 21.5t-22.5 8.5q-9 0 -17 -4t-13 -9l-57 38l52 79q-52 15 -96 45t-76 72t-50 94t-18 110q0 79 31 150.5t84 124.5t123.5 84.5t149.5 31.5
q58 0 112 -16.5t99 -50.5l-19 -128q-42 36 -90 57t-106 21q-53 0 -100.5 -22t-83 -59t-56 -85.5t-20.5 -101.5q0 -47 17 -88t46.5 -71t70 -47t87.5 -17q48 0 94.5 16.5t88.5 42.5l-19 -130q-40 -20 -85 -33t-90 -13h-13t-17 1l-29 -38q6 2 16 2q37 0 59.5 -23t22.5 -58z" />
    <glyph glyph-name="Ccircumflex" unicode="&#x108;" horiz-adv-x="643" 
d="M446 596q-53 0 -100.5 -22t-83 -59t-56 -85.5t-20.5 -101.5q0 -47 17 -88t46.5 -71t70 -47t87.5 -17q48 0 94.5 16.5t88.5 42.5l-19 -130q-40 -20 -85 -33t-90 -13q-70 0 -131 25.5t-106 70.5t-71 106t-26 132q0 79 31 150.5t84 124.5t123.5 84.5t149.5 31.5
q58 0 112 -16.5t99 -50.5l-19 -128q-42 36 -90 57t-106 21zM322 755l132 143h90l89 -143h-103l-41 68l-60 -68h-107z" />
    <glyph glyph-name="Cdotaccent" unicode="&#x10a;" horiz-adv-x="643" 
d="M446 596q-53 0 -100.5 -22t-83 -59t-56 -85.5t-20.5 -101.5q0 -47 17 -88t46.5 -71t70 -47t87.5 -17q48 0 94.5 16.5t88.5 42.5l-19 -130q-40 -20 -85 -33t-90 -13q-70 0 -131 25.5t-106 70.5t-71 106t-26 132q0 79 31 150.5t84 124.5t123.5 84.5t149.5 31.5
q58 0 112 -16.5t99 -50.5l-19 -128q-42 36 -90 57t-106 21zM560 834q0 -29 -21 -49.5t-50 -20.5t-48 19.5t-19 47.5q0 29 21 49.5t50 20.5q28 0 47.5 -20t19.5 -47z" />
    <glyph glyph-name="Cdotaccent.square" horiz-adv-x="643" 
d="M446 596q-53 0 -100.5 -22t-83 -59t-56 -85.5t-20.5 -101.5q0 -47 17 -88t46.5 -71t70 -47t87.5 -17q48 0 94.5 16.5t88.5 42.5l-19 -130q-40 -20 -85 -33t-90 -13q-70 0 -131 25.5t-106 70.5t-71 106t-26 132q0 79 31 150.5t84 124.5t123.5 84.5t149.5 31.5
q58 0 112 -16.5t99 -50.5l-19 -128q-42 36 -90 57t-106 21zM424 769l18 120h116l-18 -120h-116z" />
    <glyph glyph-name="Dcaron" unicode="&#x10e;" horiz-adv-x="710" 
d="M682 389q0 -81 -32 -152t-86 -123.5t-126.5 -83t-153.5 -30.5h-238l105 700h216q68 0 125.5 -23.5t99.5 -65.5t66 -99t24 -123zM291 112q54 0 103 21.5t85.5 58.5t58 86t21.5 104q0 45 -15 82.5t-41.5 65t-63 43t-80.5 15.5h-106l-71 -476h109zM580 898l-131 -143h-90
l-90 143h103l41 -68l61 68h106z" />
    <glyph glyph-name="Dcroat" unicode="&#x110;" horiz-adv-x="725" 
d="M697 389q0 -81 -32 -152t-86 -123.5t-126.5 -83t-153.5 -30.5h-238l45 302h-82l15 101h82l45 297h216q68 0 125.5 -23.5t99.5 -65.5t66 -99t24 -123zM306 112q54 0 103 21.5t85.5 58.5t58 86t21.5 104q0 45 -15 82.5t-41.5 65t-63 43t-80.5 15.5h-106l-28 -185h179
l-15 -101h-179l-28 -190h109z" />
    <glyph glyph-name="Eth" unicode="&#xd0;" horiz-adv-x="725" 
d="M697 389q0 -81 -32 -152t-86 -123.5t-126.5 -83t-153.5 -30.5h-238l45 302h-82l15 101h82l45 297h216q68 0 125.5 -23.5t99.5 -65.5t66 -99t24 -123zM306 112q54 0 103 21.5t85.5 58.5t58 86t21.5 104q0 45 -15 82.5t-41.5 65t-63 43t-80.5 15.5h-106l-28 -185h179
l-15 -101h-179l-28 -190h109z" />
    <glyph glyph-name="Eacute" unicode="&#xc9;" horiz-adv-x="531" 
d="M151 700h400l-17 -109h-280l-26 -178h258l-16 -106h-258l-30 -198h282l-16 -109h-402zM293 755l116 143h130l-140 -143h-106z" />
    <glyph glyph-name="Ebreve" unicode="&#x114;" horiz-adv-x="531" 
d="M151 700h400l-17 -109h-280l-26 -178h258l-16 -106h-258l-30 -198h282l-16 -109h-402zM375 832q26 0 44 17t22 46h82q-5 -63 -47.5 -101t-105.5 -38q-31 0 -56.5 10t-43.5 28.5t-26.5 44t-6.5 56.5h82q-1 -29 14 -46t42 -17z" />
    <glyph glyph-name="Ecaron" unicode="&#x11a;" horiz-adv-x="531" 
d="M151 700h400l-17 -109h-280l-26 -178h258l-16 -106h-258l-30 -198h282l-16 -109h-402zM536 898l-131 -143h-90l-90 143h103l41 -68l61 68h106z" />
    <glyph glyph-name="Ecircumflex" unicode="&#xca;" horiz-adv-x="531" 
d="M151 700h400l-17 -109h-280l-26 -178h258l-16 -106h-258l-30 -198h282l-16 -109h-402zM204 755l132 143h90l89 -143h-103l-41 68l-60 -68h-107z" />
    <glyph glyph-name="Edieresis" unicode="&#xcb;" horiz-adv-x="531" 
d="M151 700h400l-17 -109h-280l-26 -178h258l-16 -106h-258l-30 -198h282l-16 -109h-402zM337 828q0 -26 -18.5 -44.5t-44.5 -18.5t-43.5 18t-17.5 43t19 43.5t45 18.5t43 -18t17 -42zM527 828q0 -26 -18.5 -44.5t-44.5 -18.5t-43.5 18t-17.5 43t18.5 43.5t44.5 18.5
t43.5 -18t17.5 -42z" />
    <glyph glyph-name="Edieresis.square" horiz-adv-x="531" 
d="M151 700h400l-17 -109h-280l-26 -178h258l-16 -106h-258l-30 -198h282l-16 -109h-402zM212 768l17 116h108l-17 -116h-108zM405 768l17 116h108l-17 -116h-108z" />
    <glyph glyph-name="Edotaccent" unicode="&#x116;" horiz-adv-x="531" 
d="M151 700h400l-17 -109h-280l-26 -178h258l-16 -106h-258l-30 -198h282l-16 -109h-402zM443 834q0 -29 -21 -49.5t-50 -20.5t-48 19.5t-19 47.5q0 29 21 49.5t50 20.5q28 0 47.5 -20t19.5 -47z" />
    <glyph glyph-name="Edotaccent.square" horiz-adv-x="531" 
d="M151 700h400l-17 -109h-280l-26 -178h258l-16 -106h-258l-30 -198h282l-16 -109h-402zM308 769l18 120h116l-18 -120h-116z" />
    <glyph glyph-name="Egrave" unicode="&#xc8;" horiz-adv-x="531" 
d="M151 700h400l-17 -109h-280l-26 -178h258l-16 -106h-258l-30 -198h282l-16 -109h-402zM338 755l-99 143h123l74 -143h-98z" />
    <glyph glyph-name="Emacron" unicode="&#x112;" horiz-adv-x="531" 
d="M151 700h400l-17 -109h-280l-26 -178h258l-16 -106h-258l-30 -198h282l-16 -109h-402zM219 772l12 77h288l-12 -77h-288z" />
    <glyph glyph-name="Eogonek" unicode="&#x118;" horiz-adv-x="531" 
d="M151 700h400l-17 -109h-280l-26 -178h258l-16 -106h-258l-30 -198h282l-16 -109h-17q-27 -6 -50 -16.5t-40 -23.5t-26.5 -28t-9.5 -30q0 -17 11 -25t31 -8q25 0 47 13l-11 -74q-28 -14 -63 -14q-49 0 -76 23.5t-27 63.5q0 36 25 66.5t72 52.5h-268z" />
    <glyph glyph-name="Gbreve" unicode="&#x11e;" horiz-adv-x="789" 
d="M757 319q-11 -72 -41 -132.5t-77 -105t-108 -69t-133 -24.5q-71 0 -132 26t-106.5 71t-71.5 106.5t-26 132.5q0 79 31 149.5t84.5 123.5t124 84.5t149.5 31.5q50 0 97 -13t87 -37.5t71.5 -60t49.5 -80.5l-113 -47q-25 60 -77 92t-121 32q-54 0 -101.5 -22t-83 -59.5
t-56 -86.5t-20.5 -103q0 -47 16 -88.5t45 -72.5t69 -48.5t88 -17.5q40 0 76 12.5t65.5 35.5t51 54.5t32.5 70.5h-231l15 105h355zM486 832q26 0 44 17t22 46h82q-5 -63 -47.5 -101t-105.5 -38q-31 0 -56.5 10t-43.5 28.5t-26.5 44t-6.5 56.5h82q-1 -29 14 -46t42 -17z" />
    <glyph glyph-name="Gcircumflex" unicode="&#x11c;" horiz-adv-x="789" 
d="M757 319q-11 -72 -41 -132.5t-77 -105t-108 -69t-133 -24.5q-71 0 -132 26t-106.5 71t-71.5 106.5t-26 132.5q0 79 31 149.5t84.5 123.5t124 84.5t149.5 31.5q50 0 97 -13t87 -37.5t71.5 -60t49.5 -80.5l-113 -47q-25 60 -77 92t-121 32q-54 0 -101.5 -22t-83 -59.5
t-56 -86.5t-20.5 -103q0 -47 16 -88.5t45 -72.5t69 -48.5t88 -17.5q40 0 76 12.5t65.5 35.5t51 54.5t32.5 70.5h-231l15 105h355zM320 755l132 143h90l89 -143h-103l-41 68l-60 -68h-107z" />
    <glyph glyph-name="Gcommaaccent" unicode="&#x122;" horiz-adv-x="789" 
d="M757 319q-11 -72 -41 -132.5t-77 -105t-108 -69t-133 -24.5q-71 0 -132 26t-106.5 71t-71.5 106.5t-26 132.5q0 79 31 149.5t84.5 123.5t124 84.5t149.5 31.5q50 0 97 -13t87 -37.5t71.5 -60t49.5 -80.5l-113 -47q-25 60 -77 92t-121 32q-54 0 -101.5 -22t-83 -59.5
t-56 -86.5t-20.5 -103q0 -47 16 -88.5t45 -72.5t69 -48.5t88 -17.5q40 0 76 12.5t65.5 35.5t51 54.5t32.5 70.5h-231l15 105h355zM367 -240h-65l46 73q-20 2 -33.5 16.5t-13.5 35.5q0 28 20 46.5t49 18.5q26 0 44.5 -17t18.5 -45q0 -15 -7 -30.5t-18 -33.5z" />
    <glyph glyph-name="Gcommaaccent.square" horiz-adv-x="789" 
d="M757 319q-11 -72 -41 -132.5t-77 -105t-108 -69t-133 -24.5q-71 0 -132 26t-106.5 71t-71.5 106.5t-26 132.5q0 79 31 149.5t84.5 123.5t124 84.5t149.5 31.5q50 0 97 -13t87 -37.5t71.5 -60t49.5 -80.5l-113 -47q-25 60 -77 92t-121 32q-54 0 -101.5 -22t-83 -59.5
t-56 -86.5t-20.5 -103q0 -47 16 -88.5t45 -72.5t69 -48.5t88 -17.5q40 0 76 12.5t65.5 35.5t51 54.5t32.5 70.5h-231l15 105h355zM322 -54h109l-17 -113q-7 -45 -33.5 -64.5t-66.5 -19.5q-11 0 -19 2l8 51q4 -1 9 -1q15 0 26 7t14 25l1 7h-47z" />
    <glyph glyph-name="Gdotaccent" unicode="&#x120;" horiz-adv-x="789" 
d="M757 319q-11 -72 -41 -132.5t-77 -105t-108 -69t-133 -24.5q-71 0 -132 26t-106.5 71t-71.5 106.5t-26 132.5q0 79 31 149.5t84.5 123.5t124 84.5t149.5 31.5q50 0 97 -13t87 -37.5t71.5 -60t49.5 -80.5l-113 -47q-25 60 -77 92t-121 32q-54 0 -101.5 -22t-83 -59.5
t-56 -86.5t-20.5 -103q0 -47 16 -88.5t45 -72.5t69 -48.5t88 -17.5q40 0 76 12.5t65.5 35.5t51 54.5t32.5 70.5h-231l15 105h355zM554 834q0 -29 -21 -49.5t-50 -20.5t-48 19.5t-19 47.5q0 29 21 49.5t50 20.5q28 0 47.5 -20t19.5 -47z" />
    <glyph glyph-name="Gdotaccent.square" horiz-adv-x="789" 
d="M757 319q-11 -72 -41 -132.5t-77 -105t-108 -69t-133 -24.5q-71 0 -132 26t-106.5 71t-71.5 106.5t-26 132.5q0 79 31 149.5t84.5 123.5t124 84.5t149.5 31.5q50 0 97 -13t87 -37.5t71.5 -60t49.5 -80.5l-113 -47q-25 60 -77 92t-121 32q-54 0 -101.5 -22t-83 -59.5
t-56 -86.5t-20.5 -103q0 -47 16 -88.5t45 -72.5t69 -48.5t88 -17.5q40 0 76 12.5t65.5 35.5t51 54.5t32.5 70.5h-231l15 105h355zM417 769l18 120h116l-18 -120h-116z" />
    <glyph glyph-name="Hbar" unicode="&#x126;" horiz-adv-x="762" 
d="M136 505h-74l15 100h74l15 95h120l-15 -95h328l15 95h120l-15 -95h74l-15 -100h-74l-75 -505h-120l45 303h-328l-45 -303h-120zM571 417l13 88h-328l-13 -88h328z" />
    <glyph glyph-name="Hcircumflex" unicode="&#x124;" horiz-adv-x="732" 
d="M151 700h120l-43 -283h328l43 283h120l-105 -700h-120l45 303h-328l-45 -303h-120zM286 755l132 143h90l89 -143h-103l-41 68l-60 -68h-107z" />
    <glyph glyph-name="Iacute" unicode="&#xcd;" horiz-adv-x="284" 
d="M271 700l-105 -700h-120l105 700h120zM165 755l116 143h130l-140 -143h-106z" />
    <glyph glyph-name="Ibreve" unicode="&#x12c;" horiz-adv-x="284" 
d="M271 700l-105 -700h-120l105 700h120zM230 832q26 0 44 17t22 46h82q-5 -63 -47.5 -101t-105.5 -38q-31 0 -56.5 10t-43.5 28.5t-26.5 44t-6.5 56.5h82q-1 -29 14 -46t42 -17z" />
    <glyph glyph-name="Icircumflex" unicode="&#xce;" horiz-adv-x="284" 
d="M271 700l-105 -700h-120l105 700h120zM62 755l132 143h90l89 -143h-103l-41 68l-60 -68h-107z" />
    <glyph glyph-name="Idieresis" unicode="&#xcf;" horiz-adv-x="284" 
d="M271 700l-105 -700h-120l105 700h120zM194 828q0 -26 -18.5 -44.5t-44.5 -18.5t-43.5 18t-17.5 43t19 43.5t45 18.5t43 -18t17 -42zM384 828q0 -26 -18.5 -44.5t-44.5 -18.5t-43.5 18t-17.5 43t18.5 43.5t44.5 18.5t43.5 -18t17.5 -42z" />
    <glyph glyph-name="Idieresis.square" horiz-adv-x="284" 
d="M271 700l-105 -700h-120l105 700h120zM70 768l17 116h108l-17 -116h-108zM263 768l17 116h108l-17 -116h-108z" />
    <glyph glyph-name="Idotaccent" unicode="&#x130;" horiz-adv-x="284" 
d="M271 700l-105 -700h-120l105 700h120zM297 834q0 -29 -21 -49.5t-50 -20.5t-48 19.5t-19 47.5q0 29 21 49.5t50 20.5q28 0 47.5 -20t19.5 -47z" />
    <glyph glyph-name="Idotaccent.square" horiz-adv-x="284" 
d="M271 700l-105 -700h-120l105 700h120zM162 769l18 120h116l-18 -120h-116z" />
    <glyph glyph-name="Igrave" unicode="&#xcc;" horiz-adv-x="284" 
d="M271 700l-105 -700h-120l105 700h120zM171 755l-99 143h123l74 -143h-98z" />
    <glyph glyph-name="Imacron" unicode="&#x12a;" horiz-adv-x="284" 
d="M271 700l-105 -700h-120l105 700h120zM73 772l12 77h288l-12 -77h-288z" />
    <glyph glyph-name="Iogonek" unicode="&#x12e;" horiz-adv-x="284" 
d="M271 700l-105 -700q-22 -7 -42 -17t-35 -22t-24 -27t-9 -32q0 -33 40 -33q26 0 48 13l-11 -74q-30 -14 -64 -14q-48 0 -75 23.5t-27 63.5q0 35 20 65.5t59 53.5l105 700h120z" />
    <glyph glyph-name="Itilde" unicode="&#x128;" horiz-adv-x="284" 
d="M271 700l-105 -700h-120l105 700h120zM52 765q3 61 33.5 90t74.5 29q25 0 42.5 -7.5t31 -16.5t25 -16.5t25.5 -7.5q18 0 28 12t12 32h72q-3 -62 -33.5 -90.5t-74.5 -28.5q-26 0 -43 7.5t-30.5 16.5t-25 16.5t-25.5 7.5q-19 0 -28.5 -12t-11.5 -32h-72z" />
    <glyph glyph-name="Jcircumflex" unicode="&#x134;" horiz-adv-x="517" 
d="M438 198q-7 -46 -25 -84.5t-47.5 -66.5t-68.5 -43.5t-88 -15.5q-78 0 -135 40.5t-75 119.5l106 46q11 -39 37 -66.5t71 -27.5q25 0 43.5 9t31.5 24.5t21 35.5t11 42l73 489h120zM305 755l132 143h90l89 -143h-103l-41 68l-60 -68h-107z" />
    <glyph glyph-name="Kcommaaccent" unicode="&#x136;" horiz-adv-x="644" 
d="M227 411l304 289h151l-343 -323l258 -377h-146l-199 300l-48 -45l-38 -255h-120l105 700h120zM285 -240h-65l46 73q-20 2 -33.5 16.5t-13.5 35.5q0 28 20 46.5t49 18.5q26 0 44.5 -17t18.5 -45q0 -15 -7 -30.5t-18 -33.5z" />
    <glyph glyph-name="Kcommaaccent.square" horiz-adv-x="644" 
d="M227 411l304 289h151l-343 -323l258 -377h-146l-199 300l-48 -45l-38 -255h-120l105 700h120zM241 -54h109l-17 -113q-7 -45 -33.5 -64.5t-66.5 -19.5q-11 0 -19 2l8 51q4 -1 9 -1q15 0 26 7t14 25l1 7h-47z" />
    <glyph glyph-name="Lacute" unicode="&#x139;" horiz-adv-x="469" 
d="M166 755l116 143h130l-140 -143h-106zM271 700l-88 -588h246l-17 -112h-366l105 700h120z" />
    <glyph glyph-name="Lcaron" unicode="&#x13d;" horiz-adv-x="469" 
d="M271 700l-88 -588h246l-17 -112h-366l105 700h120zM316 545l53 167h118l-72 -167h-99z" />
    <glyph glyph-name="Lcommaaccent" unicode="&#x13b;" horiz-adv-x="469" 
d="M271 700l-88 -588h246l-17 -112h-366l105 700h120zM211 -240h-65l46 73q-20 2 -33.5 16.5t-13.5 35.5q0 28 20 46.5t49 18.5q26 0 44.5 -17t18.5 -45q0 -15 -7 -30.5t-18 -33.5z" />
    <glyph glyph-name="Lcommaaccent.square" horiz-adv-x="469" 
d="M271 700l-88 -588h246l-17 -112h-366l105 700h120zM166 -54h109l-17 -113q-7 -45 -33.5 -64.5t-66.5 -19.5q-11 0 -19 2l8 51q4 -1 9 -1q15 0 26 7t14 25l1 7h-47z" />
    <glyph glyph-name="Ldot" unicode="&#x13f;" horiz-adv-x="469" 
d="M271 700l-88 -588h246l-17 -112h-366l105 700h120zM391 425q29 0 49 -21t20 -49q0 -30 -21.5 -51.5t-51.5 -21.5t-50 20.5t-20 49.5q0 30 22 51.5t52 21.5z" />
    <glyph glyph-name="Ldot.square" horiz-adv-x="469" 
d="M271 700l-88 -588h246l-17 -112h-366l105 700h120zM321 291l19 123h116l-19 -123h-116z" />
    <glyph glyph-name="Lslash" unicode="&#x141;" horiz-adv-x="484" 
d="M286 700l-44 -293l166 75l-16 -102l-165 -75l-29 -193h246l-17 -112h-366l37 247l-90 -41l15 102l90 41l53 351h120z" />
    <glyph glyph-name="Nacute" unicode="&#x143;" horiz-adv-x="774" 
d="M761 700l-105 -700h-115l-302 517l-77 -517h-116l105 700h120l296 -515l78 515h116zM416 755l116 143h130l-140 -143h-106z" />
    <glyph glyph-name="Ncaron" unicode="&#x147;" horiz-adv-x="774" 
d="M761 700l-105 -700h-115l-302 517l-77 -517h-116l105 700h120l296 -515l78 515h116zM646 898l-131 -143h-90l-90 143h103l41 -68l61 68h106z" />
    <glyph glyph-name="Ncommaaccent" unicode="&#x145;" horiz-adv-x="774" 
d="M761 700l-105 -700h-115l-302 517l-77 -517h-116l105 700h120l296 -515l78 515h116zM335 -240h-65l46 73q-20 2 -33.5 16.5t-13.5 35.5q0 28 20 46.5t49 18.5q26 0 44.5 -17t18.5 -45q0 -15 -7 -30.5t-18 -33.5z" />
    <glyph glyph-name="Ncommaaccent.square" horiz-adv-x="774" 
d="M761 700l-105 -700h-115l-302 517l-77 -517h-116l105 700h120l296 -515l78 515h116zM289 -54h109l-17 -113q-7 -45 -33.5 -64.5t-66.5 -19.5q-11 0 -19 2l8 51q4 -1 9 -1q15 0 26 7t14 25l1 7h-47z" />
    <glyph glyph-name="Ntilde" unicode="&#xd1;" horiz-adv-x="774" 
d="M761 700l-105 -700h-115l-302 517l-77 -517h-116l105 700h120l296 -515l78 515h116zM317 765q3 61 33.5 90t74.5 29q25 0 42.5 -7.5t31 -16.5t25 -16.5t25.5 -7.5q18 0 28 12t12 32h72q-3 -62 -33.5 -90.5t-74.5 -28.5q-26 0 -43 7.5t-30.5 16.5t-25 16.5t-25.5 7.5
q-19 0 -28.5 -12t-11.5 -32h-72z" />
    <glyph glyph-name="Eng" unicode="&#x14a;" horiz-adv-x="774" 
d="M761 700l-107 -713q-15 -100 -73.5 -154.5t-151.5 -54.5q-36 0 -58.5 6t-36.5 11l16 104q9 -4 24.5 -8t41.5 -4q48 0 80.5 30t41.5 86l-299 514l-77 -517h-116l105 700h120l296 -515l78 515h116z" />
    <glyph glyph-name="Oacute" unicode="&#xd3;" horiz-adv-x="818" 
d="M62 324q0 79 31.5 149.5t85 124t124.5 84.5t149 31q70 0 131.5 -26t107.5 -71.5t72.5 -107t26.5 -131.5q0 -79 -31.5 -149.5t-85 -124t-124.5 -84.5t-149 -31q-70 0 -131.5 26t-107.5 71.5t-72.5 106.5t-26.5 132zM667 372q0 47 -16.5 88t-46 71.5t-69.5 48t-88 17.5
q-53 0 -100.5 -22t-83.5 -59t-57 -85.5t-21 -101.5q0 -47 16.5 -88t46 -71.5t69.5 -48t88 -17.5q53 0 100.5 22t83.5 59t57 85.5t21 101.5zM414 755l116 143h130l-140 -143h-106z" />
    <glyph glyph-name="Obreve" unicode="&#x14e;" horiz-adv-x="818" 
d="M62 324q0 79 31.5 149.5t85 124t124.5 84.5t149 31q70 0 131.5 -26t107.5 -71.5t72.5 -107t26.5 -131.5q0 -79 -31.5 -149.5t-85 -124t-124.5 -84.5t-149 -31q-70 0 -131.5 26t-107.5 71.5t-72.5 106.5t-26.5 132zM667 372q0 47 -16.5 88t-46 71.5t-69.5 48t-88 17.5
q-53 0 -100.5 -22t-83.5 -59t-57 -85.5t-21 -101.5q0 -47 16.5 -88t46 -71.5t69.5 -48t88 -17.5q53 0 100.5 22t83.5 59t57 85.5t21 101.5zM493 832q26 0 44 17t22 46h82q-5 -63 -47.5 -101t-105.5 -38q-31 0 -56.5 10t-43.5 28.5t-26.5 44t-6.5 56.5h82q-1 -29 14 -46
t42 -17z" />
    <glyph glyph-name="Ocircumflex" unicode="&#xd4;" horiz-adv-x="818" 
d="M62 324q0 79 31.5 149.5t85 124t124.5 84.5t149 31q70 0 131.5 -26t107.5 -71.5t72.5 -107t26.5 -131.5q0 -79 -31.5 -149.5t-85 -124t-124.5 -84.5t-149 -31q-70 0 -131.5 26t-107.5 71.5t-72.5 106.5t-26.5 132zM667 372q0 47 -16.5 88t-46 71.5t-69.5 48t-88 17.5
q-53 0 -100.5 -22t-83.5 -59t-57 -85.5t-21 -101.5q0 -47 16.5 -88t46 -71.5t69.5 -48t88 -17.5q53 0 100.5 22t83.5 59t57 85.5t21 101.5zM324 755l132 143h90l89 -143h-103l-41 68l-60 -68h-107z" />
    <glyph glyph-name="Odieresis" unicode="&#xd6;" horiz-adv-x="818" 
d="M62 324q0 79 31.5 149.5t85 124t124.5 84.5t149 31q70 0 131.5 -26t107.5 -71.5t72.5 -107t26.5 -131.5q0 -79 -31.5 -149.5t-85 -124t-124.5 -84.5t-149 -31q-70 0 -131.5 26t-107.5 71.5t-72.5 106.5t-26.5 132zM667 372q0 47 -16.5 88t-46 71.5t-69.5 48t-88 17.5
q-53 0 -100.5 -22t-83.5 -59t-57 -85.5t-21 -101.5q0 -47 16.5 -88t46 -71.5t69.5 -48t88 -17.5q53 0 100.5 22t83.5 59t57 85.5t21 101.5zM453 828q0 -26 -18.5 -44.5t-44.5 -18.5t-43.5 18t-17.5 43t19 43.5t45 18.5t43 -18t17 -42zM643 828q0 -26 -18.5 -44.5
t-44.5 -18.5t-43.5 18t-17.5 43t18.5 43.5t44.5 18.5t43.5 -18t17.5 -42z" />
    <glyph glyph-name="Odieresis.square" horiz-adv-x="818" 
d="M62 324q0 79 31.5 149.5t85 124t124.5 84.5t149 31q70 0 131.5 -26t107.5 -71.5t72.5 -107t26.5 -131.5q0 -79 -31.5 -149.5t-85 -124t-124.5 -84.5t-149 -31q-70 0 -131.5 26t-107.5 71.5t-72.5 106.5t-26.5 132zM667 372q0 47 -16.5 88t-46 71.5t-69.5 48t-88 17.5
q-53 0 -100.5 -22t-83.5 -59t-57 -85.5t-21 -101.5q0 -47 16.5 -88t46 -71.5t69.5 -48t88 -17.5q53 0 100.5 22t83.5 59t57 85.5t21 101.5zM329 768l17 116h108l-17 -116h-108zM522 768l17 116h108l-17 -116h-108z" />
    <glyph glyph-name="Ograve" unicode="&#xd2;" horiz-adv-x="818" 
d="M62 324q0 79 31.5 149.5t85 124t124.5 84.5t149 31q70 0 131.5 -26t107.5 -71.5t72.5 -107t26.5 -131.5q0 -79 -31.5 -149.5t-85 -124t-124.5 -84.5t-149 -31q-70 0 -131.5 26t-107.5 71.5t-72.5 106.5t-26.5 132zM667 372q0 47 -16.5 88t-46 71.5t-69.5 48t-88 17.5
q-53 0 -100.5 -22t-83.5 -59t-57 -85.5t-21 -101.5q0 -47 16.5 -88t46 -71.5t69.5 -48t88 -17.5q53 0 100.5 22t83.5 59t57 85.5t21 101.5zM433 755l-99 143h123l74 -143h-98z" />
    <glyph glyph-name="Ohungarumlaut" unicode="&#x150;" horiz-adv-x="818" 
d="M62 324q0 79 31.5 149.5t85 124t124.5 84.5t149 31q70 0 131.5 -26t107.5 -71.5t72.5 -107t26.5 -131.5q0 -79 -31.5 -149.5t-85 -124t-124.5 -84.5t-149 -31q-70 0 -131.5 26t-107.5 71.5t-72.5 106.5t-26.5 132zM667 372q0 47 -16.5 88t-46 71.5t-69.5 48t-88 17.5
q-53 0 -100.5 -22t-83.5 -59t-57 -85.5t-21 -101.5q0 -47 16.5 -88t46 -71.5t69.5 -48t88 -17.5q53 0 100.5 22t83.5 59t57 85.5t21 101.5zM337 755l107 143h115l-125 -143h-97zM510 755l107 143h114l-125 -143h-96z" />
    <glyph glyph-name="Omacron" unicode="&#x14c;" horiz-adv-x="818" 
d="M62 324q0 79 31.5 149.5t85 124t124.5 84.5t149 31q70 0 131.5 -26t107.5 -71.5t72.5 -107t26.5 -131.5q0 -79 -31.5 -149.5t-85 -124t-124.5 -84.5t-149 -31q-70 0 -131.5 26t-107.5 71.5t-72.5 106.5t-26.5 132zM667 372q0 47 -16.5 88t-46 71.5t-69.5 48t-88 17.5
q-53 0 -100.5 -22t-83.5 -59t-57 -85.5t-21 -101.5q0 -47 16.5 -88t46 -71.5t69.5 -48t88 -17.5q53 0 100.5 22t83.5 59t57 85.5t21 101.5zM338 772l12 77h288l-12 -77h-288z" />
    <glyph glyph-name="Otilde" unicode="&#xd5;" horiz-adv-x="818" 
d="M62 324q0 79 31.5 149.5t85 124t124.5 84.5t149 31q70 0 131.5 -26t107.5 -71.5t72.5 -107t26.5 -131.5q0 -79 -31.5 -149.5t-85 -124t-124.5 -84.5t-149 -31q-70 0 -131.5 26t-107.5 71.5t-72.5 106.5t-26.5 132zM667 372q0 47 -16.5 88t-46 71.5t-69.5 48t-88 17.5
q-53 0 -100.5 -22t-83.5 -59t-57 -85.5t-21 -101.5q0 -47 16.5 -88t46 -71.5t69.5 -48t88 -17.5q53 0 100.5 22t83.5 59t57 85.5t21 101.5zM315 765q3 61 33.5 90t74.5 29q25 0 42.5 -7.5t31 -16.5t25 -16.5t25.5 -7.5q18 0 28 12t12 32h72q-3 -62 -33.5 -90.5t-74.5 -28.5
q-26 0 -43 7.5t-30.5 16.5t-25 16.5t-25.5 7.5q-19 0 -28.5 -12t-11.5 -32h-72z" />
    <glyph glyph-name="OE" unicode="&#x152;" horiz-adv-x="957" 
d="M62 311q0 81 32 152t86 123.5t126.5 83t153.5 30.5h517l-17 -109h-281l-26 -178h259l-16 -106h-259l-30 -198h283l-16 -109h-497q-68 0 -125.5 23.5t-99.5 65.5t-66 99t-24 123zM453 589q-54 0 -103 -21.5t-85.5 -58.5t-58 -86.5t-21.5 -104.5q0 -45 15 -83t41.5 -65.5
t63 -43t80.5 -15.5h104l71 478h-107z" />
    <glyph glyph-name="Racute" unicode="&#x154;" horiz-adv-x="605" 
d="M165 0h-119l105 700h210q100 0 159.5 -50.5t59.5 -143.5q0 -43 -14 -79t-39 -64.5t-60.5 -48t-77.5 -29.5l163 -285h-137l-152 277h-57zM221 378h100q30 0 55 8.5t44 24t29.5 37.5t10.5 50q0 45 -30 69.5t-80 24.5h-97zM295 755l116 143h130l-140 -143h-106z" />
    <glyph glyph-name="Rcaron" unicode="&#x158;" horiz-adv-x="605" 
d="M165 0h-119l105 700h210q100 0 159.5 -50.5t59.5 -143.5q0 -43 -14 -79t-39 -64.5t-60.5 -48t-77.5 -29.5l163 -285h-137l-152 277h-57zM221 378h100q30 0 55 8.5t44 24t29.5 37.5t10.5 50q0 45 -30 69.5t-80 24.5h-97zM546 898l-131 -143h-90l-90 143h103l41 -68l61 68
h106z" />
    <glyph glyph-name="Rcommaaccent" unicode="&#x156;" horiz-adv-x="605" 
d="M165 0h-119l105 700h210q100 0 159.5 -50.5t59.5 -143.5q0 -43 -14 -79t-39 -64.5t-60.5 -48t-77.5 -29.5l163 -285h-137l-152 277h-57zM221 378h100q30 0 55 8.5t44 24t29.5 37.5t10.5 50q0 45 -30 69.5t-80 24.5h-97zM273 -240h-65l46 73q-20 2 -33.5 16.5t-13.5 35.5
q0 28 20 46.5t49 18.5q26 0 44.5 -17t18.5 -45q0 -15 -7 -30.5t-18 -33.5z" />
    <glyph glyph-name="Rcommaaccent.square" horiz-adv-x="605" 
d="M165 0h-119l105 700h210q100 0 159.5 -50.5t59.5 -143.5q0 -43 -14 -79t-39 -64.5t-60.5 -48t-77.5 -29.5l163 -285h-137l-152 277h-57zM221 378h100q30 0 55 8.5t44 24t29.5 37.5t10.5 50q0 45 -30 69.5t-80 24.5h-97zM227 -54h109l-17 -113q-7 -45 -33.5 -64.5
t-66.5 -19.5q-11 0 -19 2l8 51q4 -1 9 -1q15 0 26 7t14 25l1 7h-47z" />
    <glyph glyph-name="Sacute" unicode="&#x15a;" horiz-adv-x="556" 
d="M326 601q-42 0 -69.5 -22.5t-27.5 -58.5q0 -53 71 -89l80 -41q133 -67 133 -183q0 -51 -19 -91.5t-52 -69t-77 -43.5t-93 -15q-44 0 -84 12t-72.5 35.5t-57 58t-37.5 79.5l108 46q17 -53 55 -85.5t92 -32.5q49 0 81 25t32 70q0 55 -76 93l-82 41q-124 62 -124 182
q0 43 17 80t46.5 64t69.5 42t87 15q79 0 138 -43.5t86 -119.5l-105 -48q-16 42 -45.5 70.5t-74.5 28.5zM291 755l116 143h130l-140 -143h-106z" />
    <glyph glyph-name="Scaron" unicode="&#x160;" horiz-adv-x="556" 
d="M326 601q-42 0 -69.5 -22.5t-27.5 -58.5q0 -53 71 -89l80 -41q133 -67 133 -183q0 -51 -19 -91.5t-52 -69t-77 -43.5t-93 -15q-44 0 -84 12t-72.5 35.5t-57 58t-37.5 79.5l108 46q17 -53 55 -85.5t92 -32.5q49 0 81 25t32 70q0 55 -76 93l-82 41q-124 62 -124 182
q0 43 17 80t46.5 64t69.5 42t87 15q79 0 138 -43.5t86 -119.5l-105 -48q-16 42 -45.5 70.5t-74.5 28.5zM524 898l-131 -143h-90l-90 143h103l41 -68l61 68h106z" />
    <glyph glyph-name="Scedilla" unicode="&#x15e;" horiz-adv-x="556" 
d="M347 -128q0 -42 -30.5 -69.5t-75.5 -27.5q-42 0 -68.5 24t-28.5 59h70q1 -8 9 -16t22 -8q15 0 25 9.5t10 23.5q0 13 -8.5 21.5t-22.5 8.5q-9 0 -17 -4t-13 -9l-57 38l48 73q-68 14 -118 59t-71 119l108 46q17 -53 55 -85.5t92 -32.5q49 0 81 25t32 70q0 55 -76 93l-82 41
q-124 62 -124 182q0 43 17 80t46.5 64t69.5 42t87 15q79 0 138 -43.5t86 -119.5l-105 -48q-16 42 -45.5 70.5t-74.5 28.5q-42 0 -69.5 -22.5t-27.5 -58.5q0 -53 71 -89l80 -41q133 -67 133 -183q0 -50 -18.5 -90t-50.5 -68.5t-75 -44t-92 -16.5l-28 -37q6 2 16 2
q37 0 59.5 -23t22.5 -58z" />
    <glyph glyph-name="Scircumflex" unicode="&#x15c;" horiz-adv-x="556" 
d="M326 601q-42 0 -69.5 -22.5t-27.5 -58.5q0 -53 71 -89l80 -41q133 -67 133 -183q0 -51 -19 -91.5t-52 -69t-77 -43.5t-93 -15q-44 0 -84 12t-72.5 35.5t-57 58t-37.5 79.5l108 46q17 -53 55 -85.5t92 -32.5q49 0 81 25t32 70q0 55 -76 93l-82 41q-124 62 -124 182
q0 43 17 80t46.5 64t69.5 42t87 15q79 0 138 -43.5t86 -119.5l-105 -48q-16 42 -45.5 70.5t-74.5 28.5zM192 755l132 143h90l89 -143h-103l-41 68l-60 -68h-107z" />
    <glyph glyph-name="Scommaaccent" unicode="&#x218;" horiz-adv-x="556" 
d="M326 601q-42 0 -69.5 -22.5t-27.5 -58.5q0 -53 71 -89l80 -41q133 -67 133 -183q0 -51 -19 -91.5t-52 -69t-77 -43.5t-93 -15q-44 0 -84 12t-72.5 35.5t-57 58t-37.5 79.5l108 46q17 -53 55 -85.5t92 -32.5q49 0 81 25t32 70q0 55 -76 93l-82 41q-124 62 -124 182
q0 43 17 80t46.5 64t69.5 42t87 15q79 0 138 -43.5t86 -119.5l-105 -48q-16 42 -45.5 70.5t-74.5 28.5zM237 -240h-65l46 73q-20 2 -33.5 16.5t-13.5 35.5q0 28 20 46.5t49 18.5q26 0 44.5 -17t18.5 -45q0 -15 -7 -30.5t-18 -33.5z" />
    <glyph glyph-name="Scommaaccent.square" horiz-adv-x="556" 
d="M326 601q-42 0 -69.5 -22.5t-27.5 -58.5q0 -53 71 -89l80 -41q133 -67 133 -183q0 -51 -19 -91.5t-52 -69t-77 -43.5t-93 -15q-44 0 -84 12t-72.5 35.5t-57 58t-37.5 79.5l108 46q17 -53 55 -85.5t92 -32.5q49 0 81 25t32 70q0 55 -76 93l-82 41q-124 62 -124 182
q0 43 17 80t46.5 64t69.5 42t87 15q79 0 138 -43.5t86 -119.5l-105 -48q-16 42 -45.5 70.5t-74.5 28.5zM193 -54h109l-17 -113q-7 -45 -33.5 -64.5t-66.5 -19.5q-11 0 -19 2l8 51q4 -1 9 -1q15 0 26 7t14 25l1 7h-47z" />
    <glyph glyph-name="Tbar" unicode="&#x166;" horiz-adv-x="547" 
d="M88 700h509l-17 -111h-194l-28 -186h118l-15 -105h-119l-44 -298h-121l44 298h-117l15 105h118l28 186h-194z" />
    <glyph glyph-name="Tcaron" unicode="&#x164;" horiz-adv-x="547" 
d="M88 700h509l-17 -111h-194l-88 -589h-121l88 589h-194zM527 898l-131 -143h-90l-90 143h103l41 -68l61 68h106z" />
    <glyph glyph-name="Tcommaaccent" unicode="&#x162;" horiz-adv-x="547" 
d="M88 700h509l-17 -111h-194l-88 -589h-121l88 589h-194zM223 -240h-65l46 73q-20 2 -33.5 16.5t-13.5 35.5q0 28 20 46.5t49 18.5q26 0 44.5 -17t18.5 -45q0 -15 -7 -30.5t-18 -33.5z" />
    <glyph glyph-name="Tcommaaccent.square" horiz-adv-x="547" 
d="M88 700h509l-17 -111h-194l-88 -589h-121l88 589h-194zM175 -54h109l-17 -113q-7 -45 -33.5 -64.5t-66.5 -19.5q-11 0 -19 2l8 51q4 -1 9 -1q15 0 26 7t14 25l1 7h-47z" />
    <glyph glyph-name="Uacute" unicode="&#xda;" horiz-adv-x="694" 
d="M200 285q-12 -81 20 -131t107 -50q37 0 68 13t54 37t38 57.5t21 73.5l62 415h120l-63 -422q-10 -67 -35.5 -120.5t-64.5 -91t-91 -58t-116 -20.5q-68 0 -118 21.5t-80.5 60t-41.5 92.5t-1 119l63 419h120zM355 755l116 143h130l-140 -143h-106z" />
    <glyph glyph-name="Ubreve" unicode="&#x16c;" horiz-adv-x="694" 
d="M200 285q-12 -81 20 -131t107 -50q37 0 68 13t54 37t38 57.5t21 73.5l62 415h120l-63 -422q-10 -67 -35.5 -120.5t-64.5 -91t-91 -58t-116 -20.5q-68 0 -118 21.5t-80.5 60t-41.5 92.5t-1 119l63 419h120zM433 832q26 0 44 17t22 46h82q-5 -63 -47.5 -101t-105.5 -38
q-31 0 -56.5 10t-43.5 28.5t-26.5 44t-6.5 56.5h82q-1 -29 14 -46t42 -17z" />
    <glyph glyph-name="Ucircumflex" unicode="&#xdb;" horiz-adv-x="694" 
d="M200 285q-12 -81 20 -131t107 -50q37 0 68 13t54 37t38 57.5t21 73.5l62 415h120l-63 -422q-10 -67 -35.5 -120.5t-64.5 -91t-91 -58t-116 -20.5q-68 0 -118 21.5t-80.5 60t-41.5 92.5t-1 119l63 419h120zM267 755l132 143h90l89 -143h-103l-41 68l-60 -68h-107z" />
    <glyph glyph-name="Udieresis" unicode="&#xdc;" horiz-adv-x="694" 
d="M200 285q-12 -81 20 -131t107 -50q37 0 68 13t54 37t38 57.5t21 73.5l62 415h120l-63 -422q-10 -67 -35.5 -120.5t-64.5 -91t-91 -58t-116 -20.5q-68 0 -118 21.5t-80.5 60t-41.5 92.5t-1 119l63 419h120zM397 828q0 -26 -18.5 -44.5t-44.5 -18.5t-43.5 18t-17.5 43
t19 43.5t45 18.5t43 -18t17 -42zM587 828q0 -26 -18.5 -44.5t-44.5 -18.5t-43.5 18t-17.5 43t18.5 43.5t44.5 18.5t43.5 -18t17.5 -42z" />
    <glyph glyph-name="Udieresis.square" horiz-adv-x="694" 
d="M200 285q-12 -81 20 -131t107 -50q37 0 68 13t54 37t38 57.5t21 73.5l62 415h120l-63 -422q-10 -67 -35.5 -120.5t-64.5 -91t-91 -58t-116 -20.5q-68 0 -118 21.5t-80.5 60t-41.5 92.5t-1 119l63 419h120zM273 768l17 116h108l-17 -116h-108zM466 768l17 116h108
l-17 -116h-108z" />
    <glyph glyph-name="Ugrave" unicode="&#xd9;" horiz-adv-x="694" 
d="M200 285q-12 -81 20 -131t107 -50q37 0 68 13t54 37t38 57.5t21 73.5l62 415h120l-63 -422q-10 -67 -35.5 -120.5t-64.5 -91t-91 -58t-116 -20.5q-68 0 -118 21.5t-80.5 60t-41.5 92.5t-1 119l63 419h120zM389 755l-99 143h123l74 -143h-98z" />
    <glyph glyph-name="Uhungarumlaut" unicode="&#x170;" horiz-adv-x="694" 
d="M200 285q-12 -81 20 -131t107 -50q37 0 68 13t54 37t38 57.5t21 73.5l62 415h120l-63 -422q-10 -67 -35.5 -120.5t-64.5 -91t-91 -58t-116 -20.5q-68 0 -118 21.5t-80.5 60t-41.5 92.5t-1 119l63 419h120zM272 755l107 143h115l-125 -143h-97zM445 755l107 143h114
l-125 -143h-96z" />
    <glyph glyph-name="Umacron" unicode="&#x16a;" horiz-adv-x="694" 
d="M200 285q-12 -81 20 -131t107 -50q37 0 68 13t54 37t38 57.5t21 73.5l62 415h120l-63 -422q-10 -67 -35.5 -120.5t-64.5 -91t-91 -58t-116 -20.5q-68 0 -118 21.5t-80.5 60t-41.5 92.5t-1 119l63 419h120zM280 772l12 77h288l-12 -77h-288z" />
    <glyph glyph-name="Uogonek" unicode="&#x172;" horiz-adv-x="694" 
d="M262 700l-62 -415q-12 -81 20 -131t107 -50q37 0 68 13t54 37t38 57.5t21 73.5l62 415h120l-63 -422q-16 -108 -70 -178.5t-142 -99.5q-22 -8 -41.5 -18.5t-34.5 -23.5t-23.5 -27t-8.5 -29q0 -33 41 -33q25 0 47 13l-11 -74q-30 -14 -64 -14q-48 0 -75 23.5t-27 63.5
q0 64 74 109q-62 4 -106 27t-71 61t-36 89.5t0 113.5l63 419h120z" />
    <glyph glyph-name="Uring" unicode="&#x16e;" horiz-adv-x="694" 
d="M200 285q-12 -81 20 -131t107 -50q37 0 68 13t54 37t38 57.5t21 73.5l62 415h120l-63 -422q-10 -67 -35.5 -120.5t-64.5 -91t-91 -58t-116 -20.5q-68 0 -118 21.5t-80.5 60t-41.5 92.5t-1 119l63 419h120zM535 837q0 -22 -8.5 -40.5t-23 -32t-34 -21.5t-41.5 -8
q-41 0 -69.5 27t-28.5 68q0 21 8.5 39.5t23 32t34 21.5t41.5 8q41 0 69.5 -26.5t28.5 -67.5zM470 835q0 14 -10.5 25t-25.5 11q-14 0 -26.5 -11t-12.5 -28q0 -15 10.5 -26t25.5 -11t27 11.5t12 28.5z" />
    <glyph glyph-name="Utilde" unicode="&#x168;" horiz-adv-x="694" 
d="M200 285q-12 -81 20 -131t107 -50q37 0 68 13t54 37t38 57.5t21 73.5l62 415h120l-63 -422q-10 -67 -35.5 -120.5t-64.5 -91t-91 -58t-116 -20.5q-68 0 -118 21.5t-80.5 60t-41.5 92.5t-1 119l63 419h120zM261 765q3 61 33.5 90t74.5 29q25 0 42.5 -7.5t31 -16.5
t25 -16.5t25.5 -7.5q18 0 28 12t12 32h72q-3 -62 -33.5 -90.5t-74.5 -28.5q-26 0 -43 7.5t-30.5 16.5t-25 16.5t-25.5 7.5q-19 0 -28.5 -12t-11.5 -32h-72z" />
    <glyph glyph-name="Wacute" unicode="&#x1e82;" horiz-adv-x="1010" 
d="M213 0l-133 700h121l86 -499l242 499h88l91 -499l237 499h125l-344 -700h-90l-92 500l-241 -500h-90zM530 755l116 143h130l-140 -143h-106z" />
    <glyph glyph-name="Wcircumflex" unicode="&#x174;" horiz-adv-x="1010" 
d="M213 0l-133 700h121l86 -499l242 499h88l91 -499l237 499h125l-344 -700h-90l-92 500l-241 -500h-90zM427 755l132 143h90l89 -143h-103l-41 68l-60 -68h-107z" />
    <glyph glyph-name="Wdieresis" unicode="&#x1e84;" horiz-adv-x="1010" 
d="M213 0l-133 700h121l86 -499l242 499h88l91 -499l237 499h125l-344 -700h-90l-92 500l-241 -500h-90zM558 828q0 -26 -18.5 -44.5t-44.5 -18.5t-43.5 18t-17.5 43t19 43.5t45 18.5t43 -18t17 -42zM748 828q0 -26 -18.5 -44.5t-44.5 -18.5t-43.5 18t-17.5 43t18.5 43.5
t44.5 18.5t43.5 -18t17.5 -42z" />
    <glyph glyph-name="Wdieresis.square" horiz-adv-x="1010" 
d="M213 0l-133 700h121l86 -499l242 499h88l91 -499l237 499h125l-344 -700h-90l-92 500l-241 -500h-90zM433 768l17 116h108l-17 -116h-108zM626 768l17 116h108l-17 -116h-108z" />
    <glyph glyph-name="Wgrave" unicode="&#x1e80;" horiz-adv-x="1010" 
d="M213 0l-133 700h121l86 -499l242 499h88l91 -499l237 499h125l-344 -700h-90l-92 500l-241 -500h-90zM535 755l-99 143h123l74 -143h-98z" />
    <glyph glyph-name="Yacute" unicode="&#xdd;" horiz-adv-x="638" 
d="M345 0h-120l46 308l-194 392h133l134 -281l218 281h140l-311 -392zM340 755l116 143h130l-140 -143h-106z" />
    <glyph glyph-name="Ycircumflex" unicode="&#x176;" horiz-adv-x="638" 
d="M345 0h-120l46 308l-194 392h133l134 -281l218 281h140l-311 -392zM242 755l132 143h90l89 -143h-103l-41 68l-60 -68h-107z" />
    <glyph glyph-name="Ydieresis" unicode="&#x178;" horiz-adv-x="638" 
d="M345 0h-120l46 308l-194 392h133l134 -281l218 281h140l-311 -392zM370 828q0 -26 -18.5 -44.5t-44.5 -18.5t-43.5 18t-17.5 43t19 43.5t45 18.5t43 -18t17 -42zM560 828q0 -26 -18.5 -44.5t-44.5 -18.5t-43.5 18t-17.5 43t18.5 43.5t44.5 18.5t43.5 -18t17.5 -42z" />
    <glyph glyph-name="Ydieresis.square" horiz-adv-x="638" 
d="M345 0h-120l46 308l-194 392h133l134 -281l218 281h140l-311 -392zM245 768l17 116h108l-17 -116h-108zM438 768l17 116h108l-17 -116h-108z" />
    <glyph glyph-name="Ygrave" unicode="&#x1ef2;" horiz-adv-x="638" 
d="M345 0h-120l46 308l-194 392h133l134 -281l218 281h140l-311 -392zM354 755l-99 143h123l74 -143h-98z" />
    <glyph glyph-name="IJ" unicode="&#x132;" horiz-adv-x="782" 
d="M271 700l-105 -700h-120l105 700h120zM703 198q-7 -46 -25 -84.5t-47.5 -66.5t-68.5 -43.5t-88 -15.5q-78 0 -135 40.5t-75 119.5l106 46q11 -39 37 -66.5t71 -27.5q25 0 43.5 9t31.5 24.5t21 35.5t11 42l73 489h120z" />
    <glyph glyph-name="Zacute" unicode="&#x179;" horiz-adv-x="611" 
d="M179 108h379l-16 -108h-546l12 80l452 512h-352l17 108h518l-12 -80zM330 755l116 143h130l-140 -143h-106z" />
    <glyph glyph-name="Zcaron" unicode="&#x17d;" horiz-adv-x="611" 
d="M179 108h379l-16 -108h-546l12 80l452 512h-352l17 108h518l-12 -80zM578 898l-131 -143h-90l-90 143h103l41 -68l61 68h106z" />
    <glyph glyph-name="Zdotaccent" unicode="&#x17b;" horiz-adv-x="611" 
d="M179 108h379l-16 -108h-546l12 80l452 512h-352l17 108h518l-12 -80zM482 834q0 -29 -21 -49.5t-50 -20.5t-48 19.5t-19 47.5q0 29 21 49.5t50 20.5q28 0 47.5 -20t19.5 -47z" />
    <glyph glyph-name="Zdotaccent.square" horiz-adv-x="611" 
d="M179 108h379l-16 -108h-546l12 80l452 512h-352l17 108h518l-12 -80zM346 769l18 120h116l-18 -120h-116z" />
    <glyph glyph-name="Thorn" unicode="&#xde;" horiz-adv-x="575" 
d="M46 0l105 700h120l-20 -132h94q51 0 92 -13t70.5 -37.5t45.5 -61t16 -82.5q0 -54 -20.5 -97t-56 -73.5t-84 -46.5t-105.5 -16h-116l-21 -141h-120zM203 248h106q60 0 100 32t40 87q0 45 -29.5 69t-79.5 24h-105z" />
    <glyph glyph-name="a" unicode="a" horiz-adv-x="633" 
d="M258 -12q-47 0 -87 18t-69 49.5t-45.5 75t-16.5 93.5q0 56 20 106.5t55 88.5t83 60.5t104 22.5q55 0 99.5 -22t70.5 -61l11 71h114l-73 -490h-114l10 67q-26 -36 -68 -57.5t-94 -21.5zM292 93q33 0 62 13.5t50.5 36t34.5 53t13 65.5q0 30 -10.5 55t-28.5 43t-42.5 28
t-53.5 10q-33 0 -62.5 -13.5t-51 -36t-34.5 -52t-13 -62.5q0 -30 10.5 -55.5t28.5 -44.5t43 -29.5t54 -10.5z" />
    <glyph glyph-name="b" unicode="b" horiz-adv-x="632" 
d="M375 502q47 0 87 -18t69 -49.5t45.5 -75t16.5 -93.5q0 -56 -20 -106.5t-55 -88.5t-83 -60.5t-104 -22.5q-55 0 -99.5 22t-70.5 61l-11 -71h-114l105 700h114l-42 -277q26 36 68 57.5t94 21.5zM341 397q-33 0 -62 -13.5t-50.5 -36t-34.5 -53.5t-13 -65q0 -30 10.5 -55
t28.5 -43t42.5 -28t53.5 -10q33 0 62.5 13t51 35.5t34.5 52.5t13 63q0 30 -10.5 55.5t-28.5 44.5t-43 29.5t-54 10.5z" />
    <glyph glyph-name="c" unicode="c" horiz-adv-x="472" 
d="M40 223q0 59 21 110t58 88.5t87.5 59t108.5 21.5q39 0 78 -11.5t70 -34.5l-17 -110q-27 23 -59 36.5t-68 13.5q-34 0 -63.5 -13t-51.5 -35.5t-34.5 -52.5t-12.5 -64q0 -29 10.5 -54t29 -43.5t43.5 -29t54 -10.5q32 0 62.5 10.5t59.5 26.5l-17 -115q-56 -28 -117 -28
q-51 0 -95 17t-77 48t-51.5 74.5t-18.5 95.5z" />
    <glyph glyph-name="d" unicode="d" horiz-adv-x="633" 
d="M258 -12q-47 0 -87 18t-69 49.5t-45.5 75t-16.5 93.5q0 56 20 106.5t55 88.5t83 60.5t104 22.5q55 0 99.5 -22t70.5 -61l42 281h115l-105 -700h-114l10 67q-26 -36 -68 -57.5t-94 -21.5zM292 93q33 0 62 13.5t50.5 36t34.5 53t13 65.5q0 30 -10.5 55t-28.5 43t-42.5 28
t-53.5 10q-33 0 -62.5 -13.5t-51 -36t-34.5 -52t-13 -62.5q0 -30 10.5 -55.5t28.5 -44.5t43 -29.5t54 -10.5z" />
    <glyph glyph-name="e" unicode="e" horiz-adv-x="566" 
d="M277 -12q-51 0 -94 16.5t-75 46.5t-50 72.5t-18 95.5q0 57 20 108.5t56 90t85 61.5t107 23q52 0 94 -17.5t72 -48.5t46 -73.5t16 -93.5q0 -12 -2 -28.5t-6 -30.5h-376q0 -28 11.5 -51t29.5 -39t41.5 -25t49.5 -9q45 0 73.5 20t51.5 52l93 -45q-35 -58 -94 -91.5
t-131 -33.5zM303 407q-20 0 -41.5 -6.5t-41 -20t-35.5 -35t-23 -51.5h263q-1 25 -11 46t-26.5 36t-38.5 23t-46 8z" />
    <glyph glyph-name="f" unicode="f" horiz-adv-x="363" 
d="M60 490h72l7 42q13 88 66 137t135 49q23 0 47 -4t40 -12l-16 -100q-28 14 -63 14q-39 0 -63 -24t-31 -67l-6 -35h133l-15 -98h-132l-59 -392h-116l59 392h-73z" />
    <glyph glyph-name="g" unicode="g" horiz-adv-x="624" 
d="M289 105q31 0 59.5 13t49.5 34.5t33.5 50.5t12.5 62q0 29 -10 53.5t-27.5 42t-41 27.5t-51.5 10q-32 0 -60.5 -13t-50 -35t-34 -50.5t-12.5 -59.5q0 -29 10 -54t28 -43t42 -28t52 -10zM414 77q-26 -32 -67.5 -52t-92.5 -20q-46 0 -85.5 17t-68 47.5t-44.5 72t-16 89.5
q0 54 19.5 103.5t54 86.5t82 59t102.5 22q54 0 97.5 -22t69.5 -60l10 70h114l-70 -473q-8 -54 -30 -99t-56.5 -76.5t-82 -49t-106.5 -17.5q-79 0 -142.5 36t-91.5 105l98 50q18 -43 55 -66.5t85 -23.5q35 0 62 11.5t47 32.5t32.5 49.5t17.5 62.5z" />
    <glyph glyph-name="h" unicode="h" horiz-adv-x="594" 
d="M152 0h-116l105 700h116l-41 -274q27 35 66.5 55.5t90.5 20.5q46 0 79.5 -16t54.5 -44.5t28 -68.5t0 -88l-43 -285h-116l41 275q8 58 -15 89t-77 31q-52 0 -88 -38t-46 -101z" />
    <glyph glyph-name="i" unicode="i" horiz-adv-x="261" 
d="M36 0l73 490h116l-73 -490h-116zM188 705q29 0 49 -21t20 -49q0 -30 -21.5 -51.5t-51.5 -21.5t-50 20.5t-20 49.5q0 30 22 51.5t52 21.5z" />
    <glyph glyph-name="j" unicode="j" horiz-adv-x="264" 
d="M149 -38q-13 -86 -59 -135t-123 -49q-42 0 -77 16l15 99q20 -11 46 -11q35 0 56.5 23.5t27.5 65.5l77 519h116zM191 705q29 0 49 -21t20 -49q0 -30 -21.5 -51.5t-51.5 -21.5t-50 20.5t-20 49.5q0 30 22 51.5t52 21.5z" />
    <glyph glyph-name="k" unicode="k" horiz-adv-x="536" 
d="M197 309l208 181h145l-245 -213l188 -277h-137l-143 218l-34 -28l-28 -190h-115l105 700h115z" />
    <glyph glyph-name="l" unicode="l" horiz-adv-x="261" 
d="M257 700l-105 -700h-116l105 700h116z" />
    <glyph glyph-name="m" unicode="m" horiz-adv-x="885" 
d="M782 0h-116l42 280q8 54 -12 85t-67 31q-46 0 -79.5 -35.5t-42.5 -95.5l-40 -265h-116l41 275q8 57 -11.5 89t-67.5 32q-47 0 -80 -37t-42 -100l-39 -259h-116l73 490h116l-9 -64q25 36 61.5 56t84.5 20q52 0 86 -24t49 -67q10 15 26 31t38 29.5t49.5 22t61.5 8.5
q44 0 76 -15t52 -43t26.5 -66.5t-0.5 -85.5z" />
    <glyph glyph-name="n" unicode="n" horiz-adv-x="594" 
d="M152 0h-116l73 490h116l-9 -64q27 35 66.5 55.5t90.5 20.5q46 0 79.5 -16t54.5 -44.5t28 -68.5t0 -88l-43 -285h-116l41 275q8 58 -15 89t-77 31q-52 0 -88 -38t-46 -101z" />
    <glyph glyph-name="o" unicode="o" horiz-adv-x="602" 
d="M318 502q52 0 96.5 -18t77.5 -49.5t52 -75t19 -94.5q0 -57 -21.5 -107.5t-59 -88t-88.5 -59.5t-109 -22q-52 0 -97 18t-78 49.5t-51.5 75t-18.5 94.5q0 57 21.5 107.5t59 88t88 59.5t109.5 22zM313 396q-32 0 -60.5 -12.5t-50 -34.5t-34.5 -52.5t-13 -65.5
q0 -29 10 -53.5t28 -43.5t42.5 -29.5t53.5 -10.5q31 0 60 12.5t51 35t35 52.5t13 65q0 28 -10 53t-28 44t-43 29.5t-54 10.5z" />
    <glyph glyph-name="p" unicode="p" horiz-adv-x="633" 
d="M376 502q47 0 87 -18t69 -49.5t45.5 -75t16.5 -93.5q0 -56 -20 -106.5t-55 -88.5t-83 -60.5t-104 -22.5q-55 0 -99.5 22t-70.5 61l-42 -279h-115l105 698h114l-10 -67q26 36 68 57.5t94 21.5zM342 397q-33 0 -62 -13.5t-50.5 -36t-34.5 -53.5t-13 -65q0 -30 10.5 -55
t28.5 -43t42.5 -28t53.5 -10q33 0 62.5 13t51 35.5t34.5 52.5t13 63q0 30 -10.5 55.5t-28.5 44.5t-43 29.5t-54 10.5z" />
    <glyph glyph-name="q" unicode="q" horiz-adv-x="632" 
d="M258 -12q-47 0 -87 18t-69 49.5t-45.5 75t-16.5 93.5q0 56 20 106.5t55 88.5t83 60.5t104 22.5q55 0 99.5 -22t70.5 -61l11 71h114l-105 -698h-114l42 275q-26 -36 -68 -57.5t-94 -21.5zM292 93q33 0 62 13.5t50.5 36t34.5 53t13 65.5q0 30 -10.5 55t-28.5 43t-42.5 28
t-53.5 10q-33 0 -62.5 -13.5t-51 -36t-34.5 -52t-13 -62.5q0 -30 10.5 -55.5t28.5 -44.5t43 -29.5t54 -10.5z" />
    <glyph glyph-name="r" unicode="r" horiz-adv-x="379" 
d="M375 380q-2 1 -9 2t-17 1q-64 0 -109 -44t-57 -123l-32 -216h-115l74 490h114l-13 -84q23 44 65 69t88 25q12 0 19.5 -1.5t9.5 -1.5z" />
    <glyph glyph-name="s" unicode="s" horiz-adv-x="427" 
d="M109 167q9 -36 33.5 -58t61.5 -22q28 0 47 14t19 40q0 30 -50 51l-55 23q-54 23 -79 56.5t-25 75.5q0 36 14 64.5t38 49t55 31t65 10.5q62 0 110 -31.5t67 -90.5l-97 -40q-8 27 -29 46.5t-53 19.5q-24 0 -41.5 -12.5t-17.5 -34.5q0 -29 47 -49l55 -23q57 -24 82.5 -58
t25.5 -75q0 -39 -15.5 -69.5t-41 -52t-58.5 -33t-69 -11.5q-33 0 -64 9t-56.5 26.5t-43 43.5t-24.5 60z" />
    <glyph glyph-name="t" unicode="t" horiz-adv-x="368" 
d="M197 173q-12 -79 62 -79q15 0 30 3t29 11l-15 -104q-17 -7 -37.5 -11.5t-47.5 -4.5q-77 0 -113 46t-25 122l35 236h-73l15 98h73l21 145h115l-21 -145h130l-15 -98h-130z" />
    <glyph glyph-name="u" unicode="u" horiz-adv-x="592" 
d="M441 490h116l-74 -490h-116l9 64q-27 -35 -65.5 -55.5t-89.5 -20.5q-45 0 -78.5 16t-53.5 45.5t-27 69.5t0 88l42 283h116l-41 -275q-8 -58 14.5 -89t75.5 -31q52 0 87.5 38t45.5 101z" />
    <glyph glyph-name="v" unicode="v" horiz-adv-x="534" 
d="M52 490h121l80 -340l183 340h122l-275 -490h-102z" />
    <glyph glyph-name="w" unicode="w" horiz-adv-x="808" 
d="M484 0l-66 331l-165 -331h-93l-105 490h116l62 -332l165 332h85l65 -332l163 332h118l-251 -490h-94z" />
    <glyph glyph-name="x" unicode="x" horiz-adv-x="529" 
d="M256 167l-143 -167h-133l221 253l-138 237h129l88 -158l133 158h134l-211 -243l143 -247h-129z" />
    <glyph glyph-name="y" unicode="y" horiz-adv-x="542" 
d="M253 -65q-24 -43 -47 -73t-47 -48.5t-49.5 -27t-55.5 -8.5q-25 0 -42.5 5.5t-28.5 13.5l13 95q11 -5 23 -8t26 -3q30 0 54 18t47 59l29 52l-123 480h120l82 -353l190 353h122z" />
    <glyph glyph-name="z" unicode="z" horiz-adv-x="469" 
d="M465 419l-305 -322h260l-14 -97h-416l11 73l303 320h-239l14 97h396z" />
    <glyph glyph-name="a.alt" horiz-adv-x="533" 
d="M429 0h-108l9 58q-27 -33 -67.5 -51.5t-88.5 -18.5q-67 0 -106 36t-39 99q0 69 49.5 111.5t144.5 54.5l140 18l2 14q5 36 -16.5 61t-64.5 25q-69 0 -103 -72l-100 34q26 63 81 98t127 35q45 0 82.5 -13t63 -38.5t36.5 -62.5t4 -85zM144 131q0 -23 17.5 -36.5t49.5 -13.5
q25 0 48 8.5t41 23.5t30.5 35t15.5 44l4 27l-113 -15q-44 -6 -68.5 -25t-24.5 -48z" />
    <glyph glyph-name="t.alt" horiz-adv-x="324" 
d="M63 0l59 392h-83l15 98h83l21 145h116l-21 -145h95l-15 -98h-95l-59 -392h-116z" />
    <glyph glyph-name="u.alt" horiz-adv-x="570" 
d="M258 -12q-106 0 -158 61.5t-36 168.5l40 272h116l-40 -272q-9 -58 13.5 -90.5t73.5 -32.5q47 0 78 33t39 90l41 272h116l-42 -281q-16 -105 -79.5 -163t-161.5 -58z" />
    <glyph glyph-name="ae" unicode="&#xe6;" horiz-adv-x="864" 
d="M585 -12q-61 0 -109.5 25.5t-78.5 73.5q-37 -53 -90.5 -76t-113.5 -23q-75 0 -119.5 36t-44.5 99q0 69 49.5 111.5t144.5 54.5l140 18l2 14q5 36 -16.5 61t-64.5 25q-69 0 -103 -72l-100 34q26 63 80.5 98t126.5 35q52 0 92 -18.5t63 -54.5q33 34 76.5 53.5t93.5 19.5
t91 -17.5t70 -48.5t44.5 -73.5t15.5 -93.5q0 -12 -2 -28.5t-6 -30.5h-361q0 -28 11 -51t28.5 -39t40.5 -25t47 -9q41 0 68 20t47 52l93 -45q-33 -58 -89.5 -91.5t-125.5 -33.5zM608 407q-18 0 -38.5 -6.5t-39 -20t-33.5 -35t-22 -51.5h248q-1 25 -10.5 46t-25 36t-36 23
t-43.5 8zM144 131q0 -23 17.5 -36.5t49.5 -13.5q25 0 48 8.5t41 23.5t30.5 35t15.5 44l4 27l-113 -15q-44 -6 -68.5 -25t-24.5 -48z" />
    <glyph glyph-name="aeacute" unicode="&#x1fd;" horiz-adv-x="864" 
d="M585 -12q-61 0 -109.5 25.5t-78.5 73.5q-37 -53 -90.5 -76t-113.5 -23q-75 0 -119.5 36t-44.5 99q0 69 49.5 111.5t144.5 54.5l140 18l2 14q5 36 -16.5 61t-64.5 25q-69 0 -103 -72l-100 34q26 63 80.5 98t126.5 35q52 0 92 -18.5t63 -54.5q33 34 76.5 53.5t93.5 19.5
t91 -17.5t70 -48.5t44.5 -73.5t15.5 -93.5q0 -12 -2 -28.5t-6 -30.5h-361q0 -28 11 -51t28.5 -39t40.5 -25t47 -9q41 0 68 20t47 52l93 -45q-33 -58 -89.5 -91.5t-125.5 -33.5zM608 407q-18 0 -38.5 -6.5t-39 -20t-33.5 -35t-22 -51.5h248q-1 25 -10.5 46t-25 36t-36 23
t-43.5 8zM144 131q0 -23 17.5 -36.5t49.5 -13.5q25 0 48 8.5t41 23.5t30.5 35t15.5 44l4 27l-113 -15q-44 -6 -68.5 -25t-24.5 -48zM439 575l116 143h130l-140 -143h-106z" />
    <glyph glyph-name="oslash" unicode="&#xf8;" horiz-adv-x="602" 
d="M318 502q45 0 84 -13.5t71 -37.5l63 56l52 -59l-62 -55q17 -28 27 -60t10 -68q0 -57 -21.5 -107.5t-59 -88t-88.5 -59.5t-109 -22q-45 0 -84.5 13t-70.5 37l-63 -56l-52 59l62 55q-37 57 -37 129q0 57 21.5 107.5t59 88t88 59.5t109.5 22zM313 400q-32 0 -61 -13
t-51.5 -35.5t-35.5 -53.5t-13 -67q0 -30 11 -57l227 203q-16 11 -35.5 17t-41.5 6zM451 259q0 29 -11 56l-227 -203q33 -22 76 -22q31 0 60.5 13t52 36t36 53.5t13.5 66.5z" />
    <glyph glyph-name="oslashacute" unicode="&#x1ff;" horiz-adv-x="602" 
d="M318 502q45 0 84 -13.5t71 -37.5l63 56l52 -59l-62 -55q17 -28 27 -60t10 -68q0 -57 -21.5 -107.5t-59 -88t-88.5 -59.5t-109 -22q-45 0 -84.5 13t-70.5 37l-63 -56l-52 59l62 55q-37 57 -37 129q0 57 21.5 107.5t59 88t88 59.5t109.5 22zM313 400q-32 0 -61 -13
t-51.5 -35.5t-35.5 -53.5t-13 -67q0 -30 11 -57l227 203q-16 11 -35.5 17t-41.5 6zM451 259q0 29 -11 56l-227 -203q33 -22 76 -22q31 0 60.5 13t52 36t36 53.5t13.5 66.5zM285 575l116 143h130l-140 -143h-106z" />
    <glyph glyph-name="aring" unicode="&#xe5;" horiz-adv-x="633" 
d="M258 -12q-47 0 -87 18t-69 49.5t-45.5 75t-16.5 93.5q0 56 20 106.5t55 88.5t83 60.5t104 22.5q55 0 99.5 -22t70.5 -61l11 71h114l-73 -490h-114l10 67q-26 -36 -68 -57.5t-94 -21.5zM292 93q33 0 62 13.5t50.5 36t34.5 53t13 65.5q0 30 -10.5 55t-28.5 43t-42.5 28
t-53.5 10q-33 0 -62.5 -13.5t-51 -36t-34.5 -52t-13 -62.5q0 -30 10.5 -55.5t28.5 -44.5t43 -29.5t54 -10.5zM467 657q0 -22 -8.5 -40.5t-23 -32t-34 -21.5t-41.5 -8q-41 0 -69.5 27t-28.5 68q0 21 8.5 39.5t23 32t34 21.5t41.5 8q41 0 69.5 -26.5t28.5 -67.5zM402 655
q0 14 -10.5 25t-25.5 11q-14 0 -26.5 -11t-12.5 -28q0 -15 10.5 -26t25.5 -11t27 11.5t12 28.5z" />
    <glyph glyph-name="aacute" unicode="&#xe1;" horiz-adv-x="633" 
d="M258 -12q-47 0 -87 18t-69 49.5t-45.5 75t-16.5 93.5q0 56 20 106.5t55 88.5t83 60.5t104 22.5q55 0 99.5 -22t70.5 -61l11 71h114l-73 -490h-114l10 67q-26 -36 -68 -57.5t-94 -21.5zM292 93q33 0 62 13.5t50.5 36t34.5 53t13 65.5q0 30 -10.5 55t-28.5 43t-42.5 28
t-53.5 10q-33 0 -62.5 -13.5t-51 -36t-34.5 -52t-13 -62.5q0 -30 10.5 -55.5t28.5 -44.5t43 -29.5t54 -10.5zM292 575l116 143h130l-140 -143h-106z" />
    <glyph glyph-name="abreve" unicode="&#x103;" horiz-adv-x="633" 
d="M258 -12q-47 0 -87 18t-69 49.5t-45.5 75t-16.5 93.5q0 56 20 106.5t55 88.5t83 60.5t104 22.5q55 0 99.5 -22t70.5 -61l11 71h114l-73 -490h-114l10 67q-26 -36 -68 -57.5t-94 -21.5zM292 93q33 0 62 13.5t50.5 36t34.5 53t13 65.5q0 30 -10.5 55t-28.5 43t-42.5 28
t-53.5 10q-33 0 -62.5 -13.5t-51 -36t-34.5 -52t-13 -62.5q0 -30 10.5 -55.5t28.5 -44.5t43 -29.5t54 -10.5zM364 650q26 0 44 17t22 46h82q-5 -63 -47.5 -101t-105.5 -38q-31 0 -56.5 10t-43.5 28.5t-26.5 44t-6.5 56.5h82q-1 -29 14 -46t42 -17z" />
    <glyph glyph-name="acircumflex" unicode="&#xe2;" horiz-adv-x="633" 
d="M258 -12q-47 0 -87 18t-69 49.5t-45.5 75t-16.5 93.5q0 56 20 106.5t55 88.5t83 60.5t104 22.5q55 0 99.5 -22t70.5 -61l11 71h114l-73 -490h-114l10 67q-26 -36 -68 -57.5t-94 -21.5zM292 93q33 0 62 13.5t50.5 36t34.5 53t13 65.5q0 30 -10.5 55t-28.5 43t-42.5 28
t-53.5 10q-33 0 -62.5 -13.5t-51 -36t-34.5 -52t-13 -62.5q0 -30 10.5 -55.5t28.5 -44.5t43 -29.5t54 -10.5zM198 575l132 143h90l89 -143h-103l-41 68l-60 -68h-107z" />
    <glyph glyph-name="adieresis" unicode="&#xe4;" horiz-adv-x="633" 
d="M258 -12q-47 0 -87 18t-69 49.5t-45.5 75t-16.5 93.5q0 56 20 106.5t55 88.5t83 60.5t104 22.5q55 0 99.5 -22t70.5 -61l11 71h114l-73 -490h-114l10 67q-26 -36 -68 -57.5t-94 -21.5zM292 93q33 0 62 13.5t50.5 36t34.5 53t13 65.5q0 30 -10.5 55t-28.5 43t-42.5 28
t-53.5 10q-33 0 -62.5 -13.5t-51 -36t-34.5 -52t-13 -62.5q0 -30 10.5 -55.5t28.5 -44.5t43 -29.5t54 -10.5zM328 634q0 -26 -18.5 -44.5t-44.5 -18.5t-43.5 18t-17.5 43q0 26 19 44.5t45 18.5t43 -18t17 -43zM518 634q0 -26 -18.5 -44.5t-44.5 -18.5t-43.5 18t-17.5 43
q0 26 18.5 44.5t44.5 18.5t43.5 -18t17.5 -43z" />
    <glyph glyph-name="adieresis.square" horiz-adv-x="633" 
d="M258 -12q-47 0 -87 18t-69 49.5t-45.5 75t-16.5 93.5q0 56 20 106.5t55 88.5t83 60.5t104 22.5q55 0 99.5 -22t70.5 -61l11 71h114l-73 -490h-114l10 67q-26 -36 -68 -57.5t-94 -21.5zM292 93q33 0 62 13.5t50.5 36t34.5 53t13 65.5q0 30 -10.5 55t-28.5 43t-42.5 28
t-53.5 10q-33 0 -62.5 -13.5t-51 -36t-34.5 -52t-13 -62.5q0 -30 10.5 -55.5t28.5 -44.5t43 -29.5t54 -10.5zM205 576l17 117h108l-17 -117h-108zM398 576l17 117h108l-17 -117h-108z" />
    <glyph glyph-name="agrave" unicode="&#xe0;" horiz-adv-x="633" 
d="M258 -12q-47 0 -87 18t-69 49.5t-45.5 75t-16.5 93.5q0 56 20 106.5t55 88.5t83 60.5t104 22.5q55 0 99.5 -22t70.5 -61l11 71h114l-73 -490h-114l10 67q-26 -36 -68 -57.5t-94 -21.5zM292 93q33 0 62 13.5t50.5 36t34.5 53t13 65.5q0 30 -10.5 55t-28.5 43t-42.5 28
t-53.5 10q-33 0 -62.5 -13.5t-51 -36t-34.5 -52t-13 -62.5q0 -30 10.5 -55.5t28.5 -44.5t43 -29.5t54 -10.5zM329 575l-99 143h123l74 -143h-98z" />
    <glyph glyph-name="amacron" unicode="&#x101;" horiz-adv-x="633" 
d="M258 -12q-47 0 -87 18t-69 49.5t-45.5 75t-16.5 93.5q0 56 20 106.5t55 88.5t83 60.5t104 22.5q55 0 99.5 -22t70.5 -61l11 71h114l-73 -490h-114l10 67q-26 -36 -68 -57.5t-94 -21.5zM292 93q33 0 62 13.5t50.5 36t34.5 53t13 65.5q0 30 -10.5 55t-28.5 43t-42.5 28
t-53.5 10q-33 0 -62.5 -13.5t-51 -36t-34.5 -52t-13 -62.5q0 -30 10.5 -55.5t28.5 -44.5t43 -29.5t54 -10.5zM215 591l12 77h288l-12 -77h-288z" />
    <glyph glyph-name="aogonek" unicode="&#x105;" horiz-adv-x="633" 
d="M258 -12q-47 0 -87 18t-69 49.5t-45.5 75t-16.5 93.5q0 56 20 106.5t55 88.5t83 60.5t104 22.5q55 0 99.5 -22t70.5 -61l11 71h114l-73 -490q-27 -6 -50 -16.5t-40 -23.5t-26.5 -28t-9.5 -30q0 -17 11 -25t31 -8q25 0 47 13l-11 -74q-28 -14 -63 -14q-49 0 -76 23.5
t-27 63.5q0 37 26 68t74 52l10 66q-26 -36 -68 -57.5t-94 -21.5zM292 93q33 0 62 13.5t50.5 36t34.5 53t13 65.5q0 30 -10.5 55t-28.5 43t-42.5 28t-53.5 10q-33 0 -62.5 -13.5t-51 -36t-34.5 -52t-13 -62.5q0 -30 10.5 -55.5t28.5 -44.5t43 -29.5t54 -10.5z" />
    <glyph glyph-name="atilde" unicode="&#xe3;" horiz-adv-x="633" 
d="M258 -12q-47 0 -87 18t-69 49.5t-45.5 75t-16.5 93.5q0 56 20 106.5t55 88.5t83 60.5t104 22.5q55 0 99.5 -22t70.5 -61l11 71h114l-73 -490h-114l10 67q-26 -36 -68 -57.5t-94 -21.5zM292 93q33 0 62 13.5t50.5 36t34.5 53t13 65.5q0 30 -10.5 55t-28.5 43t-42.5 28
t-53.5 10q-33 0 -62.5 -13.5t-51 -36t-34.5 -52t-13 -62.5q0 -30 10.5 -55.5t28.5 -44.5t43 -29.5t54 -10.5zM199 583q3 61 33.5 90t74.5 29q25 0 42.5 -7.5t31 -16.5t25 -16.5t25.5 -7.5q18 0 28 12t12 32h72q-3 -62 -33.5 -90.5t-74.5 -28.5q-26 0 -43 7.5t-30.5 16.5
t-25 16.5t-25.5 7.5q-19 0 -28.5 -12t-11.5 -32h-72z" />
    <glyph glyph-name="cacute" unicode="&#x107;" horiz-adv-x="472" 
d="M40 223q0 59 21 110t58 88.5t87.5 59t108.5 21.5q39 0 78 -11.5t70 -34.5l-17 -110q-27 23 -59 36.5t-68 13.5q-34 0 -63.5 -13t-51.5 -35.5t-34.5 -52.5t-12.5 -64q0 -29 10.5 -54t29 -43.5t43.5 -29t54 -10.5q32 0 62.5 10.5t59.5 26.5l-17 -115q-56 -28 -117 -28
q-51 0 -95 17t-77 48t-51.5 74.5t-18.5 95.5zM268 575l116 143h130l-140 -143h-106z" />
    <glyph glyph-name="ccaron" unicode="&#x10d;" horiz-adv-x="472" 
d="M40 223q0 59 21 110t58 88.5t87.5 59t108.5 21.5q39 0 78 -11.5t70 -34.5l-17 -110q-27 23 -59 36.5t-68 13.5q-34 0 -63.5 -13t-51.5 -35.5t-34.5 -52.5t-12.5 -64q0 -29 10.5 -54t29 -43.5t43.5 -29t54 -10.5q32 0 62.5 10.5t59.5 26.5l-17 -115q-56 -28 -117 -28
q-51 0 -95 17t-77 48t-51.5 74.5t-18.5 95.5zM518 718l-131 -143h-90l-90 143h103l41 -68l61 68h106z" />
    <glyph glyph-name="ccedilla" unicode="&#xe7;" horiz-adv-x="472" 
d="M330 -128q0 -42 -30.5 -69.5t-75.5 -27.5q-42 0 -68.5 24t-28.5 59h70q1 -8 9 -16t22 -8q15 0 25 9.5t10 23.5q0 13 -8.5 21.5t-22.5 8.5q-9 0 -17 -4t-13 -9l-57 38l52 79q-70 23 -113.5 81.5t-43.5 140.5q0 59 21 110t58 88.5t87.5 59t108.5 21.5q39 0 78 -11.5
t70 -34.5l-17 -110q-27 23 -59 36.5t-68 13.5q-34 0 -63.5 -13t-51.5 -35.5t-34.5 -52.5t-12.5 -64q0 -29 10.5 -54t29 -43.5t43.5 -29t54 -10.5q32 0 62.5 10.5t59.5 26.5l-17 -115q-56 -28 -117 -28h-9t-12 1l-29 -38q6 2 16 2q37 0 59.5 -23t22.5 -58z" />
    <glyph glyph-name="ccircumflex" unicode="&#x109;" horiz-adv-x="472" 
d="M40 223q0 59 21 110t58 88.5t87.5 59t108.5 21.5q39 0 78 -11.5t70 -34.5l-17 -110q-27 23 -59 36.5t-68 13.5q-34 0 -63.5 -13t-51.5 -35.5t-34.5 -52.5t-12.5 -64q0 -29 10.5 -54t29 -43.5t43.5 -29t54 -10.5q32 0 62.5 10.5t59.5 26.5l-17 -115q-56 -28 -117 -28
q-51 0 -95 17t-77 48t-51.5 74.5t-18.5 95.5zM183 575l132 143h90l89 -143h-103l-41 68l-60 -68h-107z" />
    <glyph glyph-name="cdotaccent" unicode="&#x10b;" horiz-adv-x="472" 
d="M40 223q0 59 21 110t58 88.5t87.5 59t108.5 21.5q39 0 78 -11.5t70 -34.5l-17 -110q-27 23 -59 36.5t-68 13.5q-34 0 -63.5 -13t-51.5 -35.5t-34.5 -52.5t-12.5 -64q0 -29 10.5 -54t29 -43.5t43.5 -29t54 -10.5q32 0 62.5 10.5t59.5 26.5l-17 -115q-56 -28 -117 -28
q-51 0 -95 17t-77 48t-51.5 74.5t-18.5 95.5zM357 705q29 0 49 -21t20 -49q0 -30 -21.5 -51.5t-51.5 -21.5t-50 20.5t-20 49.5q0 30 22 51.5t52 21.5z" />
    <glyph glyph-name="cdotaccent.square" horiz-adv-x="472" 
d="M40 223q0 59 21 110t58 88.5t87.5 59t108.5 21.5q39 0 78 -11.5t70 -34.5l-17 -110q-27 23 -59 36.5t-68 13.5q-34 0 -63.5 -13t-51.5 -35.5t-34.5 -52.5t-12.5 -64q0 -29 10.5 -54t29 -43.5t43.5 -29t54 -10.5q32 0 62.5 10.5t59.5 26.5l-17 -115q-56 -28 -117 -28
q-51 0 -95 17t-77 48t-51.5 74.5t-18.5 95.5zM288 571l19 123h116l-19 -123h-116z" />
    <glyph glyph-name="dcaron" unicode="&#x10f;" horiz-adv-x="633" 
d="M258 -12q-47 0 -87 18t-69 49.5t-45.5 75t-16.5 93.5q0 56 20 106.5t55 88.5t83 60.5t104 22.5q55 0 99.5 -22t70.5 -61l42 281h115l-105 -700h-114l10 67q-26 -36 -68 -57.5t-94 -21.5zM292 93q33 0 62 13.5t50.5 36t34.5 53t13 65.5q0 30 -10.5 55t-28.5 43t-42.5 28
t-53.5 10q-33 0 -62.5 -13.5t-51 -36t-34.5 -52t-13 -62.5q0 -30 10.5 -55.5t28.5 -44.5t43 -29.5t54 -10.5zM646 545l53 167h118l-72 -167h-99z" />
    <glyph glyph-name="dcroat" unicode="&#x111;" horiz-adv-x="638" 
d="M522 0h-114l10 67q-26 -36 -68 -57.5t-94 -21.5q-47 0 -86.5 18t-68.5 49t-45 73.5t-16 92.5q0 55 20 104.5t54.5 87t82 59.5t103.5 22q55 0 99.5 -21t70.5 -58l20 135h-205l12 79h204l11 71h115l-11 -71h66l-12 -79h-65zM290 93q33 0 62 13t50.5 35.5t34.5 52.5t13 64
q0 29 -10.5 53.5t-28.5 42t-42.5 27.5t-53.5 10q-33 0 -61.5 -13t-50.5 -35t-34.5 -51t-12.5 -62q0 -29 10 -54t28 -43.5t42.5 -29t53.5 -10.5z" />
    <glyph glyph-name="eth" unicode="&#xf0;" horiz-adv-x="603" 
d="M430 603l27 -41q42 -65 74 -136.5t32 -148.5q0 -59 -19.5 -111.5t-55.5 -92t-86.5 -62.5t-112.5 -23q-53 0 -98.5 17.5t-78.5 48.5t-52 74.5t-19 94.5q0 52 19 98t52.5 81t78.5 55.5t97 20.5q29 0 61 -7t55 -24q-18 32 -36 61l-36 58l-135 -51l-35 64l130 49
q-12 19 -27.5 42t-38.5 56h125l39 -61l123 47l35 -65zM290 93q33 0 61 13t49 35t33 50.5t12 59.5q0 28 -9.5 52t-27 42t-41.5 28t-54 10q-33 0 -61.5 -12.5t-49.5 -34t-33 -50t-12 -60.5q0 -27 9.5 -51.5t27 -42.5t42 -28.5t54.5 -10.5z" />
    <glyph glyph-name="eacute" unicode="&#xe9;" horiz-adv-x="566" 
d="M277 -12q-51 0 -94 16.5t-75 46.5t-50 72.5t-18 95.5q0 57 20 108.5t56 90t85 61.5t107 23q52 0 94 -17.5t72 -48.5t46 -73.5t16 -93.5q0 -12 -2 -28.5t-6 -30.5h-376q0 -28 11.5 -51t29.5 -39t41.5 -25t49.5 -9q45 0 73.5 20t51.5 52l93 -45q-35 -58 -94 -91.5
t-131 -33.5zM303 407q-20 0 -41.5 -6.5t-41 -20t-35.5 -35t-23 -51.5h263q-1 25 -11 46t-26.5 36t-38.5 23t-46 8zM277 575l116 143h130l-140 -143h-106z" />
    <glyph glyph-name="ebreve" unicode="&#x115;" horiz-adv-x="566" 
d="M277 -12q-51 0 -94 16.5t-75 46.5t-50 72.5t-18 95.5q0 57 20 108.5t56 90t85 61.5t107 23q52 0 94 -17.5t72 -48.5t46 -73.5t16 -93.5q0 -12 -2 -28.5t-6 -30.5h-376q0 -28 11.5 -51t29.5 -39t41.5 -25t49.5 -9q45 0 73.5 20t51.5 52l93 -45q-35 -58 -94 -91.5
t-131 -33.5zM349 650q26 0 44 17t22 46h82q-5 -63 -47.5 -101t-105.5 -38q-31 0 -56.5 10t-43.5 28.5t-26.5 44t-6.5 56.5h82q-1 -29 14 -46t42 -17zM303 407q-20 0 -41.5 -6.5t-41 -20t-35.5 -35t-23 -51.5h263q-1 25 -11 46t-26.5 36t-38.5 23t-46 8z" />
    <glyph glyph-name="ecaron" unicode="&#x11b;" horiz-adv-x="566" 
d="M277 -12q-51 0 -94 16.5t-75 46.5t-50 72.5t-18 95.5q0 57 20 108.5t56 90t85 61.5t107 23q52 0 94 -17.5t72 -48.5t46 -73.5t16 -93.5q0 -12 -2 -28.5t-6 -30.5h-376q0 -28 11.5 -51t29.5 -39t41.5 -25t49.5 -9q45 0 73.5 20t51.5 52l93 -45q-35 -58 -94 -91.5
t-131 -33.5zM511 718l-131 -143h-90l-90 143h103l41 -68l61 68h106zM303 407q-20 0 -41.5 -6.5t-41 -20t-35.5 -35t-23 -51.5h263q-1 25 -11 46t-26.5 36t-38.5 23t-46 8z" />
    <glyph glyph-name="ecircumflex" unicode="&#xea;" horiz-adv-x="566" 
d="M277 -12q-51 0 -94 16.5t-75 46.5t-50 72.5t-18 95.5q0 57 20 108.5t56 90t85 61.5t107 23q52 0 94 -17.5t72 -48.5t46 -73.5t16 -93.5q0 -12 -2 -28.5t-6 -30.5h-376q0 -28 11.5 -51t29.5 -39t41.5 -25t49.5 -9q45 0 73.5 20t51.5 52l93 -45q-35 -58 -94 -91.5
t-131 -33.5zM177 575l132 143h90l89 -143h-103l-41 68l-60 -68h-107zM303 407q-20 0 -41.5 -6.5t-41 -20t-35.5 -35t-23 -51.5h263q-1 25 -11 46t-26.5 36t-38.5 23t-46 8z" />
    <glyph glyph-name="edieresis" unicode="&#xeb;" horiz-adv-x="566" 
d="M277 -12q-51 0 -94 16.5t-75 46.5t-50 72.5t-18 95.5q0 57 20 108.5t56 90t85 61.5t107 23q52 0 94 -17.5t72 -48.5t46 -73.5t16 -93.5q0 -12 -2 -28.5t-6 -30.5h-376q0 -28 11.5 -51t29.5 -39t41.5 -25t49.5 -9q45 0 73.5 20t51.5 52l93 -45q-35 -58 -94 -91.5
t-131 -33.5zM303 407q-20 0 -41.5 -6.5t-41 -20t-35.5 -35t-23 -51.5h263q-1 25 -11 46t-26.5 36t-38.5 23t-46 8zM307 634q0 -26 -18.5 -44.5t-44.5 -18.5t-43.5 18t-17.5 43q0 26 19 44.5t45 18.5t43 -18t17 -43zM497 634q0 -26 -18.5 -44.5t-44.5 -18.5t-43.5 18
t-17.5 43q0 26 18.5 44.5t44.5 18.5t43.5 -18t17.5 -43z" />
    <glyph glyph-name="edieresis.square" horiz-adv-x="566" 
d="M277 -12q-51 0 -94 16.5t-75 46.5t-50 72.5t-18 95.5q0 57 20 108.5t56 90t85 61.5t107 23q52 0 94 -17.5t72 -48.5t46 -73.5t16 -93.5q0 -12 -2 -28.5t-6 -30.5h-376q0 -28 11.5 -51t29.5 -39t41.5 -25t49.5 -9q45 0 73.5 20t51.5 52l93 -45q-35 -58 -94 -91.5
t-131 -33.5zM303 407q-20 0 -41.5 -6.5t-41 -20t-35.5 -35t-23 -51.5h263q-1 25 -11 46t-26.5 36t-38.5 23t-46 8zM183 576l17 117h108l-17 -117h-108zM376 576l17 117h108l-17 -117h-108z" />
    <glyph glyph-name="edotaccent" unicode="&#x117;" horiz-adv-x="566" 
d="M277 -12q-51 0 -94 16.5t-75 46.5t-50 72.5t-18 95.5q0 57 20 108.5t56 90t85 61.5t107 23q52 0 94 -17.5t72 -48.5t46 -73.5t16 -93.5q0 -12 -2 -28.5t-6 -30.5h-376q0 -28 11.5 -51t29.5 -39t41.5 -25t49.5 -9q45 0 73.5 20t51.5 52l93 -45q-35 -58 -94 -91.5
t-131 -33.5zM303 407q-20 0 -41.5 -6.5t-41 -20t-35.5 -35t-23 -51.5h263q-1 25 -11 46t-26.5 36t-38.5 23t-46 8zM344 705q29 0 49 -21t20 -49q0 -30 -21.5 -51.5t-51.5 -21.5t-50 20.5t-20 49.5q0 30 22 51.5t52 21.5z" />
    <glyph glyph-name="edotaccent.square" horiz-adv-x="566" 
d="M277 -12q-51 0 -94 16.5t-75 46.5t-50 72.5t-18 95.5q0 57 20 108.5t56 90t85 61.5t107 23q52 0 94 -17.5t72 -48.5t46 -73.5t16 -93.5q0 -12 -2 -28.5t-6 -30.5h-376q0 -28 11.5 -51t29.5 -39t41.5 -25t49.5 -9q45 0 73.5 20t51.5 52l93 -45q-35 -58 -94 -91.5
t-131 -33.5zM303 407q-20 0 -41.5 -6.5t-41 -20t-35.5 -35t-23 -51.5h263q-1 25 -11 46t-26.5 36t-38.5 23t-46 8zM275 571l19 123h116l-19 -123h-116z" />
    <glyph glyph-name="egrave" unicode="&#xe8;" horiz-adv-x="566" 
d="M277 -12q-51 0 -94 16.5t-75 46.5t-50 72.5t-18 95.5q0 57 20 108.5t56 90t85 61.5t107 23q52 0 94 -17.5t72 -48.5t46 -73.5t16 -93.5q0 -12 -2 -28.5t-6 -30.5h-376q0 -28 11.5 -51t29.5 -39t41.5 -25t49.5 -9q45 0 73.5 20t51.5 52l93 -45q-35 -58 -94 -91.5
t-131 -33.5zM303 407q-20 0 -41.5 -6.5t-41 -20t-35.5 -35t-23 -51.5h263q-1 25 -11 46t-26.5 36t-38.5 23t-46 8zM300 575l-99 143h123l74 -143h-98z" />
    <glyph glyph-name="emacron" unicode="&#x113;" horiz-adv-x="566" 
d="M277 -12q-51 0 -94 16.5t-75 46.5t-50 72.5t-18 95.5q0 57 20 108.5t56 90t85 61.5t107 23q52 0 94 -17.5t72 -48.5t46 -73.5t16 -93.5q0 -12 -2 -28.5t-6 -30.5h-376q0 -28 11.5 -51t29.5 -39t41.5 -25t49.5 -9q45 0 73.5 20t51.5 52l93 -45q-35 -58 -94 -91.5
t-131 -33.5zM303 407q-20 0 -41.5 -6.5t-41 -20t-35.5 -35t-23 -51.5h263q-1 25 -11 46t-26.5 36t-38.5 23t-46 8zM190 590l12 77h288l-12 -77h-288z" />
    <glyph glyph-name="eogonek" unicode="&#x119;" horiz-adv-x="566" 
d="M280 -12q-51 0 -95 16.5t-76.5 46.5t-50.5 72.5t-18 95.5q0 57 20 108.5t56 90t85 61.5t107 23q52 0 94 -17.5t72 -48.5t46 -73.5t16 -93.5q0 -12 -2 -28.5t-6 -30.5h-376q0 -28 11.5 -51t29.5 -39t42 -25t50 -9q45 0 73.5 20t50.5 52l93 -45q-17 -30 -42.5 -53
t-54.5 -42q-38 -25 -63.5 -54t-25.5 -61q0 -34 40 -34q25 0 47 13l-11 -74q-30 -14 -66 -14q-47 0 -73 23t-26 62q0 33 16.5 61t42.5 48h-6zM303 407q-20 0 -41.5 -6.5t-41 -20t-35.5 -35t-23 -51.5h263q-1 25 -11 46t-26.5 36t-38.5 23t-46 8z" />
    <glyph glyph-name="gbreve" unicode="&#x11f;" horiz-adv-x="624" 
d="M362 650q26 0 44 17t22 46h82q-5 -63 -47.5 -101t-105.5 -38q-31 0 -56.5 10t-43.5 28.5t-26.5 44t-6.5 56.5h82q-1 -29 14 -46t42 -17zM289 105q31 0 59.5 13t49.5 34.5t33.5 50.5t12.5 62q0 29 -10 53.5t-27.5 42t-41 27.5t-51.5 10q-32 0 -60.5 -13t-50 -35t-34 -50.5
t-12.5 -59.5q0 -29 10 -54t28 -43t42 -28t52 -10zM414 77q-26 -32 -67.5 -52t-92.5 -20q-46 0 -85.5 17t-68 47.5t-44.5 72t-16 89.5q0 54 19.5 103.5t54 86.5t82 59t102.5 22q54 0 97.5 -22t69.5 -60l10 70h114l-70 -473q-8 -54 -30 -99t-56.5 -76.5t-82 -49t-106.5 -17.5
q-79 0 -142.5 36t-91.5 105l98 50q18 -43 55 -66.5t85 -23.5q35 0 62 11.5t47 32.5t32.5 49.5t17.5 62.5z" />
    <glyph glyph-name="gcircumflex" unicode="&#x11d;" horiz-adv-x="624" 
d="M193 575l132 143h90l89 -143h-103l-41 68l-60 -68h-107zM289 105q31 0 59.5 13t49.5 34.5t33.5 50.5t12.5 62q0 29 -10 53.5t-27.5 42t-41 27.5t-51.5 10q-32 0 -60.5 -13t-50 -35t-34 -50.5t-12.5 -59.5q0 -29 10 -54t28 -43t42 -28t52 -10zM414 77q-26 -32 -67.5 -52
t-92.5 -20q-46 0 -85.5 17t-68 47.5t-44.5 72t-16 89.5q0 54 19.5 103.5t54 86.5t82 59t102.5 22q54 0 97.5 -22t69.5 -60l10 70h114l-70 -473q-8 -54 -30 -99t-56.5 -76.5t-82 -49t-106.5 -17.5q-79 0 -142.5 36t-91.5 105l98 50q18 -43 55 -66.5t85 -23.5q35 0 62 11.5
t47 32.5t32.5 49.5t17.5 62.5z" />
    <glyph glyph-name="gcommaaccent" unicode="&#x123;" horiz-adv-x="624" 
d="M289 105q31 0 59.5 13t49.5 34.5t33.5 50.5t12.5 62q0 29 -10 53.5t-27.5 42t-41 27.5t-51.5 10q-32 0 -60.5 -13t-50 -35t-34 -50.5t-12.5 -59.5q0 -29 10 -54t28 -43t42 -28t52 -10zM414 77q-26 -32 -67.5 -52t-92.5 -20q-46 0 -85.5 17t-68 47.5t-44.5 72t-16 89.5
q0 54 19.5 103.5t54 86.5t82 59t102.5 22q54 0 97.5 -22t69.5 -60l10 70h114l-70 -473q-8 -54 -30 -99t-56.5 -76.5t-82 -49t-106.5 -17.5q-79 0 -142.5 36t-91.5 105l98 50q18 -43 55 -66.5t85 -23.5q35 0 62 11.5t47 32.5t32.5 49.5t17.5 62.5zM350 752h65l-46 -73
q20 -2 33.5 -16.5t13.5 -35.5q0 -28 -20 -46.5t-49 -18.5q-26 0 -44.5 17t-18.5 45q0 15 7 30.5t18 33.5z" />
    <glyph glyph-name="gcommaaccent.square" horiz-adv-x="624" 
d="M289 105q31 0 59.5 13t49.5 34.5t33.5 50.5t12.5 62q0 29 -10 53.5t-27.5 42t-41 27.5t-51.5 10q-32 0 -60.5 -13t-50 -35t-34 -50.5t-12.5 -59.5q0 -29 10 -54t28 -43t42 -28t52 -10zM414 77q-26 -32 -67.5 -52t-92.5 -20q-46 0 -85.5 17t-68 47.5t-44.5 72t-16 89.5
q0 54 19.5 103.5t54 86.5t82 59t102.5 22q54 0 97.5 -22t69.5 -60l10 70h114l-70 -473q-8 -54 -30 -99t-56.5 -76.5t-82 -49t-106.5 -17.5q-79 0 -142.5 36t-91.5 105l98 50q18 -43 55 -66.5t85 -23.5q35 0 62 11.5t47 32.5t32.5 49.5t17.5 62.5zM397 567h-109l16 112
q7 48 35 67.5t66 19.5q9 0 20 -1l-8 -53q-6 1 -10 1q-16 0 -27.5 -8t-13.5 -24l-1 -6h48z" />
    <glyph glyph-name="gdotaccent" unicode="&#x121;" horiz-adv-x="624" 
d="M289 105q31 0 59.5 13t49.5 34.5t33.5 50.5t12.5 62q0 29 -10 53.5t-27.5 42t-41 27.5t-51.5 10q-32 0 -60.5 -13t-50 -35t-34 -50.5t-12.5 -59.5q0 -29 10 -54t28 -43t42 -28t52 -10zM414 77q-26 -32 -67.5 -52t-92.5 -20q-46 0 -85.5 17t-68 47.5t-44.5 72t-16 89.5
q0 54 19.5 103.5t54 86.5t82 59t102.5 22q54 0 97.5 -22t69.5 -60l10 70h114l-70 -473q-8 -54 -30 -99t-56.5 -76.5t-82 -49t-106.5 -17.5q-79 0 -142.5 36t-91.5 105l98 50q18 -43 55 -66.5t85 -23.5q35 0 62 11.5t47 32.5t32.5 49.5t17.5 62.5zM359 705q29 0 49 -21
t20 -49q0 -30 -21.5 -51.5t-51.5 -21.5t-50 20.5t-20 49.5q0 30 22 51.5t52 21.5z" />
    <glyph glyph-name="gdotaccent.square" horiz-adv-x="624" 
d="M289 105q31 0 59.5 13t49.5 34.5t33.5 50.5t12.5 62q0 29 -10 53.5t-27.5 42t-41 27.5t-51.5 10q-32 0 -60.5 -13t-50 -35t-34 -50.5t-12.5 -59.5q0 -29 10 -54t28 -43t42 -28t52 -10zM414 77q-26 -32 -67.5 -52t-92.5 -20q-46 0 -85.5 17t-68 47.5t-44.5 72t-16 89.5
q0 54 19.5 103.5t54 86.5t82 59t102.5 22q54 0 97.5 -22t69.5 -60l10 70h114l-70 -473q-8 -54 -30 -99t-56.5 -76.5t-82 -49t-106.5 -17.5q-79 0 -142.5 36t-91.5 105l98 50q18 -43 55 -66.5t85 -23.5q35 0 62 11.5t47 32.5t32.5 49.5t17.5 62.5zM291 571l19 123h116
l-19 -123h-116z" />
    <glyph glyph-name="hbar" unicode="&#x127;" horiz-adv-x="598" 
d="M136 629l11 71h116l-11 -71h197l-12 -79h-197l-19 -133q27 35 66.5 55.5t90.5 20.5q46 0 79.5 -16t54 -44.5t27.5 -68.5t0 -88l-41 -276h-116l39 266q8 58 -14.5 89t-76.5 31q-52 0 -88.5 -38t-46.5 -101l-37 -247h-116l82 550h-66l12 79h66z" />
    <glyph glyph-name="hcircumflex" unicode="&#x125;" horiz-adv-x="594" 
d="M152 0h-116l105 700h116l-41 -274q27 35 66.5 55.5t90.5 20.5q46 0 79.5 -16t54.5 -44.5t28 -68.5t0 -88l-43 -285h-116l41 275q8 58 -15 89t-77 31q-52 0 -88 -38t-46 -101zM53 755l132 143h90l89 -143h-103l-41 68l-60 -68h-107z" />
    <glyph glyph-name="iacute" unicode="&#xed;" horiz-adv-x="261" 
d="M36 0l73 490h116l-73 -490h-116zM125 575l116 143h130l-140 -143h-106z" />
    <glyph glyph-name="ibreve" unicode="&#x12d;" horiz-adv-x="261" 
d="M36 0l73 490h116l-73 -490h-116zM189 650q26 0 44 17t22 46h82q-5 -63 -47.5 -101t-105.5 -38q-31 0 -56.5 10t-43.5 28.5t-26.5 44t-6.5 56.5h82q-1 -29 14 -46t42 -17z" />
    <glyph glyph-name="icircumflex" unicode="&#xee;" horiz-adv-x="261" 
d="M36 0l73 490h116l-73 -490h-116zM22 575l132 143h90l89 -143h-103l-41 68l-60 -68h-107z" />
    <glyph glyph-name="idieresis" unicode="&#xef;" horiz-adv-x="261" 
d="M36 0l73 490h116l-73 -490h-116zM150 634q0 -26 -18.5 -44.5t-44.5 -18.5t-43.5 18t-17.5 43q0 26 19 44.5t45 18.5t43 -18t17 -43zM340 634q0 -26 -18.5 -44.5t-44.5 -18.5t-43.5 18t-17.5 43q0 26 18.5 44.5t44.5 18.5t43.5 -18t17.5 -43z" />
    <glyph glyph-name="idieresis.square" horiz-adv-x="261" 
d="M36 0l73 490h116l-73 -490h-116zM26 576l17 117h108l-17 -117h-108zM219 576l17 117h108l-17 -117h-108z" />
    <glyph glyph-name="idotaccent" horiz-adv-x="261" 
d="M36 0l73 490h116l-73 -490h-116zM188 705q29 0 49 -21t20 -49q0 -30 -21.5 -51.5t-51.5 -21.5t-50 20.5t-20 49.5q0 30 22 51.5t52 21.5z" />
    <glyph glyph-name="idotaccent.square" horiz-adv-x="261" 
d="M121 571l19 123h116l-19 -123h-116zM225 490l-73 -490h-116l73 490h116z" />
    <glyph glyph-name="igrave" unicode="&#xec;" horiz-adv-x="261" 
d="M36 0l73 490h116l-73 -490h-116zM129 575l-99 143h123l74 -143h-98z" />
    <glyph glyph-name="imacron" unicode="&#x12b;" horiz-adv-x="261" 
d="M36 0l73 490h116l-73 -490h-116zM34 590l12 77h288l-12 -77h-288z" />
    <glyph glyph-name="iogonek" unicode="&#x12f;" horiz-adv-x="261" 
d="M152 0q-51 -15 -80.5 -42t-29.5 -56q0 -33 41 -33q25 0 47 13l-11 -74q-28 -14 -64 -14q-48 0 -74 23.5t-26 65.5q0 36 22 66.5t59 50.5l73 490h116zM188 705q29 0 49 -21t20 -49q0 -30 -21.5 -51.5t-51.5 -21.5t-50 20.5t-20 49.5q0 30 22 51.5t52 21.5z" />
    <glyph glyph-name="iogonek.square" horiz-adv-x="261" 
d="M225 490l-73 -490q-51 -15 -80.5 -42t-29.5 -56q0 -33 41 -33q25 0 47 13l-11 -74q-28 -14 -64 -14q-48 0 -74 23.5t-26 65.5q0 36 22 66.5t59 50.5l73 490h116zM121 571l19 123h116l-19 -123h-116z" />
    <glyph glyph-name="itilde" unicode="&#x129;" horiz-adv-x="261" 
d="M36 0l73 490h116l-73 -490h-116zM10 583q3 61 33.5 90t74.5 29q25 0 42.5 -7.5t31 -16.5t25 -16.5t25.5 -7.5q18 0 28 12t12 32h72q-3 -62 -33.5 -90.5t-74.5 -28.5q-26 0 -43 7.5t-30.5 16.5t-25 16.5t-25.5 7.5q-19 0 -28.5 -12t-11.5 -32h-72z" />
    <glyph glyph-name="dotlessi" unicode="&#x131;" horiz-adv-x="261" 
d="M36 0l73 490h116l-73 -490h-116z" />
    <glyph glyph-name="jcircumflex" unicode="&#x135;" horiz-adv-x="264" 
d="M149 -38q-13 -86 -59 -135t-123 -49q-42 0 -77 16l15 99q20 -11 46 -11q35 0 56.5 23.5t27.5 65.5l77 519h116zM27 575l132 143h90l89 -143h-103l-41 68l-60 -68h-107z" />
    <glyph glyph-name="dotlessj" unicode="&#x237;" horiz-adv-x="264" 
d="M149 -38q-13 -86 -59 -135t-123 -49q-42 0 -77 16l15 99q20 -11 46 -11q35 0 56.5 23.5t27.5 65.5l77 519h116z" />
    <glyph glyph-name="kcommaaccent" unicode="&#x137;" horiz-adv-x="536" 
d="M197 309l208 181h145l-245 -213l188 -277h-137l-143 218l-34 -28l-28 -190h-115l105 700h115zM231 -240h-65l46 73q-20 2 -33.5 16.5t-13.5 35.5q0 28 20 46.5t49 18.5q26 0 44.5 -17t18.5 -45q0 -15 -7 -30.5t-18 -33.5z" />
    <glyph glyph-name="kcommaaccent.square" horiz-adv-x="536" 
d="M197 309l208 181h145l-245 -213l188 -277h-137l-143 218l-34 -28l-28 -190h-115l105 700h115zM186 -54h109l-17 -113q-7 -45 -33.5 -64.5t-66.5 -19.5q-11 0 -19 2l8 51q4 -1 9 -1q15 0 26 7t14 25l1 7h-47z" />
    <glyph glyph-name="kgreenlandic" unicode="&#x138;" horiz-adv-x="536" 
d="M224 490l-27 -181l208 181h145l-245 -213l188 -277h-137l-143 218l-34 -28l-28 -190h-115l73 490h115z" />
    <glyph glyph-name="lacute" unicode="&#x13a;" horiz-adv-x="261" 
d="M257 700l-105 -700h-116l105 700h116zM153 755l116 143h130l-140 -143h-106z" />
    <glyph glyph-name="lcaron" unicode="&#x13e;" horiz-adv-x="261" 
d="M257 700l-105 -700h-116l105 700h116zM274 545l53 167h118l-72 -167h-99z" />
    <glyph glyph-name="lcommaaccent" unicode="&#x13c;" horiz-adv-x="261" 
d="M257 700l-105 -700h-116l105 700h116zM79 -240h-65l46 73q-20 2 -33.5 16.5t-13.5 35.5q0 28 20 46.5t49 18.5q26 0 44.5 -17t18.5 -45q0 -15 -7 -30.5t-18 -33.5z" />
    <glyph glyph-name="lcommaaccent.square" horiz-adv-x="261" 
d="M257 700l-105 -700h-116l105 700h116zM32 -54h109l-17 -113q-7 -45 -33.5 -64.5t-66.5 -19.5q-11 0 -19 2l8 51q4 -1 9 -1q15 0 26 7t14 25l1 7h-47z" />
    <glyph glyph-name="ldot" unicode="&#x140;" horiz-adv-x="367" 
d="M257 700l-105 -700h-116l105 700h116zM331 405q29 0 49 -21t20 -49q0 -30 -21.5 -51.5t-51.5 -21.5t-50 20.5t-20 49.5q0 30 22 51.5t52 21.5z" />
    <glyph glyph-name="ldot.square" horiz-adv-x="366" 
d="M257 700l-105 -700h-116l105 700h116zM259 270l19 123h116l-19 -123h-116z" />
    <glyph glyph-name="lslash" unicode="&#x142;" horiz-adv-x="305" 
d="M279 700l-38 -252l92 45l-16 -103l-91 -45l-52 -345h-116l42 283l-88 -43l16 103l88 43l47 314h116z" />
    <glyph glyph-name="nacute" unicode="&#x144;" horiz-adv-x="594" 
d="M152 0h-116l73 490h116l-9 -64q27 35 66.5 55.5t90.5 20.5q46 0 79.5 -16t54.5 -44.5t28 -68.5t0 -88l-43 -285h-116l41 275q8 58 -15 89t-77 31q-52 0 -88 -38t-46 -101zM287 575l116 143h130l-140 -143h-106z" />
    <glyph glyph-name="ncaron" unicode="&#x148;" horiz-adv-x="594" 
d="M152 0h-116l73 490h116l-9 -64q27 35 66.5 55.5t90.5 20.5q46 0 79.5 -16t54.5 -44.5t28 -68.5t0 -88l-43 -285h-116l41 275q8 58 -15 89t-77 31q-52 0 -88 -38t-46 -101zM528 718l-131 -143h-90l-90 143h103l41 -68l61 68h106z" />
    <glyph glyph-name="ncommaaccent" unicode="&#x146;" horiz-adv-x="594" 
d="M152 0h-116l73 490h116l-9 -64q27 35 66.5 55.5t90.5 20.5q46 0 79.5 -16t54.5 -44.5t28 -68.5t0 -88l-43 -285h-116l41 275q8 58 -15 89t-77 31q-52 0 -88 -38t-46 -101zM251 -240h-65l46 73q-20 2 -33.5 16.5t-13.5 35.5q0 28 20 46.5t49 18.5q26 0 44.5 -17t18.5 -45
q0 -15 -7 -30.5t-18 -33.5z" />
    <glyph glyph-name="ncommaaccent.square" horiz-adv-x="594" 
d="M152 0h-116l73 490h116l-9 -64q27 35 66.5 55.5t90.5 20.5q46 0 79.5 -16t54.5 -44.5t28 -68.5t0 -88l-43 -285h-116l41 275q8 58 -15 89t-77 31q-52 0 -88 -38t-46 -101zM205 -54h109l-17 -113q-7 -45 -33.5 -64.5t-66.5 -19.5q-11 0 -19 2l8 51q4 -1 9 -1q15 0 26 7
t14 25l1 7h-47z" />
    <glyph glyph-name="ntilde" unicode="&#xf1;" horiz-adv-x="594" 
d="M152 0h-116l73 490h116l-9 -64q27 35 66.5 55.5t90.5 20.5q46 0 79.5 -16t54.5 -44.5t28 -68.5t0 -88l-43 -285h-116l41 275q8 58 -15 89t-77 31q-52 0 -88 -38t-46 -101zM190 583q3 61 33.5 90t74.5 29q25 0 42.5 -7.5t31 -16.5t25 -16.5t25.5 -7.5q18 0 28 12t12 32h72
q-3 -62 -33.5 -90.5t-74.5 -28.5q-26 0 -43 7.5t-30.5 16.5t-25 16.5t-25.5 7.5q-19 0 -28.5 -12t-11.5 -32h-72z" />
    <glyph glyph-name="eng" unicode="&#x14b;" horiz-adv-x="594" 
d="M417 275q8 58 -15 89t-77 31q-52 0 -88 -38t-46 -101l-39 -256h-116l73 490h116l-9 -64q27 35 66.5 55.5t90.5 20.5q46 0 79.5 -16t54.5 -44.5t28 -68.5t0 -88l-49 -323q-13 -86 -59 -135t-123 -49q-42 0 -77 16l15 99q20 -11 46 -11q35 0 56.5 23.5t27.5 65.5z" />
    <glyph glyph-name="oacute" unicode="&#xf3;" horiz-adv-x="602" 
d="M318 502q52 0 96.5 -18t77.5 -49.5t52 -75t19 -94.5q0 -57 -21.5 -107.5t-59 -88t-88.5 -59.5t-109 -22q-52 0 -97 18t-78 49.5t-51.5 75t-18.5 94.5q0 57 21.5 107.5t59 88t88 59.5t109.5 22zM313 396q-32 0 -60.5 -12.5t-50 -34.5t-34.5 -52.5t-13 -65.5
q0 -29 10 -53.5t28 -43.5t42.5 -29.5t53.5 -10.5q31 0 60 12.5t51 35t35 52.5t13 65q0 28 -10 53t-28 44t-43 29.5t-54 10.5zM285 575l116 143h130l-140 -143h-106z" />
    <glyph glyph-name="obreve" unicode="&#x14f;" horiz-adv-x="602" 
d="M318 502q52 0 96.5 -18t77.5 -49.5t52 -75t19 -94.5q0 -57 -21.5 -107.5t-59 -88t-88.5 -59.5t-109 -22q-52 0 -97 18t-78 49.5t-51.5 75t-18.5 94.5q0 57 21.5 107.5t59 88t88 59.5t109.5 22zM313 396q-32 0 -60.5 -12.5t-50 -34.5t-34.5 -52.5t-13 -65.5
q0 -29 10 -53.5t28 -43.5t42.5 -29.5t53.5 -10.5q31 0 60 12.5t51 35t35 52.5t13 65q0 28 -10 53t-28 44t-43 29.5t-54 10.5zM361 650q26 0 44 17t22 46h82q-5 -63 -47.5 -101t-105.5 -38q-31 0 -56.5 10t-43.5 28.5t-26.5 44t-6.5 56.5h82q-1 -29 14 -46t42 -17z" />
    <glyph glyph-name="ocircumflex" unicode="&#xf4;" horiz-adv-x="602" 
d="M318 502q52 0 96.5 -18t77.5 -49.5t52 -75t19 -94.5q0 -57 -21.5 -107.5t-59 -88t-88.5 -59.5t-109 -22q-52 0 -97 18t-78 49.5t-51.5 75t-18.5 94.5q0 57 21.5 107.5t59 88t88 59.5t109.5 22zM313 396q-32 0 -60.5 -12.5t-50 -34.5t-34.5 -52.5t-13 -65.5
q0 -29 10 -53.5t28 -43.5t42.5 -29.5t53.5 -10.5q31 0 60 12.5t51 35t35 52.5t13 65q0 28 -10 53t-28 44t-43 29.5t-54 10.5zM191 575l132 143h90l89 -143h-103l-41 68l-60 -68h-107z" />
    <glyph glyph-name="odieresis" unicode="&#xf6;" horiz-adv-x="602" 
d="M318 502q52 0 96.5 -18t77.5 -49.5t52 -75t19 -94.5q0 -57 -21.5 -107.5t-59 -88t-88.5 -59.5t-109 -22q-52 0 -97 18t-78 49.5t-51.5 75t-18.5 94.5q0 57 21.5 107.5t59 88t88 59.5t109.5 22zM313 396q-32 0 -60.5 -12.5t-50 -34.5t-34.5 -52.5t-13 -65.5
q0 -29 10 -53.5t28 -43.5t42.5 -29.5t53.5 -10.5q31 0 60 12.5t51 35t35 52.5t13 65q0 28 -10 53t-28 44t-43 29.5t-54 10.5zM319 634q0 -26 -18.5 -44.5t-44.5 -18.5t-43.5 18t-17.5 43q0 26 19 44.5t45 18.5t43 -18t17 -43zM509 634q0 -26 -18.5 -44.5t-44.5 -18.5
t-43.5 18t-17.5 43q0 26 18.5 44.5t44.5 18.5t43.5 -18t17.5 -43z" />
    <glyph glyph-name="odieresis.square" horiz-adv-x="602" 
d="M318 502q52 0 96.5 -18t77.5 -49.5t52 -75t19 -94.5q0 -57 -21.5 -107.5t-59 -88t-88.5 -59.5t-109 -22q-52 0 -97 18t-78 49.5t-51.5 75t-18.5 94.5q0 57 21.5 107.5t59 88t88 59.5t109.5 22zM313 396q-32 0 -60.5 -12.5t-50 -34.5t-34.5 -52.5t-13 -65.5
q0 -29 10 -53.5t28 -43.5t42.5 -29.5t53.5 -10.5q31 0 60 12.5t51 35t35 52.5t13 65q0 28 -10 53t-28 44t-43 29.5t-54 10.5zM194 576l17 117h108l-17 -117h-108zM387 576l17 117h108l-17 -117h-108z" />
    <glyph glyph-name="ograve" unicode="&#xf2;" horiz-adv-x="602" 
d="M318 502q52 0 96.5 -18t77.5 -49.5t52 -75t19 -94.5q0 -57 -21.5 -107.5t-59 -88t-88.5 -59.5t-109 -22q-52 0 -97 18t-78 49.5t-51.5 75t-18.5 94.5q0 57 21.5 107.5t59 88t88 59.5t109.5 22zM313 396q-32 0 -60.5 -12.5t-50 -34.5t-34.5 -52.5t-13 -65.5
q0 -29 10 -53.5t28 -43.5t42.5 -29.5t53.5 -10.5q31 0 60 12.5t51 35t35 52.5t13 65q0 28 -10 53t-28 44t-43 29.5t-54 10.5zM298 575l-99 143h123l74 -143h-98z" />
    <glyph glyph-name="ohungarumlaut" unicode="&#x151;" horiz-adv-x="602" 
d="M318 502q52 0 96.5 -18t77.5 -49.5t52 -75t19 -94.5q0 -57 -21.5 -107.5t-59 -88t-88.5 -59.5t-109 -22q-52 0 -97 18t-78 49.5t-51.5 75t-18.5 94.5q0 57 21.5 107.5t59 88t88 59.5t109.5 22zM313 396q-32 0 -60.5 -12.5t-50 -34.5t-34.5 -52.5t-13 -65.5
q0 -29 10 -53.5t28 -43.5t42.5 -29.5t53.5 -10.5q31 0 60 12.5t51 35t35 52.5t13 65q0 28 -10 53t-28 44t-43 29.5t-54 10.5zM210 572l107 142h115l-125 -142h-97zM383 572l107 142h114l-125 -142h-96z" />
    <glyph glyph-name="omacron" unicode="&#x14d;" horiz-adv-x="602" 
d="M318 502q52 0 96.5 -18t77.5 -49.5t52 -75t19 -94.5q0 -57 -21.5 -107.5t-59 -88t-88.5 -59.5t-109 -22q-52 0 -97 18t-78 49.5t-51.5 75t-18.5 94.5q0 57 21.5 107.5t59 88t88 59.5t109.5 22zM313 396q-32 0 -60.5 -12.5t-50 -34.5t-34.5 -52.5t-13 -65.5
q0 -29 10 -53.5t28 -43.5t42.5 -29.5t53.5 -10.5q31 0 60 12.5t51 35t35 52.5t13 65q0 28 -10 53t-28 44t-43 29.5t-54 10.5zM204 590l12 77h288l-12 -77h-288z" />
    <glyph glyph-name="otilde" unicode="&#xf5;" horiz-adv-x="602" 
d="M318 502q52 0 96.5 -18t77.5 -49.5t52 -75t19 -94.5q0 -57 -21.5 -107.5t-59 -88t-88.5 -59.5t-109 -22q-52 0 -97 18t-78 49.5t-51.5 75t-18.5 94.5q0 57 21.5 107.5t59 88t88 59.5t109.5 22zM313 396q-32 0 -60.5 -12.5t-50 -34.5t-34.5 -52.5t-13 -65.5
q0 -29 10 -53.5t28 -43.5t42.5 -29.5t53.5 -10.5q31 0 60 12.5t51 35t35 52.5t13 65q0 28 -10 53t-28 44t-43 29.5t-54 10.5zM183 583q3 61 33.5 90t74.5 29q25 0 42.5 -7.5t31 -16.5t25 -16.5t25.5 -7.5q18 0 28 12t12 32h72q-3 -62 -33.5 -90.5t-74.5 -28.5q-26 0 -43 7.5
t-30.5 16.5t-25 16.5t-25.5 7.5q-19 0 -28.5 -12t-11.5 -32h-72z" />
    <glyph glyph-name="oe" unicode="&#x153;" horiz-adv-x="958" 
d="M318 502q61 0 111 -26.5t82 -71.5q34 45 83.5 71.5t109.5 26.5q51 0 92 -17.5t70.5 -48.5t45.5 -73.5t16 -93.5q0 -12 -2 -28.5t-6 -30.5h-368q0 -28 11 -51t29 -39t41.5 -25t49.5 -9q42 0 69.5 20t48.5 52l93 -45q-34 -58 -90.5 -91.5t-127.5 -33.5q-61 0 -109.5 25
t-78.5 70q-37 -44 -89.5 -69.5t-113.5 -25.5q-52 0 -97 18t-78 49.5t-51.5 75t-18.5 94.5q0 57 21.5 107.5t59 88t88 59.5t109.5 22zM313 396q-32 0 -60.5 -12.5t-50 -34.5t-34.5 -52.5t-13 -65.5q0 -29 10 -53.5t28 -43.5t42.5 -29.5t53.5 -10.5q31 0 60 12.5t51 35
t35 52.5t13 65q0 28 -10 53t-28 44t-43 29.5t-54 10.5zM699 407q-19 0 -40 -6.5t-40.5 -20t-34.5 -35t-22 -51.5h255q-1 25 -11 46t-25.5 36t-36.5 23t-45 8z" />
    <glyph glyph-name="racute" unicode="&#x155;" horiz-adv-x="379" 
d="M375 380q-2 1 -9 2t-17 1q-64 0 -109 -44t-57 -123l-32 -216h-115l74 490h114l-13 -84q23 44 65 69t88 25q12 0 19.5 -1.5t9.5 -1.5zM189 575l116 143h130l-140 -143h-106z" />
    <glyph glyph-name="rcaron" unicode="&#x159;" horiz-adv-x="379" 
d="M375 380q-2 1 -9 2t-17 1q-64 0 -109 -44t-57 -123l-32 -216h-115l74 490h114l-13 -84q23 44 65 69t88 25q12 0 19.5 -1.5t9.5 -1.5zM440 718l-131 -143h-90l-90 143h103l41 -68l61 68h106z" />
    <glyph glyph-name="rcommaaccent" unicode="&#x157;" horiz-adv-x="379" 
d="M375 380q-2 1 -9 2t-17 1q-64 0 -109 -44t-57 -123l-32 -216h-115l74 490h114l-13 -84q23 44 65 69t88 25q12 0 19.5 -1.5t9.5 -1.5zM78 -240h-65l46 73q-20 2 -33.5 16.5t-13.5 35.5q0 28 20 46.5t49 18.5q26 0 44.5 -17t18.5 -45q0 -15 -7 -30.5t-18 -33.5z" />
    <glyph glyph-name="rcommaaccent.square" horiz-adv-x="379" 
d="M375 380q-2 1 -9 2t-17 1q-64 0 -109 -44t-57 -123l-32 -216h-115l74 490h114l-13 -84q23 44 65 69t88 25q12 0 19.5 -1.5t9.5 -1.5zM31 -54h109l-17 -113q-7 -45 -33.5 -64.5t-66.5 -19.5q-11 0 -19 2l8 51q4 -1 9 -1q15 0 26 7t14 25l1 7h-47z" />
    <glyph glyph-name="sacute" unicode="&#x15b;" horiz-adv-x="427" 
d="M195 575l116 143h130l-140 -143h-106zM109 167q9 -36 33.5 -58t61.5 -22q28 0 47 14t19 40q0 30 -50 51l-55 23q-54 23 -79 56.5t-25 75.5q0 36 14 64.5t38 49t55 31t65 10.5q62 0 110 -31.5t67 -90.5l-97 -40q-8 27 -29 46.5t-53 19.5q-24 0 -41.5 -12.5t-17.5 -34.5
q0 -29 47 -49l55 -23q57 -24 82.5 -58t25.5 -75q0 -39 -15.5 -69.5t-41 -52t-58.5 -33t-69 -11.5q-33 0 -64 9t-56.5 26.5t-43 43.5t-24.5 60z" />
    <glyph glyph-name="scaron" unicode="&#x161;" horiz-adv-x="427" 
d="M437 718l-131 -143h-90l-90 143h103l41 -68l61 68h106zM109 167q9 -36 33.5 -58t61.5 -22q28 0 47 14t19 40q0 30 -50 51l-55 23q-54 23 -79 56.5t-25 75.5q0 36 14 64.5t38 49t55 31t65 10.5q62 0 110 -31.5t67 -90.5l-97 -40q-8 27 -29 46.5t-53 19.5
q-24 0 -41.5 -12.5t-17.5 -34.5q0 -29 47 -49l55 -23q57 -24 82.5 -58t25.5 -75q0 -39 -15.5 -69.5t-41 -52t-58.5 -33t-69 -11.5q-33 0 -64 9t-56.5 26.5t-43 43.5t-24.5 60z" />
    <glyph glyph-name="scedilla" unicode="&#x15f;" horiz-adv-x="427" 
d="M109 167q9 -36 33.5 -58t61.5 -22q28 0 47 14t19 40q0 30 -50 51l-55 23q-54 23 -79 56.5t-25 75.5q0 36 14 64.5t38 49t55 31t65 10.5q62 0 110 -31.5t67 -90.5l-97 -40q-8 27 -29 46.5t-53 19.5q-24 0 -41.5 -12.5t-17.5 -34.5q0 -29 47 -49l55 -23q57 -24 82.5 -58
t25.5 -75q0 -39 -15.5 -69.5t-41 -52t-58.5 -32.5q-31 -11 -64 -12l-28 -37q6 2 16 2q37 0 59.5 -23t22.5 -58q0 -42 -30.5 -69.5t-75.5 -27.5q-42 0 -68.5 24t-28.5 59h70q1 -8 9 -16t22 -8q15 0 25 9.5t10 23.5q0 13 -8.5 21.5t-22.5 8.5q-9 0 -17 -4t-13 -9l-57 38l49 74
q-34 10 -59.5 27.5t-43 43.5t-24.5 60z" />
    <glyph glyph-name="scircumflex" unicode="&#x15d;" horiz-adv-x="427" 
d="M105 575l132 143h90l89 -143h-103l-41 68l-60 -68h-107zM109 167q9 -36 33.5 -58t61.5 -22q28 0 47 14t19 40q0 30 -50 51l-55 23q-54 23 -79 56.5t-25 75.5q0 36 14 64.5t38 49t55 31t65 10.5q62 0 110 -31.5t67 -90.5l-97 -40q-8 27 -29 46.5t-53 19.5
q-24 0 -41.5 -12.5t-17.5 -34.5q0 -29 47 -49l55 -23q57 -24 82.5 -58t25.5 -75q0 -39 -15.5 -69.5t-41 -52t-58.5 -33t-69 -11.5q-33 0 -64 9t-56.5 26.5t-43 43.5t-24.5 60z" />
    <glyph glyph-name="scommaaccent" unicode="&#x219;" horiz-adv-x="427" 
d="M170 -240h-65l46 73q-20 2 -33.5 16.5t-13.5 35.5q0 28 20 46.5t49 18.5q26 0 44.5 -17t18.5 -45q0 -15 -7 -30.5t-18 -33.5zM109 167q9 -36 33.5 -58t61.5 -22q28 0 47 14t19 40q0 30 -50 51l-55 23q-54 23 -79 56.5t-25 75.5q0 36 14 64.5t38 49t55 31t65 10.5
q62 0 110 -31.5t67 -90.5l-97 -40q-8 27 -29 46.5t-53 19.5q-24 0 -41.5 -12.5t-17.5 -34.5q0 -29 47 -49l55 -23q57 -24 82.5 -58t25.5 -75q0 -39 -15.5 -69.5t-41 -52t-58.5 -33t-69 -11.5q-33 0 -64 9t-56.5 26.5t-43 43.5t-24.5 60z" />
    <glyph glyph-name="scommaaccent.square" horiz-adv-x="427" 
d="M109 167q9 -36 33.5 -58t61.5 -22q28 0 47 14t19 40q0 30 -50 51l-55 23q-54 23 -79 56.5t-25 75.5q0 36 14 64.5t38 49t55 31t65 10.5q62 0 110 -31.5t67 -90.5l-97 -40q-8 27 -29 46.5t-53 19.5q-24 0 -41.5 -12.5t-17.5 -34.5q0 -29 47 -49l55 -23q57 -24 82.5 -58
t25.5 -75q0 -39 -15.5 -69.5t-41 -52t-58.5 -33t-69 -11.5q-33 0 -64 9t-56.5 26.5t-43 43.5t-24.5 60zM124 -54h109l-17 -113q-7 -45 -33.5 -64.5t-66.5 -19.5q-11 0 -19 2l8 51q4 -1 9 -1q15 0 26 7t14 25l1 7h-47z" />
    <glyph glyph-name="germandbls" unicode="&#xdf;" horiz-adv-x="611" 
d="M336 430q25 0 48 8.5t40.5 23.5t27.5 35.5t10 44.5q0 41 -28 67t-71 26q-57 0 -92 -37.5t-45 -103.5l-74 -494h-115l74 495q17 112 82 176t170 64q47 0 86 -13.5t67 -38t43.5 -58t15.5 -72.5q0 -58 -32.5 -102.5t-86.5 -69.5q51 -22 79.5 -65t28.5 -101
q0 -49 -19.5 -90.5t-54 -71.5t-81.5 -46.5t-102 -16.5q-26 0 -48.5 3.5t-42.5 9.5l14 95q14 -5 33.5 -7t35.5 -2q30 0 57.5 10t47.5 27.5t32 41.5t12 53q0 51 -37.5 81.5t-93.5 30.5h-20l14 97h25z" />
    <glyph glyph-name="tbar" unicode="&#x167;" horiz-adv-x="373" 
d="M220 311h130l-13 -90h-130l-7 -48q-12 -79 62 -79q15 0 30 3t29 11l-15 -104q-17 -7 -37.5 -11.5t-47.5 -4.5q-77 0 -113 46t-25 122l9 65h-70l13 90h71l12 81h-73l15 98h73l21 145h115l-21 -145h130l-15 -98h-130z" />
    <glyph glyph-name="tcaron" unicode="&#x165;" horiz-adv-x="368" 
d="M197 173q-12 -79 62 -79q15 0 30 3t29 11l-15 -104q-17 -7 -37.5 -11.5t-47.5 -4.5q-77 0 -113 46t-25 122l35 236h-73l15 98h73l21 145h115l-21 -145h130l-15 -98h-130zM307 545l53 167h118l-72 -167h-99z" />
    <glyph glyph-name="tcommaaccent" unicode="&#x163;" horiz-adv-x="368" 
d="M197 173q-12 -79 62 -79q15 0 30 3t29 11l-15 -104q-17 -7 -37.5 -11.5t-47.5 -4.5q-77 0 -113 46t-25 122l35 236h-73l15 98h73l21 145h115l-21 -145h130l-15 -98h-130zM153 -240h-65l46 73q-20 2 -33.5 16.5t-13.5 35.5q0 28 20 46.5t49 18.5q26 0 44.5 -17t18.5 -45
q0 -15 -7 -30.5t-18 -33.5z" />
    <glyph glyph-name="tcommaaccent.square" horiz-adv-x="368" 
d="M197 173q-12 -79 62 -79q15 0 30 3t29 11l-15 -104q-17 -7 -37.5 -11.5t-47.5 -4.5q-77 0 -113 46t-25 122l35 236h-73l15 98h73l21 145h115l-21 -145h130l-15 -98h-130zM109 -54h109l-17 -113q-7 -45 -33.5 -64.5t-66.5 -19.5q-11 0 -19 2l8 51q4 -1 9 -1q15 0 26 7
t14 25l1 7h-47z" />
    <glyph glyph-name="uacute" unicode="&#xfa;" horiz-adv-x="592" 
d="M441 490h116l-74 -490h-116l9 64q-27 -35 -65.5 -55.5t-89.5 -20.5q-45 0 -78.5 16t-53.5 45.5t-27 69.5t0 88l42 283h116l-41 -275q-8 -58 14.5 -89t75.5 -31q52 0 87.5 38t45.5 101zM277 575l116 143h130l-140 -143h-106z" />
    <glyph glyph-name="ubreve" unicode="&#x16d;" horiz-adv-x="592" 
d="M441 490h116l-74 -490h-116l9 64q-27 -35 -65.5 -55.5t-89.5 -20.5q-45 0 -78.5 16t-53.5 45.5t-27 69.5t0 88l42 283h116l-41 -275q-8 -58 14.5 -89t75.5 -31q52 0 87.5 38t45.5 101zM354 650q26 0 44 17t22 46h82q-5 -63 -47.5 -101t-105.5 -38q-31 0 -56.5 10
t-43.5 28.5t-26.5 44t-6.5 56.5h82q-1 -29 14 -46t42 -17z" />
    <glyph glyph-name="ucircumflex" unicode="&#xfb;" horiz-adv-x="592" 
d="M441 490h116l-74 -490h-116l9 64q-27 -35 -65.5 -55.5t-89.5 -20.5q-45 0 -78.5 16t-53.5 45.5t-27 69.5t0 88l42 283h116l-41 -275q-8 -58 14.5 -89t75.5 -31q52 0 87.5 38t45.5 101zM189 575l132 143h90l89 -143h-103l-41 68l-60 -68h-107z" />
    <glyph glyph-name="udieresis" unicode="&#xfc;" horiz-adv-x="592" 
d="M441 490h116l-74 -490h-116l9 64q-27 -35 -65.5 -55.5t-89.5 -20.5q-45 0 -78.5 16t-53.5 45.5t-27 69.5t0 88l42 283h116l-41 -275q-8 -58 14.5 -89t75.5 -31q52 0 87.5 38t45.5 101zM317 634q0 -26 -18.5 -44.5t-44.5 -18.5t-43.5 18t-17.5 43q0 26 19 44.5t45 18.5
t43 -18t17 -43zM507 634q0 -26 -18.5 -44.5t-44.5 -18.5t-43.5 18t-17.5 43q0 26 18.5 44.5t44.5 18.5t43.5 -18t17.5 -43z" />
    <glyph glyph-name="udieresis.square" horiz-adv-x="592" 
d="M441 490h116l-74 -490h-116l9 64q-27 -35 -65.5 -55.5t-89.5 -20.5q-45 0 -78.5 16t-53.5 45.5t-27 69.5t0 88l42 283h116l-41 -275q-8 -58 14.5 -89t75.5 -31q52 0 87.5 38t45.5 101zM193 576l17 117h108l-17 -117h-108zM386 576l17 117h108l-17 -117h-108z" />
    <glyph glyph-name="ugrave" unicode="&#xf9;" horiz-adv-x="592" 
d="M441 490h116l-74 -490h-116l9 64q-27 -35 -65.5 -55.5t-89.5 -20.5q-45 0 -78.5 16t-53.5 45.5t-27 69.5t0 88l42 283h116l-41 -275q-8 -58 14.5 -89t75.5 -31q52 0 87.5 38t45.5 101zM305 575l-99 143h123l74 -143h-98z" />
    <glyph glyph-name="uhungarumlaut" unicode="&#x171;" horiz-adv-x="592" 
d="M441 490h116l-74 -490h-116l9 64q-27 -35 -65.5 -55.5t-89.5 -20.5q-45 0 -78.5 16t-53.5 45.5t-27 69.5t0 88l42 283h116l-41 -275q-8 -58 14.5 -89t75.5 -31q52 0 87.5 38t45.5 101zM201 572l107 142h115l-125 -142h-97zM374 572l107 142h114l-125 -142h-96z" />
    <glyph glyph-name="umacron" unicode="&#x16b;" horiz-adv-x="592" 
d="M441 490h116l-74 -490h-116l9 64q-27 -35 -65.5 -55.5t-89.5 -20.5q-45 0 -78.5 16t-53.5 45.5t-27 69.5t0 88l42 283h116l-41 -275q-8 -58 14.5 -89t75.5 -31q52 0 87.5 38t45.5 101zM201 590l12 77h288l-12 -77h-288z" />
    <glyph glyph-name="uogonek" unicode="&#x173;" horiz-adv-x="592" 
d="M441 490h116l-74 -490q-27 -6 -50 -16.5t-40 -23.5t-26.5 -28t-9.5 -30q0 -17 11 -25t31 -8q25 0 47 13l-11 -74q-28 -14 -63 -14q-49 0 -76 23.5t-27 63.5q0 36 25 67t73 52l9 64q-27 -35 -65.5 -55.5t-89.5 -20.5q-45 0 -78.5 16t-53.5 45.5t-27 69.5t0 88l42 283h116
l-41 -275q-8 -58 14.5 -89t75.5 -31q52 0 87.5 38t45.5 101z" />
    <glyph glyph-name="uring" unicode="&#x16f;" horiz-adv-x="592" 
d="M441 490h116l-74 -490h-116l9 64q-27 -35 -65.5 -55.5t-89.5 -20.5q-45 0 -78.5 16t-53.5 45.5t-27 69.5t0 88l42 283h116l-41 -275q-8 -58 14.5 -89t75.5 -31q52 0 87.5 38t45.5 101zM454 657q0 -22 -8.5 -40.5t-23 -32t-34 -21.5t-41.5 -8q-41 0 -69.5 27t-28.5 68
q0 21 8.5 39.5t23 32t34 21.5t41.5 8q41 0 69.5 -26.5t28.5 -67.5zM389 655q0 14 -10.5 25t-25.5 11q-14 0 -26.5 -11t-12.5 -28q0 -15 10.5 -26t25.5 -11t27 11.5t12 28.5z" />
    <glyph glyph-name="utilde" unicode="&#x169;" horiz-adv-x="592" 
d="M441 490h116l-74 -490h-116l9 64q-27 -35 -65.5 -55.5t-89.5 -20.5q-45 0 -78.5 16t-53.5 45.5t-27 69.5t0 88l42 283h116l-41 -275q-8 -58 14.5 -89t75.5 -31q52 0 87.5 38t45.5 101zM183 583q3 61 33.5 90t74.5 29q25 0 42.5 -7.5t31 -16.5t25 -16.5t25.5 -7.5
q18 0 28 12t12 32h72q-3 -62 -33.5 -90.5t-74.5 -28.5q-26 0 -43 7.5t-30.5 16.5t-25 16.5t-25.5 7.5q-19 0 -28.5 -12t-11.5 -32h-72z" />
    <glyph glyph-name="wacute" unicode="&#x1e83;" horiz-adv-x="808" 
d="M484 0l-66 331l-165 -331h-93l-105 490h116l62 -332l165 332h85l65 -332l163 332h118l-251 -490h-94zM399 575l116 143h130l-140 -143h-106z" />
    <glyph glyph-name="wcircumflex" unicode="&#x175;" horiz-adv-x="808" 
d="M484 0l-66 331l-165 -331h-93l-105 490h116l62 -332l165 332h85l65 -332l163 332h118l-251 -490h-94zM295 575l132 143h90l89 -143h-103l-41 68l-60 -68h-107z" />
    <glyph glyph-name="wdieresis" unicode="&#x1e85;" horiz-adv-x="808" 
d="M484 0l-66 331l-165 -331h-93l-105 490h116l62 -332l165 332h85l65 -332l163 332h118l-251 -490h-94zM423 634q0 -26 -18.5 -44.5t-44.5 -18.5t-43.5 18t-17.5 43q0 26 19 44.5t45 18.5t43 -18t17 -43zM613 634q0 -26 -18.5 -44.5t-44.5 -18.5t-43.5 18t-17.5 43
q0 26 18.5 44.5t44.5 18.5t43.5 -18t17.5 -43z" />
    <glyph glyph-name="wdieresis.square" horiz-adv-x="808" 
d="M484 0l-66 331l-165 -331h-93l-105 490h116l62 -332l165 332h85l65 -332l163 332h118l-251 -490h-94zM301 576l17 117h108l-17 -117h-108zM494 576l17 117h108l-17 -117h-108z" />
    <glyph glyph-name="wgrave" unicode="&#x1e81;" horiz-adv-x="808" 
d="M484 0l-66 331l-165 -331h-93l-105 490h116l62 -332l165 332h85l65 -332l163 332h118l-251 -490h-94zM394 575l-99 143h123l74 -143h-98z" />
    <glyph glyph-name="yacute" unicode="&#xfd;" horiz-adv-x="542" 
d="M253 -65q-24 -43 -47 -73t-47 -48.5t-49.5 -27t-55.5 -8.5q-25 0 -42.5 5.5t-28.5 13.5l13 95q11 -5 23 -8t26 -3q30 0 54 18t47 59l29 52l-123 480h120l82 -353l190 353h122zM265 575l116 143h130l-140 -143h-106z" />
    <glyph glyph-name="ycircumflex" unicode="&#x177;" horiz-adv-x="542" 
d="M253 -65q-24 -43 -47 -73t-47 -48.5t-49.5 -27t-55.5 -8.5q-25 0 -42.5 5.5t-28.5 13.5l13 95q11 -5 23 -8t26 -3q30 0 54 18t47 59l29 52l-123 480h120l82 -353l190 353h122zM166 575l132 143h90l89 -143h-103l-41 68l-60 -68h-107z" />
    <glyph glyph-name="ydieresis" unicode="&#xff;" horiz-adv-x="542" 
d="M253 -65q-24 -43 -47 -73t-47 -48.5t-49.5 -27t-55.5 -8.5q-25 0 -42.5 5.5t-28.5 13.5l13 95q11 -5 23 -8t26 -3q30 0 54 18t47 59l29 52l-123 480h120l82 -353l190 353h122zM294 634q0 -26 -18.5 -44.5t-44.5 -18.5t-43.5 18t-17.5 43q0 26 19 44.5t45 18.5t43 -18
t17 -43zM484 634q0 -26 -18.5 -44.5t-44.5 -18.5t-43.5 18t-17.5 43q0 26 18.5 44.5t44.5 18.5t43.5 -18t17.5 -43z" />
    <glyph glyph-name="ydieresis.square" horiz-adv-x="542" 
d="M253 -65q-24 -43 -47 -73t-47 -48.5t-49.5 -27t-55.5 -8.5q-25 0 -42.5 5.5t-28.5 13.5l13 95q11 -5 23 -8t26 -3q30 0 54 18t47 59l29 52l-123 480h120l82 -353l190 353h122zM170 576l17 117h108l-17 -117h-108zM363 576l17 117h108l-17 -117h-108z" />
    <glyph glyph-name="ygrave" unicode="&#x1ef3;" horiz-adv-x="542" 
d="M253 -65q-24 -43 -47 -73t-47 -48.5t-49.5 -27t-55.5 -8.5q-25 0 -42.5 5.5t-28.5 13.5l13 95q11 -5 23 -8t26 -3q30 0 54 18t47 59l29 52l-123 480h120l82 -353l190 353h122zM280 575l-99 143h123l74 -143h-98z" />
    <glyph glyph-name="ij" unicode="&#x133;" horiz-adv-x="525" 
d="M36 0l73 490h116l-73 -490h-116zM188 705q29 0 49 -21t20 -49q0 -30 -21.5 -51.5t-51.5 -21.5t-50 20.5t-20 49.5q0 30 22 51.5t52 21.5zM410 -38q-13 -86 -59 -135t-123 -49q-42 0 -77 16l15 99q20 -11 46 -11q35 0 56.5 23.5t27.5 65.5l77 519h116zM452 705
q29 0 49 -21t20 -49q0 -30 -21.5 -51.5t-51.5 -21.5t-50 20.5t-20 49.5q0 30 22 51.5t52 21.5z" />
    <glyph glyph-name="ij.square" horiz-adv-x="525" 
d="M121 571l19 123h116l-19 -123h-116zM225 490l-73 -490h-116l73 490h116zM410 -38q-12 -85 -58.5 -134.5t-123.5 -49.5q-42 0 -77 16l15 99q20 -11 46 -11q35 0 56.5 23.5t27.5 65.5l77 519h116zM385 571l19 123h116l-19 -123h-116z" />
    <glyph glyph-name="zacute" unicode="&#x17a;" horiz-adv-x="469" 
d="M465 419l-305 -322h260l-14 -97h-416l11 73l303 320h-239l14 97h396zM230 575l116 143h130l-140 -143h-106z" />
    <glyph glyph-name="zcaron" unicode="&#x17e;" horiz-adv-x="469" 
d="M465 419l-305 -322h260l-14 -97h-416l11 73l303 320h-239l14 97h396zM480 718l-131 -143h-90l-90 143h103l41 -68l61 68h106z" />
    <glyph glyph-name="zdotaccent" unicode="&#x17c;" horiz-adv-x="469" 
d="M465 419l-305 -322h260l-14 -97h-416l11 73l303 320h-239l14 97h396zM312 705q29 0 49 -21t20 -49q0 -30 -21.5 -51.5t-51.5 -21.5t-50 20.5t-20 49.5q0 30 22 51.5t52 21.5z" />
    <glyph glyph-name="zdotaccent.square" horiz-adv-x="469" 
d="M465 419l-305 -322h260l-14 -97h-416l11 73l303 320h-239l14 97h396zM244 571l19 123h116l-19 -123h-116z" />
    <glyph glyph-name="thorn" unicode="&#xfe;" horiz-adv-x="633" 
d="M376 502q47 0 87 -18t69 -49.5t45.5 -75t16.5 -93.5q0 -56 -20 -106.5t-55 -88.5t-83 -60.5t-104 -22.5q-55 0 -99.5 22t-70.5 61l-42 -279h-115l136 908h115l-42 -277q26 36 68 57.5t94 21.5zM342 397q-33 0 -62 -13.5t-50.5 -36t-34.5 -53.5t-13 -65q0 -30 10.5 -55
t28.5 -43t42.5 -28t53.5 -10q33 0 62.5 13t51 35.5t34.5 52.5t13 63q0 30 -10.5 55.5t-28.5 44.5t-43 29.5t-54 10.5z" />
    <glyph glyph-name="i.square" horiz-adv-x="261" 
d="M121 571l19 123h116l-19 -123h-116zM225 490l-73 -490h-116l73 490h116z" />
    <glyph glyph-name="j.square" horiz-adv-x="264" 
d="M149 -38q-12 -85 -58.5 -134.5t-123.5 -49.5q-42 0 -77 16l15 99q20 -11 46 -11q35 0 56.5 23.5t27.5 65.5l77 519h116zM124 571l19 123h116l-19 -123h-116z" />
    <glyph glyph-name="aring.alt" horiz-adv-x="533" 
d="M429 0h-108l9 58q-27 -33 -67.5 -51.5t-88.5 -18.5q-67 0 -106 36t-39 99q0 69 49.5 111.5t144.5 54.5l140 18l2 14q5 36 -16.5 61t-64.5 25q-69 0 -103 -72l-100 34q26 63 81 98t127 35q45 0 82.5 -13t63 -38.5t36.5 -62.5t4 -85zM144 131q0 -23 17.5 -36.5t49.5 -13.5
q25 0 48 8.5t41 23.5t30.5 35t15.5 44l4 27l-113 -15q-44 -6 -68.5 -25t-24.5 -48zM426 657q0 -22 -8.5 -40.5t-23 -32t-34 -21.5t-41.5 -8q-41 0 -69.5 27t-28.5 68q0 21 8.5 39.5t23 32t34 21.5t41.5 8q41 0 69.5 -26.5t28.5 -67.5zM361 655q0 14 -10.5 25t-25.5 11
q-14 0 -26.5 -11t-12.5 -28q0 -15 10.5 -26t25.5 -11t27 11.5t12 28.5z" />
    <glyph glyph-name="aacute.alt" horiz-adv-x="533" 
d="M254 575l116 143h130l-140 -143h-106zM429 0h-108l9 58q-27 -33 -67.5 -51.5t-88.5 -18.5q-67 0 -106 36t-39 99q0 69 49.5 111.5t144.5 54.5l140 18l2 14q5 36 -16.5 61t-64.5 25q-69 0 -103 -72l-100 34q26 63 81 98t127 35q45 0 82.5 -13t63 -38.5t36.5 -62.5t4 -85z
M144 131q0 -23 17.5 -36.5t49.5 -13.5q25 0 48 8.5t41 23.5t30.5 35t15.5 44l4 27l-113 -15q-44 -6 -68.5 -25t-24.5 -48z" />
    <glyph glyph-name="abreve.alt" horiz-adv-x="533" 
d="M326 650q26 0 44 17t22 46h82q-5 -63 -47.5 -101t-105.5 -38q-31 0 -56.5 10t-43.5 28.5t-26.5 44t-6.5 56.5h82q-1 -29 14 -46t42 -17zM429 0h-108l9 58q-27 -33 -67.5 -51.5t-88.5 -18.5q-67 0 -106 36t-39 99q0 69 49.5 111.5t144.5 54.5l140 18l2 14q5 36 -16.5 61
t-64.5 25q-69 0 -103 -72l-100 34q26 63 81 98t127 35q45 0 82.5 -13t63 -38.5t36.5 -62.5t4 -85zM144 131q0 -23 17.5 -36.5t49.5 -13.5q25 0 48 8.5t41 23.5t30.5 35t15.5 44l4 27l-113 -15q-44 -6 -68.5 -25t-24.5 -48z" />
    <glyph glyph-name="acircumflex.alt" horiz-adv-x="533" 
d="M159 575l132 143h90l89 -143h-103l-41 68l-60 -68h-107zM429 0h-108l9 58q-27 -33 -67.5 -51.5t-88.5 -18.5q-67 0 -106 36t-39 99q0 69 49.5 111.5t144.5 54.5l140 18l2 14q5 36 -16.5 61t-64.5 25q-69 0 -103 -72l-100 34q26 63 81 98t127 35q45 0 82.5 -13t63 -38.5
t36.5 -62.5t4 -85zM144 131q0 -23 17.5 -36.5t49.5 -13.5q25 0 48 8.5t41 23.5t30.5 35t15.5 44l4 27l-113 -15q-44 -6 -68.5 -25t-24.5 -48z" />
    <glyph glyph-name="adieresis.alt" horiz-adv-x="533" 
d="M286 634q0 -26 -18.5 -44.5t-44.5 -18.5t-43.5 18t-17.5 43q0 26 19 44.5t45 18.5t43 -18t17 -43zM476 634q0 -26 -18.5 -44.5t-44.5 -18.5t-43.5 18t-17.5 43q0 26 18.5 44.5t44.5 18.5t43.5 -18t17.5 -43zM429 0h-108l9 58q-27 -33 -67.5 -51.5t-88.5 -18.5
q-67 0 -106 36t-39 99q0 69 49.5 111.5t144.5 54.5l140 18l2 14q5 36 -16.5 61t-64.5 25q-69 0 -103 -72l-100 34q26 63 81 98t127 35q45 0 82.5 -13t63 -38.5t36.5 -62.5t4 -85zM144 131q0 -23 17.5 -36.5t49.5 -13.5q25 0 48 8.5t41 23.5t30.5 35t15.5 44l4 27l-113 -15
q-44 -6 -68.5 -25t-24.5 -48z" />
    <glyph glyph-name="adieresisalt.square" horiz-adv-x="533" 
d="M162 576l17 117h108l-17 -117h-108zM355 576l17 117h108l-17 -117h-108zM429 0h-108l9 58q-27 -33 -67.5 -51.5t-88.5 -18.5q-67 0 -106 36t-39 99q0 69 49.5 111.5t144.5 54.5l140 18l2 14q5 36 -16.5 61t-64.5 25q-69 0 -103 -72l-100 34q26 63 81 98t127 35
q45 0 82.5 -13t63 -38.5t36.5 -62.5t4 -85zM144 131q0 -23 17.5 -36.5t49.5 -13.5q25 0 48 8.5t41 23.5t30.5 35t15.5 44l4 27l-113 -15q-44 -6 -68.5 -25t-24.5 -48z" />
    <glyph glyph-name="agrave.alt" horiz-adv-x="533" 
d="M280 575l-99 143h123l74 -143h-98zM429 0h-108l9 58q-27 -33 -67.5 -51.5t-88.5 -18.5q-67 0 -106 36t-39 99q0 69 49.5 111.5t144.5 54.5l140 18l2 14q5 36 -16.5 61t-64.5 25q-69 0 -103 -72l-100 34q26 63 81 98t127 35q45 0 82.5 -13t63 -38.5t36.5 -62.5t4 -85z
M144 131q0 -23 17.5 -36.5t49.5 -13.5q25 0 48 8.5t41 23.5t30.5 35t15.5 44l4 27l-113 -15q-44 -6 -68.5 -25t-24.5 -48z" />
    <glyph glyph-name="amacron.alt" horiz-adv-x="533" 
d="M170 590l12 77h288l-12 -77h-288zM429 0h-108l9 58q-27 -33 -67.5 -51.5t-88.5 -18.5q-67 0 -106 36t-39 99q0 69 49.5 111.5t144.5 54.5l140 18l2 14q5 36 -16.5 61t-64.5 25q-69 0 -103 -72l-100 34q26 63 81 98t127 35q45 0 82.5 -13t63 -38.5t36.5 -62.5t4 -85z
M144 131q0 -23 17.5 -36.5t49.5 -13.5q25 0 48 8.5t41 23.5t30.5 35t15.5 44l4 27l-113 -15q-44 -6 -68.5 -25t-24.5 -48z" />
    <glyph glyph-name="aogonek.alt" horiz-adv-x="533" 
d="M429 0q-27 -6 -50 -16.5t-40 -23.5t-26.5 -28t-9.5 -30q0 -17 11 -25t31 -8q25 0 47 13l-11 -74q-28 -14 -63 -14q-49 0 -76 23.5t-27 63.5q0 38 29 71t77 50l9 56q-27 -33 -67.5 -51.5t-88.5 -18.5q-67 0 -106 36t-39 99q0 69 49.5 111.5t144.5 54.5l140 18l2 14
q5 36 -16.5 61t-64.5 25q-69 0 -103 -72l-100 34q26 63 81 98t127 35q45 0 82.5 -13t63 -38.5t36.5 -62.5t4 -85zM144 131q0 -23 17.5 -36.5t49.5 -13.5q25 0 48 8.5t41 23.5t30.5 35t15.5 44l4 27l-113 -15q-44 -6 -68.5 -25t-24.5 -48z" />
    <glyph glyph-name="atilde.alt" horiz-adv-x="533" 
d="M149 583q3 61 33.5 90t74.5 29q25 0 42.5 -7.5t31 -16.5t25 -16.5t25.5 -7.5q18 0 28 12t12 32h72q-3 -62 -33.5 -90.5t-74.5 -28.5q-26 0 -43 7.5t-30.5 16.5t-25 16.5t-25.5 7.5q-19 0 -28.5 -12t-11.5 -32h-72zM429 0h-108l9 58q-27 -33 -67.5 -51.5t-88.5 -18.5
q-67 0 -106 36t-39 99q0 69 49.5 111.5t144.5 54.5l140 18l2 14q5 36 -16.5 61t-64.5 25q-69 0 -103 -72l-100 34q26 63 81 98t127 35q45 0 82.5 -13t63 -38.5t36.5 -62.5t4 -85zM144 131q0 -23 17.5 -36.5t49.5 -13.5q25 0 48 8.5t41 23.5t30.5 35t15.5 44l4 27l-113 -15
q-44 -6 -68.5 -25t-24.5 -48z" />
    <glyph glyph-name="tbar.alt" horiz-adv-x="324" 
d="M26 311h84l12 81h-83l15 98h83l21 145h116l-21 -145h95l-15 -98h-95l-12 -81h94l-13 -90h-95l-33 -221h-116l33 221h-83z" />
    <glyph glyph-name="tcaron.alt" horiz-adv-x="324" 
d="M315 545l53 167h118l-72 -167h-99zM63 0l59 392h-83l15 98h83l21 145h116l-21 -145h95l-15 -98h-95l-59 -392h-116z" />
    <glyph glyph-name="tcommaaccent.alt" horiz-adv-x="324" 
d="M106 -240h-65l46 73q-20 2 -33.5 16.5t-13.5 35.5q0 28 20 46.5t49 18.5q26 0 44.5 -17t18.5 -45q0 -15 -7 -30.5t-18 -33.5zM63 0l59 392h-83l15 98h83l21 145h116l-21 -145h95l-15 -98h-95l-59 -392h-116z" />
    <glyph glyph-name="tcommaaccentalt.square" horiz-adv-x="324" 
d="M58 -54h109l-17 -113q-7 -46 -34 -65t-66 -19q-11 0 -14 1q-3 0 -5 1l8 51q1 -1 3 -1h6q14 0 25.5 6.5t14.5 25.5l1 7h-47zM63 0l59 392h-83l15 98h83l21 145h116l-21 -145h95l-15 -98h-95l-59 -392h-116z" />
    <glyph glyph-name="uacute.alt" horiz-adv-x="570" 
d="M270 575l116 143h130l-140 -143h-106zM258 -12q-106 0 -158 61.5t-36 168.5l40 272h116l-40 -272q-9 -58 13.5 -90.5t73.5 -32.5q47 0 78 33t39 90l41 272h116l-42 -281q-16 -105 -79.5 -163t-161.5 -58z" />
    <glyph glyph-name="ubreve.alt" horiz-adv-x="570" 
d="M348 650q26 0 44 17t22 46h82q-5 -63 -47.5 -101t-105.5 -38q-31 0 -56.5 10t-43.5 28.5t-26.5 44t-6.5 56.5h82q-1 -29 14 -46t42 -17zM258 -12q-106 0 -158 61.5t-36 168.5l40 272h116l-40 -272q-9 -58 13.5 -90.5t73.5 -32.5q47 0 78 33t39 90l41 272h116l-42 -281
q-16 -105 -79.5 -163t-161.5 -58z" />
    <glyph glyph-name="ucircumflex.alt" horiz-adv-x="570" 
d="M179 575l132 143h90l89 -143h-103l-41 68l-60 -68h-107zM258 -12q-106 0 -158 61.5t-36 168.5l40 272h116l-40 -272q-9 -58 13.5 -90.5t73.5 -32.5q47 0 78 33t39 90l41 272h116l-42 -281q-16 -105 -79.5 -163t-161.5 -58z" />
    <glyph glyph-name="udieresis.alt" horiz-adv-x="570" 
d="M306 634q0 -26 -18.5 -44.5t-44.5 -18.5t-43.5 18t-17.5 43q0 26 19 44.5t45 18.5t43 -18t17 -43zM496 634q0 -26 -18.5 -44.5t-44.5 -18.5t-43.5 18t-17.5 43q0 26 18.5 44.5t44.5 18.5t43.5 -18t17.5 -43zM258 -12q-106 0 -158 61.5t-36 168.5l40 272h116l-40 -272
q-9 -58 13.5 -90.5t73.5 -32.5q47 0 78 33t39 90l41 272h116l-42 -281q-16 -105 -79.5 -163t-161.5 -58z" />
    <glyph glyph-name="udieresisalt.square" horiz-adv-x="570" 
d="M182 576l17 117h108l-17 -117h-108zM375 576l17 117h108l-17 -117h-108zM258 -12q-106 0 -158 61.5t-36 168.5l40 272h116l-40 -272q-9 -58 13.5 -90.5t73.5 -32.5q47 0 78 33t39 90l41 272h116l-42 -281q-16 -105 -79.5 -163t-161.5 -58z" />
    <glyph glyph-name="ugrave.alt" horiz-adv-x="570" 
d="M297 575l-99 143h123l74 -143h-98zM258 -12q-106 0 -158 61.5t-36 168.5l40 272h116l-40 -272q-9 -58 13.5 -90.5t73.5 -32.5q47 0 78 33t39 90l41 272h116l-42 -281q-16 -105 -79.5 -163t-161.5 -58z" />
    <glyph glyph-name="uhungarumlaut.alt" horiz-adv-x="570" 
d="M190 572l107 142h115l-125 -142h-97zM363 572l107 142h114l-125 -142h-96zM258 -12q-106 0 -158 61.5t-36 168.5l40 272h116l-40 -272q-9 -58 13.5 -90.5t73.5 -32.5q47 0 78 33t39 90l41 272h116l-42 -281q-16 -105 -79.5 -163t-161.5 -58z" />
    <glyph glyph-name="umacron.alt" horiz-adv-x="570" 
d="M258 -12q-106 0 -158 61.5t-36 168.5l40 272h116l-40 -272q-9 -58 13.5 -90.5t73.5 -32.5q47 0 78 33t39 90l41 272h116l-42 -281q-16 -105 -79.5 -163t-161.5 -58zM192 590l12 77h288l-12 -77h-288z" />
    <glyph glyph-name="uogonek.alt" horiz-adv-x="570" 
d="M159 -119q0 32 17.5 59t50.5 50q-91 9 -134 68.5t-28 159.5l40 272h116l-40 -272q-9 -58 13.5 -90.5t73.5 -32.5q47 0 78 33t39 90l41 272h116l-42 -281q-12 -78 -50 -130t-98 -76q-42 -18 -73 -44.5t-31 -56.5q0 -33 41 -33q25 0 47 13l-11 -74q-30 -14 -64 -14
q-48 0 -75 23.5t-27 63.5z" />
    <glyph glyph-name="uring.alt" horiz-adv-x="570" 
d="M447 657q0 -22 -8.5 -40.5t-23 -32t-34 -21.5t-41.5 -8q-41 0 -69.5 27t-28.5 68q0 21 8.5 39.5t23 32t34 21.5t41.5 8q41 0 69.5 -26.5t28.5 -67.5zM382 655q0 14 -10.5 25t-25.5 11q-14 0 -26.5 -11t-12.5 -28q0 -15 10.5 -26t25.5 -11t27 11.5t12 28.5zM258 -12
q-106 0 -158 61.5t-36 168.5l40 272h116l-40 -272q-9 -58 13.5 -90.5t73.5 -32.5q47 0 78 33t39 90l41 272h116l-42 -281q-16 -105 -79.5 -163t-161.5 -58z" />
    <glyph glyph-name="utilde.alt" horiz-adv-x="570" 
d="M173 583q3 61 33.5 90t74.5 29q25 0 42.5 -7.5t31 -16.5t25 -16.5t25.5 -7.5q18 0 28 12t12 32h72q-3 -62 -33.5 -90.5t-74.5 -28.5q-26 0 -43 7.5t-30.5 16.5t-25 16.5t-25.5 7.5q-19 0 -28.5 -12t-11.5 -32h-72zM258 -12q-106 0 -158 61.5t-36 168.5l40 272h116
l-40 -272q-9 -58 13.5 -90.5t73.5 -32.5q47 0 78 33t39 90l41 272h116l-42 -281q-16 -105 -79.5 -163t-161.5 -58z" />
    <glyph glyph-name="ordfeminine" unicode="&#xaa;" horiz-adv-x="490" 
d="M70 469q0 42 15 79.5t41.5 65.5t62.5 44.5t79 16.5q39 0 72.5 -15t53.5 -43l7 50h92l-55 -368h-92l7 48q-20 -27 -51.5 -42t-66.5 -15q-37 0 -67.5 14t-52 38t-33.5 56.5t-12 70.5zM279 592q-23 0 -44.5 -9.5t-37.5 -26t-25.5 -37.5t-9.5 -45q0 -43 28.5 -71.5
t71.5 -28.5q24 0 44.5 9.5t36.5 26t25 37.5t9 45q0 44 -27.5 72t-70.5 28z" />
    <glyph glyph-name="ordfeminine.alt" horiz-adv-x="412" 
d="M366 299h-86l6 44q-20 -25 -51 -39t-67 -14q-51 0 -80 26.5t-29 74.5q0 53 37.5 86.5t108.5 41.5l106 12l2 15q4 23 -12.5 37.5t-43.5 14.5q-26 0 -46 -11t-31 -37l-81 23q18 48 60 75.5t100 27.5q75 0 113.5 -37t29.5 -99zM149 400q0 -17 13.5 -26.5t36.5 -9.5
q37 0 65.5 23.5t33.5 56.5l2 19l-83 -10q-32 -4 -50 -18.5t-18 -34.5z" />
    <glyph glyph-name="ordmasculine" unicode="&#xba;" horiz-adv-x="458" 
d="M258 375q23 0 43.5 9.5t36 26t24.5 37.5t9 45q0 41 -26.5 69.5t-68.5 28.5q-24 0 -45 -9.5t-36.5 -25.5t-24 -37.5t-8.5 -45.5q0 -41 26.5 -69.5t69.5 -28.5zM464 498q0 -43 -16 -81t-44 -66t-66.5 -44.5t-82.5 -16.5q-40 0 -74 13.5t-58.5 37.5t-38.5 56.5t-14 70.5
q0 43 16 81t44.5 66t66.5 44.5t83 16.5q39 0 73 -13.5t58.5 -37t38.5 -56t14 -71.5z" />
    <glyph glyph-name="a.superior" horiz-adv-x="490" 
d="M70 469q0 42 15 79.5t41.5 65.5t62.5 44.5t79 16.5q39 0 72.5 -15t53.5 -43l7 50h92l-55 -368h-92l7 48q-20 -27 -51.5 -42t-66.5 -15q-37 0 -67.5 14t-52 38t-33.5 56.5t-12 70.5zM279 592q-23 0 -44.5 -9.5t-37.5 -26t-25.5 -37.5t-9.5 -45q0 -43 28.5 -71.5
t71.5 -28.5q24 0 44.5 9.5t36.5 26t25 37.5t9 45q0 44 -27.5 72t-70.5 28z" />
    <glyph glyph-name="b.superior" horiz-adv-x="490" 
d="M73 299l78 523h93l-30 -201q20 26 51.5 40.5t66.5 14.5q37 0 67.5 -14t52 -38t33.5 -56.5t12 -70.5q0 -42 -15 -79.5t-41.5 -65.5t-62.5 -44.5t-79 -16.5q-39 0 -72 15.5t-53 44.5l-8 -52h-93zM288 374q23 0 44.5 9.5t37.5 26t25.5 37.5t9.5 45q0 43 -28.5 71.5
t-71.5 28.5q-24 0 -44.5 -9.5t-36.5 -26t-25 -37.5t-9 -45q0 -44 27.5 -72t70.5 -28z" />
    <glyph glyph-name="c.superior" horiz-adv-x="362" 
d="M252 290q-38 0 -71.5 13t-58 36t-38.5 55t-14 71q0 45 16 83.5t44 67t66 44.5t82 16q29 0 58.5 -9t52.5 -26l-13 -85q-20 17 -44 26.5t-51 9.5q-25 0 -46.5 -9.5t-37.5 -26t-25 -38t-9 -46.5q0 -21 7.5 -39t21 -31t31.5 -20.5t39 -7.5q25 0 48 7.5t45 19.5l-13 -88
q-21 -11 -43.5 -17t-46.5 -6z" />
    <glyph glyph-name="d.superior" horiz-adv-x="489" 
d="M69 469q0 42 15 79.5t41.5 65.5t62.5 44.5t79 16.5q39 0 72.5 -15t53.5 -43l30 206h93l-78 -524h-93l7 48q-20 -27 -51.5 -42t-66.5 -15q-37 0 -67.5 14t-52 38t-33.5 56.5t-12 70.5zM278 592q-23 0 -44.5 -9.5t-37.5 -26t-25.5 -37.5t-9.5 -45q0 -43 28.5 -71.5
t71.5 -28.5q24 0 44.5 9.5t36.5 26t25 37.5t9 45q0 44 -27.5 72t-70.5 28z" />
    <glyph glyph-name="e.superior" horiz-adv-x="434" 
d="M254 367q33 0 53.5 15.5t37.5 38.5l73 -39q-26 -42 -70 -67t-99 -25q-38 0 -71 12.5t-57 35.5t-37.5 55.5t-13.5 71.5q0 43 15 81t42 67t64.5 46t81.5 17q38 0 70 -13t54.5 -36.5t35 -55.5t12.5 -70q0 -9 -1.5 -21t-4.5 -23h-281q0 -21 8 -37.5t21.5 -28t31 -18
t35.5 -6.5zM268 601q-15 0 -30.5 -4.5t-30 -14t-25.5 -25t-16 -36.5h193q-2 36 -28 58t-63 22z" />
    <glyph glyph-name="f.superior" horiz-adv-x="280" 
d="M140 667l5 34q10 66 51 101t104 35q18 0 34.5 -3.5t29.5 -8.5l-11 -78q-10 4 -20.5 6.5t-26.5 2.5q-29 0 -47.5 -17t-23.5 -48l-4 -24h100l-12 -78h-99l-43 -290h-92l43 290h-55l12 78h55z" />
    <glyph glyph-name="g.superior" horiz-adv-x="484" 
d="M349 353q-19 -24 -49.5 -37t-63.5 -13q-36 0 -66 13t-52 35.5t-34.5 53.5t-12.5 68q0 42 15.5 79t42 64t62 43t76.5 16q39 0 70.5 -15.5t50.5 -43.5l8 51h92l-54 -359q-12 -81 -66 -129t-145 -48q-60 0 -108 27t-69 79l79 38q13 -31 39.5 -48t61.5 -17q53 0 81.5 31
t36.5 80zM260 383q23 0 43.5 9t36 24.5t24.5 36.5t9 44q0 42 -27.5 68.5t-69.5 26.5q-23 0 -43 -9t-36 -24.5t-25 -36t-9 -42.5q0 -42 27.5 -69.5t69.5 -27.5z" />
    <glyph glyph-name="h.superior" horiz-adv-x="465" 
d="M165 299h-92l78 524h92l-30 -205q20 26 50 42t68 16q69 0 100.5 -43t20.5 -116l-32 -218h-93l30 206q6 41 -9.5 63.5t-52.5 22.5q-38 0 -66 -27.5t-35 -72.5z" />
    <glyph glyph-name="i.superior" horiz-adv-x="216" 
d="M191 829q24 0 40 -16t16 -38q0 -23 -17 -40t-42 -17q-24 0 -39.5 16t-15.5 38q0 24 17 40.5t41 16.5zM73 299l55 368h93l-55 -368h-93z" />
    <glyph glyph-name="j.superior" horiz-adv-x="192" 
d="M138 273q-10 -66 -46 -102.5t-95 -36.5q-34 0 -59 11l12 78q13 -7 34 -7q26 0 41.5 16.5t20.5 45.5l58 389h93zM167 829q24 0 40 -16t16 -38q0 -23 -17 -40t-42 -17q-24 0 -39.5 16t-15.5 38q0 24 17 40.5t41 16.5z" />
    <glyph glyph-name="k.superior" horiz-adv-x="421" 
d="M207 464l-20 -15l-22 -150h-92l78 524h92l-43 -291l154 135h115l-185 -163l140 -205h-109z" />
    <glyph glyph-name="l.superior" horiz-adv-x="216" 
d="M243 823l-78 -524h-92l78 524h92z" />
    <glyph glyph-name="m.superior" horiz-adv-x="684" 
d="M165 299h-92l55 368h92l-7 -46q19 26 47.5 40.5t63.5 14.5q40 0 65 -17.5t36 -49.5q20 27 54 47t80 20q66 0 95 -43t18 -112l-33 -222h-92l31 209q6 39 -8 61t-49 22q-34 0 -58 -25t-31 -68l-30 -199h-92l31 206q6 41 -8.5 63.5t-48.5 22.5t-58.5 -26t-31.5 -71z" />
    <glyph glyph-name="n.superior" unicode="&#x207f;" horiz-adv-x="465" 
d="M165 299h-92l55 368h92l-7 -49q20 26 50 42t68 16q69 0 100.5 -43t20.5 -116l-32 -218h-93l30 206q6 41 -9.5 63.5t-52.5 22.5q-38 0 -66 -27.5t-35 -72.5z" />
    <glyph glyph-name="o.superior" horiz-adv-x="458" 
d="M258 375q23 0 43.5 9.5t36 26t24.5 37.5t9 45q0 41 -26.5 69.5t-68.5 28.5q-24 0 -45 -9.5t-36.5 -25.5t-24 -37.5t-8.5 -45.5q0 -41 26.5 -69.5t69.5 -28.5zM464 498q0 -43 -16 -81t-44 -66t-66.5 -44.5t-82.5 -16.5q-40 0 -74 13.5t-58.5 37.5t-38.5 56.5t-14 70.5
q0 43 16 81t44.5 66t66.5 44.5t83 16.5q39 0 73 -13.5t58.5 -37t38.5 -56t14 -71.5z" />
    <glyph glyph-name="p.superior" horiz-adv-x="490" 
d="M221 667l-7 -46q20 26 51.5 40.5t66.5 14.5q37 0 67.5 -14t52 -38t33.5 -56.5t12 -70.5q0 -42 -15 -79.5t-41.5 -65.5t-62.5 -44.5t-79 -16.5q-39 0 -72 15.5t-53 44.5l-31 -207h-93l78 523h93zM288 374q23 0 44.5 9.5t37.5 26t25.5 37.5t9.5 45q0 43 -28.5 71.5
t-71.5 28.5q-24 0 -44.5 -9.5t-36.5 -26t-25 -37.5t-9 -45q0 -44 27.5 -72t70.5 -28z" />
    <glyph glyph-name="q.superior" horiz-adv-x="490" 
d="M494 667l-78 -523h-93l30 203q-20 -27 -51.5 -42t-66.5 -15q-37 0 -67.5 14t-52 38t-33.5 56.5t-12 70.5q0 42 15 79.5t41.5 65.5t62.5 44.5t79 16.5q39 0 72.5 -15t53.5 -43l7 50h93zM279 592q-23 0 -44.5 -9.5t-37.5 -26t-25.5 -37.5t-9.5 -45q0 -43 28.5 -71.5
t71.5 -28.5q24 0 44.5 9.5t36.5 26t25 37.5t9 45q0 44 -27.5 72t-70.5 28z" />
    <glyph glyph-name="r.superior" horiz-adv-x="297" 
d="M165 299h-92l55 368h91l-9 -58q19 31 49.5 48t64.5 17q19 0 22 -3l-14 -93q-2 1 -7.5 2t-12.5 1q-58 0 -87.5 -40.5t-39.5 -105.5z" />
    <glyph glyph-name="s.superior" horiz-adv-x="332" 
d="M334 415q0 -30 -12 -53.5t-31.5 -39t-45 -24t-52.5 -8.5q-26 0 -49.5 6.5t-43 20t-33.5 33.5t-19 47l78 27q8 -25 25.5 -41.5t45.5 -16.5q18 0 34 9t16 29q0 13 -10 21t-28 16l-42 17q-42 17 -61 43.5t-19 58.5q0 27 11 48.5t29.5 36.5t42 23t49.5 8q47 0 84.5 -23.5
t50.5 -71.5l-80 -31q-7 22 -21 37t-37 15q-17 0 -29.5 -8.5t-12.5 -25.5q0 -21 37 -37l38 -16q85 -36 85 -100z" />
    <glyph glyph-name="t.superior" horiz-adv-x="287" 
d="M246 775l-16 -108h97l-12 -78h-97l-23 -157q-9 -58 46 -58q25 0 44 11l-13 -83q-12 -5 -28 -8.5t-38 -3.5q-60 0 -86.5 35t-18.5 94l25 170h-55l12 78h55l16 108h92z" />
    <glyph glyph-name="u.superior" horiz-adv-x="463" 
d="M373 667h93l-55 -368h-92l7 49q-20 -26 -49.5 -42t-67.5 -16q-68 0 -99.5 43t-20.5 116l32 218h92l-30 -206q-6 -41 9.5 -63.5t51.5 -22.5q38 0 65.5 27.5t34.5 72.5z" />
    <glyph glyph-name="v.superior" horiz-adv-x="411" 
d="M78 667h96l60 -249l133 249h98l-208 -368h-82z" />
    <glyph glyph-name="w.superior" horiz-adv-x="618" 
d="M405 299l-49 243l-121 -243h-75l-79 368h92l46 -242l121 242h68l49 -242l118 242h94l-189 -368h-75z" />
    <glyph glyph-name="x.superior" horiz-adv-x="412" 
d="M235 420l-105 -121h-107l168 190l-103 178h103l63 -114l98 114h108l-161 -182l107 -186h-102z" />
    <glyph glyph-name="y.superior" horiz-adv-x="418" 
d="M84 134q-20 0 -34.5 4.5t-23.5 9.5l11 75q18 -8 38 -8q23 0 41 13.5t35 43.5l20 35l-94 360h96l61 -260l141 260h97l-215 -379q-24 -43 -44 -72.5t-39.5 -47.5t-41 -26t-48.5 -8z" />
    <glyph glyph-name="z.superior" horiz-adv-x="363" 
d="M394 610l-223 -234h192l-12 -77h-317l9 59l222 232h-176l12 77h302z" />
    <glyph glyph-name="aalt.superior" horiz-adv-x="412" 
d="M366 299h-86l6 44q-20 -25 -51 -39t-67 -14q-51 0 -80 26.5t-29 74.5q0 53 37.5 86.5t108.5 41.5l106 12l2 15q4 23 -12.5 37.5t-43.5 14.5q-26 0 -46 -11t-31 -37l-81 23q18 48 60 75.5t100 27.5q75 0 113.5 -37t29.5 -99zM149 400q0 -17 13.5 -26.5t36.5 -9.5
q37 0 65.5 23.5t33.5 56.5l2 19l-83 -10q-32 -4 -50 -18.5t-18 -34.5z" />
    <glyph glyph-name="talt.superior" horiz-adv-x="253" 
d="M88 299l43 290h-62l12 78h62l16 108h92l-16 -108h72l-12 -78h-72l-43 -290h-92z" />
    <glyph glyph-name="ualt.superior" horiz-adv-x="446" 
d="M240 290q-81 0 -120.5 46t-27.5 127l31 204h93l-31 -205q-6 -41 10.5 -64t52.5 -23q33 0 55.5 24t28.5 63l31 205h93l-32 -212q-12 -79 -60.5 -122t-123.5 -43z" />
    <glyph glyph-name="isquare.superior" horiz-adv-x="216" 
d="M73 299l55 368h93l-55 -368h-93zM136 725l14 97h93l-14 -97h-93z" />
    <glyph glyph-name="jsquare.superior" horiz-adv-x="192" 
d="M138 273q-10 -66 -46 -102.5t-95 -36.5q-34 0 -59 11l12 78q13 -7 34 -7q26 0 41.5 16.5t20.5 45.5l58 389h93zM112 725l14 97h93l-14 -97h-93z" />
    <glyph glyph-name="fi" unicode="&#xfb01;" horiz-adv-x="624" 
d="M60 490h72l7 42q13 88 66 137t135 49q23 0 47 -4t40 -12l-16 -100q-28 14 -63 14q-39 0 -63 -24t-31 -67l-6 -35h133l-15 -98h-132l-59 -392h-116l59 392h-73zM399 0l73 490h116l-73 -490h-116zM551 705q29 0 49 -21t20 -49q0 -30 -21.5 -51.5t-51.5 -21.5t-50 20.5
t-20 49.5q0 30 22 51.5t52 21.5z" />
    <glyph glyph-name="fl" unicode="&#xfb02;" horiz-adv-x="624" 
d="M60 490h72l7 42q13 88 66 137t135 49q23 0 47 -4t40 -12l-16 -100q-28 14 -63 14q-39 0 -63 -24t-31 -67l-6 -35h133l-15 -98h-132l-59 -392h-116l59 392h-73zM620 700l-105 -700h-116l105 700h116z" />
    <glyph glyph-name="ampersand" unicode="&#x26;" horiz-adv-x="723" 
d="M531 0l-76 89q-48 -47 -104 -74t-127 -27q-38 0 -73 11t-61.5 33t-42.5 54.5t-16 76.5q0 40 12.5 73.5t35 61.5t53 51t67.5 42q-28 35 -41 67.5t-13 70.5q0 39 15.5 73t41.5 58.5t61.5 38.5t74.5 14q33 0 63.5 -11t54 -31t37.5 -49.5t14 -65.5q0 -61 -38.5 -107
t-104.5 -84l102 -116l130 129l75 -71l-138 -138l148 -169h-150zM240 93q47 0 80 22t65 53l-122 146q-21 -11 -42 -25t-37.5 -31.5t-26.5 -37.5t-10 -44q0 -18 7.5 -33t20 -26t29.5 -17.5t36 -6.5zM255 537q0 -29 15 -53t32 -45q54 30 76 57.5t22 51.5q0 28 -18 48.5
t-49 20.5q-32 0 -55 -23.5t-23 -56.5z" />
    <glyph glyph-name="acute" unicode="&#xb4;" horiz-adv-x="500" 
d="M207 575l116 143h130l-140 -143h-106z" />
    <glyph glyph-name="breve" unicode="&#x2d8;" horiz-adv-x="500" 
d="M314 650q26 0 44 17t22 46h82q-5 -63 -47.5 -101t-105.5 -38q-31 0 -56.5 10t-43.5 28.5t-26.5 44t-6.5 56.5h82q-1 -29 14 -46t42 -17z" />
    <glyph glyph-name="caron" unicode="&#x2c7;" horiz-adv-x="500" 
d="M476 718l-131 -143h-90l-90 143h103l41 -68l61 68h106z" />
    <glyph glyph-name="caronSlovak" horiz-adv-x="500" 
d="M222 545l53 167h118l-72 -167h-99z" />
    <glyph glyph-name="cedilla" unicode="&#xb8;" horiz-adv-x="500" 
d="M291 -128q0 -42 -30.5 -69.5t-75.5 -27.5q-42 0 -68.5 24t-28.5 59h70q1 -8 9 -16t22 -8q15 0 25 9.5t10 23.5q0 13 -8.5 21.5t-22.5 8.5q-9 0 -17 -4t-13 -9l-57 38l55 83l71 -3l-39 -51q6 2 16 2q37 0 59.5 -23t22.5 -58z" />
    <glyph glyph-name="circumflex" unicode="&#x2c6;" horiz-adv-x="500" 
d="M144 575l132 143h90l89 -143h-103l-41 68l-60 -68h-107z" />
    <glyph glyph-name="commaaccent" unicode="&#xf6c3;" horiz-adv-x="500" 
d="M196 -240h-65l46 73q-20 2 -33.5 16.5t-13.5 35.5q0 28 20 46.5t49 18.5q26 0 44.5 -17t18.5 -45q0 -15 -7 -30.5t-18 -33.5z" />
    <glyph glyph-name="commaaccent.square" horiz-adv-x="500" 
d="M152 -54h109l-17 -113q-7 -45 -33.5 -64.5t-66.5 -19.5q-11 0 -19 2l8 51q4 -1 9 -1q15 0 26 7t14 25l1 7h-47z" />
    <glyph glyph-name="dieresis" unicode="&#xa8;" horiz-adv-x="500" 
d="M274 634q0 -26 -18.5 -44.5t-44.5 -18.5t-43.5 18t-17.5 43q0 26 19 44.5t45 18.5t43 -18t17 -43zM464 634q0 -26 -18.5 -44.5t-44.5 -18.5t-43.5 18t-17.5 43q0 26 18.5 44.5t44.5 18.5t43.5 -18t17.5 -43z" />
    <glyph glyph-name="dieresis.square" horiz-adv-x="500" 
d="M149 576l17 117h108l-17 -117h-108zM342 576l17 117h108l-17 -117h-108z" />
    <glyph glyph-name="dotaccent" unicode="&#x2d9;" horiz-adv-x="500" 
d="M310 705q29 0 49 -21t20 -49q0 -30 -21.5 -51.5t-51.5 -21.5t-50 20.5t-20 49.5q0 30 22 51.5t52 21.5z" />
    <glyph glyph-name="dotaccent.square" horiz-adv-x="500" 
d="M241 571l19 123h116l-19 -123h-116z" />
    <glyph glyph-name="grave" unicode="`" horiz-adv-x="500" 
d="M289 575l-99 143h123l74 -143h-98z" />
    <glyph glyph-name="hungarumlaut" unicode="&#x2dd;" horiz-adv-x="500" 
d="M130 572l107 142h115l-125 -142h-97zM303 572l107 142h114l-125 -142h-96z" />
    <glyph glyph-name="macron" unicode="&#xaf;" horiz-adv-x="500" 
d="M157 590l12 77h288l-12 -77h-288z" />
    <glyph glyph-name="ogonek" unicode="&#x2db;" horiz-adv-x="500" 
d="M311 0q-27 -6 -50 -16.5t-40 -23.5t-26.5 -28t-9.5 -30q0 -17 11 -25t31 -8q25 0 47 13l-11 -74q-28 -14 -63 -14q-49 0 -76 23.5t-27 63.5q0 37 26.5 68t75.5 53z" />
    <glyph glyph-name="ring" unicode="&#x2da;" horiz-adv-x="500" 
d="M413 657q0 -22 -8.5 -40.5t-23 -32t-34 -21.5t-41.5 -8q-41 0 -69.5 27t-28.5 68q0 21 8.5 39.5t23 32t34 21.5t41.5 8q41 0 69.5 -26.5t28.5 -67.5zM348 655q0 14 -10.5 25t-25.5 11q-14 0 -26.5 -11t-12.5 -28q0 -15 10.5 -26t25.5 -11t27 11.5t12 28.5z" />
    <glyph glyph-name="tilde" unicode="&#x2dc;" horiz-adv-x="500" 
d="M134 583q3 61 33.5 90t74.5 29q25 0 42.5 -7.5t31 -16.5t25 -16.5t25.5 -7.5q18 0 28 12t12 32h72q-3 -62 -33.5 -90.5t-74.5 -28.5q-26 0 -43 7.5t-30.5 16.5t-25 16.5t-25.5 7.5q-19 0 -28.5 -12t-11.5 -32h-72z" />
    <glyph glyph-name="uni0312" unicode="&#x312;" horiz-adv-x="500" 
d="M305 752h65l-46 -73q20 -2 33.5 -16.5t13.5 -35.5q0 -28 -20 -46.5t-49 -18.5q-26 0 -44.5 17t-18.5 45q0 15 7 30.5t18 33.5z" />
    <glyph glyph-name="uni0312.square" horiz-adv-x="500" 
d="M352 567h-109l16 112q7 48 35 67.5t66 19.5q9 0 20 -1l-8 -53q-6 1 -10 1q-16 0 -27.5 -8t-13.5 -24l-1 -6h48z" />
    <glyph glyph-name="acute.cap" horiz-adv-x="500" 
d="M235 755l116 143h130l-140 -143h-106z" />
    <glyph glyph-name="breve.cap" horiz-adv-x="500" 
d="M342 832q26 0 44 17t22 46h82q-5 -63 -47.5 -101t-105.5 -38q-31 0 -56.5 10t-43.5 28.5t-26.5 44t-6.5 56.5h82q-1 -29 14 -46t42 -17z" />
    <glyph glyph-name="caron.cap" horiz-adv-x="500" 
d="M503 898l-131 -143h-90l-90 143h103l41 -68l61 68h106z" />
    <glyph glyph-name="circumflex.cap" horiz-adv-x="500" 
d="M171 755l132 143h90l89 -143h-103l-41 68l-60 -68h-107z" />
    <glyph glyph-name="dieresis.cap" horiz-adv-x="500" 
d="M303 828q0 -26 -18.5 -44.5t-44.5 -18.5t-43.5 18t-17.5 43t19 43.5t45 18.5t43 -18t17 -42zM493 828q0 -26 -18.5 -44.5t-44.5 -18.5t-43.5 18t-17.5 43t18.5 43.5t44.5 18.5t43.5 -18t17.5 -42z" />
    <glyph glyph-name="dieresiscap.square" horiz-adv-x="500" 
d="M178 768l17 116h108l-17 -116h-108zM371 768l17 116h108l-17 -116h-108z" />
    <glyph glyph-name="dotaccent.cap" horiz-adv-x="500" 
d="M406 834q0 -29 -21 -49.5t-50 -20.5t-48 19.5t-19 47.5q0 29 21 49.5t50 20.5q28 0 47.5 -20t19.5 -47z" />
    <glyph glyph-name="dotaccentcap.square" horiz-adv-x="500" 
d="M270 769l18 120h116l-18 -120h-116z" />
    <glyph glyph-name="grave.cap" horiz-adv-x="500" 
d="M316 755l-99 143h123l74 -143h-98z" />
    <glyph glyph-name="hungarumlaut.cap" horiz-adv-x="500" 
d="M150 755l107 143h115l-125 -143h-97zM323 755l107 143h114l-125 -143h-96z" />
    <glyph glyph-name="macron.cap" horiz-adv-x="500" 
d="M185 772l12 77h288l-12 -77h-288z" />
    <glyph glyph-name="ring.cap" horiz-adv-x="500" 
d="M440 837q0 -22 -8.5 -40.5t-23 -32t-34 -21.5t-41.5 -8q-41 0 -69.5 27t-28.5 68q0 21 8.5 39.5t23 32t34 21.5t41.5 8q41 0 69.5 -26.5t28.5 -67.5zM375 835q0 14 -10.5 25t-25.5 11q-14 0 -26.5 -11t-12.5 -28q0 -15 10.5 -26t25.5 -11t27 11.5t12 28.5z" />
    <glyph glyph-name="tilde.cap" horiz-adv-x="500" 
d="M161 765q3 61 33.5 90t74.5 29q25 0 42.5 -7.5t31 -16.5t25 -16.5t25.5 -7.5q18 0 28 12t12 32h72q-3 -62 -33.5 -90.5t-74.5 -28.5q-26 0 -43 7.5t-30.5 16.5t-25 16.5t-25.5 7.5q-19 0 -28.5 -12t-11.5 -32h-72z" />
    <glyph glyph-name="period" unicode="." horiz-adv-x="267" 
d="M182 65q0 -32 -22 -54t-54 -22q-31 0 -52 21.5t-21 51.5q0 32 22 54t54 22q31 0 52 -21.5t21 -51.5z" />
    <glyph glyph-name="comma" unicode="," horiz-adv-x="267" 
d="M88 -108h-74l69 109q-22 3 -37 20.5t-15 42.5q0 32 23 53t55 21q31 0 52 -20t21 -51q0 -17 -8 -35t-21 -38z" />
    <glyph glyph-name="colon" unicode=":" horiz-adv-x="267" 
d="M182 65q0 -32 -22 -54t-54 -22q-31 0 -52 21.5t-21 51.5q0 32 22 54t54 22q31 0 52 -21.5t21 -51.5zM234 413q0 -32 -22 -54t-54 -22q-31 0 -52 21.5t-21 51.5q0 32 22 54t54 22q31 0 52 -21.5t21 -51.5z" />
    <glyph glyph-name="semicolon" unicode=";" horiz-adv-x="267" 
d="M234 413q0 -32 -22 -54t-54 -22q-31 0 -52 21.5t-21 51.5q0 32 22 54t54 22q31 0 52 -21.5t21 -51.5zM88 -108h-74l69 109q-22 3 -37 20.5t-15 42.5q0 32 23 53t55 21q31 0 52 -20t21 -51q0 -17 -8 -35t-21 -38z" />
    <glyph glyph-name="period.square" horiz-adv-x="268" 
d="M35 0l20 131h126l-20 -131h-126z" />
    <glyph glyph-name="comma.square" horiz-adv-x="268" 
d="M54 131h126l-21 -141q-9 -61 -40.5 -89t-79.5 -28q-11 0 -21 2l9 60q3 -1 9 -1q18 0 33.5 14.5t18.5 37.5l2 14h-55z" />
    <glyph glyph-name="colon.square" horiz-adv-x="268" 
d="M35 0l20 131h126l-20 -131h-126zM87 346l20 131h126l-20 -131h-126z" />
    <glyph glyph-name="semicolon.square" horiz-adv-x="268" 
d="M85 346l20 131h126l-20 -131h-126zM54 131h126l-21 -141q-9 -61 -40.5 -89t-79.5 -28q-11 0 -21 2l9 60q3 -1 9 -1q18 0 33.5 14.5t18.5 37.5l2 14h-55z" />
    <glyph glyph-name="ellipsis" unicode="&#x2026;" horiz-adv-x="859" 
d="M182 65q0 -32 -22 -54t-54 -22q-31 0 -52 21.5t-21 51.5q0 32 22 54t54 22q31 0 52 -21.5t21 -51.5zM774 65q0 -32 -22 -54t-54 -22q-31 0 -52 21.5t-21 51.5q0 32 22 54t54 22q31 0 52 -21.5t21 -51.5zM478 65q0 -32 -22 -54t-54 -22q-31 0 -52 21.5t-21 51.5
q0 32 22 54t54 22q31 0 52 -21.5t21 -51.5z" />
    <glyph glyph-name="ellipsis.square" horiz-adv-x="860" 
d="M35 0l20 131h126l-20 -131h-126zM627 0l20 131h126l-20 -131h-126zM331 0l20 131h126l-20 -131h-126z" />
    <glyph glyph-name="exclam" unicode="!" horiz-adv-x="280" 
d="M83 208l64 492h124l-84 -492h-104zM189 64q0 -31 -22 -53t-53 -22q-30 0 -50.5 21t-20.5 50q0 31 22.5 53t52.5 22t50.5 -21t20.5 -50z" />
    <glyph glyph-name="exclamdown" unicode="&#xa1;" horiz-adv-x="280" 
d="M198 283l-63 -491h-124l83 491h104zM240 431q0 -31 -22.5 -53t-53.5 -22q-29 0 -49.5 21t-20.5 50q0 31 22 53t53 22q30 0 50.5 -21t20.5 -50z" />
    <glyph glyph-name="exclamdown.cap" horiz-adv-x="280" 
d="M230 493l-64 -493h-124l84 493h104zM270 641q0 -31 -22 -53t-53 -22q-29 0 -50 21t-21 50q0 31 22 53t54 22q29 0 49.5 -21t20.5 -50z" />
    <glyph glyph-name="question" unicode="?" horiz-adv-x="537" 
d="M420 509q0 19 -7.5 36t-20.5 29.5t-31.5 19.5t-39.5 7q-24 0 -45 -9t-37.5 -24.5t-26.5 -36.5t-11 -46h-116q3 49 22 91t50.5 72.5t74 47.5t92.5 17q47 0 86.5 -14.5t68 -40t44.5 -60.5t16 -75q0 -51 -24 -94.5t-81 -85.5q-15 -12 -33.5 -25t-34.5 -26.5t-27.5 -28.5
t-14.5 -31l-3 -24h-118l5 35q6 42 36.5 77.5t82.5 70.5q45 30 69 58t24 60zM320 64q0 -31 -22 -53t-53 -22q-30 0 -50.5 21t-20.5 50q0 31 22.5 53t52.5 22t50.5 -21t20.5 -50z" />
    <glyph glyph-name="questiondown" unicode="&#xbf;" horiz-adv-x="530" 
d="M342 283l-5 -32q-7 -42 -37 -77.5t-82 -70.5q-45 -30 -69 -58t-24 -60q0 -38 28 -64.5t71 -26.5q24 0 45 9t37.5 24.5t26 36.5t11.5 45h116q-3 -49 -22 -90.5t-50.5 -72t-74 -47.5t-92.5 -17q-47 0 -86.5 14.5t-68 40t-44.5 60t-16 74.5q0 51 24 94.5t81 85.5
q15 12 33.5 25t34.5 26.5t28 28t14 31.5l3 21h118zM224 427q0 31 22 53t53 22q30 0 50.5 -21t20.5 -50q0 -31 -22.5 -53t-52.5 -22t-50.5 21t-20.5 50z" />
    <glyph glyph-name="questiondown.cap" horiz-adv-x="537" 
d="M157 192q0 -38 28 -64.5t71 -26.5q24 0 45 9t37.5 24.5t26 36.5t11.5 45h116q-3 -49 -22 -90.5t-50.5 -72t-74 -47.5t-92.5 -17q-47 0 -86.5 14.5t-68 40t-44.5 60t-16 74.5q0 51 24 94.5t81 85.5q15 12 33.5 25t34.5 26.5t27.5 28t14.5 31.5l3 24h118l-5 -35
q-6 -42 -36.5 -77.5t-82.5 -70.5q-45 -30 -69 -58t-24 -60zM257 637q0 31 22 53t53 22q30 0 50.5 -21t20.5 -50q0 -31 -22.5 -53t-52.5 -22t-50.5 21t-20.5 50z" />
    <glyph glyph-name="exclam.square" horiz-adv-x="279" 
d="M185 127l-19 -127h-124l19 127h124zM271 700l-85 -492h-102l63 492h124z" />
    <glyph glyph-name="exclamdown.square" horiz-adv-x="279" 
d="M96 363l19 127h124l-19 -127h-124zM11 -208l84 491h102l-62 -491h-124z" />
    <glyph glyph-name="exclamdowncap.square" horiz-adv-x="280" 
d="M128 573l19 127h124l-19 -127h-124zM42 0l85 493h102l-63 -493h-124z" />
    <glyph glyph-name="question.square" horiz-adv-x="537" 
d="M420 509q0 19 -7.5 36t-20.5 29.5t-31.5 19.5t-39.5 7q-24 0 -45 -9t-37.5 -24.5t-26.5 -36.5t-11 -46h-116q3 49 22 91t50.5 72.5t74 47.5t92.5 17q47 0 86.5 -14.5t68 -40t44.5 -60.5t16 -75q0 -51 -24 -94.5t-81 -85.5q-16 -12 -34.5 -25t-35 -26.5t-28.5 -28.5
t-15 -31l-3 -24h-113l5 35q6 42 36 77.5t81 70.5q45 30 69 58t24 60zM313 127l-19 -127h-125l19 127h125z" />
    <glyph glyph-name="questiondown.square" horiz-adv-x="530" 
d="M340 283l-5 -32q-6 -42 -36 -77.5t-81 -70.5q-45 -30 -69 -58t-24 -60q0 -38 28 -64.5t71 -26.5q24 0 45 9t37.5 24.5t26 36.5t11.5 45h116q-3 -49 -22 -90.5t-50.5 -72t-74 -47.5t-92.5 -17q-47 0 -86.5 14.5t-68 40t-44.5 60t-16 74.5q0 51 24 94.5t81 85.5
q16 12 34.5 25t35 26.5t28.5 28t15 31.5l3 21h113zM232 366l19 127h125l-19 -127h-125z" />
    <glyph glyph-name="questiondowncap.square" horiz-adv-x="537" 
d="M156 192q0 -38 28 -64.5t71 -26.5q24 0 45 9t37.5 24.5t26 36.5t11.5 45h116q-3 -49 -22 -90.5t-50.5 -72t-74 -47.5t-92.5 -17q-47 0 -86.5 14.5t-68 40t-44.5 60t-16 74.5q0 51 24 94.5t81 85.5q16 12 34.5 25t35 26.5t28.5 28t15 31.5l3 24h113l-5 -35
q-6 -42 -36 -77.5t-81 -70.5q-45 -30 -69 -58t-24 -60zM263 573l19 127h125l-19 -127h-125z" />
    <glyph glyph-name="quoteleft" unicode="&#x2018;" horiz-adv-x="215" 
d="M169 700h70l-65 -103q20 -3 34.5 -20t14.5 -40q0 -30 -21.5 -50t-52.5 -20q-29 0 -49 19t-20 48q0 17 7.5 33.5t19.5 35.5z" />
    <glyph glyph-name="quoteright" unicode="&#x2019;" horiz-adv-x="215" 
d="M151 480h-70l65 103q-20 3 -34.5 20t-14.5 40q0 30 21.5 50t52.5 20q29 0 49 -19t20 -48q0 -17 -7.5 -33.5t-19.5 -35.5z" />
    <glyph glyph-name="quotedblleft" unicode="&#x201c;" horiz-adv-x="397" 
d="M169 700h70l-65 -103q20 -3 34.5 -20t14.5 -40q0 -30 -21.5 -50t-52.5 -20q-29 0 -49 19t-20 48q0 17 7.5 33.5t19.5 35.5zM351 700h70l-65 -103q20 -3 34.5 -20t14.5 -40q0 -30 -21.5 -50t-52.5 -20q-29 0 -49 19t-20 48q0 17 7.5 33.5t19.5 35.5z" />
    <glyph glyph-name="quotedblright" unicode="&#x201d;" horiz-adv-x="397" 
d="M151 480h-70l65 103q-20 3 -34.5 20t-14.5 40q0 30 21.5 50t52.5 20q29 0 49 -19t20 -48q0 -17 -7.5 -33.5t-19.5 -35.5zM333 480h-70l65 103q-20 3 -34.5 20t-14.5 40q0 30 21.5 50t52.5 20q29 0 49 -19t20 -48q0 -17 -7.5 -33.5t-19.5 -35.5z" />
    <glyph glyph-name="quotesinglbase" unicode="&#x201a;" horiz-adv-x="215" 
d="M63 -104h-70l65 103q-20 3 -34.5 20t-14.5 40q0 30 21.5 50t52.5 20q29 0 49 -19t20 -48q0 -17 -7.5 -33.5t-19.5 -35.5z" />
    <glyph glyph-name="quotedblbase" unicode="&#x201e;" horiz-adv-x="397" 
d="M63 -104h-70l65 103q-20 3 -34.5 20t-14.5 40q0 30 21.5 50t52.5 20q29 0 49 -19t20 -48q0 -17 -7.5 -33.5t-19.5 -35.5zM245 -104h-70l65 103q-20 3 -34.5 20t-14.5 40q0 30 21.5 50t52.5 20q29 0 49 -19t20 -48q0 -17 -7.5 -33.5t-19.5 -35.5z" />
    <glyph glyph-name="reversequoteleft" horiz-adv-x="215" 
d="M171 584l38 -104h-65l-38 107q-4 11 -7 25t-3 28q0 32 21 52.5t53 20.5q29 0 48.5 -18.5t19.5 -47.5q0 -26 -18 -44.5t-43 -18.5h-6z" />
    <glyph glyph-name="reversequotedblleft" horiz-adv-x="397" 
d="M171 584l38 -104h-65l-38 107q-4 11 -7 25t-3 28q0 32 21 52.5t53 20.5q29 0 48.5 -18.5t19.5 -47.5q0 -26 -18 -44.5t-43 -18.5h-6zM353 584l38 -104h-65l-38 107q-4 11 -7 25t-3 28q0 32 21 52.5t53 20.5q29 0 48.5 -18.5t19.5 -47.5q0 -26 -18 -44.5t-43 -18.5h-6z
" />
    <glyph glyph-name="quoteleft.square" horiz-adv-x="217" 
d="M201 469h-119l20 132q9 60 39 85.5t74 25.5q9 0 20 -2l-8 -56q-5 1 -11 1q-17 0 -30.5 -13t-16.5 -35l-2 -15h52z" />
    <glyph glyph-name="quoteright.square" horiz-adv-x="216" 
d="M118 700h119l-20 -132q-9 -60 -39 -85.5t-74 -25.5q-9 0 -20 2l8 56q5 -1 11 -1q17 0 30.5 13t16.5 35l2 15h-52z" />
    <glyph glyph-name="quotedblleft.square" horiz-adv-x="391" 
d="M201 469h-119l20 132q9 60 39 85.5t74 25.5q9 0 20 -2l-8 -56q-5 1 -11 1q-17 0 -30.5 -13t-16.5 -35l-2 -15h52zM375 469h-119l20 132q9 60 39 85.5t74 25.5q9 0 20 -2l-8 -56q-5 1 -11 1q-17 0 -30.5 -13t-16.5 -35l-2 -15h52z" />
    <glyph glyph-name="quotedblright.square" horiz-adv-x="390" 
d="M292 700h119l-20 -132q-9 -60 -39 -85.5t-74 -25.5q-9 0 -20 2l8 56q5 -1 11 -1q17 0 30.5 13t16.5 35l2 15h-52zM118 700h119l-20 -132q-9 -60 -39 -85.5t-74 -25.5q-9 0 -20 2l8 56q5 -1 11 -1q17 0 30.5 13t16.5 35l2 15h-52z" />
    <glyph glyph-name="quotesinglbase.square" horiz-adv-x="216" 
d="M31 123h119l-20 -132q-9 -60 -39 -85.5t-74 -25.5q-9 0 -20 2l8 56q5 -1 11 -1q17 0 30.5 13t16.5 35l2 15h-52z" />
    <glyph glyph-name="quotedblbase.square" horiz-adv-x="391" 
d="M206 123h119l-20 -132q-9 -60 -39 -85.5t-74 -25.5q-9 0 -20 2l8 56q5 -1 11 -1q17 0 30.5 13t16.5 35l2 15h-52zM31 123h119l-20 -132q-9 -60 -39 -85.5t-74 -25.5q-9 0 -20 2l8 56q5 -1 11 -1q17 0 30.5 13t16.5 35l2 15h-52z" />
    <glyph glyph-name="reversequoteleft.square" horiz-adv-x="216" 
d="M217 577h-53l-2 -15q-3 -23 7 -35.5t27 -12.5q7 0 10 1l-8 -57q-5 -1 -14 -1q-47 0 -70.5 31t-14.5 91l18 121h119z" />
    <glyph glyph-name="reversequotedblleft.square" horiz-adv-x="390" 
d="M217 577h-53l-2 -15q-3 -23 7 -35.5t27 -12.5q7 0 10 1l-8 -57q-5 -1 -14 -1q-47 0 -70.5 31t-14.5 91l18 121h119zM391 577h-53l-2 -15q-3 -23 7 -35.5t27 -12.5q7 0 10 1l-8 -57q-5 -1 -14 -1q-47 0 -70.5 31t-14.5 91l18 121h119z" />
    <glyph glyph-name="guilsinglleft" unicode="&#x2039;" horiz-adv-x="307" 
d="M42 267l162 199h112l-164 -204l102 -200h-108z" />
    <glyph glyph-name="guilsinglright" unicode="&#x203a;" horiz-adv-x="307" 
d="M271 260l-161 -198h-112l164 205l-101 199h106z" />
    <glyph glyph-name="guillemotleft" unicode="&#xab;" horiz-adv-x="497" 
d="M42 267l162 199h112l-164 -204l102 -200h-108zM233 265l161 201h112l-163 -206l101 -198h-108z" />
    <glyph glyph-name="guillemotright" unicode="&#xbb;" horiz-adv-x="498" 
d="M462 261l-162 -199h-112l164 204l-102 200h108zM271 263l-161 -201h-112l163 206l-101 198h108z" />
    <glyph glyph-name="guilsinglleft.cap" horiz-adv-x="307" 
d="M55 348l162 199h112l-164 -204l102 -200h-108z" />
    <glyph glyph-name="guilsinglright.cap" horiz-adv-x="307" 
d="M283 341l-161 -198h-112l164 205l-101 199h106z" />
    <glyph glyph-name="guillemotleft.cap" horiz-adv-x="497" 
d="M55 348l162 199h112l-164 -204l102 -200h-108zM246 346l161 201h112l-163 -206l101 -198h-108z" />
    <glyph glyph-name="guillemotright.cap" horiz-adv-x="498" 
d="M474 342l-162 -199h-112l164 204l-102 200h108zM283 344l-161 -201h-112l163 206l-101 198h108z" />
    <glyph glyph-name="slash" unicode="/" horiz-adv-x="471" 
d="M53 -100h-119l495 865h119z" />
    <glyph glyph-name="backslash" unicode="\" horiz-adv-x="471" 
d="M81 765h112l240 -865h-112z" />
    <glyph glyph-name="bar" unicode="|" horiz-adv-x="283" 
d="M28 -156l138 921h109l-138 -921h-109z" />
    <glyph glyph-name="doublebar" horiz-adv-x="467" 
d="M28 -156l138 921h109l-138 -921h-109zM212 -156l138 921h109l-138 -921h-109z" />
    <glyph glyph-name="brokenbar" unicode="&#xa6;" horiz-adv-x="283" 
d="M109 385l57 380h109l-57 -380h-109zM194 228l-57 -384h-109l57 384h109z" />
    <glyph glyph-name="bullet" unicode="&#x2022;" horiz-adv-x="318" 
d="M55 263q0 22 9.5 42t25 35t35.5 24t42 9t41 -8.5t33.5 -22.5t22.5 -33t8 -40q0 -23 -9 -43t-24.5 -35t-36 -24t-42.5 -9t-41 8.5t-33.5 23t-22.5 33.5t-8 40z" />
    <glyph glyph-name="slash.cap" horiz-adv-x="471" 
d="M525 724l-429 -748h-119l429 748h119z" />
    <glyph glyph-name="backslash.cap" horiz-adv-x="471" 
d="M92 724h112l208 -748h-112z" />
    <glyph glyph-name="bar.cap" horiz-adv-x="283" 
d="M47 -24l112 748h109l-112 -748h-109z" />
    <glyph glyph-name="doublebar.cap" horiz-adv-x="467" 
d="M47 -24l112 748h109l-112 -748h-109zM231 -24l112 748h109l-112 -748h-109z" />
    <glyph glyph-name="brokenbar.cap" horiz-adv-x="283" 
d="M115 431l44 293h109l-44 -293h-109zM201 274l-45 -298h-109l45 298h109z" />
    <glyph glyph-name="bullet.cap" horiz-adv-x="318" 
d="M67 343q0 22 9.5 42t25 35t35.5 24t42 9t41 -8.5t33.5 -22.5t22.5 -33t8 -40q0 -23 -9 -43t-24.5 -35t-36 -24t-42.5 -9t-41 8.5t-33.5 23t-22.5 33.5t-8 40z" />
    <glyph glyph-name="nonbreakingspace" unicode="&#xa0;" horiz-adv-x="239" 
 />
    <glyph glyph-name="thinspace" unicode="&#x2009;" horiz-adv-x="110" 
 />
    <glyph glyph-name="periodcentered" unicode="&#xb7;" horiz-adv-x="267" 
d="M213 266q0 -32 -22 -54t-54 -22q-31 0 -52 21.5t-21 51.5q0 32 22 54t54 22q31 0 52 -21.5t21 -51.5z" />
    <glyph glyph-name="periodcentered.square" horiz-adv-x="267" 
d="M64 199l20 131h126l-20 -131h-126z" />
    <glyph glyph-name="hyphen" unicode="-" horiz-adv-x="424" 
d="M69 317h310l-16 -104h-310z" />
    <glyph glyph-name="endash" unicode="&#x2013;" horiz-adv-x="564" 
d="M68 314h451l-15 -98h-451z" />
    <glyph glyph-name="emdash" unicode="&#x2014;" horiz-adv-x="864" 
d="M68 314h751l-15 -98h-751z" />
    <glyph glyph-name="figuredash" unicode="&#x2012;" horiz-adv-x="599" 
d="M68 314h486l-15 -98h-486z" />
    <glyph glyph-name="periodcentered.cap" horiz-adv-x="267" 
d="M225 346q0 -32 -22 -54t-54 -22q-31 0 -52 21.5t-21 51.5q0 32 22 54t54 22q31 0 52 -21.5t21 -51.5z" />
    <glyph glyph-name="periodcenteredcap.square" horiz-adv-x="267" 
d="M76 279l20 131h126l-20 -131h-126z" />
    <glyph glyph-name="hyphen.cap" horiz-adv-x="424" 
d="M82 397h310l-16 -104h-310z" />
    <glyph glyph-name="endash.cap" horiz-adv-x="564" 
d="M81 395h451l-15 -98h-451z" />
    <glyph glyph-name="emdash.cap" horiz-adv-x="864" 
d="M81 395h751l-15 -98h-751z" />
    <glyph glyph-name="figuredash.cap" horiz-adv-x="599" 
d="M81 395h486l-15 -98h-486z" />
    <glyph glyph-name="parenleft" unicode="(" horiz-adv-x="339" 
d="M53 209q0 161 64 298.5t172 245.5h120q-119 -127 -180.5 -259t-61.5 -283q0 -99 25 -196t76 -180h-111q-25 36 -44 80.5t-32.5 93.5t-20.5 100t-7 100z" />
    <glyph glyph-name="parenright" unicode=")" horiz-adv-x="339" 
d="M301 379q0 -161 -64 -298.5t-172 -245.5h-120q119 127 180.5 259t61.5 283q0 99 -25 196t-76 180h111q25 -36 44 -80.5t32.5 -93.5t20.5 -100t7 -100z" />
    <glyph glyph-name="bracketleft" unicode="[" horiz-adv-x="341" 
d="M148 753h246l-14 -93h-137l-109 -732h137l-14 -93h-246z" />
    <glyph glyph-name="bracketright" unicode="]" horiz-adv-x="341" 
d="M208 -165h-246l14 93h137l109 732h-137l14 93h246z" />
    <glyph glyph-name="braceleft" unicode="{" horiz-adv-x="369" 
d="M157 567q10 102 61 144t145 42q9 0 18 -0.5t35 -2.5l-13 -86q-18 2 -31 2q-45 0 -73.5 -23t-34.5 -82l-13 -133q-5 -54 -30 -85.5t-71 -51.5q42 -19 56.5 -49.5t4.5 -81.5l-26 -134q-11 -59 9 -81.5t64 -22.5q14 0 34 2l-13 -87q-22 -3 -43 -3q-46 0 -80.5 11t-55.5 34
t-27.5 59.5t3.5 86.5l26 132q9 45 -12 67t-56 27l13 87q38 5 64.5 26.5t31.5 65.5z" />
    <glyph glyph-name="braceright" unicode="}" horiz-adv-x="369" 
d="M229 20q-10 -102 -61 -144t-145 -42q-9 0 -18 0.5t-35 2.5l13 86q18 -2 31 -2q45 0 73.5 23t34.5 82l13 133q5 54 30 85.5t71 51.5q-42 19 -56.5 49.5t-4.5 81.5l26 134q11 59 -9 81.5t-64 22.5q-14 0 -34 -2l13 87q22 3 43 3q46 0 80.5 -11t55.5 -34t27.5 -59.5
t-3.5 -86.5l-26 -132q-9 -45 12 -67t56 -27l-13 -87q-38 -5 -64.5 -26.5t-31.5 -65.5z" />
    <glyph glyph-name="anglebracketleft" unicode="&#x3008;" horiz-adv-x="349" 
d="M34 296l270 457h114l-269 -464l132 -454h-114z" />
    <glyph glyph-name="anglebracketright" unicode="&#x3009;" horiz-adv-x="349" 
d="M331 292l-269 -457h-117l272 465l-132 453h112z" />
    <glyph glyph-name="parenleft.cap" horiz-adv-x="338" 
d="M62 276q0 131 56 254.5t162 222.5h118q-110 -114 -165.5 -231.5t-55.5 -240.5q0 -85 24 -174.5t73 -166.5h-110q-25 33 -44 73t-32 83.5t-19.5 89t-6.5 90.5z" />
    <glyph glyph-name="parenright.cap" horiz-adv-x="338" 
d="M308 417q0 -131 -56 -254.5t-162 -222.5h-118q110 114 165.5 231.5t55.5 240.5q0 85 -24 174.5t-73 166.5h110q25 -33 44 -73t32 -83.5t19.5 -89t6.5 -90.5z" />
    <glyph glyph-name="bracketleft.cap" horiz-adv-x="341" 
d="M149 753h246l-14 -93h-137l-94 -627h137l-14 -93h-246z" />
    <glyph glyph-name="bracketright.cap" horiz-adv-x="341" 
d="M224 -60h-246l14 93h137l94 627h-137l14 93h246z" />
    <glyph glyph-name="braceleft.cap" horiz-adv-x="369" 
d="M159 567q11 102 61.5 144t144.5 42q18 0 53 -3l-13 -86q-17 2 -31 2q-45 0 -73.5 -23t-34.5 -82l-8 -80q-5 -54 -30 -85.5t-71 -51.5q42 -19 56.5 -49.5t4.5 -81.5l-16 -81q-11 -59 9 -81.5t64 -22.5q16 0 34 2l-13 -87q-24 -3 -43 -3q-93 0 -136.5 45t-23.5 146l16 79
q9 45 -12 67t-56 27l13 87q38 5 64.5 26.5t31.5 65.5z" />
    <glyph glyph-name="braceright.cap" horiz-adv-x="369" 
d="M242 126q-11 -102 -61.5 -144t-144.5 -42q-18 0 -53 3l13 86q17 -2 31 -2q45 0 73.5 23t34.5 82l8 80q5 54 30 85.5t71 51.5q-42 19 -56.5 49.5t-4.5 81.5l16 81q11 59 -9 81.5t-64 22.5q-16 0 -34 -2l13 87q24 3 43 3q93 0 136.5 -45t23.5 -146l-16 -79q-9 -45 12 -67
t56 -27l-13 -87q-38 -5 -64.5 -26.5t-31.5 -65.5z" />
    <glyph glyph-name="anglebracketleft.cap" horiz-adv-x="344" 
d="M160 -60l-118 409l239 404h114l-238 -411l117 -402h-114z" />
    <glyph glyph-name="anglebracketright.cap" horiz-adv-x="344" 
d="M-22 -60l240 410l-117 403h112l119 -411l-236 -402h-118z" />
    <glyph glyph-name="asterisk" unicode="*" horiz-adv-x="429" 
d="M183 520l-103 47l40 83l103 -49l17 115l92 -10l-20 -115l115 25l13 -90l-114 -22l53 -100l-82 -47l-52 101l-80 -86l-65 63z" />
    <glyph glyph-name="dagger" unicode="&#x2020;" horiz-adv-x="471" 
d="M73 471h140l34 229h114l-34 -229h140l-15 -102h-140l-71 -477h-114l71 477h-140z" />
    <glyph glyph-name="daggerdbl" unicode="&#x2021;" horiz-adv-x="471" 
d="M76 492h140l31 208h114l-31 -208h140l-15 -102h-141l-26 -179h140l-15 -102h-140l-32 -217h-114l32 217h-140l15 102h140l26 179h-139z" />
    <glyph glyph-name="section" unicode="&#xa7;" horiz-adv-x="496" 
d="M467 297q0 -45 -29 -80t-77 -56q27 -25 38 -54t11 -55q0 -38 -14.5 -69.5t-41 -54.5t-62 -35.5t-77.5 -12.5t-76.5 12.5t-59.5 35t-38.5 53.5t-12.5 69h101q2 -35 26.5 -57.5t61.5 -22.5q38 0 62.5 22t24.5 56q0 23 -14.5 41t-40.5 29l-61 26q-71 31 -106 64t-35 88
q0 45 29 80t77 56q-27 25 -38 54t-11 55q0 38 14.5 69.5t41 54.5t62 35.5t77.5 12.5t76.5 -12.5t59.5 -35t38.5 -53.5t12.5 -69h-101q-2 35 -26.5 57.5t-61.5 22.5q-38 0 -62.5 -22t-24.5 -56q0 -23 14.5 -41t40.5 -29l61 -26q71 -31 106 -64t35 -88zM231 386
q-35 -9 -56.5 -29t-21.5 -47t18 -45t57 -35l55 -23q35 9 56.5 29t21.5 47t-18 45t-57 35z" />
    <glyph glyph-name="paragraph" unicode="&#xb6;" horiz-adv-x="612" 
d="M570 614l-108 -722h-91l108 722h-101l-108 -722h-91l64 425h-3q-40 0 -73 12t-57 34.5t-37 55t-13 72.5q0 49 18 87.5t49.5 65.5t74 41.5t91.5 14.5h360l-13 -86h-70z" />
    <glyph glyph-name="asciicircum" unicode="^" horiz-adv-x="477" 
d="M465 393h-105l-67 191l-125 -191h-112l205 307h91z" />
    <glyph glyph-name="asciitilde" unicode="~" horiz-adv-x="514" 
d="M38 198q5 69 45 104.5t97 35.5q38 0 60 -9t37.5 -20.5t28.5 -20.5t33 -9q23 0 38 15.5t17 38.5h91q-4 -69 -44 -104.5t-97 -35.5q-38 0 -60.5 9t-38.5 20.5t-29 20.5t-32 9q-23 0 -38 -15.5t-17 -38.5h-91z" />
    <glyph glyph-name="underscore" unicode="_" horiz-adv-x="502" 
d="M-26 -42h470l-14 -92h-470z" />
    <glyph glyph-name="quotesingle" unicode="'" horiz-adv-x="201" 
d="M81 417l29 283h117l-55 -283h-91z" />
    <glyph glyph-name="quotedbl" unicode="&#x22;" horiz-adv-x="379" 
d="M81 417l29 283h117l-55 -283h-91zM259 417l29 283h117l-55 -283h-91z" />
    <glyph glyph-name="at" unicode="@" horiz-adv-x="863" 
d="M425 -134q-79 0 -148.5 24t-121 70.5t-81 113t-29.5 152.5q0 94 35.5 172t96.5 134.5t141.5 87.5t169.5 31q73 0 137 -23.5t111 -65.5t74 -100t27 -126q0 -61 -17 -110.5t-44.5 -84.5t-63.5 -54t-75 -19q-43 -1 -66.5 17.5t-28.5 45.5q-23 -32 -59.5 -48.5t-78.5 -16.5
q-35 0 -64 12.5t-50 35.5t-32.5 54.5t-11.5 70.5q0 44 15.5 82.5t42.5 67.5t63 46t77 17q39 0 70 -16.5t48 -45.5l10 51h84l-44 -236q-5 -26 1.5 -42.5t30.5 -16.5q19 0 37 14t32 38.5t23 58t9 72.5q0 53 -19.5 96.5t-54.5 75t-83 49t-105 17.5q-69 0 -132 -24.5t-110 -68.5
t-75 -105.5t-28 -135.5q0 -66 22.5 -118t62 -89t92.5 -56.5t114 -19.5q62 0 119 17t102 47l40 -75q-48 -32 -119.5 -52.5t-145.5 -20.5zM423 146q23 0 44 10t36.5 28t25 41.5t9.5 50.5q0 44 -25.5 70t-63.5 26q-23 0 -43.5 -10t-36.5 -27.5t-25 -40.5t-9 -49q0 -44 25 -71.5
t63 -27.5z" />
    <glyph glyph-name="at.cap" horiz-adv-x="860" 
d="M439 -42q-79 0 -148.5 24t-121 70.5t-81 113t-29.5 152.5q0 94 35.5 172t96.5 134.5t141.5 87.5t169.5 31q73 0 137 -23.5t111 -65.5t74 -100t27 -126q0 -61 -17 -110.5t-44.5 -84.5t-63.5 -54t-75 -19q-43 -1 -66.5 17.5t-28.5 45.5q-23 -32 -59.5 -48.5t-78.5 -16.5
q-35 0 -64 12.5t-50 35.5t-32.5 54.5t-11.5 70.5q0 44 15.5 82.5t42.5 67.5t63 46t77 17q39 0 70 -16.5t48 -45.5l10 51h84l-44 -236q-5 -26 1.5 -42.5t30.5 -16.5q19 0 37 14t32 38.5t23 58t9 72.5q0 53 -19.5 96.5t-54.5 75t-83 49t-105 17.5q-69 0 -132 -24.5t-110 -68.5
t-75 -105.5t-28 -135.5q0 -66 22.5 -118t62 -89t92.5 -56.5t114 -19.5q62 0 119 17t102 47l40 -75q-48 -32 -119.5 -52.5t-145.5 -20.5zM437 238q23 0 44 10t36.5 28t25 41.5t9.5 50.5q0 44 -25.5 70t-63.5 26q-23 0 -43.5 -10t-36.5 -27.5t-25 -40.5t-9 -49q0 -44 25 -71.5
t63 -27.5z" />
    <glyph glyph-name="copyright" unicode="&#xa9;" horiz-adv-x="811" 
d="M252 349q0 39 14 73t39.5 59t60.5 39.5t77 14.5q53 0 94 -27v-85q-22 14 -43.5 21.5t-45.5 7.5q-45 0 -74.5 -29.5t-29.5 -73.5q0 -21 8 -39.5t22 -32t33 -21.5t41 -8q26 0 48 8.5t42 20.5v-85q-44 -27 -95 -27q-42 0 -77 14t-60.5 39t-39.5 58.5t-14 72.5zM780 350
q0 -75 -28 -141t-77 -115t-114 -77.5t-139 -28.5t-139 28.5t-114 77.5t-77 115t-28 141t28 141t77 115.5t114 78t139 28.5t139 -28.5t114 -78t77 -115.5t28 -141zM687 350q0 57 -20.5 107t-56.5 87.5t-84.5 59t-103.5 21.5t-103.5 -21.5t-84.5 -59t-56.5 -87.5t-20.5 -107
q0 -56 20.5 -106t56.5 -87.5t84.5 -59t103.5 -21.5t103.5 21.5t84.5 59t56.5 87.5t20.5 106z" />
    <glyph glyph-name="registered" unicode="&#xae;" horiz-adv-x="811" 
d="M780 350q0 -75 -28 -141t-77 -115t-114 -77.5t-139 -28.5t-139 28.5t-114 77.5t-77 115t-28 141t28 141t77 115.5t114 78t139 28.5t139 -28.5t114 -78t77 -115.5t28 -141zM687 350q0 57 -20.5 107t-56.5 87.5t-84.5 59t-103.5 21.5t-103.5 -21.5t-84.5 -59t-56.5 -87.5
t-20.5 -107q0 -56 20.5 -106t56.5 -87.5t84.5 -59t103.5 -21.5t103.5 21.5t84.5 59t56.5 87.5t20.5 106zM559 411q0 -33 -17.5 -59t-48.5 -41l88 -136h-99l-73 119h-23v-119h-85v350h129q57 0 93 -30t36 -84zM472 409q0 20 -14 30.5t-34 10.5h-38v-83h38q20 0 34 11t14 31z
" />
    <glyph glyph-name="registered.superior" horiz-adv-x="466" 
d="M465 506q0 -40 -15 -75t-41.5 -61.5t-61 -41.5t-73.5 -15t-74 15t-61 41.5t-41 61.5t-15 75t15 75.5t41 61.5t61 41.5t74 15.5t73.5 -15.5t61 -41.5t41.5 -61.5t15 -75.5zM407 506q0 28 -10.5 53.5t-28.5 44t-42.5 29.5t-51.5 11q-28 0 -52 -11t-42 -29.5t-28.5 -44
t-10.5 -53.5t10.5 -53t28.5 -43.5t42 -29.5t52 -11q27 0 51.5 11t42.5 29.5t28.5 43.5t10.5 53zM268 477h-10v-60h-48v182h68q32 0 50.5 -16t18.5 -45q0 -35 -32 -51l42 -70h-56zM258 518h18q9 0 15.5 5t6.5 15q0 9 -6.5 14t-15.5 5h-18v-39z" />
    <glyph glyph-name="trademark" unicode="&#x2122;" horiz-adv-x="805" 
d="M214 358h-79l40 266h-97l11 76h273l-11 -76h-97zM818 700l-51 -342h-77l32 214l-128 -214h-51l-63 213l-32 -213h-77l51 342h93l70 -231l137 231h96z" />
    <glyph glyph-name="Euro" unicode="&#x20ac;" 
d="M445 240h-212q22 -60 69 -95.5t108 -35.5q35 0 69 11t66 28l-18 -115q-29 -14 -62 -23t-65 -9q-53 0 -100 17.5t-85 49.5t-65 75.5t-39 96.5h-94l12 77h73q0 27 3 53h-69l12 78h77q19 52 52 95.5t75.5 75t93.5 49.5t107 18q45 0 86 -11.5t78 -36.5l-17 -113
q-65 54 -150 54q-65 0 -118 -36.5t-83 -94.5h226l-12 -78h-240q-4 -20 -4 -53h238z" />
    <glyph glyph-name="dollar" unicode="$" horiz-adv-x="535" 
d="M195 8q-61 15 -106.5 57t-65.5 111l102 43q12 -36 34 -62.5t53 -38.5l29 196l-20 10q-117 59 -117 172q0 39 14.5 72.5t40 58.5t61 40.5t76.5 17.5l14 91h83l-15 -100q51 -15 88.5 -52.5t57.5 -91.5l-99 -45q-11 26 -26 47t-37 33l-26 -173l26 -13q126 -65 126 -173
q0 -46 -16.5 -83t-45 -63.5t-67 -42t-82.5 -18.5l-14 -97h-83zM371 197q0 44 -53 77l-24 -163q34 7 55.5 29t21.5 57zM220 504q0 -40 39 -68l21 140q-27 -7 -43.5 -26t-16.5 -46z" />
    <glyph glyph-name="cent" unicode="&#xa2;" horiz-adv-x="459" 
d="M366 584q53 -9 94 -40l-16 -105q-20 17 -43.5 29t-49.5 17l-43 -286q29 2 55.5 11.5t51.5 23.5l-16 -109q-49 -25 -106 -27l-15 -101h-80l17 111q-70 21 -114 77.5t-44 136.5q0 52 17.5 98t48 80.5t72.5 57t92 28.5l15 101h80zM169 330q0 -38 16.5 -67t45.5 -46l39 261
q-45 -17 -73 -57t-28 -91z" />
    <glyph glyph-name="sterling" unicode="&#xa3;" 
d="M161 477q7 46 25.5 85t48.5 67t70.5 44t91.5 16q45 0 83 -14.5t66 -42t42 -67t11 -89.5h-113q2 49 -23.5 77t-69.5 28q-26 0 -46 -9.5t-34.5 -26t-23 -37.5t-11.5 -45l-12 -81h166l-14 -97h-167l-13 -90q-5 -36 -17 -58t-27 -30h343l-16 -107h-503l16 107h16
q24 0 42.5 19.5t26.5 67.5l14 91h-72l14 97h72z" />
    <glyph glyph-name="florin" unicode="&#x192;" horiz-adv-x="497" 
d="M338 416h126l-15 -100h-138l-84 -311q-23 -86 -75.5 -131t-129.5 -45q-25 0 -49 4t-41 12l16 102q29 -13 62 -13q39 0 66.5 21.5t38.5 63.5l80 297h-99l15 100h111l36 131q23 86 75 131t129 45q26 0 48.5 -4.5t41.5 -11.5l-16 -105q-29 16 -63 16q-80 0 -103 -85z" />
    <glyph glyph-name="yen" unicode="&#xa5;" horiz-adv-x="627" 
d="M105 383h125l-148 301h131l126 -266l208 266h132l-238 -301h127l-13 -82h-174l-8 -54h174l-12 -83h-174l-25 -164h-116l25 164h-173l12 83h173l8 54h-173z" />
    <glyph glyph-name="numbersign" unicode="#" horiz-adv-x="663" 
d="M567 507h101l-13 -85h-112l-45 -152h104l-13 -85h-115l-54 -185h-97l54 185h-149l-54 -185h-98l54 185h-100l12 85h113l44 152h-103l12 85h116l53 180h97l-53 -180h149l53 180h97zM252 270h149l45 152h-149z" />
    <glyph glyph-name="zero" unicode="0" horiz-adv-x="671" 
d="M639 399q0 -72 -20 -145t-60 -132.5t-100 -96.5t-140 -37q-63 0 -111 23t-80.5 63t-49 95t-16.5 118q0 70 19.5 143t58.5 133t99 98t141 38q64 0 112.5 -23.5t81 -64t49 -95t16.5 -117.5zM376 588q-52 0 -89 -29.5t-60.5 -74t-34.5 -96t-11 -96.5q0 -35 7.5 -69.5
t24.5 -62t44.5 -44.5t66.5 -17q52 0 89 29.5t61 73.5t35 95.5t11 96.5q0 35 -7.5 70t-24.5 62.5t-44.5 44.5t-67.5 17z" />
    <glyph glyph-name="one" unicode="1" horiz-adv-x="358" 
d="M121 0l86 577h-121l16 110h239l-102 -687h-118z" />
    <glyph glyph-name="two" unicode="2" horiz-adv-x="558" 
d="M327 699q47 0 88 -15t71 -42.5t47 -66t17 -84.5q0 -38 -11 -70t-32 -61.5t-52 -58t-70 -57.5l-185 -137h298l-16 -107h-477l15 95l307 237q47 36 75.5 72t28.5 79q0 46 -31 75.5t-79 29.5q-26 0 -47.5 -10t-37.5 -28t-26.5 -43t-13.5 -54h-116q4 54 23.5 99.5t52 78
t76 50.5t95.5 18z" />
    <glyph glyph-name="three" unicode="3" horiz-adv-x="570" 
d="M275 -12q-56 0 -100.5 16.5t-75.5 47t-47 74t-14 96.5h116q1 -55 34 -90t90 -35q25 0 48.5 8t41.5 22.5t28.5 35.5t10.5 47q0 25 -11 44t-29 32t-40.5 19t-45.5 6h-24l15 95h41q20 0 40.5 7.5t36.5 21t26 32.5t10 41q0 20 -8.5 35.5t-22 26t-30.5 16t-34 5.5
q-51 0 -84 -31t-38 -81h-114q3 49 22 89.5t50.5 69.5t74 45t92.5 16q39 0 76.5 -12.5t67 -35.5t47.5 -56t18 -74q0 -60 -31.5 -100.5t-82.5 -62.5q46 -23 71.5 -61t25.5 -91q0 -52 -22 -92.5t-57 -68.5t-80.5 -42.5t-91.5 -14.5z" />
    <glyph glyph-name="four" unicode="4" horiz-adv-x="602" 
d="M25 238l382 448h143l-65 -435h96l-15 -100h-96l-23 -151h-115l23 151h-343zM370 251l44 295l-253 -295h209z" />
    <glyph glyph-name="five" unicode="5" horiz-adv-x="574" 
d="M278 97q29 0 54.5 12t44.5 32t30 46t11 55q0 27 -9.5 49.5t-26.5 38.5t-40 25t-49 9q-33 0 -65.5 -17.5t-52.5 -48.5l-106 22l104 367h382l-16 -105h-289l-48 -161q25 21 58 32.5t67 11.5q46 0 84.5 -16.5t66.5 -45.5t43.5 -68t15.5 -84q0 -56 -21 -104t-57.5 -83
t-84.5 -55.5t-102 -20.5q-55 0 -98.5 16.5t-74 45.5t-47 69.5t-16.5 88.5h116q1 -22 10 -42t25 -35.5t39 -24.5t52 -9z" />
    <glyph glyph-name="six" unicode="6" horiz-adv-x="590" 
d="M552 253q0 -57 -22.5 -105.5t-60 -84t-86.5 -55.5t-103 -20q-50 0 -93.5 16.5t-75.5 46.5t-51 72t-19 93q0 69 31 126t73 108l197 237h143l-198 -230q21 10 53 10q44 0 82.5 -16.5t67.5 -45t45.5 -67.5t16.5 -85zM286 99q29 0 55.5 11.5t47 31t32.5 46t12 55.5
q0 25 -9.5 47.5t-26.5 39t-40 26t-50 9.5q-30 0 -57 -11t-47 -30t-31.5 -45t-11.5 -56q0 -27 9.5 -49.5t26.5 -39t40 -26t50 -9.5z" />
    <glyph glyph-name="seven" unicode="7" horiz-adv-x="527" 
d="M185 0h-133l359 579h-327l16 107h466l-13 -87z" />
    <glyph glyph-name="eight" unicode="8" horiz-adv-x="566" 
d="M332 699q41 0 78.5 -12t66.5 -35t46 -55.5t17 -73.5q0 -54 -31 -99t-84 -64q47 -23 72 -64.5t25 -92.5q0 -48 -21.5 -88t-56.5 -68t-81 -43.5t-95 -15.5q-46 0 -89 14t-76 39.5t-52.5 62t-19.5 81.5q0 69 39 120t109 74q-35 19 -54.5 53t-19.5 73q0 43 19 79t50.5 61.5
t72.5 39.5t85 14zM271 91q27 0 51 8.5t42.5 24t29.5 37.5t11 50q0 24 -10.5 43.5t-27.5 33t-39 20.5t-45 7q-26 0 -50.5 -8t-43.5 -23t-30.5 -36.5t-11.5 -48.5q0 -25 10 -45t27.5 -34t40 -21.5t46.5 -7.5zM329 598q-22 0 -42.5 -6.5t-36 -19t-25 -30.5t-9.5 -42
q0 -38 28.5 -63t70.5 -25q21 0 41.5 6.5t36.5 18.5t26 30t10 41q0 21 -8.5 37.5t-22.5 28t-32 18t-37 6.5z" />
    <glyph glyph-name="nine" unicode="9" horiz-adv-x="590" 
d="M70 434q0 57 22 105.5t59.5 84t87 55.5t103.5 20q49 0 93 -16.5t76 -46.5t51 -72t19 -93q0 -69 -31 -126t-73 -108l-197 -237h-143l198 230q-21 -10 -53 -10q-44 0 -82.5 16.5t-67.5 45t-45.5 67.5t-16.5 85zM336 588q-29 0 -56 -11.5t-47 -31t-32 -46t-12 -55.5
q0 -26 9.5 -48t26.5 -38.5t40 -26t50 -9.5q30 0 57 11t47 30t31.5 45t11.5 56q0 27 -9.5 49.5t-26.5 39t-40 26t-50 9.5z" />
    <glyph glyph-name="numbersign.LT" 
d="M517 506h96l-13 -83h-107l-45 -154h98l-12 -83h-110l-54 -186h-94l54 186h-121l-54 -186h-94l54 186h-96l13 83h107l45 154h-99l13 83h110l53 181h94l-53 -181h121l53 181h94zM233 269h121l45 154h-121z" />
    <glyph glyph-name="zero.LT" 
d="M579 416q0 -77 -18.5 -153.5t-55 -137.5t-92.5 -99t-131 -38q-60 0 -103.5 22.5t-72.5 61t-43 90t-14 109.5q0 76 18.5 152t55.5 137.5t93 100t132 38.5q60 0 103.5 -23t72 -61.5t42 -90t13.5 -108.5zM287 100q48 0 81 31.5t53.5 79t30 102t9.5 100.5q0 31 -6 62.5
t-19.5 56t-36 40t-56.5 15.5q-48 0 -81.5 -31.5t-54.5 -79t-30.5 -102t-9.5 -100.5q0 -31 6 -62t20 -56t37 -40.5t57 -15.5z" />
    <glyph glyph-name="one.LT" 
d="M52 105h181l71 472h-130l17 110h248l-88 -582h177l-16 -105h-476z" />
    <glyph glyph-name="two.LT" 
d="M348 699q47 0 88 -15t71 -42.5t47 -66t17 -84.5q0 -38 -11 -70t-32 -61.5t-52 -58t-70 -57.5l-185 -137h298l-16 -107h-477l15 95l307 237q47 36 75.5 72t28.5 79q0 46 -31 75.5t-79 29.5q-26 0 -47.5 -10t-37.5 -28t-26.5 -43t-13.5 -54h-116q4 54 23.5 99.5t52 78
t76 50.5t95.5 18z" />
    <glyph glyph-name="three.LT" 
d="M290 -12q-56 0 -100.5 16.5t-75.5 47t-47 74t-14 96.5h116q1 -55 34 -90t90 -35q25 0 48.5 8t41.5 22.5t28.5 35.5t10.5 47q0 25 -11 44t-29 32t-40.5 19t-45.5 6h-24l15 95h41q20 0 40.5 7.5t36.5 21t26 32.5t10 41q0 20 -8.5 35.5t-22 26t-30.5 16t-34 5.5
q-51 0 -84 -31t-38 -81h-114q3 49 22 89.5t50.5 69.5t74 45t92.5 16q39 0 76.5 -12.5t67 -35.5t47.5 -56t18 -74q0 -60 -31.5 -100.5t-82.5 -62.5q46 -23 71.5 -61t25.5 -91q0 -52 -22 -92.5t-57 -68.5t-80.5 -42.5t-91.5 -14.5z" />
    <glyph glyph-name="four.LT" 
d="M34 238l372 448h143l-65 -435h86l-15 -100h-86l-23 -151h-115l23 151h-333zM369 251l44 295l-244 -295h200z" />
    <glyph glyph-name="five.LT" 
d="M291 97q29 0 54.5 12t44.5 32t30 46t11 55q0 27 -9.5 49.5t-26.5 38.5t-40 25t-49 9q-33 0 -65.5 -17.5t-52.5 -48.5l-106 22l104 367h382l-16 -105h-289l-48 -161q25 21 58 32.5t67 11.5q46 0 84.5 -16.5t66.5 -45.5t43.5 -68t15.5 -84q0 -56 -21 -104t-57.5 -83
t-84.5 -55.5t-102 -20.5q-55 0 -98.5 16.5t-74 45.5t-47 69.5t-16.5 88.5h116q1 -22 10 -42t25 -35.5t39 -24.5t52 -9z" />
    <glyph glyph-name="six.LT" 
d="M557 253q0 -57 -22.5 -105.5t-60 -84t-86.5 -55.5t-103 -20q-50 0 -93.5 16.5t-75.5 46.5t-51 72t-19 93q0 69 31 126t73 108l197 237h143l-198 -230q21 10 53 10q44 0 82.5 -16.5t67.5 -45t45.5 -67.5t16.5 -85zM291 99q29 0 55.5 11.5t47 31t32.5 46t12 55.5
q0 25 -9.5 47.5t-26.5 39t-40 26t-50 9.5q-30 0 -57 -11t-47 -30t-31.5 -45t-11.5 -56q0 -27 9.5 -49.5t26.5 -39t40 -26t50 -9.5z" />
    <glyph glyph-name="seven.LT" 
d="M221 0h-133l359 579h-327l16 107h466l-13 -87z" />
    <glyph glyph-name="eight.LT" 
d="M349 699q41 0 78.5 -12t66.5 -35t46 -55.5t17 -73.5q0 -54 -31 -99t-84 -64q47 -23 72 -64.5t25 -92.5q0 -48 -21.5 -88t-56.5 -68t-81 -43.5t-95 -15.5q-46 0 -89 14t-76 39.5t-52.5 62t-19.5 81.5q0 69 39 120t109 74q-35 19 -54.5 53t-19.5 73q0 43 19 79t50.5 61.5
t72.5 39.5t85 14zM288 91q27 0 51 8.5t42.5 24t29.5 37.5t11 50q0 24 -10.5 43.5t-27.5 33t-39 20.5t-45 7q-26 0 -50.5 -8t-43.5 -23t-30.5 -36.5t-11.5 -48.5q0 -25 10 -45t27.5 -34t40 -21.5t46.5 -7.5zM346 598q-22 0 -42.5 -6.5t-36 -19t-25 -30.5t-9.5 -42
q0 -38 28.5 -63t70.5 -25q21 0 41.5 6.5t36.5 18.5t26 30t10 41q0 21 -8.5 37.5t-22.5 28t-32 18t-37 6.5z" />
    <glyph glyph-name="nine.LT" 
d="M75 434q0 57 22 105.5t59.5 84t87 55.5t103.5 20q49 0 93 -16.5t76 -46.5t51 -72t19 -93q0 -69 -31 -126t-73 -108l-197 -237h-143l198 230q-21 -10 -53 -10q-44 0 -82.5 16.5t-67.5 45t-45.5 67.5t-16.5 85zM341 588q-29 0 -56 -11.5t-47 -31t-32 -46t-12 -55.5
q0 -26 9.5 -48t26.5 -38.5t40 -26t50 -9.5q30 0 57 11t47 30t31.5 45t11.5 56q0 27 -9.5 49.5t-26.5 39t-40 26t-50 9.5z" />
    <glyph glyph-name="Euro.LT" 
d="M445 240h-212q22 -60 69 -95.5t108 -35.5q35 0 69 11t66 28l-18 -115q-29 -14 -62 -23t-65 -9q-53 0 -100 17.5t-85 49.5t-65 75.5t-39 96.5h-94l12 77h73q0 27 3 53h-69l12 78h77q19 52 52 95.5t75.5 75t93.5 49.5t107 18q45 0 86 -11.5t78 -36.5l-17 -113
q-65 54 -150 54q-65 0 -118 -36.5t-83 -94.5h226l-12 -78h-240q-4 -20 -4 -53h238z" />
    <glyph glyph-name="dollar.LT" 
d="M227 8q-61 15 -106.5 57t-65.5 111l102 43q12 -36 34 -62.5t53 -38.5l29 196l-20 10q-117 59 -117 172q0 39 14.5 72.5t40 58.5t61 40.5t76.5 17.5l14 91h83l-15 -100q51 -15 88.5 -52.5t57.5 -91.5l-99 -45q-11 26 -26 47t-37 33l-26 -173l26 -13q126 -65 126 -173
q0 -46 -16.5 -83t-45 -63.5t-67 -42t-82.5 -18.5l-14 -97h-83zM403 197q0 44 -53 77l-24 -163q34 7 55.5 29t21.5 57zM252 504q0 -40 39 -68l21 140q-27 -7 -43.5 -26t-16.5 -46z" />
    <glyph glyph-name="cent.LT" 
d="M436 584q53 -9 94 -40l-16 -105q-20 17 -43.5 29t-49.5 17l-43 -286q29 2 55.5 11.5t51.5 23.5l-16 -109q-49 -25 -106 -27l-15 -101h-80l17 111q-70 21 -114 77.5t-44 136.5q0 52 17.5 98t48 80.5t72.5 57t92 28.5l15 101h80zM239 330q0 -38 16.5 -67t45.5 -46l39 261
q-45 -17 -73 -57t-28 -91z" />
    <glyph glyph-name="sterling.LT" 
d="M161 477q7 46 25.5 85t48.5 67t70.5 44t91.5 16q45 0 83 -14.5t66 -42t42 -67t11 -89.5h-113q2 49 -23.5 77t-69.5 28q-26 0 -46 -9.5t-34.5 -26t-23 -37.5t-11.5 -45l-12 -81h166l-14 -97h-167l-13 -90q-5 -36 -17 -58t-27 -30h343l-16 -107h-503l16 107h16
q24 0 42.5 19.5t26.5 67.5l14 91h-72l14 97h72z" />
    <glyph glyph-name="florin.LT" 
d="M389 416h126l-15 -100h-138l-84 -311q-23 -86 -75.5 -131t-129.5 -45q-25 0 -49 4t-41 12l16 102q29 -13 62 -13q39 0 66.5 21.5t38.5 63.5l80 297h-99l15 100h111l36 131q23 86 75 131t129 45q26 0 48.5 -4.5t41.5 -11.5l-16 -105q-29 16 -63 16q-80 0 -103 -85z" />
    <glyph glyph-name="yen.LT" 
d="M91 383h136l-136 301h128l109 -248l183 248h132l-226 -301h137l-13 -82h-173l-8 -54h173l-12 -83h-173l-25 -164h-118l25 164h-172l12 83h172l8 54h-172z" />
    <glyph glyph-name="zero.OP" horiz-adv-x="635" 
d="M601 337q0 -64 -20 -126.5t-58 -112t-93.5 -80t-126.5 -30.5q-58 0 -104.5 20.5t-79 56.5t-50 86t-17.5 109q0 64 20 126.5t58.5 112t94 80t127.5 30.5q58 0 104 -20t78.5 -56t49.5 -86t17 -110zM308 99q44 0 77 22t54.5 55.5t32.5 74.5t11 79q0 33 -8 63.5t-25 53.5
t-42.5 37t-60.5 14q-44 0 -77 -22t-55.5 -55.5t-33.5 -74.5t-11 -79q0 -33 8.5 -63.5t25.5 -53.5t43 -37t61 -14z" />
    <glyph glyph-name="one.OP" horiz-adv-x="348" 
d="M121 0l73 486h-121l16 110h240l-89 -596h-119z" />
    <glyph glyph-name="two.OP" horiz-adv-x="529" 
d="M207 107h266l-16 -107h-454l15 96l257 178q27 18 48.5 34t36.5 32.5t23.5 34t8.5 39.5q0 40 -28.5 63.5t-66.5 23.5q-48 0 -82 -35t-38 -93h-115q3 54 22.5 97.5t51 74t73.5 47.5t90 17q41 0 79 -12.5t67.5 -36t47 -57.5t17.5 -77q0 -40 -12.5 -72.5t-36.5 -61t-60 -56
t-83 -57.5z" />
    <glyph glyph-name="three.OP" horiz-adv-x="565" 
d="M262 -103q-56 0 -100.5 16.5t-75.5 47t-47 74t-14 96.5h116q1 -55 34 -90t90 -35q25 0 48.5 8t41.5 22.5t28.5 35.5t10.5 47q0 25 -11 44t-29 32t-40.5 19t-45.5 6h-24l15 95h41q20 0 40.5 7.5t36.5 21t26 32.5t10 41q0 20 -8.5 35.5t-22 26t-30.5 16t-34 5.5
q-51 0 -84 -31t-38 -81h-114q3 49 22 89.5t50.5 69.5t74 45t92.5 16q39 0 76.5 -12.5t67 -35.5t47.5 -56t18 -74q0 -60 -31.5 -100.5t-82.5 -62.5q46 -23 71.5 -61t25.5 -91q0 -52 -22 -92.5t-57 -68.5t-80.5 -42.5t-91.5 -14.5z" />
    <glyph glyph-name="four.OP" horiz-adv-x="597" 
d="M3 129l384 467h142l-68 -454h96l-15 -100h-96l-20 -132h-114l20 132h-342zM347 142l47 315l-255 -315h208z" />
    <glyph glyph-name="five.OP" horiz-adv-x="568" 
d="M260 6q29 0 54.5 12t44.5 32t30 46t11 55q0 27 -9.5 49.5t-26.5 38.5t-40 25t-49 9q-33 0 -65.5 -17.5t-52.5 -48.5l-106 22l104 367h382l-16 -105h-289l-48 -161q25 21 58 32.5t67 11.5q46 0 84.5 -16.5t66.5 -45.5t43.5 -68t15.5 -84q0 -56 -21 -104t-57.5 -83
t-84.5 -55.5t-102 -20.5q-55 0 -98.5 16.5t-74 45.5t-47 69.5t-16.5 88.5h116q1 -22 10 -42t25 -35.5t39 -24.5t52 -9z" />
    <glyph glyph-name="six.OP" horiz-adv-x="591" 
d="M552 253q0 -57 -22.5 -105.5t-60 -84t-86.5 -55.5t-103 -20q-50 0 -93.5 16.5t-75.5 46.5t-51 72t-19 93q0 69 31 126t73 108l197 237h143l-198 -230q21 10 53 10q44 0 82.5 -16.5t67.5 -45t45.5 -67.5t16.5 -85zM286 99q29 0 55.5 11.5t47 31t32.5 46t12 55.5
q0 25 -9.5 47.5t-26.5 39t-40 26t-50 9.5q-30 0 -57 -11t-47 -30t-31.5 -45t-11.5 -56q0 -27 9.5 -49.5t26.5 -39t40 -26t50 -9.5z" />
    <glyph glyph-name="seven.OP" horiz-adv-x="524" 
d="M165 -90h-133l359 579h-327l16 107h466l-13 -87z" />
    <glyph glyph-name="eight.OP" horiz-adv-x="566" 
d="M332 699q41 0 78.5 -12t66.5 -35t46 -55.5t17 -73.5q0 -54 -31 -99t-84 -64q47 -23 72 -64.5t25 -92.5q0 -48 -21.5 -88t-56.5 -68t-81 -43.5t-95 -15.5q-46 0 -89 14t-76 39.5t-52.5 62t-19.5 81.5q0 69 39 120t109 74q-35 19 -54.5 53t-19.5 73q0 43 19 79t50.5 61.5
t72.5 39.5t85 14zM271 91q27 0 51 8.5t42.5 24t29.5 37.5t11 50q0 24 -10.5 43.5t-27.5 33t-39 20.5t-45 7q-26 0 -50.5 -8t-43.5 -23t-30.5 -36.5t-11.5 -48.5q0 -25 10 -45t27.5 -34t40 -21.5t46.5 -7.5zM329 598q-22 0 -42.5 -6.5t-36 -19t-25 -30.5t-9.5 -42
q0 -38 28.5 -63t70.5 -25q21 0 41.5 6.5t36.5 18.5t26 30t10 41q0 21 -8.5 37.5t-22.5 28t-32 18t-37 6.5z" />
    <glyph glyph-name="nine.OP" horiz-adv-x="588" 
d="M54 344q0 57 22 105.5t59.5 84t87 55.5t103.5 20q49 0 93 -16.5t76 -46.5t51 -72t19 -93q0 -69 -31 -126t-73 -108l-197 -237h-143l198 230q-21 -10 -53 -10q-44 0 -82.5 16.5t-67.5 45t-45.5 67.5t-16.5 85zM320 498q-29 0 -56 -11.5t-47 -31t-32 -46t-12 -55.5
q0 -26 9.5 -48t26.5 -38.5t40 -26t50 -9.5q30 0 57 11t47 30t31.5 45t11.5 56q0 27 -9.5 49.5t-26.5 39t-40 26t-50 9.5z" />
    <glyph glyph-name="zero.OT" 
d="M570 344q0 -63 -17.5 -126.5t-53 -114.5t-89.5 -83t-127 -32q-57 0 -101 19.5t-74.5 54.5t-46 83.5t-15.5 107.5q0 63 17.5 126.5t52.5 114.5t89 83t128 32q56 0 100 -19.5t74.5 -54.5t46.5 -83.5t16 -107.5zM288 99q45 0 76 23.5t50.5 59.5t28.5 78.5t9 79.5
q0 31 -7.5 60t-23 50.5t-39 34.5t-55.5 13q-45 0 -76 -23.5t-50.5 -59t-28 -77.5t-8.5 -79q0 -32 7 -60.5t22 -51t38.5 -35.5t56.5 -13z" />
    <glyph glyph-name="one.OT" 
d="M58 104h175l58 382h-127l16 110h246l-74 -492h169l-16 -104h-463z" />
    <glyph glyph-name="two.OT" 
d="M242 107h266l-16 -107h-454l15 96l257 178q27 18 48.5 34t36.5 32.5t23.5 34t8.5 39.5q0 40 -28.5 63.5t-66.5 23.5q-48 0 -82 -35t-38 -93h-115q3 54 22.5 97.5t51 74t73.5 47.5t90 17q41 0 79 -12.5t67.5 -36t47 -57.5t17.5 -77q0 -40 -12.5 -72.5t-36.5 -61t-60 -56
t-83 -57.5z" />
    <glyph glyph-name="three.OT" 
d="M280 -103q-56 0 -100.5 16.5t-75.5 47t-47 74t-14 96.5h116q1 -55 34 -90t90 -35q25 0 48.5 8t41.5 22.5t28.5 35.5t10.5 47q0 25 -11 44t-29 32t-40.5 19t-45.5 6h-24l15 95h41q20 0 40.5 7.5t36.5 21t26 32.5t10 41q0 20 -8.5 35.5t-22 26t-30.5 16t-34 5.5
q-51 0 -84 -31t-38 -81h-114q3 49 22 89.5t50.5 69.5t74 45t92.5 16q39 0 76.5 -12.5t67 -35.5t47.5 -56t18 -74q0 -60 -31.5 -100.5t-82.5 -62.5q46 -23 71.5 -61t25.5 -91q0 -52 -22 -92.5t-57 -68.5t-80.5 -42.5t-91.5 -14.5z" />
    <glyph glyph-name="four.OT" 
d="M13 129l375 467h142l-68 -454h87l-15 -100h-87l-20 -132h-114l20 132h-333zM348 142l47 315l-248 -315h201z" />
    <glyph glyph-name="five.OT" 
d="M276 6q29 0 54.5 12t44.5 32t30 46t11 55q0 27 -9.5 49.5t-26.5 38.5t-40 25t-49 9q-33 0 -65.5 -17.5t-52.5 -48.5l-106 22l104 367h382l-16 -105h-289l-48 -161q25 21 58 32.5t67 11.5q46 0 84.5 -16.5t66.5 -45.5t43.5 -68t15.5 -84q0 -56 -21 -104t-57.5 -83
t-84.5 -55.5t-102 -20.5q-55 0 -98.5 16.5t-74 45.5t-47 69.5t-16.5 88.5h116q1 -22 10 -42t25 -35.5t39 -24.5t52 -9z" />
    <glyph glyph-name="six.OT" 
d="M556 253q0 -57 -22.5 -105.5t-60 -84t-86.5 -55.5t-103 -20q-50 0 -93.5 16.5t-75.5 46.5t-51 72t-19 93q0 69 31 126t73 108l197 237h143l-198 -230q21 10 53 10q44 0 82.5 -16.5t67.5 -45t45.5 -67.5t16.5 -85zM290 99q29 0 55.5 11.5t47 31t32.5 46t12 55.5
q0 25 -9.5 47.5t-26.5 39t-40 26t-50 9.5q-30 0 -57 -11t-47 -30t-31.5 -45t-11.5 -56q0 -27 9.5 -49.5t26.5 -39t40 -26t50 -9.5z" />
    <glyph glyph-name="seven.OT" 
d="M203 -90h-133l359 579h-327l16 107h466l-13 -87z" />
    <glyph glyph-name="eight.OT" 
d="M349 699q41 0 78.5 -12t66.5 -35t46 -55.5t17 -73.5q0 -54 -31 -99t-84 -64q47 -23 72 -64.5t25 -92.5q0 -48 -21.5 -88t-56.5 -68t-81 -43.5t-95 -15.5q-46 0 -89 14t-76 39.5t-52.5 62t-19.5 81.5q0 69 39 120t109 74q-35 19 -54.5 53t-19.5 73q0 43 19 79t50.5 61.5
t72.5 39.5t85 14zM288 91q27 0 51 8.5t42.5 24t29.5 37.5t11 50q0 24 -10.5 43.5t-27.5 33t-39 20.5t-45 7q-26 0 -50.5 -8t-43.5 -23t-30.5 -36.5t-11.5 -48.5q0 -25 10 -45t27.5 -34t40 -21.5t46.5 -7.5zM346 598q-22 0 -42.5 -6.5t-36 -19t-25 -30.5t-9.5 -42
q0 -38 28.5 -63t70.5 -25q21 0 41.5 6.5t36.5 18.5t26 30t10 41q0 21 -8.5 37.5t-22.5 28t-32 18t-37 6.5z" />
    <glyph glyph-name="nine.OT" 
d="M60 344q0 57 22 105.5t59.5 84t87 55.5t103.5 20q49 0 93 -16.5t76 -46.5t51 -72t19 -93q0 -69 -31 -126t-73 -108l-197 -237h-143l198 230q-21 -10 -53 -10q-44 0 -82.5 16.5t-67.5 45t-45.5 67.5t-16.5 85zM326 498q-29 0 -56 -11.5t-47 -31t-32 -46t-12 -55.5
q0 -26 9.5 -48t26.5 -38.5t40 -26t50 -9.5q30 0 57 11t47 30t31.5 45t11.5 56q0 27 -9.5 49.5t-26.5 39t-40 26t-50 9.5z" />
    <glyph glyph-name="uni2070" unicode="&#x2070;" horiz-adv-x="373" 
d="M69 455q0 35 9 77t29 78t53.5 60.5t82.5 24.5q68 0 102.5 -44t34.5 -119q0 -36 -9 -78t-29.5 -78t-53.5 -60.5t-82 -24.5q-69 0 -103 44.5t-34 119.5zM238 615q-25 0 -41 -19t-25.5 -45.5t-13 -53.5t-3.5 -43q0 -15 2.5 -30t9 -26.5t17 -19t27.5 -7.5q25 0 41 19
t25.5 45.5t13 53.5t3.5 44q0 15 -2.5 29.5t-8.5 26.5t-17 19t-28 7z" />
    <glyph glyph-name="onesuperior" unicode="&#xb9;" horiz-adv-x="239" 
d="M102 299l46 308h-67l12 80h154l-58 -388h-87z" />
    <glyph glyph-name="twosuperior" unicode="&#xb2;" horiz-adv-x="341" 
d="M233 695q56 0 93.5 -32.5t37.5 -86.5q0 -44 -26.5 -77t-72.5 -65l-82 -58h156l-12 -77h-287l10 70l172 124q26 19 41 36t15 40q0 21 -14 33.5t-36 12.5q-26 0 -43.5 -18.5t-19.5 -45.5h-85q2 31 14.5 57.5t32.5 46t47 30t59 10.5z" />
    <glyph glyph-name="threesuperior" unicode="&#xb3;" horiz-adv-x="344" 
d="M212 533q21 0 39.5 11t18.5 37q0 17 -14 27.5t-30 10.5q-21 0 -36 -12t-19 -36h-81q1 30 12.5 53t30.5 39t44 24t52 8q23 0 45.5 -6.5t40 -19.5t28.5 -32.5t11 -44.5q0 -31 -17 -55t-45 -36q26 -13 40 -33.5t14 -49.5q0 -30 -13.5 -53.5t-34.5 -40t-47.5 -25t-52.5 -8.5
q-30 0 -56 9t-45 25.5t-29.5 41t-10.5 56.5h85q1 -25 17 -39.5t41 -14.5t42.5 13.5t17.5 38.5q0 23 -17 35t-40 12h-19l10 65h18v0z" />
    <glyph glyph-name="uni2074" unicode="&#x2074;" horiz-adv-x="354" 
d="M324 452h47l-11 -73h-47l-12 -80h-84l12 80h-189l9 64l202 244h108zM146 452h94l21 140z" />
    <glyph glyph-name="uni2075" unicode="&#x2075;" horiz-adv-x="348" 
d="M78 490l56 197h227l-11 -73h-161l-19 -67q23 16 55 16q57 0 92 -34t35 -88q0 -32 -12.5 -59.5t-33.5 -47.5t-49.5 -31.5t-59.5 -11.5q-63 0 -101 35t-38 92h84q1 -19 16.5 -34t41.5 -15q28 0 47.5 20.5t19.5 47.5q0 26 -17.5 41t-41.5 15q-34 0 -54 -26z" />
    <glyph glyph-name="uni2076" unicode="&#x2076;" horiz-adv-x="359" 
d="M361 444q0 -31 -12.5 -58.5t-34 -48.5t-50 -33.5t-60.5 -12.5q-28 0 -54 9t-45.5 26t-31.5 41.5t-12 56.5q0 36 16.5 68t40.5 62l108 133h104l-110 -125q10 2 19 2q26 0 48.5 -9t39 -25.5t25.5 -38.5t9 -47zM215 496q-28 0 -49 -19.5t-21 -48.5q0 -23 17 -41t45 -18
q27 0 48.5 19t21.5 49q0 25 -17.5 42t-44.5 17z" />
    <glyph glyph-name="uni2077" unicode="&#x2077;" horiz-adv-x="332" 
d="M60 299l202 310h-182l12 78h287l-10 -64l-208 -324h-101z" />
    <glyph glyph-name="uni2078" unicode="&#x2078;" horiz-adv-x="348" 
d="M194 291q-29 0 -54 8t-44 23t-30 36t-11 48q0 39 23 68.5t58 39.5q-19 12 -29.5 29.5t-10.5 39.5q0 27 11.5 47.5t30.5 35t43 22t48 7.5q23 0 45.5 -6.5t40.5 -20t29 -33t11 -44.5q0 -32 -17 -54.5t-44 -33.5q24 -13 38 -33t14 -49q0 -32 -13 -56.5t-34.5 -41t-49 -24.5
t-55.5 -8zM198 365q25 0 44.5 14.5t19.5 42.5q0 21 -17 35t-42 14q-23 0 -42.5 -14.5t-19.5 -41.5q0 -22 16.5 -36t40.5 -14zM223 537q20 0 36.5 11.5t16.5 34.5q0 18 -14.5 29.5t-34.5 11.5t-36 -12t-16 -35q0 -18 14 -29t34 -11z" />
    <glyph glyph-name="uni2079" unicode="&#x2079;" horiz-adv-x="361" 
d="M75 542q0 31 12.5 58.5t34 48.5t50 33.5t60.5 12.5q28 0 54 -9t45.5 -26t31.5 -42t12 -56q0 -36 -16.5 -68t-40.5 -62l-108 -133h-104l110 125q-10 -2 -19 -2q-26 0 -48.5 9t-39 25.5t-25.5 38t-9 47.5zM221 490q28 0 49 19.5t21 48.5q0 23 -17 41t-45 18
q-27 0 -48.5 -19t-21.5 -49q0 -25 17.5 -42t44.5 -17z" />
    <glyph glyph-name="uni207A" unicode="&#x207a;" horiz-adv-x="343" 
d="M81 530h97l15 97h74l-15 -97h97l-11 -74h-97l-14 -97h-74l14 97h-97z" />
    <glyph glyph-name="uni207B" unicode="&#x207b;" horiz-adv-x="343" 
d="M81 530h268l-11 -74h-268z" />
    <glyph glyph-name="uni207C" unicode="&#x207c;" horiz-adv-x="343" 
d="M72 468h268l-11 -73h-268zM90 592h268l-10 -73h-268z" />
    <glyph glyph-name="uni207D" unicode="&#x207d;" horiz-adv-x="223" 
d="M67 453q0 75 34 147.5t98 129.5h79q-63 -63 -96.5 -133t-33.5 -143q0 -50 14 -101t43 -98h-74q-32 40 -48 92.5t-16 105.5z" />
    <glyph glyph-name="uni207E" unicode="&#x207e;" horiz-adv-x="223" 
d="M232 532q0 -75 -34 -147.5t-98 -129.5h-79q63 63 96.5 133t33.5 143q0 50 -14 101t-43 98h74q32 -40 48 -92.5t16 -105.5z" />
    <glyph glyph-name="uni2080" unicode="&#x2080;" horiz-adv-x="373" 
d="M24 156q0 35 9 77t29 78t53.5 60.5t82.5 24.5q68 0 102.5 -44t34.5 -119q0 -36 -9 -78t-29.5 -78t-53.5 -60.5t-82 -24.5q-69 0 -103 44.5t-34 119.5zM193 316q-25 0 -41 -19t-25.5 -45.5t-13 -53.5t-3.5 -43q0 -15 2.5 -30t9 -26.5t17 -19t27.5 -7.5q25 0 41 19
t25.5 45.5t13 53.5t3.5 44q0 15 -2.5 29.5t-8.5 26.5t-17 19t-28 7z" />
    <glyph glyph-name="uni2081" unicode="&#x2081;" horiz-adv-x="239" 
d="M58 0l46 308h-67l12 80h154l-58 -388h-87z" />
    <glyph glyph-name="uni2082" unicode="&#x2082;" horiz-adv-x="341" 
d="M187 396q56 0 93.5 -32.5t37.5 -86.5q0 -44 -26.5 -77t-72.5 -65l-82 -58h156l-12 -77h-287l10 70l172 124q26 19 41 36t15 40q0 21 -14 33.5t-36 12.5q-26 0 -43.5 -18.5t-19.5 -45.5h-85q2 31 14.5 57.5t32.5 46t47 30t59 10.5z" />
    <glyph glyph-name="uni2083" unicode="&#x2083;" horiz-adv-x="344" 
d="M167 234q21 0 39.5 11t18.5 37q0 17 -14 27.5t-30 10.5q-21 0 -36 -12t-19 -36h-81q1 30 12.5 53t30.5 39t44 24t52 8q23 0 45.5 -6.5t40 -19.5t28.5 -32.5t11 -44.5q0 -31 -17 -55t-45 -36q26 -13 40 -33.5t14 -49.5q0 -30 -13.5 -53.5t-34.5 -40t-47.5 -25t-52.5 -8.5
q-30 0 -56 9t-45 25.5t-29.5 41t-10.5 56.5h85q1 -25 17 -39.5t41 -14.5t42.5 13.5t17.5 38.5q0 23 -17 35t-40 12h-19l10 65h18v0z" />
    <glyph glyph-name="uni2084" unicode="&#x2084;" horiz-adv-x="354" 
d="M278 153h47l-11 -73h-47l-12 -80h-84l12 80h-189l9 64l202 244h108zM100 153h94l21 140z" />
    <glyph glyph-name="uni2085" unicode="&#x2085;" horiz-adv-x="348" 
d="M33 191l56 197h227l-11 -73h-161l-19 -67q23 16 55 16q57 0 92 -34t35 -88q0 -32 -12.5 -59.5t-33.5 -47.5t-49.5 -31.5t-59.5 -11.5q-63 0 -101 35t-38 92h84q1 -19 16.5 -34t41.5 -15q28 0 47.5 20.5t19.5 47.5q0 26 -17.5 41t-41.5 15q-34 0 -54 -26z" />
    <glyph glyph-name="uni2086" unicode="&#x2086;" horiz-adv-x="359" 
d="M314 145q0 -31 -12.5 -58.5t-34 -48.5t-50 -33.5t-60.5 -12.5q-28 0 -54 9t-45.5 26t-31.5 41.5t-12 56.5q0 36 16.5 68t40.5 62l108 133h104l-110 -125q10 2 19 2q26 0 48.5 -9t39 -25.5t25.5 -38.5t9 -47zM168 197q-28 0 -49 -19.5t-21 -48.5q0 -23 17 -41t45 -18
q27 0 48.5 19t21.5 49q0 25 -17.5 42t-44.5 17z" />
    <glyph glyph-name="uni2087" unicode="&#x2087;" horiz-adv-x="332" 
d="M15 0l202 310h-182l12 78h287l-10 -64l-208 -324h-101z" />
    <glyph glyph-name="uni2088" unicode="&#x2088;" horiz-adv-x="348" 
d="M148 -8q-29 0 -54 8t-44 23t-30 36t-11 48q0 39 23 68.5t58 39.5q-19 12 -29.5 29.5t-10.5 39.5q0 27 11.5 47.5t30.5 35t43 22t48 7.5q23 0 45.5 -6.5t40.5 -20t29 -33t11 -44.5q0 -32 -17 -54.5t-44 -33.5q24 -13 38 -33t14 -49q0 -32 -13 -56.5t-34.5 -41t-49 -24.5
t-55.5 -8zM152 66q25 0 44.5 14.5t19.5 42.5q0 21 -17 35t-42 14q-23 0 -42.5 -14.5t-19.5 -41.5q0 -22 16.5 -36t40.5 -14zM177 238q20 0 36.5 11.5t16.5 34.5q0 18 -14.5 29.5t-34.5 11.5t-36 -12t-16 -35q0 -18 14 -29t34 -11z" />
    <glyph glyph-name="uni2089" unicode="&#x2089;" horiz-adv-x="361" 
d="M31 243q0 31 12.5 58.5t34 48.5t50 33.5t60.5 12.5q28 0 54 -9t45.5 -26t31.5 -42t12 -56q0 -36 -16.5 -68t-40.5 -62l-108 -133h-104l110 125q-10 -2 -19 -2q-26 0 -48.5 9t-39 25.5t-25.5 38t-9 47.5zM177 191q28 0 49 19.5t21 48.5q0 23 -17 41t-45 18
q-27 0 -48.5 -19t-21.5 -49q0 -25 17.5 -42t44.5 -17z" />
    <glyph glyph-name="uni208A" unicode="&#x208a;" horiz-adv-x="343" 
d="M36 231h97l15 97h74l-15 -97h97l-11 -74h-97l-14 -97h-74l14 97h-97z" />
    <glyph glyph-name="uni208B" unicode="&#x208b;" horiz-adv-x="343" 
d="M36 231h268l-11 -74h-268z" />
    <glyph glyph-name="uni208C" unicode="&#x208c;" horiz-adv-x="343" 
d="M28 169h268l-11 -73h-268zM46 293h268l-10 -73h-268z" />
    <glyph glyph-name="uni208D" unicode="&#x208d;" horiz-adv-x="223" 
d="M22 154q0 75 34 147.5t98 129.5h79q-63 -63 -96.5 -133t-33.5 -143q0 -50 14 -101t43 -98h-74q-32 40 -48 92.5t-16 105.5z" />
    <glyph glyph-name="uni208E" unicode="&#x208e;" horiz-adv-x="223" 
d="M187 233q0 -75 -34 -147.5t-98 -129.5h-79q63 63 96.5 133t33.5 143q0 50 -14 101t-43 98h74q32 -40 48 -92.5t16 -105.5z" />
    <glyph glyph-name="zero.inf" horiz-adv-x="373" 
d="M8 48q0 35 9 77t29 78t53.5 60.5t82.5 24.5q68 0 102.5 -44t34.5 -119q0 -36 -9 -78t-29.5 -78t-53.5 -60.5t-82 -24.5q-69 0 -103 44.5t-34 119.5zM177 208q-25 0 -41 -19t-25.5 -45.5t-13 -53.5t-3.5 -43q0 -15 2.5 -30t9 -26.5t17 -19t27.5 -7.5q25 0 41 19t25.5 45.5
t13 53.5t3.5 44q0 15 -2.5 29.5t-8.5 26.5t-17 19t-28 7z" />
    <glyph glyph-name="one.inf" horiz-adv-x="239" 
d="M41 -108l46 308h-67l12 80h154l-58 -388h-87z" />
    <glyph glyph-name="two.inf" horiz-adv-x="341" 
d="M171 288q56 0 93.5 -32.5t37.5 -86.5q0 -44 -26.5 -77t-72.5 -65l-82 -58h156l-12 -77h-287l10 70l172 124q26 19 41 36t15 40q0 21 -14 33.5t-36 12.5q-26 0 -43.5 -18.5t-19.5 -45.5h-85q2 31 14.5 57.5t32.5 46t47 30t59 10.5z" />
    <glyph glyph-name="three.inf" horiz-adv-x="344" 
d="M149 126q21 0 39.5 11t18.5 37q0 17 -14 27.5t-30 10.5q-21 0 -36 -12t-19 -36h-81q1 30 12.5 53t30.5 39t44 24t52 8q23 0 45.5 -6.5t40 -19.5t28.5 -32.5t11 -44.5q0 -31 -17 -55t-45 -36q26 -13 40 -33.5t14 -49.5q0 -30 -13.5 -53.5t-34.5 -40t-47.5 -25t-52.5 -8.5
q-30 0 -56 9t-45 25.5t-29.5 41t-10.5 56.5h85q1 -25 17 -39.5t41 -14.5t42.5 13.5t17.5 38.5q0 23 -17 35t-40 12h-19l10 65h18v0z" />
    <glyph glyph-name="four.inf" horiz-adv-x="354" 
d="M263 45h47l-11 -73h-47l-12 -80h-84l12 80h-189l9 64l202 244h108zM85 45h94l21 140z" />
    <glyph glyph-name="five.inf" horiz-adv-x="348" 
d="M16 83l56 197h227l-11 -73h-161l-19 -67q23 16 55 16q57 0 92 -34t35 -88q0 -32 -12.5 -59.5t-33.5 -47.5t-49.5 -31.5t-59.5 -11.5q-63 0 -101 35t-38 92h84q1 -19 16.5 -34t41.5 -15q28 0 47.5 20.5t19.5 47.5q0 26 -17.5 41t-41.5 15q-34 0 -54 -26z" />
    <glyph glyph-name="six.inf" horiz-adv-x="359" 
d="M298 37q0 -31 -12.5 -58.5t-34 -48.5t-50 -33.5t-60.5 -12.5q-28 0 -54 9t-45.5 26t-31.5 41.5t-12 56.5q0 36 16.5 68t40.5 62l108 133h104l-110 -125q10 2 19 2q26 0 48.5 -9t39 -25.5t25.5 -38.5t9 -47zM152 89q-28 0 -49 -19.5t-21 -48.5q0 -23 17 -41t45 -18
q27 0 48.5 19t21.5 49q0 25 -17.5 42t-44.5 17z" />
    <glyph glyph-name="seven.inf" horiz-adv-x="332" 
d="M-2 -108l202 310h-182l12 78h287l-10 -64l-208 -324h-101z" />
    <glyph glyph-name="eight.inf" horiz-adv-x="348" 
d="M133 -116q-29 0 -54 8t-44 23t-30 36t-11 48q0 39 23 68.5t58 39.5q-19 12 -29.5 29.5t-10.5 39.5q0 27 11.5 47.5t30.5 35t43 22t48 7.5q23 0 45.5 -6.5t40.5 -20t29 -33t11 -44.5q0 -32 -17 -54.5t-44 -33.5q24 -13 38 -33t14 -49q0 -32 -13 -56.5t-34.5 -41t-49 -24.5
t-55.5 -8zM137 -42q25 0 44.5 14.5t19.5 42.5q0 21 -17 35t-42 14q-23 0 -42.5 -14.5t-19.5 -41.5q0 -22 16.5 -36t40.5 -14zM162 130q20 0 36.5 11.5t16.5 34.5q0 18 -14.5 29.5t-34.5 11.5t-36 -12t-16 -35q0 -18 14 -29t34 -11z" />
    <glyph glyph-name="nine.inf" horiz-adv-x="361" 
d="M15 135q0 31 12.5 58.5t34 48.5t50 33.5t60.5 12.5q28 0 54 -9t45.5 -26t31.5 -42t12 -56q0 -36 -16.5 -68t-40.5 -62l-108 -133h-104l110 125q-10 -2 -19 -2q-26 0 -48.5 9t-39 25.5t-25.5 38t-9 47.5zM161 83q28 0 49 19.5t21 48.5q0 23 -17 41t-45 18q-27 0 -48.5 -19
t-21.5 -49q0 -25 17.5 -42t44.5 -17z" />
    <glyph glyph-name="plus.inf" horiz-adv-x="343" 
d="M19 124h97l15 97h74l-15 -97h97l-11 -74h-97l-14 -97h-74l14 97h-97z" />
    <glyph glyph-name="minus.inf" horiz-adv-x="343" 
d="M19 124h268l-11 -74h-268z" />
    <glyph glyph-name="equal.inf" horiz-adv-x="343" 
d="M10 61h268l-11 -73h-268zM28 185h268l-10 -73h-268z" />
    <glyph glyph-name="parenleft.inf" horiz-adv-x="222" 
d="M5 46q0 75 34 147.5t98 129.5h79q-63 -63 -96.5 -133t-33.5 -143q0 -50 14 -101t43 -98h-74q-32 40 -48 92.5t-16 105.5z" />
    <glyph glyph-name="parenright.inf" horiz-adv-x="222" 
d="M169 125q0 -75 -34 -147.5t-98 -129.5h-79q63 63 96.5 133t33.5 143q0 50 -14 101t-43 98h74q32 -40 48 -92.5t16 -105.5z" />
    <glyph glyph-name="fraction" unicode="&#x2044;" horiz-adv-x="196" 
d="M-136 0h-111l610 687h112z" />
    <glyph glyph-name="uni215F" unicode="&#x215f;" horiz-adv-x="455" 
d="M102 299l46 308h-67l12 80h154l-58 -388h-87zM123 0h-111l610 687h112z" />
    <glyph glyph-name="onehalf" unicode="&#xbd;" horiz-adv-x="803" 
d="M102 299l46 308h-67l12 80h154l-58 -388h-87zM123 0h-111l610 687h112zM649 396q56 0 93.5 -32.5t37.5 -86.5q0 -44 -26.5 -77t-72.5 -65l-82 -58h156l-12 -77h-287l10 70l172 124q26 19 41 36t15 40q0 21 -14 33.5t-36 12.5q-26 0 -43.5 -18.5t-19.5 -45.5h-85
q2 31 14.5 57.5t32.5 46t47 30t59 10.5z" />
    <glyph glyph-name="uni2153" unicode="&#x2153;" horiz-adv-x="806" 
d="M102 299l46 308h-67l12 80h154l-58 -388h-87zM123 0h-111l610 687h112zM629 234q21 0 39.5 11t18.5 37q0 17 -14 27.5t-30 10.5q-21 0 -36 -12t-19 -36h-81q1 30 12.5 53t30.5 39t44 24t52 8q23 0 45.5 -6.5t40 -19.5t28.5 -32.5t11 -44.5q0 -31 -17 -55t-45 -36
q26 -13 40 -33.5t14 -49.5q0 -30 -13.5 -53.5t-34.5 -40t-47.5 -25t-52.5 -8.5q-30 0 -56 9t-45 25.5t-29.5 41t-10.5 56.5h85q1 -25 17 -39.5t41 -14.5t42.5 13.5t17.5 38.5q0 23 -17 35t-40 12h-19l10 65h18z" />
    <glyph glyph-name="uni2154" unicode="&#x2154;" horiz-adv-x="923" 
d="M233 695q56 0 93.5 -32.5t37.5 -86.5q0 -44 -26.5 -77t-72.5 -65l-82 -58h156l-12 -77h-287l10 70l172 124q26 19 41 36t15 40q0 21 -14 33.5t-36 12.5q-26 0 -43.5 -18.5t-19.5 -45.5h-85q2 31 14.5 57.5t32.5 46t47 30t59 10.5zM240 0h-111l610 687h112zM746 234
q21 0 39.5 11t18.5 37q0 17 -14 27.5t-30 10.5q-21 0 -36 -12t-19 -36h-81q1 30 12.5 53t30.5 39t44 24t52 8q23 0 45.5 -6.5t40 -19.5t28.5 -32.5t11 -44.5q0 -31 -17 -55t-45 -36q26 -13 40 -33.5t14 -49.5q0 -30 -13.5 -53.5t-34.5 -40t-47.5 -25t-52.5 -8.5q-30 0 -56 9
t-45 25.5t-29.5 41t-10.5 56.5h85q1 -25 17 -39.5t41 -14.5t42.5 13.5t17.5 38.5q0 23 -17 35t-40 12h-19l10 65h18z" />
    <glyph glyph-name="onequarter" unicode="&#xbc;" horiz-adv-x="772" 
d="M102 299l46 308h-67l12 80h154l-58 -388h-87zM123 0h-111l610 687h112zM696 153h47l-11 -73h-47l-12 -80h-84l12 80h-189l9 64l202 244h108zM518 153h94l21 140z" />
    <glyph glyph-name="threequarters" unicode="&#xbe;" horiz-adv-x="867" 
d="M218 0h-111l610 687h112zM791 153h47l-11 -73h-47l-12 -80h-84l12 80h-189l9 64l202 244h108zM613 153h94l21 140zM212 533q21 0 39.5 11t18.5 37q0 17 -14 27.5t-30 10.5q-21 0 -36 -12t-19 -36h-81q1 30 12.5 53t30.5 39t44 24t52 8q23 0 45.5 -6.5t40 -19.5
t28.5 -32.5t11 -44.5q0 -31 -17 -55t-45 -36q26 -13 40 -33.5t14 -49.5q0 -30 -13.5 -53.5t-34.5 -40t-47.5 -25t-52.5 -8.5q-30 0 -56 9t-45 25.5t-29.5 41t-10.5 56.5h85q1 -25 17 -39.5t41 -14.5t42.5 13.5t17.5 38.5q0 23 -17 35t-40 12h-19l10 65h18z" />
    <glyph glyph-name="uni2155" unicode="&#x2155;" horiz-adv-x="813" 
d="M123 0h-111l610 687h112zM498 191l56 197h227l-11 -73h-161l-19 -67q23 16 55 16q57 0 92 -34t35 -88q0 -32 -12.5 -59.5t-33.5 -47.5t-49.5 -31.5t-59.5 -11.5q-63 0 -101 35t-38 92h84q1 -19 16.5 -34t41.5 -15q28 0 47.5 20.5t19.5 47.5q0 26 -17.5 41t-41.5 15
q-34 0 -54 -26zM102 299l46 308h-67l12 80h154l-58 -388h-87z" />
    <glyph glyph-name="uni2156" unicode="&#x2156;" horiz-adv-x="930" 
d="M240 0h-111l610 687h112zM233 695q56 0 93.5 -32.5t37.5 -86.5q0 -44 -26.5 -77t-72.5 -65l-82 -58h156l-12 -77h-287l10 70l172 124q26 19 41 36t15 40q0 21 -14 33.5t-36 12.5q-26 0 -43.5 -18.5t-19.5 -45.5h-85q2 31 14.5 57.5t32.5 46t47 30t59 10.5zM615 191
l56 197h227l-11 -73h-161l-19 -67q23 16 55 16q57 0 92 -34t35 -88q0 -32 -12.5 -59.5t-33.5 -47.5t-49.5 -31.5t-59.5 -11.5q-63 0 -101 35t-38 92h84q1 -19 16.5 -34t41.5 -15q28 0 47.5 20.5t19.5 47.5q0 26 -17.5 41t-41.5 15q-34 0 -54 -26z" />
    <glyph glyph-name="uni2157" unicode="&#x2157;" horiz-adv-x="908" 
d="M218 0h-111l610 687h112zM593 191l56 197h227l-11 -73h-161l-19 -67q23 16 55 16q57 0 92 -34t35 -88q0 -32 -12.5 -59.5t-33.5 -47.5t-49.5 -31.5t-59.5 -11.5q-63 0 -101 35t-38 92h84q1 -19 16.5 -34t41.5 -15q28 0 47.5 20.5t19.5 47.5q0 26 -17.5 41t-41.5 15
q-34 0 -54 -26zM212 533q21 0 39.5 11t18.5 37q0 17 -14 27.5t-30 10.5q-21 0 -36 -12t-19 -36h-81q1 30 12.5 53t30.5 39t44 24t52 8q23 0 45.5 -6.5t40 -19.5t28.5 -32.5t11 -44.5q0 -31 -17 -55t-45 -36q26 -13 40 -33.5t14 -49.5q0 -30 -13.5 -53.5t-34.5 -40t-47.5 -25
t-52.5 -8.5q-30 0 -56 9t-45 25.5t-29.5 41t-10.5 56.5h85q1 -25 17 -39.5t41 -14.5t42.5 13.5t17.5 38.5q0 23 -17 35t-40 12h-19l10 65h18z" />
    <glyph glyph-name="uni2158" unicode="&#x2158;" horiz-adv-x="928" 
d="M324 452h47l-11 -73h-47l-12 -80h-84l12 80h-189l9 64l202 244h108zM146 452h94l21 140zM238 0h-111l610 687h112zM613 191l56 197h227l-11 -73h-161l-19 -67q23 16 55 16q57 0 92 -34t35 -88q0 -32 -12.5 -59.5t-33.5 -47.5t-49.5 -31.5t-59.5 -11.5q-63 0 -101 35
t-38 92h84q1 -19 16.5 -34t41.5 -15q28 0 47.5 20.5t19.5 47.5q0 26 -17.5 41t-41.5 15q-34 0 -54 -26z" />
    <glyph glyph-name="uni2159" unicode="&#x2159;" horiz-adv-x="776" 
d="M102 299l46 308h-67l12 80h154l-58 -388h-87zM123 0h-111l610 687h112zM731 145q0 -31 -12.5 -58.5t-34 -48.5t-50 -33.5t-60.5 -12.5q-28 0 -54 9t-45.5 26t-31.5 41.5t-12 56.5q0 36 16.5 68t40.5 62l108 133h104l-110 -125q10 2 19 2q26 0 48.5 -9t39 -25.5
t25.5 -38.5t9 -47zM585 197q-28 0 -49 -19.5t-21 -48.5q0 -23 17 -41t45 -18q27 0 48.5 19t21.5 49q0 25 -17.5 42t-44.5 17z" />
    <glyph glyph-name="uni215A" unicode="&#x215a;" horiz-adv-x="872" 
d="M827 145q0 -31 -12.5 -58.5t-34 -48.5t-50 -33.5t-60.5 -12.5q-28 0 -54 9t-45.5 26t-31.5 41.5t-12 56.5q0 36 16.5 68t40.5 62l108 133h104l-110 -125q10 2 19 2q26 0 48.5 -9t39 -25.5t25.5 -38.5t9 -47zM219 0h-111l610 687h112zM78 490l56 197h227l-11 -73h-161
l-19 -67q23 16 55 16q57 0 92 -34t35 -88q0 -32 -12.5 -59.5t-33.5 -47.5t-49.5 -31.5t-59.5 -11.5q-63 0 -101 35t-38 92h84q1 -19 16.5 -34t41.5 -15q28 0 47.5 20.5t19.5 47.5q0 26 -17.5 41t-41.5 15q-34 0 -54 -26zM681 197q-28 0 -49 -19.5t-21 -48.5q0 -23 17 -41
t45 -18q27 0 48.5 19t21.5 49q0 25 -17.5 42t-44.5 17z" />
    <glyph glyph-name="uni215B" unicode="&#x215b;" horiz-adv-x="805" 
d="M102 299l46 308h-67l12 80h154l-58 -388h-87zM123 0h-111l610 687h112zM605 -8q-29 0 -54 8t-44 23t-30 36t-11 48q0 39 23 68.5t58 39.5q-19 12 -29.5 29.5t-10.5 39.5q0 27 11.5 47.5t30.5 35t43 22t48 7.5q23 0 45.5 -6.5t40.5 -20t29 -33t11 -44.5q0 -32 -17 -54.5
t-44 -33.5q24 -13 38 -33t14 -49q0 -32 -13 -56.5t-34.5 -41t-49 -24.5t-55.5 -8zM609 66q25 0 44.5 14.5t19.5 42.5q0 21 -17 35t-42 14q-23 0 -42.5 -14.5t-19.5 -41.5q0 -22 16.5 -36t40.5 -14zM634 238q20 0 36.5 11.5t16.5 34.5q0 18 -14.5 29.5t-34.5 11.5t-36 -12
t-16 -35q0 -18 14 -29t34 -11z" />
    <glyph glyph-name="uni215C" unicode="&#x215c;" horiz-adv-x="900" 
d="M218 0h-111l610 687h112zM700 -8q-29 0 -54 8t-44 23t-30 36t-11 48q0 39 23 68.5t58 39.5q-19 12 -29.5 29.5t-10.5 39.5q0 27 11.5 47.5t30.5 35t43 22t48 7.5q23 0 45.5 -6.5t40.5 -20t29 -33t11 -44.5q0 -32 -17 -54.5t-44 -33.5q24 -13 38 -33t14 -49
q0 -32 -13 -56.5t-34.5 -41t-49 -24.5t-55.5 -8zM704 66q25 0 44.5 14.5t19.5 42.5q0 21 -17 35t-42 14q-23 0 -42.5 -14.5t-19.5 -41.5q0 -22 16.5 -36t40.5 -14zM729 238q20 0 36.5 11.5t16.5 34.5q0 18 -14.5 29.5t-34.5 11.5t-36 -12t-16 -35q0 -18 14 -29t34 -11z
M212 533q21 0 39.5 11t18.5 37q0 17 -14 27.5t-30 10.5q-21 0 -36 -12t-19 -36h-81q1 30 12.5 53t30.5 39t44 24t52 8q23 0 45.5 -6.5t40 -19.5t28.5 -32.5t11 -44.5q0 -31 -17 -55t-45 -36q26 -13 40 -33.5t14 -49.5q0 -30 -13.5 -53.5t-34.5 -40t-47.5 -25t-52.5 -8.5
q-30 0 -56 9t-45 25.5t-29.5 41t-10.5 56.5h85q1 -25 17 -39.5t41 -14.5t42.5 13.5t17.5 38.5q0 23 -17 35t-40 12h-19l10 65h18z" />
    <glyph glyph-name="uni215D" unicode="&#x215d;" horiz-adv-x="894" 
d="M694 -8q-29 0 -54 8t-44 23t-30 36t-11 48q0 39 23 68.5t58 39.5q-19 12 -29.5 29.5t-10.5 39.5q0 27 11.5 47.5t30.5 35t43 22t48 7.5q23 0 45.5 -6.5t40.5 -20t29 -33t11 -44.5q0 -32 -17 -54.5t-44 -33.5q24 -13 38 -33t14 -49q0 -32 -13 -56.5t-34.5 -41t-49 -24.5
t-55.5 -8zM212 0h-111l610 687h112zM78 490l56 197h227l-11 -73h-161l-19 -67q23 16 55 16q57 0 92 -34t35 -88q0 -32 -12.5 -59.5t-33.5 -47.5t-49.5 -31.5t-59.5 -11.5q-63 0 -101 35t-38 92h84q1 -19 16.5 -34t41.5 -15q28 0 47.5 20.5t19.5 47.5q0 26 -17.5 41t-41.5 15
q-34 0 -54 -26zM698 66q25 0 44.5 14.5t19.5 42.5q0 21 -17 35t-42 14q-23 0 -42.5 -14.5t-19.5 -41.5q0 -22 16.5 -36t40.5 -14zM723 238q20 0 36.5 11.5t16.5 34.5q0 18 -14.5 29.5t-34.5 11.5t-36 -12t-16 -35q0 -18 14 -29t34 -11z" />
    <glyph glyph-name="uni215E" unicode="&#x215e;" horiz-adv-x="835" 
d="M60 299l202 310h-182l12 78h287l-10 -64l-208 -324h-101zM153 0h-111l610 687h112zM635 -8q-29 0 -54 8t-44 23t-30 36t-11 48q0 39 23 68.5t58 39.5q-19 12 -29.5 29.5t-10.5 39.5q0 27 11.5 47.5t30.5 35t43 22t48 7.5q23 0 45.5 -6.5t40.5 -20t29 -33t11 -44.5
q0 -32 -17 -54.5t-44 -33.5q24 -13 38 -33t14 -49q0 -32 -13 -56.5t-34.5 -41t-49 -24.5t-55.5 -8zM639 66q25 0 44.5 14.5t19.5 42.5q0 21 -17 35t-42 14q-23 0 -42.5 -14.5t-19.5 -41.5q0 -22 16.5 -36t40.5 -14zM664 238q20 0 36.5 11.5t16.5 34.5q0 18 -14.5 29.5
t-34.5 11.5t-36 -12t-16 -35q0 -18 14 -29t34 -11z" />
    <glyph glyph-name="percent" unicode="%" horiz-adv-x="832" 
d="M240 456q34 0 57 25t23 58q0 29 -19.5 49.5t-49.5 20.5q-34 0 -57.5 -25t-23.5 -58q0 -29 19.5 -49.5t50.5 -20.5zM256 695q33 0 62 -11.5t50 -31.5t33 -47.5t12 -59.5q0 -36 -14 -68t-38 -56t-56.5 -37.5t-70.5 -13.5q-34 0 -62.5 11.5t-49.5 31.5t-33 47.5t-12 59.5
q0 36 13.5 68t37.5 56t57 37.5t71 13.5zM677 687h121l-611 -687h-121zM624 231q-34 0 -57 -25t-23 -58q0 -29 19.5 -49.5t49.5 -20.5q34 0 57.5 25t23.5 58q0 29 -19.5 49.5t-50.5 20.5zM608 -8q-33 0 -62 11.5t-50 31.5t-33 47.5t-12 59.5q0 36 14 68t38 56t56.5 37.5
t70.5 13.5q34 0 62.5 -11.5t49.5 -31.5t33 -47.5t12 -59.5q0 -36 -13.5 -68t-37.5 -56t-57 -37.5t-71 -13.5z" />
    <glyph glyph-name="perthousand" unicode="&#x2030;" horiz-adv-x="1223" 
d="M240 456q34 0 57 25t23 58q0 29 -19.5 49.5t-49.5 20.5q-34 0 -57.5 -25t-23.5 -58q0 -29 19.5 -49.5t50.5 -20.5zM256 695q33 0 62 -11.5t50 -31.5t33 -47.5t12 -59.5q0 -36 -14 -68t-38 -56t-56.5 -37.5t-70.5 -13.5q-34 0 -62.5 11.5t-49.5 31.5t-33 47.5t-12 59.5
q0 36 13.5 68t37.5 56t57 37.5t71 13.5zM677 687h121l-611 -687h-121zM624 231q-34 0 -57 -25t-23 -58q0 -29 19.5 -49.5t49.5 -20.5q34 0 57.5 25t23.5 58q0 29 -19.5 49.5t-50.5 20.5zM608 -8q-33 0 -62 11.5t-50 31.5t-33 47.5t-12 59.5q0 36 14 68t38 56t56.5 37.5
t70.5 13.5q34 0 62.5 -11.5t49.5 -31.5t33 -47.5t12 -59.5q0 -36 -13.5 -68t-37.5 -56t-57 -37.5t-71 -13.5zM1015 231q-34 0 -57 -25t-23 -58q0 -29 19.5 -49.5t49.5 -20.5q34 0 57.5 25t23.5 58q0 29 -19.5 49.5t-50.5 20.5zM999 -8q-33 0 -62 11.5t-50 31.5t-33 47.5
t-12 59.5q0 36 14 68t38 56t56.5 37.5t70.5 13.5q34 0 62.5 -11.5t49.5 -31.5t33 -47.5t12 -59.5q0 -36 -13.5 -68t-37.5 -56t-57 -37.5t-71 -13.5z" />
    <glyph glyph-name="currency" unicode="&#xa4;" 
d="M491 52l-68 80q-27 -14 -57 -22t-62 -8q-79 0 -138 42l-83 -71l-59 69l81 70q-28 48 -28 109q0 44 15 82.5t42 68.5l-67 79l71 61l69 -80q26 14 57 22t63 8q38 0 73.5 -11t64.5 -32l82 72l60 -69l-81 -70q28 -50 28 -109q0 -44 -15.5 -82.5t-42.5 -69.5l67 -78zM308 201
q28 0 53 10.5t44.5 29.5t31 43.5t11.5 53.5q0 26 -10 49t-27 40t-40 26.5t-49 9.5q-28 0 -53.5 -11t-44.5 -29.5t-30 -44t-11 -53.5q0 -26 9.5 -49t26.5 -39.5t40 -26t49 -9.5z" />
    <glyph glyph-name="afii61289" unicode="&#x2113;" horiz-adv-x="429" 
d="M39 295q18 4 36.5 9t36.5 13l33 218q11 72 51.5 117t112.5 45q28 0 53 -8.5t44 -25t29.5 -41t10.5 -55.5q0 -51 -18 -96t-49 -83.5t-72.5 -70t-88.5 -55.5l-13 -86q-6 -41 15 -62t63 -21q29 0 50 10l-14 -104q-15 -6 -32 -8.5t-34 -2.5q-40 0 -73 11t-55 34t-31.5 57.5
t-2.5 81.5l6 42q-35 -10 -72 -15zM305 597q-23 0 -32.5 -19.5t-13.5 -42.5l-23 -150q47 35 77 78t30 91q0 21 -10.5 32t-27.5 11z" />
    <glyph glyph-name="estimated" unicode="&#x212e;" horiz-adv-x="768" 
d="M161 153q34 -53 89.5 -84t126.5 -31q72 0 137 38.5t109 102.5h64q-26 -44 -60.5 -79.5t-75.5 -60t-86.5 -38t-91.5 -13.5q-68 0 -125.5 24.5t-99 67t-65 100t-23.5 123.5q0 75 28.5 142.5t78 118.5t116 81t142.5 30q68 0 125 -24.5t98 -67.5t64 -101.5t23 -125.5
q0 -8 -0.5 -16.5t-1.5 -16.5h-547zM422 625q-60 0 -111 -21.5t-92 -59.5l-25 -171h415l21 145q-33 49 -86 78t-122 29z" />
    <glyph glyph-name="arrowleft" unicode="&#x2190;" horiz-adv-x="850" 
d="M348 35l-268 315l362 315l61 -69l-229 -198h524l-14 -96h-532l170 -201z" />
    <glyph glyph-name="arrowright" unicode="&#x2192;" horiz-adv-x="850" 
d="M381 104l227 198h-523l14 96h533l-171 202l74 65l268 -315l-362 -315z" />
    <glyph glyph-name="arrowup" unicode="&#x2191;" horiz-adv-x="800" 
d="M663 338l-170 200l-81 -538h-96l80 534l-228 -199l-60 70l362 314l268 -316z" />
    <glyph glyph-name="arrowdown" unicode="&#x2193;" horiz-adv-x="800" 
d="M170 362l171 -200l80 538h96l-80 -534l229 199l60 -70l-362 -314l-268 316z" />
    <glyph glyph-name="uni2196" unicode="&#x2196;" horiz-adv-x="750" 
d="M619 605h-285l332 -390l-75 -66l-332 390l-42 -285h-95l66 446h445z" />
    <glyph glyph-name="uni2197" unicode="&#x2197;" horiz-adv-x="750" 
d="M255 700h445l-67 -446h-95l42 280l-446 -387l-59 70l445 388h-280z" />
    <glyph glyph-name="uni2198" unicode="&#x2198;" horiz-adv-x="750" 
d="M528 0h-445l67 446h96l-43 -280l446 387l59 -70l-445 -388h280z" />
    <glyph glyph-name="uni2199" unicode="&#x2199;" horiz-adv-x="750" 
d="M165 95h285l-333 390l76 66l331 -390l43 285h95l-67 -446h-445z" />
    <glyph glyph-name="plus" unicode="+" 
d="M91 382h182l28 185h96l-28 -185h182l-14 -97h-182l-28 -187h-96l28 187h-182z" />
    <glyph glyph-name="minus" unicode="&#x2212;" 
d="M91 382h460l-14 -97h-460z" />
    <glyph glyph-name="plusminus" unicode="&#xb1;" 
d="M106 480h182l26 172h96l-26 -172h182l-14 -95h-182l-26 -170h-96l26 170h-182zM55 140h460l-14 -95h-460z" />
    <glyph glyph-name="multiply" unicode="&#xd7;" 
d="M307 265l-191 -166l-60 70l191 166l-139 165l74 64l140 -164l191 167l61 -70l-192 -167l139 -164l-75 -64z" />
    <glyph glyph-name="divide" unicode="&#xf7;" 
d="M77 285l14 97h460l-14 -97h-460zM355 153q0 -29 -20.5 -49t-49.5 -20q-28 0 -47 19.5t-19 45.5q0 29 21 49t49 20t47 -19.5t19 -45.5zM410 518q0 -29 -21 -49t-49 -20t-47 19.5t-19 45.5q0 29 20.5 49t49.5 20q28 0 47 -19.5t19 -45.5z" />
    <glyph glyph-name="equal" unicode="=" 
d="M75 280h460l-14 -96h-460zM106 483h460l-15 -96h-460z" />
    <glyph glyph-name="notequal" unicode="&#x2260;" 
d="M106 483h248l52 85h105l-52 -85h107l-15 -96h-150l-65 -107h199l-14 -96h-244l-53 -88h-105l53 88h-111l14 96h156l65 107h-205z" />
    <glyph glyph-name="approxequal" unicode="&#x2248;" 
d="M77 170q5 69 45 104.5t97 35.5q38 0 60 -9t37.5 -20.5t28.5 -20.5t33 -9q23 0 38 15.5t17 38.5h91q-4 -69 -44 -104.5t-97 -35.5q-38 0 -60.5 9t-38.5 20.5t-29 20.5t-32 9q-23 0 -38 -15.5t-17 -38.5h-91zM108 362q5 69 45 104.5t97 35.5q38 0 60 -9t37.5 -20.5
t28.5 -20.5t33 -9q23 0 38 15.5t17 38.5h91q-4 -69 -44 -104.5t-97 -35.5q-38 0 -60.5 9t-38.5 20.5t-29 20.5t-32 9q-23 0 -38 -15.5t-17 -38.5h-91z" />
    <glyph glyph-name="less" unicode="&#x3c;" 
d="M108 385l458 205l-18 -119l-325 -141l283 -141l-17 -113l-397 205z" />
    <glyph glyph-name="greater" unicode="&#x3e;" 
d="M520 281l-458 -205l18 119l325 141l-283 141l17 113l397 -205z" />
    <glyph glyph-name="lessequal" unicode="&#x2264;" 
d="M70 140h428l-14 -95h-428zM122 486l453 168l-16 -108l-321 -119l286 -119l-16 -104l-403 168z" />
    <glyph glyph-name="greaterequal" unicode="&#x2265;" 
d="M71 140h428l-14 -95h-428zM534 372l-453 -168l16 108l321 119l-286 119l16 104l403 -168z" />
    <glyph glyph-name="logicalnot" unicode="&#xac;" 
d="M103 465h460l-39 -263h-97l25 167h-363z" />
    <glyph glyph-name="equivalence" unicode="&#x2261;" 
d="M61 185h460l-14 -96h-460zM91 381h460l-15 -96h-460zM120 577h460l-14 -96h-460z" />
    <glyph glyph-name="infinity" unicode="&#x221e;" horiz-adv-x="805" 
d="M763 342q0 -39 -14 -72t-39.5 -58t-60.5 -39t-76 -14q-52 0 -91.5 25.5t-69.5 66.5q-36 -42 -77.5 -67t-92.5 -25q-38 0 -69 12.5t-54 34.5t-35.5 52t-12.5 64q0 39 14 72t39.5 58t60 39t75.5 14q52 0 91.5 -25.5t70.5 -66.5q35 41 76.5 66.5t93.5 25.5q37 0 68.5 -12.5
t54.5 -34.5t35.5 -52t12.5 -64zM659 336q0 31 -22 52t-54 21q-18 0 -33.5 -7t-29 -18.5t-25.5 -25.5t-22 -27q9 -14 19 -27.5t22 -24t26.5 -17.5t32.5 -7q35 0 60.5 23t25.5 58zM175 328q0 -31 21.5 -52t53.5 -21q17 0 32.5 7t29 18.5t25.5 25t23 27.5q-9 13 -19.5 27
t-22.5 24.5t-26.5 17.5t-31.5 7q-35 0 -60 -23t-25 -58z" />
    <glyph glyph-name="partialdiff" unicode="&#x2202;" horiz-adv-x="612" 
d="M269 -11q-47 0 -88.5 13.5t-72.5 40t-49 66t-18 90.5q0 53 20 100t54.5 82.5t81.5 56t101 20.5q23 0 47 -4t46.5 -12.5t42 -21.5t34.5 -30q1 8 1.5 16t0.5 12q1 41 -10.5 74.5t-34 57.5t-55 37.5t-74.5 13.5q-32 0 -65.5 -7t-62.5 -20l16 106q29 12 60 18t62 6
q67 0 119 -21t87 -60t53 -93.5t18 -121.5q0 -69 -19 -143.5t-57.5 -135.5t-97.5 -100.5t-140 -39.5zM274 94q33 0 61 15t50.5 39.5t37.5 56t23 63.5q-17 42 -57 65t-84 23q-32 0 -59 -11.5t-46.5 -31.5t-31 -47t-11.5 -57q0 -54 33 -84.5t84 -30.5z" />
    <glyph glyph-name="integral" unicode="&#x222b;" horiz-adv-x="422" 
d="M225 -44q-14 -91 -64 -134.5t-125 -43.5q-26 0 -47.5 5t-35.5 11l15 99q10 -5 23 -7.5t33 -2.5q33 0 57 19t31 66l83 557q14 91 65.5 135t126.5 44q26 0 47.5 -5t34.5 -11l-15 -99q-10 5 -22.5 7.5t-32.5 2.5q-33 0 -58 -19t-32 -66z" />
    <glyph glyph-name="radical" unicode="&#x221a;" horiz-adv-x="713" 
d="M750 694l-403 -694h-95l-101 374h-96l15 102h172l80 -318l308 536h120z" />
    <glyph glyph-name="Delta" unicode="&#x2206;" horiz-adv-x="724" 
d="M-3 0l385 698h97l178 -698h-660zM178 108h334l-104 421z" />
    <glyph glyph-name="ohm" unicode="&#x2126;" horiz-adv-x="803" 
d="M439 592q-52 0 -96 -21t-76.5 -56.5t-50.5 -82.5t-18 -99q0 -39 10 -77t27.5 -70t42 -57t54.5 -38l-15 -91h-296l16 110h128q-21 20 -37.5 47t-27.5 58t-16.5 63.5t-5.5 64.5q0 76 29 141.5t79 114.5t116.5 77t141.5 28q66 0 124 -22.5t101.5 -63t68.5 -97t25 -123.5
q0 -39 -10.5 -80t-29 -79t-45.5 -71.5t-60 -57.5h115l-16 -110h-305l13 91q47 11 87 40.5t69 70t45.5 87.5t16.5 93q0 44 -15.5 82.5t-42.5 67t-64.5 44.5t-81.5 16z" />
    <glyph glyph-name="product" unicode="&#x220f;" horiz-adv-x="710" 
d="M150 693h546l-104 -693h-119l87 582h-308l-87 -582h-119z" />
    <glyph glyph-name="summation" unicode="&#x2211;" horiz-adv-x="577" 
d="M22 88l258 258l-181 259l14 88h486l-17 -108h-324l153 -223l-6 -41l-211 -212h317l-16 -109h-486z" />
    <glyph glyph-name="lozenge" unicode="&#x25ca;" horiz-adv-x="585" 
d="M302 0h-90l-166 349l270 345h89l167 -347zM343 562l-171 -218l102 -213l172 220z" />
    <glyph glyph-name="degree" unicode="&#xb0;" horiz-adv-x="414" 
d="M260 699q31 0 59 -10.5t48.5 -29.5t32.5 -46t12 -59q0 -36 -13.5 -65t-36 -49.5t-53 -31.5t-63.5 -11q-32 0 -59.5 11t-47 30t-30.5 45.5t-11 58.5q0 34 12.5 62.5t34.5 49.5t51.5 33t63.5 12zM259 618q-31 0 -52 -22t-21 -52q0 -29 19.5 -47.5t47.5 -18.5q31 0 51 22
t20 51t-18.5 48t-46.5 19z" />
    <glyph glyph-name="mu" unicode="&#x3bc;" horiz-adv-x="597" 
d="M447 490h116l-74 -490h-116l9 64q-27 -35 -65.5 -55.5t-89.5 -20.5q-40 0 -74 13l-31 -209h-116l104 698h116l-41 -275q-8 -58 14.5 -89t75.5 -31q52 0 87.5 38t45.5 101z" />
    </font>
</defs>
</svg>
