<svg width="327" height="368" viewBox="0 0 327 368" fill="none" xmlns="http://www.w3.org/2000/svg">
<path d="M185.124 242.87C184.822 241.613 184.822 240.514 184.068 239.414C183.464 238.786 182.558 238.943 182.106 239.414C180.445 240.828 181.049 244.126 181.049 245.854C181.049 247.738 180.294 249.623 179.389 251.508C178.483 253.392 177.578 255.12 176.672 256.848C175.616 258.732 174.559 260.303 173.955 262.502C173.502 263.915 175.012 265.486 176.219 264.858C180.445 262.973 182.106 257.947 183.917 253.864C184.973 251.665 185.728 249.152 185.728 246.639C185.728 245.383 185.426 243.969 185.124 242.87Z" fill="#5E2A80"/>
<path d="M162.312 220.595C159.147 219.335 155.664 220.28 152.499 221.541C149.333 222.959 146.326 224.851 143.476 227.057C140.627 229.263 138.253 231.47 136.354 234.306C134.612 236.67 132.08 241.083 134.138 244.077C134.771 244.865 135.72 245.338 136.512 244.708C137.936 243.92 138.411 242.817 139.044 241.398C139.678 239.98 140.311 238.877 140.944 237.616C142.527 235.41 144.426 233.203 146.642 231.47C148.858 229.578 151.232 228.002 153.765 226.427C155.19 225.639 156.298 224.851 157.88 224.378C159.305 223.905 160.73 223.59 162.154 223.275C163.42 222.644 163.104 221.068 162.312 220.595Z" fill="#5E2A80"/>
<path d="M244.769 239.262C242.567 237.34 240.207 235.419 237.691 233.978C235.174 232.377 232.342 230.936 229.826 229.335C229.197 229.014 228.567 228.534 227.938 228.054C227.152 226.292 226.208 224.691 224.95 223.41C224.006 222.45 222.59 222.93 222.276 224.051C222.276 224.051 222.276 224.051 222.118 224.051C219.759 222.61 216.298 219.888 213.467 221.489C212.838 221.809 212.366 222.61 212.523 223.25C212.68 226.453 216.77 228.214 218.972 229.495C219.916 229.975 220.86 230.455 221.646 230.936C221.804 233.658 222.118 236.54 222.118 239.262C222.118 244.065 222.118 249.029 221.174 253.672C219.444 263.6 216.456 272.726 210.793 281.052C204.658 289.859 195.693 296.584 186.412 301.547C176.66 306.831 164.863 306.03 154.166 305.23C148.661 304.749 143.785 304.269 138.28 302.828C137.808 302.668 137.336 302.508 136.864 302.348C137.178 301.707 137.493 301.067 137.493 300.426C137.65 299.145 137.493 298.025 136.392 297.224C135.448 296.423 134.033 296.263 133.089 296.904C132.145 297.544 131.516 298.505 131.044 299.145C129.314 298.025 127.741 296.744 125.696 295.623C123.808 294.342 120.977 295.303 119.876 297.224C119.089 296.584 118.303 295.783 117.674 295.303C112.798 290.499 108.708 284.735 104.933 278.971C103.045 276.409 102.101 273.527 101.944 270.324C101.787 266.962 102.259 263.6 102.573 260.397C102.731 258.636 102.888 257.195 102.888 255.434C102.888 253.672 102.573 252.071 102.888 250.31C103.045 248.709 103.989 247.908 104.461 246.467C105.09 244.866 105.09 243.425 104.618 241.824C104.146 239.902 101.472 239.742 100.528 241.183C99.742 242.624 98.4836 243.745 97.5399 245.346C96.5961 246.947 96.1242 248.388 95.9669 250.31C95.6523 253.993 95.8096 257.675 95.3377 261.358C94.394 269.043 94.394 276.089 98.9555 282.653C105.405 292.26 113.112 303.148 123.808 308.112C123.022 308.752 122.393 309.553 121.921 310.033C121.134 310.994 119.876 313.236 120.348 314.677C120.348 314.677 120.348 314.677 120.348 314.837C120.033 315.797 121.449 316.438 122.078 315.637C122.235 315.637 122.393 315.477 122.55 315.477C122.865 315.317 123.179 315.157 123.336 314.997C124.28 314.677 125.067 314.196 125.696 313.716C127.269 312.915 128.684 311.795 130.1 310.674C135.92 313.396 142.998 314.356 148.504 314.997C154.796 315.637 161.245 315.958 167.379 315.797C173.514 315.637 179.963 315.157 185.783 313.076C191.603 310.994 196.951 307.311 202.142 303.629C207.175 300.106 211.894 295.943 215.669 291.14C222.905 282.333 227.781 271.765 229.983 260.557C231.241 254.473 231.399 247.748 230.927 241.503C230.77 239.582 230.455 237.18 230.14 235.099C232.028 236.06 233.758 237.02 235.646 237.981C238.32 239.422 241.308 240.062 244.14 240.863C244.612 240.863 245.398 239.742 244.769 239.262Z" fill="#5E2A80"/>
<path d="M159.662 188.132C157.794 185.114 154.212 183.843 151.409 181.936C148.762 180.03 146.271 178.124 143.779 176.058C141.288 173.993 138.485 171.61 135.682 170.022C132.879 168.115 129.92 167.003 126.65 166.05C125.716 165.732 125.093 167.003 125.716 167.639C128.052 169.863 130.232 172.563 132.568 174.788C134.903 177.012 137.395 179.236 139.886 181.46C142.378 183.684 145.181 185.908 147.828 187.814C150.475 189.721 153.745 192.421 157.327 191.945C159.351 191.627 160.752 189.879 159.662 188.132Z" fill="#5E2A80"/>
<path d="M72.7378 216C71.4808 216 70.3808 215.683 69.2809 215.048C65.5097 213.143 64.0955 208.54 66.1383 204.73C84.9942 168.381 121.92 146 162.303 146C197.972 146 231.284 163.619 251.555 193.302C253.912 196.794 253.126 201.556 249.669 203.937C246.212 206.317 241.498 205.524 239.141 202.032C221.699 176.635 192.944 161.397 162.46 161.397C127.577 161.397 95.8363 180.762 79.6517 211.873C78.0803 214.571 75.4091 216 72.7378 216Z" fill="#5E2A80"/>
<path d="M38.2222 158C36.6539 158 35.0857 157.523 33.6742 156.41C30.3808 153.867 29.5967 149.099 32.1059 145.761C46.8477 125.573 66.2943 108.724 88.2502 97.2797C110.833 85.1992 136.553 79 162.43 79C210.889 79 256.683 100.777 287.735 138.926C290.401 142.105 289.93 147.032 286.637 149.734C283.5 152.437 278.639 151.96 275.973 148.622C247.901 114.129 206.498 94.4185 162.43 94.4185C138.749 94.4185 116.166 99.9819 95.1506 110.95C75.2335 121.282 57.512 136.541 44.1817 154.98C42.7702 157.046 40.4178 158 38.2222 158Z" fill="#5E2A80"/>
<path d="M7.57945 109C5.84902 109 4.27591 108.363 2.86011 107.249C-0.443432 104.702 -0.915367 99.7682 1.60161 96.4256C41.8733 45.9689 101.494 17 165.52 17C226.871 17 285.077 44.0588 325.191 91.173C327.865 94.3564 327.551 99.2906 324.405 101.997C321.258 104.702 316.382 104.384 313.707 101.201C276.582 57.4291 222.624 32.4394 165.52 32.4394C106.214 32.2803 50.8401 59.1799 13.5573 105.976C11.9842 107.886 9.78181 109 7.57945 109Z" fill="#5E2A80"/>
<path d="M188.93 182.025C156.004 166.415 116.145 182.184 99.761 217.227C83.3766 252.27 97.2403 293.365 130.167 308.975C163.093 324.585 202.951 308.816 219.336 273.773C235.72 238.73 221.856 197.635 188.93 182.025ZM151.12 265.331C139.619 259.756 134.578 246.058 140.092 234.43C145.606 222.802 159.154 217.705 170.655 223.28C182.156 228.855 187.197 242.553 181.683 254.181C176.484 265.809 162.62 270.747 151.12 265.331Z" fill="#EFD61E"/>
<path d="M166.7 267.78C165.284 270.463 163.553 272.672 161.349 274.566C160.877 274.408 160.405 274.408 159.776 274.723C159.146 275.197 158.359 275.67 157.887 276.144C157.572 276.144 157.258 276.144 156.785 276.459C153.953 278.353 150.962 280.089 148.287 282.298C145.769 284.35 143.408 286.875 140.89 288.926C138.372 290.82 136.169 292.871 134.438 295.554C134.123 296.028 133.808 296.501 133.493 296.974C132.549 298.079 131.605 299.026 130.66 300.131C130.031 300.762 130.188 301.551 130.503 302.024C130.188 302.656 129.874 303.287 129.559 303.918C129.401 304.234 129.401 304.549 129.401 304.865C127.513 305.812 128.615 308.652 130.66 307.863C134.752 306.127 136.484 302.498 138.687 299.026C141.048 294.607 145.297 291.135 149.074 287.822C152.851 284.665 157.1 282.298 161.035 279.458C164.654 276.775 167.645 273.461 169.691 269.516C170.792 267.464 167.645 266.044 166.7 267.78Z" fill="#C7AE2E"/>
<path d="M163.722 213.688C164.647 214.478 166.187 214.32 166.341 212.741C166.804 208.951 166.958 205.004 166.958 201.214C166.958 200.425 166.496 199.951 166.033 199.793C165.879 198.53 165.571 197.582 164.338 196.951C164.492 196.319 164.647 195.53 164.647 195.056C164.801 194.267 164.801 193.319 164.801 192.688C164.801 192.688 164.801 192.688 164.955 192.688C165.263 192.53 165.417 192.214 165.571 192.056L165.725 191.582C165.725 191.266 165.725 190.951 165.571 190.635C165.417 190.319 165.417 189.845 165.263 189.53C165.263 189.372 165.109 189.056 164.955 188.898C164.955 188.74 164.801 188.74 164.647 188.74C164.647 187.951 164.647 187.003 165.109 186.687C166.65 185.108 164.03 182.898 162.644 184.635C161.565 185.898 161.411 187.161 161.565 188.74C161.719 190.635 161.719 192.214 161.565 193.951C161.257 197.267 160.332 200.425 159.562 203.741C158.175 208.793 155.094 216.688 158.946 221.267C159.87 222.531 161.411 222.057 161.873 220.636C162.489 218.583 162.952 216.372 163.26 214.162C163.414 213.688 163.568 213.688 163.722 213.688Z" fill="#C7AE2E"/>
<path d="M220.867 219.091C222.588 217.668 220.554 214.981 218.989 216.403C215.391 219.249 217.738 215.929 213.514 217.826C213.045 217.984 205.848 223.358 205.535 223.516C205.223 223.2 204.753 222.884 204.127 223.042C203.189 223.042 202.407 223.042 201.624 223.2C201.312 222.884 200.686 222.884 200.216 223.042C199.747 223.2 199.278 223.2 198.808 223.358C197.4 223.358 196.149 223.358 194.741 223.358C193.333 223.358 193.02 224.781 193.489 225.729C192.394 225.571 191.769 226.52 191.769 227.468V227.626C191.456 227.468 191.299 227.468 190.986 227.31C189.109 226.362 187.701 229.365 189.578 230.313C194.897 232.684 203.032 233.791 208.351 232.368C213.514 230.946 218.364 227.468 222.275 223.991C222.431 223.833 219.615 220.671 219.772 220.513C219.928 220.355 219.928 220.355 220.085 220.197C220.71 219.723 220.867 219.407 220.867 219.091Z" fill="#C7AE2E"/>
<path d="M178.579 258.017C179.053 256.585 180.159 252.924 179.685 251.651C179.527 251.014 178.105 253.402 177.789 253.561C177.315 253.879 176.999 254.357 176.682 254.675C174.786 254.834 172.1 253.879 170.362 254.357C168.307 254.993 166.411 254.834 164.357 255.312C160.564 256.107 156.613 258.813 152.979 260.405C149.977 261.678 148.238 263.27 146.184 265.18C146.5 264.703 146.658 264.384 146.974 263.907C148.87 262.156 150.451 260.723 150.767 260.087C151.873 258.177 148.712 256.585 148.238 254.675C147.606 252.447 147.29 250.059 147.132 247.672C146.974 245.284 147.132 242.578 147.132 240.191C147.132 239.077 146.974 237.962 147.132 236.848C147.132 235.734 147.29 234.62 146.816 233.506C146.658 233.028 149.976 230.8 149.66 230.959C149.502 230.959 150.609 229.526 149.028 230.163C146.342 231.436 143.181 234.461 142.391 235.416C141.443 236.211 141.917 235.575 141.127 236.53C138.441 239.395 135.912 242.578 133.7 246.08C132.12 248.149 130.224 252.287 128.801 255.471C128.801 255.471 119.794 274.412 118.214 282.211C118.214 282.211 116.317 287.464 115.527 289.055C115.527 289.055 113.157 293.671 111.893 297.173C111.735 297.491 111.577 297.809 111.419 297.969C110.471 299.242 107.468 303.221 106.678 304.017C104.308 306.882 101.937 309.906 100.199 313.249C100.041 313.567 99.883 313.885 99.725 314.204L91.3497 331.553C91.3497 331.712 89.7695 334.259 89.9275 334.418C89.1374 335.532 88.5053 336.328 87.8732 337.283C87.0831 338.397 85.9769 339.193 85.3448 340.307C84.8708 341.581 85.0288 342.695 84.7127 343.809C84.3967 345.082 83.4486 346.037 83.1325 347.311C83.1325 347.47 83.1325 347.629 82.9745 347.788C82.8165 348.107 82.6584 348.425 82.3424 348.743C80.9202 350.653 79.814 352.882 78.3918 354.792C77.7597 355.747 77.2856 356.542 77.1276 357.338C76.9696 358.452 77.1276 359.407 77.1276 360.522C77.4437 362.591 77.9177 364.978 78.7078 366.888C79.1819 368.003 80.6041 368.48 81.3942 367.366C82.8165 365.456 84.2387 363.864 85.5029 361.954C86.767 360.044 87.3991 357.975 87.8732 355.906C89.1374 352.404 90.0855 348.743 91.3497 345.242C92.4559 343.332 93.246 341.421 94.3522 339.352C95.4583 337.442 96.2485 335.532 97.1966 333.463C97.5127 332.986 97.8287 332.349 97.9867 331.871C101.463 328.211 104.94 324.55 108.258 320.57C111.419 316.75 117.266 310.861 118.372 306.086C118.214 306.405 118.53 305.768 118.372 306.086C119.32 304.972 120.742 303.062 121.058 302.585C120.426 303.54 121.69 301.629 121.058 302.585L116.634 312.612L116.001 313.726C115.369 314.681 113.789 316.114 112.999 317.069C111.419 318.979 110.313 320.411 110.313 322.799C110.313 323.436 110.629 323.754 111.103 324.072C111.419 324.231 111.577 324.55 112.051 324.55C113.947 324.709 115.369 324.072 116.95 322.958C118.688 321.525 120.584 320.252 121.374 318.183C122.164 316.114 123.271 314.204 124.377 312.93C126.273 310.702 128.485 308.315 130.54 306.245C133.226 303.38 136.386 300.356 137.967 296.854C139.705 293.034 140.653 289.851 140.653 289.851C140.969 289.533 141.443 289.374 141.759 289.055C143.656 287.782 145.552 286.668 147.606 285.713C147.606 285.713 163.092 275.844 170.52 269.318C172.732 267.408 174.47 264.703 176.208 261.997C177.315 260.883 177.947 259.45 178.579 258.017Z" fill="#EBA374"/>
<path d="M120.833 325.756C120.673 325.597 120.513 325.597 120.354 325.439C120.034 325.28 119.714 325.121 119.235 325.121C119.075 325.121 119.075 325.121 118.915 325.121C118.596 325.121 118.116 325.121 117.797 325.28C118.116 324.644 118.276 324.167 118.756 323.531C119.395 322.578 120.673 321.942 120.833 320.988C121.153 320.353 121.312 318.605 121.153 319.081C120.673 320.035 118.596 321.465 117.957 322.26C117.158 323.213 116.199 323.69 115.24 324.167C114.441 324.485 113.163 324.962 112.204 324.962C110.766 324.803 110.286 322.578 110.606 321.624C110.766 320.83 110.925 320.671 110.446 321.306C109.967 321.942 109.327 322.578 108.848 323.055C108.688 323.213 108.528 323.372 108.369 323.531C107.889 323.849 107.57 324.167 107.09 324.644C106.132 325.439 105.173 326.233 104.534 327.028C103.255 328.299 101.817 329.571 101.018 331.319C100.698 331.955 100.219 332.431 99.8994 333.226C99.7396 333.385 99.7396 333.703 99.8994 333.862C100.539 334.656 101.338 334.815 102.137 334.656C103.255 334.497 104.054 335.133 105.173 334.974C105.812 334.815 106.451 334.656 107.09 334.656C107.41 334.656 107.889 334.656 108.209 334.497C109.327 334.656 110.286 334.656 111.405 334.656C112.364 334.656 113.322 334.497 114.281 334.18C114.601 334.021 114.92 333.703 115.4 333.544C115.719 333.385 116.199 333.226 116.678 332.908C116.998 332.749 117.158 332.272 116.998 332.114C116.838 331.796 116.518 331.637 116.199 331.796C115.879 331.796 115.4 331.955 115.08 331.955C114.761 331.955 114.441 331.796 114.121 331.796C113.962 331.796 113.642 331.796 113.482 331.796C114.441 330.842 115.24 329.889 115.879 329.094C116.199 329.253 116.359 329.253 116.678 329.253C116.838 329.253 116.998 329.253 117.158 329.253H117.317C117.477 329.253 117.797 329.253 117.957 329.253C117.797 329.253 117.637 329.253 117.477 329.253C117.957 329.253 118.276 329.253 118.756 329.253C118.915 329.253 118.915 329.253 119.075 329.253C119.235 329.253 119.555 329.253 119.714 329.253C119.874 329.253 120.194 329.094 120.354 329.094C120.513 329.094 120.673 328.935 120.673 328.935C120.833 328.776 120.833 328.776 120.993 328.617C121.312 328.299 121.312 328.14 121.472 327.664C121.632 326.551 121.312 325.915 120.833 325.756Z" fill="#5E2A80"/>
<path d="M272.051 260.967C272.678 261.281 273.305 260.495 272.991 259.867C271.424 257.667 268.916 257.196 266.878 255.782C266.251 255.468 265.78 255.154 265.31 254.683C265.153 254.368 264.526 253.74 264.683 253.583C264.997 253.426 265.78 253.74 266.094 253.74C267.818 254.054 269.386 254.211 271.11 254.526C271.894 254.683 272.364 253.426 271.58 253.112C269.699 252.326 267.975 251.384 265.937 250.755C266.094 250.284 266.251 249.97 266.407 249.498C266.564 248.713 265.624 248.399 265.153 249.027C265.153 249.184 264.997 249.184 264.997 249.341C264.997 249.341 264.997 249.498 264.84 249.498C264.683 249.656 264.526 249.813 264.37 249.97C263.116 249.498 262.018 249.027 260.921 248.399C260.921 247.927 261.078 247.456 260.921 247.142C260.921 246.671 260.764 246.199 260.764 245.728C260.764 245.571 260.764 245.257 260.607 245.1C260.451 244.785 260.294 244.628 260.137 244.471C259.98 244.157 259.667 244 259.353 244C259.04 244 258.726 244.157 258.57 244.471C258.57 244.628 258.413 244.785 258.413 244.785C258.256 245.1 258.256 245.414 258.256 245.728C258.256 246.042 258.256 246.356 258.256 246.671C258.256 246.828 258.256 246.828 258.256 246.985C258.256 247.142 258.256 247.142 258.256 247.299C257.629 246.985 257.002 246.828 256.532 246.514C256.375 246.514 255.748 246.199 255.748 246.199C255.748 246.199 255.748 246.199 255.591 246.199C255.278 246.042 255.905 246.514 255.748 246.828C255.591 246.985 255.278 247.142 255.278 247.456C254.651 249.341 252.299 249.341 250.732 249.341C250.105 249.341 249.164 248.87 249.478 249.341C249.948 249.97 250.418 250.755 250.732 251.698C249.321 251.541 247.91 251.069 246.656 250.284C246.186 249.97 245.715 250.755 246.186 251.069C247.753 252.169 249.321 252.955 251.202 253.269C251.359 253.897 251.516 254.368 251.672 254.997C251.202 255.154 250.889 255.154 250.418 255.311C249.634 255.468 249.634 256.411 250.261 256.882C250.732 257.196 251.045 257.51 251.516 257.667C251.986 257.982 252.456 257.982 252.926 258.139C253.397 258.767 253.867 259.238 254.494 259.553C254.651 260.024 254.964 260.495 255.278 260.809C255.591 262.537 255.748 264.108 256.061 265.522C256.218 265.994 256.845 266.151 257.159 265.837C258.726 264.894 258.883 263.166 258.413 261.595C258.256 261.124 258.099 260.495 257.786 260.024C257.629 259.71 257.316 259.081 257.316 258.61C257.316 258.296 257.472 258.296 257.786 258.296C258.099 258.296 258.256 258.453 258.57 258.453C259.04 258.61 259.667 258.924 260.137 259.238C262.018 260.495 263.116 262.223 264.526 263.951C265.31 265.051 266.564 266.308 268.132 265.679C268.602 265.365 268.916 264.737 268.445 264.423C266.407 262.537 264.526 260.495 262.959 258.139C264.683 258.296 266.094 260.338 267.348 261.438C269.072 262.852 270.64 263.794 272.835 264.266C273.462 264.423 273.932 263.48 273.462 263.009C272.207 262.066 271.11 261.124 269.856 260.338C269.229 259.867 268.602 259.396 267.975 258.924C267.505 258.61 267.035 258.139 266.564 257.825C267.348 258.139 268.132 258.453 268.602 258.924C269.386 259.71 270.797 260.338 272.051 260.967Z" fill="#5E2A80"/>
<path d="M165.929 178.201C166.241 177.101 164.68 176.158 163.9 176.629C159.373 174.901 154.69 173.644 150.319 172.23C147.977 171.444 145.324 170.658 142.982 169.715C140.641 168.615 138.299 167.515 135.957 166.416C131.274 164.53 122.064 161.23 118.318 157.773C111.762 151.802 114.103 154.787 109.264 154.473C108.327 154.473 107.547 154.944 107.703 156.044C107.859 158.087 108.171 160.287 109.576 161.859C111.137 163.744 113.791 164.216 115.976 165.158C121.44 167.358 126.435 170.03 131.587 172.544C136.582 175.058 140.797 178.672 145.636 181.344C150.787 183.858 156.095 186.058 161.714 187.943C162.339 188.1 162.963 187.943 163.275 187.315C164.212 184.486 165.149 181.501 165.929 178.201Z" fill="#EBA374"/>
<path d="M114.396 154.987C114.396 154.987 113.777 154.182 113.622 154.182C113.468 153.86 113.158 153.7 113.003 153.378C113.313 153.378 113.622 153.056 113.622 152.734C113.622 152.412 113.468 152.09 113.158 151.929C112.694 151.768 112.23 151.607 111.611 151.607C110.373 150.159 109.29 148.871 108.052 147.423C107.897 147.262 107.742 147.262 107.588 147.262C107.278 146.94 106.969 146.618 106.659 146.457C106.195 145.974 105.731 145.652 105.267 145.169C104.802 144.687 104.338 144.365 103.874 144.043C103.565 143.882 103.255 144.204 103.255 144.526L103.1 144.687C102.946 145.008 103.1 145.33 103.255 145.652C103.719 146.457 104.493 146.779 104.957 147.584C105.576 148.388 105.886 149.193 106.659 149.515C106.814 149.998 107.123 150.802 107.123 150.802C106.969 150.963 106.505 150.802 106.35 150.802C106.195 150.802 106.195 150.802 106.04 150.802C105.576 150.481 105.267 150.159 104.957 149.837C103.565 148.71 102.327 147.745 100.779 146.94C100.006 146.296 99.0773 145.813 98.1489 145.652C97.8394 145.652 97.6847 145.652 97.53 145.813C97.3752 145.813 97.3752 145.813 97.2205 145.813C96.1373 145.974 95.8279 147.101 95.8279 147.905C95.8279 149.032 96.4468 149.837 97.0658 150.802C97.8394 151.929 98.6131 152.734 99.232 153.86C99.851 154.665 100.47 155.47 101.089 156.114C100.47 156.114 99.851 156.275 99.232 156.597C98.9226 156.757 98.7678 157.24 98.9226 157.562C99.0773 157.884 99.232 158.206 99.5415 158.206C100.779 158.528 101.708 159.494 102.636 160.137C103.719 160.942 104.648 161.747 106.04 162.069C106.04 162.069 108.98 163.356 111.611 164C105.421 159.333 106.814 155.953 106.814 155.953C106.814 155.953 106.814 155.792 106.969 155.792L107.123 155.631C107.278 155.47 107.278 155.309 107.433 155.309L107.588 155.148C107.742 154.987 107.897 154.987 108.052 154.826C108.052 154.826 108.052 154.826 108.207 154.826C108.207 154.826 108.361 154.826 108.516 154.665C108.671 154.665 108.671 154.665 108.826 154.504H108.98C109.754 154.504 110.373 154.665 110.992 154.987C111.301 155.148 111.456 154.987 111.765 154.987C111.765 154.987 111.765 154.987 111.92 154.987C112.23 155.148 112.539 155.309 113.003 155.47C113.468 155.631 116.562 157.401 116.562 156.918C116.717 156.757 115.324 155.792 114.396 154.987Z" fill="#5E2A80"/>
<path d="M254.098 245.502C254.412 245.818 254.882 245.818 254.882 246.292C254.882 247.557 253.628 248.19 252.688 248.506C252.06 248.664 251.59 248.664 250.963 248.664C250.806 248.664 250.806 248.664 250.65 248.822C248.768 249.296 247.985 248.822 246.73 247.399C245.32 245.818 244.065 244.395 242.498 242.656C236.698 236.648 230.897 230.64 224.627 225.107C223.059 223.684 221.491 222.419 219.924 220.996C218.356 219.731 216.632 218.466 215.378 217.043C214.437 215.937 214.123 214.83 214.594 213.407C214.907 212.458 216.005 211.352 216.475 210.245C216.475 209.612 216.475 208.98 216.475 208.506C216.475 208.348 216.475 208.348 216.475 208.189C215.064 206.45 214.123 200.917 219.14 206.292C222.432 209.771 225.411 213.565 229.016 216.885C232.151 219.731 235.914 222.261 238.892 225.423C241.4 228.111 243.125 231.431 244.849 234.909C245.947 236.806 246.887 238.545 248.298 240.126C248.612 239.652 251.904 243.447 254.098 245.502Z" fill="#EBA374"/>
<path d="M190.08 226.571C192.575 224.154 191.951 218.999 189.301 216.905C187.585 215.616 186.026 215.132 184.311 215.294C184.311 215.294 184.311 215.294 184.155 215.294H183.687C183.063 213.844 181.972 212.555 180.569 211.91C180.257 211.749 180.101 211.749 179.789 211.588C176.359 210.138 172.928 211.427 170.901 214.81C168.406 219.482 167.471 226.732 173.084 229.309C175.267 230.437 177.606 229.954 179.945 229.471C180.257 229.471 180.725 229.309 181.036 229.309C182.284 229.632 183.687 229.632 185.091 229.309C186.182 228.987 186.962 228.504 187.897 227.86C188.521 227.537 188.989 227.054 189.457 226.41C189.924 226.732 189.924 226.571 190.08 226.571Z" fill="#EBA374"/>
<path d="M224.257 216.928C224.257 218.021 223.949 222.393 223.335 222.861L215.341 216.147C214.88 215.678 215.033 215.21 215.341 214.898C214.88 214.585 214.572 214.273 214.419 213.805C214.265 213.336 214.572 212.868 214.88 212.712C215.341 212.555 215.802 212.868 215.956 213.18C215.956 213.336 216.11 213.336 216.263 213.492C216.417 213.648 216.571 213.805 216.878 213.961C217.186 214.117 217.493 214.429 217.8 214.585C217.954 214.117 217.8 213.336 217.647 213.024C217.493 212.399 218.262 212.087 218.723 212.087C218.723 211.775 218.877 211.618 218.877 211.306C218.877 211.15 218.877 210.838 219.03 210.682C219.03 210.525 219.184 210.369 219.338 210.213C218.877 209.589 218.415 209.12 218.108 208.495C217.8 208.183 217.954 207.559 218.262 207.246C218.415 207.09 218.723 207.09 218.877 207.09C218.262 206.309 217.493 205.373 216.724 205.06C216.263 204.904 216.11 204.436 216.263 203.967C216.263 203.343 216.878 202.874 217.493 203.03C218.108 203.186 218.415 203.499 218.877 203.967C219.184 204.279 219.799 204.904 220.414 205.373C219.953 206.153 224.257 210.525 224.257 216.928Z" fill="#C18760"/>
<path d="M98.4838 200.4C96.3313 202.787 94.0251 205.332 92.0263 207.877C90.1813 209.946 88.6438 212.491 86.645 214.718C84.6463 216.946 82.4938 219.491 81.11 222.355C79.7263 225.059 78.8038 227.923 78.1888 230.946C76.805 237.15 76.805 243.514 77.5738 249.877C78.3425 256.4 79.7263 263.241 82.955 268.968C84.0313 270.877 86.6451 269.923 86.7988 267.854C87.2601 261.968 86.1838 255.764 85.5688 249.718C85.1075 243.991 84.9538 238.264 86.0301 232.696C86.6451 229.991 87.2601 227.127 88.1826 224.582C89.1051 222.196 90.0276 219.332 91.1038 217.105C92.4876 214.718 94.1788 212.332 95.7163 210.105C97.4076 207.559 98.9451 204.696 100.636 201.991C101.251 200.718 99.5601 199.287 98.4838 200.4Z" fill="#5E2A80"/>
<path d="M182.741 320.589C179.6 318.854 176.303 320.116 173.005 320.431C169.55 320.747 166.095 320.904 162.641 320.747C155.731 320.431 148.665 320.116 141.599 319.012C140.499 318.854 139.714 320.274 140.813 320.904C147.409 324.216 154.318 326.581 161.856 326.896C165.624 327.054 169.236 327.054 173.005 326.739C176.46 326.423 180.856 326.581 183.212 323.743C183.997 322.639 183.997 321.22 182.741 320.589Z" fill="#5E2A80"/>
<path d="M231.696 275.707C231.538 274.764 229.956 274.764 229.797 275.707C229.481 277.591 228.374 278.691 227.425 280.261C226.317 281.832 225.526 282.931 224.577 284.659C222.837 287.643 221.255 290.627 219.199 293.611C217.3 296.124 215.086 298.794 213.188 301.149C210.973 303.819 208.916 306.803 206.702 309.473C206.069 310.258 206.86 311.358 207.809 310.887C210.815 309.002 213.978 307.117 216.984 304.919C219.99 302.563 222.521 299.579 224.894 296.595C227.108 293.611 229.006 290.313 230.747 286.857C232.328 282.931 232.487 279.476 231.696 275.707Z" fill="#5E2A80"/>
<path d="M93.9732 282.289C93.512 281.313 92.7433 280.501 92.1283 279.688C91.667 279.037 91.3595 278.387 90.8983 277.899C90.5908 277.574 90.2833 277.086 89.8221 276.761C89.3608 276.274 88.8996 275.786 88.2846 275.461C87.3621 274.648 86.1321 274.973 85.3634 275.948C84.5946 277.086 85.0559 278.55 85.6709 279.85C85.9784 280.501 86.1321 281.313 86.5934 281.801C86.9009 282.289 87.0546 282.777 87.3621 283.102C88.7458 285.215 90.1296 287.654 92.897 287.979C93.6657 288.142 94.5882 287.329 94.742 286.516C95.0495 284.89 94.5882 283.427 93.9732 282.289Z" fill="#5E2A80"/>
<path d="M247.446 218.026C245.386 216.251 242.852 214.96 240.634 213.184C239.526 212.378 238.734 211.409 237.625 210.764C236.516 209.957 235.724 209.311 234.615 208.666C232.556 206.891 230.18 205.438 228.279 203.34C227.329 202.372 225.745 203.663 226.378 204.793C229.388 209.15 232.714 213.184 237.308 215.605C241.585 218.026 246.812 219.478 248.871 224.481C249.347 225.449 250.931 224.965 250.931 223.835C250.614 221.415 249.347 219.478 247.446 218.026Z" fill="#5E2A80"/>
<path d="M107.456 168.062C106.827 167.594 106.198 166.969 105.57 166.656C104.784 166.344 103.998 166.031 103.369 165.719C102.898 165.562 102.583 165.406 102.112 165.25C101.797 165.094 101.483 164.781 101.169 164.625C100.383 164 99.597 164 98.654 164C97.8681 164 97.5537 164.938 98.0253 165.406C98.654 166.031 99.2827 166.5 100.069 166.812C100.54 166.812 100.854 166.969 101.326 167.125C101.797 167.281 102.112 167.438 102.583 167.594C103.369 167.906 104.155 168.219 104.627 168.531C105.413 168.844 106.356 168.844 106.984 169C107.613 168.844 107.927 168.375 107.456 168.062Z" fill="#5E2A80"/>
<path d="M118.451 148.111C117.955 147.618 117.624 146.961 117.293 146.303C117.128 145.975 116.797 145.646 116.467 145.318L115.64 144.496C114.978 143.839 114.317 143.511 113.655 143.018C113.325 142.854 112.994 142.689 112.663 142.525C112.498 142.361 112.333 142.361 112.167 142.196C112.002 142.032 111.671 142.032 111.506 142.032C111.01 141.868 110.514 142.361 110.679 142.854C110.679 143.018 110.844 143.182 110.844 143.346C111.01 143.511 111.175 143.675 111.175 143.839C111.34 144.168 111.671 144.496 111.836 144.825C112.002 145.154 112.333 145.482 112.498 145.646C112.829 145.975 112.994 146.139 113.325 146.468C113.655 146.632 113.986 146.961 114.152 147.125C114.482 147.453 114.813 147.618 115.309 147.782C115.97 148.111 116.632 148.439 117.293 148.932C117.624 149.096 117.955 148.932 118.12 148.768C118.616 148.768 118.616 148.439 118.451 148.111Z" fill="#5E2A80"/>
<path d="M151.151 261.15C143.212 267.449 135.75 275.953 135.75 275.953C133.527 277.37 132.892 278.157 132.892 278.157C132.575 278.63 132.257 278.945 131.94 279.417C131.146 281.15 130.352 282.724 129.717 284.457C129.717 284.457 127.018 292.331 124.477 298C124.477 298 128.605 282.094 129.558 280.52C130.511 278.945 139.402 267.606 144.165 263.197C148.928 258.787 150.198 258 150.198 258L151.151 261.15Z" fill="#C18760"/>
<path d="M181.881 223.775C182.66 223.461 183.44 223.146 183.908 222.831C185 222.359 185.936 221.729 187.184 221.887C188.432 221.414 189.836 221.414 191.24 221.572C193.424 221.729 195.763 221.887 197.791 222.516C198.571 222.674 198.727 223.618 198.103 224.09C197.947 224.248 197.947 224.248 197.791 224.248L198.571 223.303C197.947 224.248 197.947 223.933 197.323 224.72C196.855 227.238 193.579 230.544 192.176 232.118C190.304 234.006 187.964 235.895 186.092 237.941C184.064 239.987 182.192 242.348 180.945 245.024C179.697 247.7 179.229 250.848 179.073 254.153C170.337 254.468 154.583 259.977 152.243 260.764C152.087 260.764 151.775 260.921 151.619 260.921C149.279 261.551 148.343 258.246 147.875 256.357C147.251 253.839 146.783 251.163 146.472 248.644C145.692 243.293 145.536 237.312 145.224 231.96L146.628 230.858C148.655 229.284 151.307 227.868 153.491 226.294C154.427 225.664 155.363 225.035 156.143 224.405C157.079 223.461 157.547 222.516 158.171 221.414C160.822 217.007 162.694 212.285 165.034 207.878C166.594 204.888 169.714 203.156 170.181 204.415C170.649 204.573 168.934 208.665 169.246 209.137C169.402 209.452 169.402 209.61 169.558 209.924C169.558 209.924 169.558 209.924 169.558 210.082C169.558 210.239 169.714 210.239 169.714 210.397C169.87 210.554 170.026 210.869 170.181 211.026C170.181 211.184 170.337 211.184 170.337 211.341C170.337 211.341 170.649 211.656 170.493 211.498C171.117 212.128 172.053 212.915 172.677 213.387C173.613 214.174 174.549 214.804 175.641 215.433C175.953 215.748 176.265 216.063 176.577 216.378C176.733 216.378 176.889 216.535 176.889 216.535C177.357 216.535 177.669 216.85 177.825 217.322C177.981 218.267 177.669 219.211 177.357 219.998C177.357 219.998 176.421 222.359 178.293 223.461C178.449 223.618 179.541 224.72 181.881 223.775Z" fill="#ED193E"/>
<path d="M219.156 207.621C218.688 204.595 217.283 201.888 215.722 199.34C214.005 196.474 212.912 193.449 210.57 190.901C210.258 190.423 209.79 189.945 209.321 189.627C209.321 189.468 209.477 189.149 209.477 188.99C209.477 186.124 208.853 183.257 207.604 180.71C206.199 178.003 203.701 176.41 200.891 175.455C199.018 174.818 196.676 174.659 194.646 175.296C191.212 172.429 187.309 169.881 182.938 168.767C178.254 167.334 170.761 167.652 167.638 171.952C165.921 174.022 164.828 177.047 163.891 179.595C162.799 182.461 162.018 185.487 162.018 188.512C162.018 191.538 162.643 194.404 163.423 197.27C164.204 200.137 165.14 203.162 166.389 206.028C172.009 217.334 184.187 224.659 196.364 224.978C201.828 225.137 207.604 224.5 212.443 221.474C216.815 218.449 220.093 213.035 219.156 207.621Z" fill="white"/>
<path d="M198.583 198.603C200.296 198.926 202.633 198.279 204.035 196.985C204.035 196.985 206.528 195.044 207.462 193.912L205.281 198.279C205.281 198.279 204.191 200.382 201.543 201.515C200.296 202 199.05 202 197.648 202C195 201.676 192.352 200.221 190.171 198.765C188.146 197.147 186.121 195.206 184.874 192.779C183.784 190.676 183.161 187.441 184.563 185.338V185.176C185.03 184.206 185.342 183.721 185.342 183.721L188.925 180C188.457 180.647 187.211 182.588 187.211 182.588C185.809 185.176 186.276 187.441 187.211 190.191C187.367 190.353 189.548 196.662 198.583 198.603Z" fill="#ED193E"/>
<path d="M15.5475 119.766C22.4295 114.817 29.7806 111.146 35.4113 104.442C38.5394 100.611 41.9804 97.259 45.7342 94.0665C48.7059 91.5126 51.6777 88.9587 54.0238 85.6066C55.1186 84.0104 53.0853 82.4142 51.6777 83.2123C44.3265 87.8413 39.1651 93.7473 33.2216 99.9725C27.2781 106.198 21.3346 112.423 14.4527 117.691C13.045 118.489 14.2963 120.723 15.5475 119.766Z" fill="#5E2A80"/>
<path d="M68.8685 75.8752C73.4532 73.7053 78.1906 71.3804 82.4696 68.9005C83.5394 68.2805 82.7753 66.7305 81.7055 67.0405C79.2604 67.8155 76.8152 68.9005 74.6757 70.2954C72.3834 71.8454 70.0911 72.7753 67.646 74.0153C66.5762 74.6353 67.4931 76.4952 68.8685 75.8752Z" fill="#5E2A80"/>
<path d="M91.6496 61.9823C96.3216 60.8788 101.305 60.0905 105.666 58.514C109.871 56.9374 113.92 55.8338 118.436 55.2032C128.248 53.7843 138.059 52.5231 147.87 50.6312C149.895 50.1583 149.428 47.0052 147.403 47.0052C137.436 46.8475 126.534 50.3159 117.035 52.8384C108.158 55.2032 99.5921 57.4104 91.1824 61.0364C90.5594 61.1941 91.0266 62.14 91.6496 61.9823Z" fill="#5E2A80"/>
<path d="M232.599 66.6652C238.104 70.0668 245.969 70.9944 251.947 73.0044C258.396 75.169 265.474 77.9521 271.766 80.8897C272.71 81.3536 274.126 80.2713 273.497 79.189C269.092 73.4683 262.958 70.8398 256.194 68.5206C249.43 66.0468 240.149 62.9545 232.913 64.346C231.969 64.5007 231.969 66.2014 232.599 66.6652Z" fill="#5E2A80"/>
<path d="M287.764 92.259C290.691 94.1217 294.234 95.6739 297.007 98.0022C299.163 99.8649 299.625 102.504 301.628 104.522C303.477 106.695 305.787 108.402 307.636 110.42C309.33 112.283 310.101 113.524 312.719 113.99C313.952 114.145 314.722 112.438 313.644 111.972C311.641 111.041 310.101 108.868 308.406 107.471C306.866 106.229 305.479 105.298 304.247 103.745C303.014 102.348 302.398 100.796 301.474 99.3992C298.393 95.2082 292.847 93.5008 288.534 91.0172C287.61 90.862 287.148 91.7934 287.764 92.259Z" fill="#5E2A80"/>
<path d="M167.98 117.171C173.152 118.613 178.168 120.375 183.184 121.977C188.669 123.74 194.155 124.861 199.797 126.463C205.283 127.905 209.515 129.987 214.374 133.031C216.568 134.473 219.233 134.953 221.427 136.235C222.211 136.715 225.659 138.798 226.129 139.439C227.069 140.72 228.794 139.599 228.01 138.157C226.286 135.434 222.211 133.832 219.233 132.55C213.277 130.147 207.948 125.342 202.149 122.298C196.506 119.414 190.707 117.652 184.751 116.05C179.265 114.448 173.623 113.487 167.823 114.288C166.57 114.448 166.726 116.851 167.98 117.171Z" fill="#5E2A80"/>
<path d="M146 116.288C147.815 116.627 149.478 117.136 151.445 116.966C153.26 116.797 154.621 117.305 156.285 116.119C157.343 115.271 157.343 113.915 156.285 113.067C152.957 110.524 149.478 113.237 146.151 113.915C144.941 114.254 144.941 116.119 146 116.288Z" fill="#5E2A80"/>
<path d="M17.0727 53.8877C21.3208 51.0702 26.1982 49.0353 30.6036 46.3743C35.1663 43.7133 39.0997 40.5827 42.8758 36.8261C43.9772 35.8869 43.5051 33.852 41.7745 34.0085C35.953 34.6347 32.9636 37.7652 28.4009 40.8958C26.3555 42.4611 23.9955 43.5568 22.1074 45.4351C19.9047 47.47 18.3314 50.2875 16.1287 52.3224C15.342 53.2616 16.1287 54.3573 17.0727 53.8877Z" fill="#5E2A80"/>
<path d="M67.295 22.9298C73.3664 20.7178 79.7492 19.9278 85.6649 17.2419C92.359 14.398 99.2088 13.608 106.37 12.028C120.537 9.34207 134.859 6.49813 148.87 3.65419C150.738 3.1802 150.582 -0.295722 148.403 0.0202708C141.086 0.810254 134.08 0.652256 126.919 2.07423C119.602 3.65419 112.286 4.91817 105.28 7.44611C98.8974 9.65806 92.826 12.028 86.2876 13.45C78.8151 15.3459 73.6777 18.6639 67.295 22.9298C67.1393 23.0878 67.1393 22.9298 67.295 22.9298Z" fill="#5E2A80"/>
<path d="M185.502 4.19615C194.522 4.66207 202.61 6.99172 211.164 8.85543C214.741 9.63198 218.007 10.8745 221.584 11.8063C224.85 12.5829 229.516 12.2722 232.315 13.8253C233.87 14.6019 234.804 12.5829 233.559 11.8063C230.76 9.78729 226.405 9.32136 223.295 7.92358C219.718 6.37048 216.296 4.97269 212.563 4.04084C203.387 2.02181 194.989 0.624025 185.502 1.08995C183.169 0.779335 183.169 4.04084 185.502 4.19615Z" fill="#5E2A80"/>
<path d="M256.122 20.0503C258.743 21.7023 261.827 22.5284 264.448 24.1804C265.682 24.8412 266.761 25.6673 268.149 26.1629C268.92 26.4933 270.308 26.6585 270.924 27.4845C271.541 28.6409 272.929 27.6497 272.621 26.4933C271.695 24.676 269.228 24.1804 267.686 23.5196C264.14 21.8675 260.439 20.8763 256.893 19.0591C256.122 18.7286 255.505 19.8851 256.122 20.0503Z" fill="#5E2A80"/>
<path d="M163.006 212C163.006 212 170.865 230.7 190.353 234C190.353 234 197.583 228.186 197.583 224.728C197.583 224.728 189.725 224.571 185.01 222.371L181.709 223.786C181.709 223.786 179.823 224.728 178.251 223.471C176.68 222.214 176.994 220.643 177.78 218.757C177.78 218.757 169.922 213.885 166.307 206.028C166.464 205.871 165.521 206.185 163.006 212Z" fill="#D11F3F"/>
<path d="M165.798 298C164.328 298 163.185 296.933 163.022 295.713C162.858 294.188 164.002 292.968 165.471 292.815C167.268 292.663 167.105 292.358 168.575 292.053C170.208 291.748 171.514 292.815 171.841 294.035C172.168 295.56 171.024 296.78 169.718 297.085C167.921 297.39 167.758 297.695 166.125 297.848C166.125 298 165.961 298 165.798 298Z" fill="#F7E578"/>
<path d="M178.005 294C176.745 294 174.699 293.681 174.069 292.407C173.282 290.655 175.014 288.426 176.588 287.629C176.745 287.47 199.413 277.118 205.395 248.609C205.71 246.697 206.497 245.742 208.071 246.06C209.96 246.379 209.488 248.29 209.016 250.201C202.404 282.055 180.208 293.044 179.264 293.522C178.792 293.841 178.32 294 178.005 294Z" fill="#F7E578"/>
<path d="M148.031 196.163C149.48 196 150.767 196.98 151.089 198.286C151.411 199.919 150.445 201.389 148.997 201.716C147.227 202.042 147.549 202.369 145.939 202.859C144.33 203.349 142.882 202.532 142.399 200.899C141.916 199.266 142.721 197.796 144.33 197.306C146.1 196.653 146.1 196.49 147.87 196C147.87 196.163 147.87 196.163 148.031 196.163Z" fill="#F7E578"/>
<path d="M135.937 202.072C137.181 201.914 139.204 201.914 139.982 203.179C140.915 204.76 139.515 207.29 138.115 208.238C137.959 208.396 116.956 221.52 114.622 250.139C114.467 252.036 114 253.143 112.289 252.985C110.422 252.827 110.577 250.93 110.733 249.032C113.222 216.777 133.603 203.179 134.692 202.546C135.003 202.23 135.47 202.072 135.937 202.072Z" fill="#F7E578"/>
</svg>
