<?xml version="1.0" encoding="UTF-8" standalone="no"?>
<!-- Created with Inkscape (http://www.inkscape.org/) -->

<svg
   version="1.1"
   id="svg2"
   width="610.58667"
   height="667.03998"
   viewBox="0 0 610.58667 667.03998"
   sodipodi:docname="VV_Logo_RGB_Standard.eps"
   xmlns:inkscape="http://www.inkscape.org/namespaces/inkscape"
   xmlns:sodipodi="http://sodipodi.sourceforge.net/DTD/sodipodi-0.dtd"
   xmlns="http://www.w3.org/2000/svg"
   xmlns:svg="http://www.w3.org/2000/svg">
  <defs
     id="defs6">
    <clipPath
       clipPathUnits="userSpaceOnUse"
       id="clipPath36">
      <path
         d="M 2342.59,4507.96 H 1007.57 L 2344.03,2133.52 Z"
         id="path34" />
    </clipPath>
    <linearGradient
       x1="0"
       y1="0"
       x2="1"
       y2="0"
       gradientUnits="userSpaceOnUse"
       gradientTransform="matrix(1016.28,569.146,569.146,-1016.28,1673.25,3319.31)"
       spreadMethod="pad"
       id="linearGradient46">
      <stop
         style="stop-opacity:1;stop-color:#a21b21"
         offset="0"
         id="stop38" />
      <stop
         style="stop-opacity:1;stop-color:#a21b21"
         offset="0.08"
         id="stop40" />
      <stop
         style="stop-opacity:1;stop-color:#ea1d24"
         offset="0.65"
         id="stop42" />
      <stop
         style="stop-opacity:1;stop-color:#ea1d24"
         offset="1"
         id="stop44" />
    </linearGradient>
  </defs>
  <sodipodi:namedview
     id="namedview4"
     pagecolor="#ffffff"
     bordercolor="#000000"
     borderopacity="0.25"
     inkscape:showpageshadow="2"
     inkscape:pageopacity="0.0"
     inkscape:pagecheckerboard="0"
     inkscape:deskcolor="#d1d1d1" />
  <g
     id="g8"
     inkscape:groupmode="layer"
     inkscape:label="ink_ext_XXXXXX"
     transform="matrix(1.3333333,0,0,-1.3333333,0,667.04)">
    <g
       id="g10"
       transform="scale(0.1)">
      <path
         d="m 569.078,1002.43 h 47.371 l 153.395,-282.77 153.414,282.77 h 47.367 L 769.844,630.582 Z m -74.223,0 c 38.168,0 56.563,-16.961 74.223,-48.782 L 769.844,583.219 970.625,953.648 c 17.676,31.821 36.055,48.782 74.225,48.782 L 769.844,494.852 494.855,1002.43"
         style="fill:#ea1d24;fill-opacity:1;fill-rule:nonzero;stroke:none"
         id="path12" />
      <path
         d="m 1498.19,755.012 c 0,84.117 -68.58,152.687 -152.7,152.687 -84.12,0 -152.7,-68.57 -152.7,-152.687 0,-84.133 68.58,-152.711 152.7,-152.711 84.12,0 152.7,68.578 152.7,152.711 z m -344.99,0 c 0,106.75 85.54,192.277 192.29,192.277 106.74,0 192.29,-85.527 192.29,-192.277 0,-106.75 -85.55,-192.301 -192.29,-192.301 -106.75,0 -192.29,85.551 -192.29,192.301 z m 410.03,0 c 0,120.168 -97.56,217.73 -217.74,217.73 -120.18,0 -217.74,-97.562 -217.74,-217.73 0,-120.192 97.56,-217.75 217.74,-217.75 120.18,0 217.74,97.558 217.74,217.75 z m -475.07,0 c 0,142.09 115.24,257.318 257.33,257.318 142.09,0 257.32,-115.228 257.32,-257.318 0,-142.102 -115.23,-257.332 -257.32,-257.332 -142.09,0 -257.33,115.23 -257.33,257.332"
         style="fill:#ea1d24;fill-opacity:1;fill-rule:nonzero;stroke:none"
         id="path14" />
      <path
         d="m 1875.11,724.609 127.94,233.289 c 14.87,26.864 35.36,44.532 72.12,44.532 L 1914.7,711.18 V 507.582 h -39.59 z m -151.3,277.821 h 47.38 l 91.2,-168.25 91.18,168.25 h 47.37 L 1862.39,748.641 Z m 86.26,-494.848 V 711.18 l -160.49,291.25 c 36.76,0 57.27,-17.668 72.12,-44.532 L 1849.66,724.609 V 507.582 h -39.59"
         style="fill:#ea1d24;fill-opacity:1;fill-rule:nonzero;stroke:none"
         id="path16" />
      <path
         d="m 2344.13,879.422 200.76,-371.84 h -47.38 l -153.38,282.77 -153.41,-282.77 h -47.38 z m 0,135.728 275.01,-507.568 c -38.19,0 -56.57,16.957 -74.25,48.77 L 2344.13,926.789 2143.34,556.352 c -17.67,-31.813 -36.05,-48.77 -74.22,-48.77 l 275.01,507.568"
         style="fill:#ea1d24;fill-opacity:1;fill-rule:nonzero;stroke:none"
         id="path18" />
      <path
         d="m 2765.79,755.012 c 0,-84.133 68.58,-152.711 152.7,-152.711 36.05,0 69.29,12.73 95.43,33.23 v 65.75 h -115.94 l 21.92,39.59 h 138.57 V 623.512 c -40.31,-40.293 -82.71,-60.801 -139.98,-60.801 -106.75,0 -192.29,85.551 -192.29,192.301 0,106.75 85.54,192.277 192.29,192.277 36.76,0 69.29,-9.898 98.97,-27.57 l -19.09,-34.629 c -23.34,14.129 -50.9,22.609 -79.88,22.609 -84.12,0 -152.7,-68.57 -152.7,-152.687 z m 358.42,50.898 V 600.18 c -47.36,-62.2 -121.6,-102.5 -205.72,-102.5 -142.09,0 -257.33,115.23 -257.33,257.332 0,142.09 115.24,257.318 257.33,257.318 47.35,0 91.91,-12.721 130.07,-35.35 -12.02,-19.8 -28.98,-26.859 -57.97,-16.261 -22.62,8.492 -45.95,12.023 -72.1,12.023 -120.17,0 -217.74,-97.562 -217.74,-217.73 0,-120.192 97.57,-217.75 217.74,-217.75 65.04,0 125.12,27.578 165.43,75.648 v 153.41 h -150.59 l 21.92,39.59 h 168.96"
         style="fill:#ea1d24;fill-opacity:1;fill-rule:nonzero;stroke:none"
         id="path20" />
      <path
         d="m 3392.12,612.199 h 202.19 v -39.59 h -241.78 v 169.672 h 164.72 l -21.21,-39.59 h -103.92 z m -39.59,325.192 h 241.78 V 897.809 H 3392.12 V 807.32 h 160.47 l -21.91,-39.59 h -178.15 z m -65.03,65.039 h 306.81 c 0,-26.86 -23.34,-39.578 -54.44,-39.578 h -212.79 v -415.68 h 212.79 c 38.88,0 54.44,-19.102 54.44,-39.59 H 3287.5 v 494.848"
         style="fill:#ea1d24;fill-opacity:1;fill-rule:nonzero;stroke:none"
         id="path22" />
      <path
         d="m 3762.91,863.16 c 0,82.719 67.86,149.17 152.7,149.17 44.54,0 90.48,-13.439 126.53,-44.541 -10.59,-20.5 -27.56,-24.027 -56.54,-10.609 -16.27,7.789 -38.18,15.562 -68.58,15.562 -67.15,0 -114.52,-48.781 -114.52,-107.453 0,-66.449 57.25,-95.437 115.93,-118.769 55.85,-21.911 101.1,-44.54 101.1,-98.969 0,-47.371 -47.36,-84.84 -102.51,-84.84 -56.56,0 -108.17,28.277 -144.22,63.641 l 18.4,34.628 c 27.56,-29.691 79.88,-58.679 125.11,-58.679 38.19,0 63.63,16.969 63.63,44.539 0,25.449 -24.04,38.879 -81.3,62.922 -58.66,24.738 -135.73,57.258 -135.73,153.398 z m 321.66,-216.32 c 0,-86.949 -83.42,-149.16 -170.37,-149.16 -72.82,0 -127.95,28.992 -173.91,69.98 11.32,19.102 36.04,20.512 57.96,5.66 33.24,-22.621 69.99,-36.058 118.77,-36.058 66.45,0 127.96,47.379 127.96,110.289 0,71.398 -57.27,97.551 -118.77,122.301 -51.6,20.5 -98.27,45.25 -98.27,96.136 0,44.543 38.19,82.723 89.08,82.723 31.81,0 62.2,-11.32 94.72,-35.352 l -19.08,-33.937 c -28.27,23.328 -53.02,29.699 -75.64,29.699 -28.27,0 -49.49,-15.562 -49.49,-41.012 0,-22.609 21.22,-40.289 74.95,-62.918 63.61,-26.851 142.09,-57.25 142.09,-158.351"
         style="fill:#ea1d24;fill-opacity:1;fill-rule:nonzero;stroke:none"
         id="path24" />
      <path
         d="m 3915.15,4043.33 -139.84,0.22 c -154.67,-2.23 -289.29,-87.12 -361.98,-212.3 L 2343.91,1927.15 1271.72,3832.21 c -72.82,124.66 -207.09,208.89 -361.333,211.12 H 772.105 L 2343.64,1248.28 3915.15,4043.33"
         style="fill:#ea1d24;fill-opacity:1;fill-rule:nonzero;stroke:none"
         id="path26" />
      <path
         d="M 3677.6,4507.96 H 1007.57 L 2344.03,2133.52 Z"
         style="fill:#ea1d24;fill-opacity:1;fill-rule:nonzero;stroke:none"
         id="path28" />
      <g
         id="g30">
        <g
           id="g32"
           clip-path="url(#clipPath36)">
          <path
             d="M 2342.59,4507.96 H 1007.57 L 2344.03,2133.52 Z"
             style="fill:url(#linearGradient46);fill-opacity:1;fill-rule:nonzero;stroke:none"
             id="path48" />
        </g>
      </g>
      <path
         d="m 2660.47,4101.28 c -4.82,1.63 -9.54,1.39 -14.43,0.34 -9.44,-2.11 -17.16,-7.18 -24.03,-13.91 -5.11,-4.89 -8.18,-10.84 -10.14,-17.49 -1.74,-5.29 -1.43,-10.11 0.83,-15.02 0.83,-1.94 1.88,-4.06 3.53,-5.56 1.63,-1.45 3.72,-2.46 5.88,-2.99 7.06,-1.99 14.09,-3.08 20.65,1.94 l 1.83,1.05 c 4.51,3.26 9.19,5.72 12.24,10.75 2,3.34 4.68,6.34 7.35,9.15 4.43,4.45 5.01,10.57 7.7,15.72 l -0.07,1.31 c -0.93,5.18 -2.41,10.03 -6.13,13.77 -1.75,0.32 -3.69,0.34 -5.21,0.94 m -511.99,-253.04 c 3.24,-1.11 7,-2.3 10.91,-0.35 8.93,3.96 16.75,9.64 24.25,15.71 1.81,1.44 3.9,2.53 4.99,4.33 2.21,3.84 5.26,6.78 7.45,10.63 3.76,6.86 4.86,13.65 1.93,20.99 -0.86,2.21 -2.19,4.46 -2.76,6.73 -0.73,2.75 -2.5,4.07 -4.86,4.85 -1.68,0.39 -3.35,0.59 -4.94,0.59 -5.79,-0.13 -11.08,-1.7 -15.55,-4.72 -5.69,-3.67 -11.09,-7.95 -16.35,-12.38 -2.48,-1.93 -4.28,-4.63 -6.56,-6.75 -3.44,-3.13 -3.9,-7.74 -5.71,-11.52 -1.86,-3.62 -2.58,-7.75 -3.17,-9.96 0.4,-9.41 3.17,-15.52 10.37,-18.15 m 491.29,13.13 c -2.83,1.44 -2.52,4.17 -2.34,6.31 0.23,2.8 0.65,5.51 2.62,7.86 l 1.2,1.69 c -1.2,3.77 1.19,7.51 -0.89,11.14 -0.59,0.81 -0.31,2.15 0.06,3.1 0.4,1.08 0.33,1.98 0.11,3.29 -0.48,3 0,6.08 -0.11,9.13 0,2.22 -0.91,4.71 -0.26,6.69 1.4,3.27 0.26,6.27 0.2,9.42 -0.2,3.44 -0.31,6.9 -0.31,10.35 0.11,1.5 0.48,2.8 0.87,4.24 0.42,1.87 1.84,3.93 1.52,5.74 -0.54,1.99 -0.54,3.35 0.32,5.24 0.95,2.74 1.42,6.01 1.02,8.7 -0.67,4.14 0.98,7.73 1.56,11.49 0.52,3.53 1.5,6.69 -0.58,10.33 -1.14,2.07 -2.61,4.21 -2.61,7.14 0.14,4.78 -2.1,7.32 -7.06,7.87 -3.61,0.41 -7.51,0 -11.28,-0.55 -5.95,-0.84 -10.74,-4.45 -15.33,-8.47 -9.06,-7.82 -13.6,-18.13 -16.09,-29.32 -1.25,-6.22 -1.61,-12.6 -2.43,-18.92 -0.6,-4.38 -1.29,-8.73 -1.76,-13.12 -1.05,-10.37 -1.87,-20.75 -2.92,-31.26 -0.91,-8.19 -1.9,-16.47 -2.65,-24.78 -1.87,-17.99 -3.45,-36.01 -5.24,-53.9 -0.24,-3.27 -0.32,-6.38 -0.65,-9.63 -0.28,-5.94 -1.37,-11.86 -1.06,-17.76 0.25,-4.98 2.31,-10.09 7.53,-12.71 4.33,-2.22 9.07,-2.77 13.58,-1.11 10.29,3.73 19.79,8.84 28.08,16.25 4.23,3.82 5.83,9.04 9.64,12.88 0.19,5.29 3.06,10.44 0.62,15.7 -0.46,1.2 -0.43,2.65 -0.32,4.01 0.28,7.45 0.6,14.81 0.97,22.39 0.36,3.9 0.62,7.92 1.05,11.98 1.43,-0.27 2.56,-0.67 3.78,-1.08 -1.1,2.46 -2.01,4.36 -3.18,6.96 1.38,-0.76 2.08,-1.13 2.73,-1.45 1.54,1.84 1.18,3.44 -0.39,4.16 m -468.25,-101.6 c 0.32,4.73 -1.03,9.23 -4.34,12.87 -3.87,4.98 -9.55,5.04 -15,3.63 -12.48,-3.26 -22.8,-10.14 -30.51,-20.32 -9.67,-12.77 -13.07,-27.76 -14.4,-43.42 -0.43,-5.78 -0.93,-11.53 -1.48,-17.37 -0.18,-2.35 -0.36,-4.75 -0.36,-7.27 -0.09,-4.44 -0.09,-8.98 -0.37,-13.48 -0.51,-10 -1.06,-20.12 -1.66,-30.03 -0.13,-1.25 -0.54,-2.56 -0.69,-3.88 -0.33,-1.32 -0.75,-2.42 -0.75,-3.68 -0.3,-4.45 0,-8.81 -0.68,-13.19 -0.35,-4.78 -1.09,-9.42 -1.09,-14.34 0,-10.91 -1.09,-21.88 -1.43,-32.8 -0.29,-9.55 -1.08,-19.22 -0.07,-28.72 0.98,-10.27 3.64,-13.7 14.61,-14.97 4.37,-0.55 7.93,0.72 11.63,2.73 7.49,4.24 14.49,8.85 20.57,15.01 l 1.74,1 c 2.91,-0.87 3.19,1.34 3.83,3.09 4.34,-0.31 5.09,0.88 4.34,5.31 h -3.44 c 0.21,1.52 0.38,2.79 0.56,4.01 0.57,2.16 1.28,4.06 1.67,6.1 1.21,6.04 2.17,12.11 3.31,18.28 0.12,0.93 0.65,1.9 0.48,2.73 -1.92,7.05 0.17,14.33 -0.56,21.52 -0.19,0.78 0.08,1.46 0.08,2.35 0.99,6.1 2.04,12.22 2.78,18.4 0.63,5.12 1.07,10.42 2.51,15.49 0.54,2.19 0.25,4.62 0.51,6.72 0.03,2.3 0,4.63 0.41,6.91 0.8,3.43 2.33,6.75 2.81,10.21 0.57,5 0.83,10.03 0.65,15.06 -0.08,4.43 -0.37,8.54 1.29,12.84 1.58,3.67 1.58,8.01 2.12,11.88 0.33,2.71 0.93,5.47 0.77,8.07 -0.26,2.92 0.32,5.3 1.65,7.92 0.64,1.25 1.22,3.17 0.86,4.3 -1.21,2.49 -0.22,4.33 0.5,5.92 -1.28,3.05 -2.69,5.68 -3.12,8.42 -0.98,3.69 -0.27,4.52 3.54,6.18 -1.14,2.44 -3.54,3.64 -3.27,6.52 m 111.56,-19.37 c 0.99,2.15 1.41,4.35 1.61,6.67 0.7,3.84 1.98,7.86 3.53,11.66 3.3,7.47 8.44,13.98 14.18,19.81 5.99,6.14 13.05,11.4 19.93,16.52 5.75,4.21 10.95,8.37 14.76,14.46 3.83,6.15 3.55,12.65 2.2,18.99 -0.54,3.76 -3.42,7.02 -5.13,10.51 -3.06,6.1 -8.34,7.65 -14.48,6.92 -4.84,-0.47 -9.37,-2.24 -13.58,-4.8 -2.6,-1.57 -5.38,-2.71 -7.89,-3.77 -3.16,-1.3 -6.38,-2.04 -9.13,-3.51 -5.47,-3.04 -11.25,-4.95 -17.3,-5.41 -8.73,-0.91 -17.18,-2.93 -24.87,-6.94 -7.33,-3.96 -13.67,-9.23 -17.71,-16.78 -4.05,-7.48 -5.96,-15.98 -6.79,-24.46 -0.97,-10.34 -1.18,-20.82 -1.78,-31.33 -0.26,-5.24 -0.62,-10.51 -0.89,-15.88 -0.46,-6.27 -1.06,-12.4 -1.48,-18.65 -0.18,-2.75 0.08,-5.84 -0.81,-8.56 -1.33,-4.01 -2.35,-7.9 -2.13,-12.14 0.52,-5.12 -1.84,-10.26 0.25,-15.47 l -0.25,-1.73 c -1.35,-5.24 -2.59,-10.46 -0.5,-15.97 0.28,-0.68 0.26,-1.7 0.12,-2.7 -0.3,-3.26 -0.62,-6.48 -0.62,-9.82 0,-5.47 -2.37,-10.52 -1.27,-16.12 0.71,-5.23 0.04,-10.55 0.04,-15.88 0,-4.52 1.46,-8.76 3.64,-12.59 3.28,-5.94 9.21,-9.24 15.02,-8.16 11.03,2.15 22.04,7.47 31.14,16.37 7.83,7.64 11.41,17.2 12.37,28.08 0.47,4.96 -0.63,10.14 1.75,14.75 l 0.13,1.86 c -0.16,4.35 -0.65,8.76 -0.47,13.08 0.47,9.96 1.06,20.01 1.54,29.99 0.2,3.15 0.88,6.04 0.93,8.92 0.24,5.61 -0.05,11.32 0.29,16.88 0.31,2.3 0.12,5.5 2.99,6.45 0.19,3.43 -0.19,6.29 0.66,8.75 m -71.7,576.9 -0.93,-0.55 c -11.14,-2.7 -19.97,-8.81 -27.53,-17.12 -5.3,-5.68 -10.37,-11.37 -13.7,-18.65 -2.85,-6.27 -6.42,-12.02 -9.24,-18.28 -3.04,-7.27 -5.78,-14.68 -8.42,-22.16 -7.4,-19.37 -14.8,-38.64 -22.16,-57.93 -4.92,-12.98 -9.84,-26.12 -14.59,-39.37 -2.93,-7.8 -5.53,-15.84 -8.17,-23.54 -6.6,-18.42 -13.25,-36.81 -19.77,-55.06 -0.89,-2.44 -2.03,-4.64 -3.11,-7.13 -1.02,-2.61 -2.13,-5.19 -3.12,-7.89 -1.33,-4.01 -2.03,-8.04 -3.4,-11.84 -1.55,-4.66 -3.9,-8.9 -5.35,-13.61 -2.79,-9.49 -5.26,-18.96 -7.99,-28.39 -0.39,-1.43 -1.1,-2.84 -1.61,-4.18 -0.66,-2.12 -1.4,-4.35 -1.88,-6.51 -0.47,-3.17 0.51,-6.64 -2.29,-9.46 -0.62,-0.67 -0.5,-2.26 -0.91,-3.43 -0.36,-1.96 -0.81,-3.79 -1.25,-5.79 -4.24,-14.74 -8.68,-29.39 -12.8,-44.23 -1.66,-6.4 -2.12,-13.15 -3.86,-19.59 -1.79,-7.3 -4.35,-14.17 -6.27,-21.32 -3.96,-14.88 -7.74,-29.71 -11.65,-44.6 -0.56,-2.28 -1.36,-4.68 -1.8,-6.91 -1.13,-4.95 -2.13,-9.87 -3.32,-14.69 -1.01,-4.29 -2.44,-8.48 -3.22,-12.89 -3.21,-16.19 -6.07,-32.44 -9.57,-48.68 -2.79,-13.03 -5.6,-26.07 -7.58,-39.4 -2.09,-14.5 -5.05,-28.72 -7.6,-43.12 -1.29,-8.45 -2.22,-16.86 -3.55,-25.23 -2.29,-13.85 -4.4,-27.68 -6.58,-41.52 -1.14,-8.89 -2.11,-17.72 -3.51,-26.52 -0.19,-2.51 -1.33,-4.89 -2.29,-7.25 -1.29,1.18 -2.18,1.72 -2.96,2.62 -0.65,0.81 -1.53,1.73 -1.66,2.88 -0.29,2.6 -0.68,5.38 -0.19,7.95 0.56,2.95 -0.3,4.27 -2.65,5.03 -0.42,6.33 0.52,12.49 -1.8,18.39 -0.37,1.1 -0.27,2.4 -0.09,3.5 0.47,3.63 1.15,7.08 0.83,10.79 -0.29,2.21 -0.61,3.95 -1.98,5.81 -1.77,2.4 -3.91,5.13 -1.31,8.43 -1,0.2 -2.01,0.38 -3.47,0.72 0.67,4.66 0.35,9.41 1.99,13.42 2.14,4.47 1.06,8.01 -0.41,12.1 l -0.62,1.15 c -1.49,4.5 -3.74,8.87 -3.5,13.61 0.22,4.2 -0.71,8.02 -2.12,11.99 -1.26,3.61 -3.05,7.71 0,11.47 -2.83,5.07 -2.94,5.07 -3.31,11.46 -0.23,2.87 -1.6,5.34 -2.35,8.07 -1.64,3.8 -4.59,7.65 -2.97,11.53 -1.32,1.82 -2.57,3.15 -2.82,4.52 -0.43,4.21 -0.62,8.45 -1.76,12.65 -1.29,4.08 -1.45,8.45 -2.45,12.74 -0.58,3.1 -0.68,6.31 -1.29,9.39 -0.32,4.59 -3.44,9.11 -0.49,13.91 0.29,0.49 -0.31,1.4 -0.41,2.23 -0.23,1.1 -1.15,2.47 -0.84,3.45 1.25,2.73 -0.44,3.82 -1.52,4.52 -0.39,2.53 -0.39,4.48 -0.64,6.1 -0.29,2.14 -0.95,4.1 -1.38,6.2 -0.28,1.21 0.21,2.95 -0.31,3.72 -2.79,3.59 -1.82,7.99 -2.8,11.92 -1.72,7.84 -2.35,15.95 -3.63,23.94 -2.67,15.91 -5.51,31.75 -8.29,47.51 -1.11,6.4 -3.55,12.41 -7.24,17.55 -8.9,12.37 -27.29,14.58 -39.42,6.98 -6.6,-4.15 -11,-9.84 -13.71,-17.14 -1.83,-4.94 -3.48,-10.06 -5.01,-15.12 -3.93,-11.56 -7.67,-23.18 -11.55,-34.75 -0.57,-1.95 -1.14,-4.13 -2.15,-5.88 -1.49,-2.49 -2.23,-5.18 -2.77,-8.13 -0.63,-2.77 -2.02,-5.31 -2.75,-8.08 -1.18,-3.49 -2.66,-6.88 -3.27,-10.34 -1.62,-9.23 -5.61,-17.68 -8.24,-26.6 -1.15,-3.19 -2.44,-6.23 -3.26,-9.5 -1.46,-5.86 -2.75,-11.92 -6.27,-17.27 -1.3,-1.96 -1.7,-4.51 -1.93,-6.85 -0.43,-3.59 -1.1,-7.18 -3.36,-9.78 -1.51,-1.72 -2.53,-3.52 -2.86,-5.48 -0.93,-6.6 -3.24,-12.85 -5.73,-19.01 -1.99,-4.93 -4.14,-9.63 -5.19,-15.02 -1.59,-7.46 -4.85,-14.68 -7.3,-21.96 -2.18,-6.86 -4.67,-13.82 -6.7,-20.9 -0.25,-1.02 -0.43,-2.27 -0.15,-3.53 2.04,-10.3 7.92,-17.7 18.72,-19.97 3.25,-0.89 6.81,0 10.13,0.04 6.66,0.41 11.94,3.52 16.28,8.3 0.81,1.07 2.14,1.79 2.62,2.2 0.87,2.34 1.41,4.03 2.18,5.86 0.23,0.74 0.82,1.55 1.12,2.38 1.81,5.77 3.8,11.43 7.03,16.67 1.13,1.55 1.55,3.36 1.88,5.11 0.61,3.02 1.68,5.81 4.35,7.05 -0.09,1.14 -0.79,2.21 -0.58,2.91 1.34,3.3 3.06,6.64 4.36,9.9 0.37,0.8 0.37,1.7 0.45,2.57 0.29,1.73 0.37,3.37 0.5,5.16 3.11,0.23 1.72,2.65 2.3,4.33 1.29,3.38 0.62,7.44 3.67,10.06 l 0.35,0.85 c -1.46,4.59 3.3,7 3.39,10.93 3.21,2.77 2.72,6.63 2.55,10.48 1.05,0.57 2.27,1.2 2.82,1.42 0.45,1.35 0.84,3.24 1.02,3.24 2.43,0 2.64,1.93 3.28,3.32 1.1,2.7 1.93,5.39 2.99,8.01 0.38,0.85 1.47,2.03 2.08,1.94 1.82,-0.56 3.62,-1.29 5.14,-2.46 1.47,-1.25 2.65,-2.89 1.39,-5.1 -0.37,-0.58 0.08,-1.61 0.33,-2.55 1.41,0.54 2.58,0.94 3.49,1.31 0,-2.62 0.49,-4.87 -0.09,-7.12 -0.82,-3.3 0.09,-6.42 0.18,-9.61 0.02,-2.1 0.55,-3.56 1.87,-5.17 1.24,-1.5 2.72,-3.33 2.84,-4.96 0.12,-4.27 1.33,-7.94 1.82,-12 1.57,-9.81 3.01,-19.92 4.69,-29.66 1.01,-6.84 2.31,-13.46 1.56,-20.38 -0.1,-1.35 -0.1,-3.14 0.75,-4.02 2.26,-2.8 2.02,-6.27 2.39,-9.48 0.57,-3.57 1.14,-7.19 1.51,-10.88 2.27,-13.54 4.4,-27.26 6.49,-40.98 1.69,-11.97 3.17,-23.98 5.02,-36.06 1.64,-11.2 3.34,-22.4 5,-33.58 1.9,-11.25 3.56,-22.11 5.51,-33.26 1.12,-6.28 2.3,-12.47 0.23,-18.74 v -0.88 c 4.23,-3.53 5.71,-5.63 0.87,-11.14 3.04,0.64 4.25,-0.56 4.63,-3.09 1.26,-7.03 1.66,-14.29 3.53,-21.34 0.5,-2.13 1.25,-4.34 0,-6.62 -0.3,-0.59 0.5,-1.7 0.81,-2.59 0.16,-0.89 0.87,-1.77 1.11,-2.89 1.54,-8.68 2.87,-17.46 4.41,-26.26 1.63,-9.24 2.79,-18.26 4.5,-27.34 2.35,-11.02 5.09,-21.97 7.59,-32.89 1.12,-5.57 4.29,-9.85 8.55,-13.49 6.65,-5.57 14.27,-5.16 21.88,-3.32 9.75,2.56 15.67,8.9 18.83,18.33 3.31,9.54 4.49,19.74 6.13,29.76 1.82,9.59 3,19.45 4.38,29.27 1.54,11.53 3.19,23.16 4.63,34.76 2.54,19.05 4.77,38.29 7.09,57.43 1.17,9.03 2.31,18.14 3.46,27.08 0.61,5.15 1.1,10.49 2.61,15.26 1.34,4.16 3.23,8.21 2.87,12.63 5.57,2.01 5.85,3.76 2.19,8.04 l -1.11,2.14 c 0,2.31 0.26,4.59 0.64,6.84 0.54,5.26 1.68,10.48 1.68,15.86 0.16,3.87 1.67,7.05 3.99,9.72 1.61,1.73 2.14,3.51 2.49,5.59 0.17,1.03 0,1.94 0.38,2.62 2.99,4.56 1.9,9.55 1.83,14.5 0,0.44 -0.78,1.29 -1.48,1.42 -2.11,0.31 -2.11,1.77 -2.11,3.35 0.04,7.1 2.32,13.97 3.59,20.88 0.38,2.91 0.65,5.86 1.62,8.45 0.82,2.03 1.06,4 0.63,6.03 -0.56,1.99 -0.04,3.46 1.39,4.87 0.81,0.88 1.67,1.96 1.77,3.01 0.29,4.31 0.55,8.66 0.34,13 0,1.97 0.54,3.81 1.27,5.57 1.31,4.24 3.57,8.3 2.51,13.24 -0.4,1.37 0.74,3.32 1.48,4.91 0.83,1.95 2.44,3.58 2.92,5.53 0.84,3.93 1.47,7.96 -0.22,12.14 -0.67,1.29 -0.26,3.24 0.14,4.77 0.08,1.61 0.75,2.94 1.14,4.45 0.23,1.42 0.39,2.67 1.98,3.59 1.27,0.63 2.17,3.1 1.87,4.63 -0.22,1.39 -0.64,2.45 0.59,3.44 l 0.21,2.1 c -0.91,1.56 -0.5,2.56 0.42,3.83 0.3,0.78 0.14,1.75 0.3,2.62 0,1.48 -0.3,2.99 0,4.45 2.08,9.15 4.35,18.24 6.41,27.37 2.65,11.41 4.93,22.89 7.81,34.12 2.33,9.46 3.87,19.07 8.5,27.67 2.62,5.43 2.82,11.87 7.09,16.46 l 0.4,1.68 c 1.03,4.1 2.06,8.3 3.4,12.34 0.29,1.18 1.01,2.71 2.17,3.3 4.54,2.97 5.26,7.82 6.31,12.53 0.53,3.02 0.05,6.3 0.38,9.42 0.69,4.72 1.73,9.44 2.46,14.17 0.44,2.78 0.44,5.73 1.33,8.41 0.77,2.7 2.54,5.12 3.64,7.7 0.75,1.48 1.43,2.72 1.67,4.3 1.24,4.74 2.4,9.67 3.54,14.56 0.35,0.86 1,1.86 1.38,2.69 1.41,2.4 2.96,4.81 4.14,7.34 0.39,0.73 0.18,2.07 -0.37,2.9 -1.11,1.89 -0.81,3.59 0.25,5.6 1.43,2.99 2.73,6.29 3.93,9.57 0.46,0.59 0.1,1.35 0.21,2.03 0.25,1.29 0.25,2.38 0.53,3.48 0.35,1.29 0.68,2.48 0.96,3.87 1.1,3.94 2.03,8 3.02,11.96 1.47,4.59 3.23,9.08 4.76,13.69 1.51,4.37 2.66,8.95 4.35,13.28 1.1,3.37 2.61,6.75 3.91,10.1 1.09,2.59 2.61,5.13 3.32,7.73 2.06,8.02 4.41,16.04 8.97,23.2 0.77,1.23 1.36,2.73 2.11,3.97 1.45,3.14 3.06,6.25 4.3,9.44 0.66,1.49 1.22,3.12 1.12,4.74 -0.36,3.02 0.56,5.79 1.71,8.41 4.1,9.43 8.02,19 12.19,28.42 5.88,13.3 12.07,26.53 17.92,39.93 1.54,3.6 4.4,6.27 5.92,9.67 3.01,6.62 7.29,12.45 11.33,18.35 5.21,7.8 11.62,14.74 17.71,21.91 1.93,2.31 4.34,4.39 6.7,6.27 0.75,0.71 2.44,0.43 2.91,1.13 0.73,0.9 0.95,2.37 1.45,3.48 l 1.22,0.69 c 1.65,1.13 3.13,2.28 4.96,3.24 1.84,0.87 2.62,4.33 3.68,6.77 0.46,0.9 0,2.28 0.66,2.97 2.05,3.24 4.56,6.31 6.73,9.59 2.87,4.56 5.33,9.43 6.3,15 1.34,8.11 0.6,15.96 -1.58,23.91 -4.19,14.58 -13.64,23.87 -27.91,28.75 -3.84,1.24 -7.87,2.41 -11.73,3.5 z m 795.37,-419.54 -1.62,-0.52 c -0.84,-3.82 -4.77,-6.18 -5.25,-10.51 -0.15,-1.31 -1.96,-2.49 -2.82,-3.8 -3.37,-5.55 -7.83,-9.94 -12.99,-13.65 -3.16,-2.01 -6.04,-4.24 -9.08,-6.12 -10.56,-6.36 -22.01,-9.37 -33.48,-13.02 -13.51,-4.36 -27.15,-8.82 -40.58,-13.95 -14.39,-5.38 -28.38,-11.62 -42.37,-17.78 -5.68,-2.58 -11.44,-5.73 -17.03,-8.64 -19.53,-10.23 -39.03,-20.37 -58.59,-30.59 -7.79,-4.26 -15.64,-8.71 -23.57,-12.96 -4.09,-2.19 -8.33,-4.12 -12.45,-6.45 -6.36,-3.59 -12.62,-7.2 -18.97,-10.87 -9.09,-5.2 -18.52,-10.38 -27.79,-15.7 -10.05,-5.84 -20.27,-11.82 -30.41,-17.89 -8.24,-4.81 -16.35,-9.55 -24.57,-14.38 -7.98,-4.76 -16.01,-9.81 -23.95,-14.88 -11.14,-6.85 -22.23,-13.71 -33.15,-20.63 -1.95,-1.2 -3.29,-3.46 -5.16,-4.4 -1.9,-0.74 -3.57,-2.29 -5.19,-3.05 -5.63,-1.97 -9.84,-6.03 -14.74,-9.15 -7.76,-4.9 -15.05,-10.51 -22.64,-15.84 -2.48,-1.7 -4.83,-3.15 -6.53,-5.99 -1.29,-1.94 -4.19,-2.77 -6.27,-4.3 -2.27,-1.66 -5.05,-3.05 -3.98,-6.99 0.47,-2.29 -0.52,-4.92 -0.74,-7.49 -0.33,-2.58 -0.44,-5.33 -0.33,-8 0,-1.11 0.55,-2.33 0.95,-4.03 -0.62,-1.1 -1.7,-2.74 -2.94,-4.55 3.53,-2.91 0.69,-6.03 0.37,-9.52 2.42,-1.89 2.31,-4.56 1.39,-7.83 -1.07,-3.28 -3.2,-6.57 -0.2,-10.15 0.76,-1.01 0.09,-3.08 -2.57,-2.23 0.2,-1.22 0.2,-2.36 0.71,-3.17 1.62,-2.38 1.69,-4.78 0.3,-7.21 l -0.3,-1.22 c 2.98,-4.76 -0.25,-9.41 0.18,-14.13 0.33,-4.68 -0.69,-9.45 0.33,-14.31 0.31,-1.75 0.31,-3.58 0.57,-5.38 0.31,-1.17 1.21,-3.22 -1.08,-4.23 -0.71,-0.26 -1.2,-1.88 -0.13,-3.39 1.05,-1.57 1.29,-4.23 0.95,-6.16 -1.67,-7.71 -0.15,-15.28 -1.07,-23.02 -0.26,-2.66 -0.37,-5.27 -0.37,-7.99 0,-1.82 -0.98,-3.55 0.8,-5.13 l 0.33,-1.25 c -1.65,-3.17 -0.64,-6.64 -1.02,-10.01 -0.11,-3.27 0.51,-6.7 0.81,-10.44 -5.46,-0.92 -2.81,-5.76 -3.06,-9.54 1.56,-0.79 4.3,-1.09 3.43,-4.46 -0.92,-0.17 -2.02,-0.41 -3.77,-0.61 1.15,-1.75 2.07,-2.8 3.61,-4.82 l -1.75,-0.44 c 3.53,-5.83 -0.46,-9.94 -2.24,-14.92 1.23,-2.69 2.45,-5.75 3.78,-8.74 0.93,-1.86 1.09,-3.3 -1.01,-4.5 -2.77,-1.59 -3.12,-3.28 -1.95,-5.98 0.83,-1.84 1.95,-3.52 2.96,-5.44 -1.33,-0.42 -2.43,-0.73 -3.78,-1.14 0.21,-2.12 0.21,-4.11 0.38,-6.6 1.27,0.59 1.96,1.05 2.59,1.43 0.69,-1.66 1.18,-3.41 1.74,-5.34 -0.72,-0.43 -1.74,-0.93 -2.83,-1.48 0.75,-2.62 3.29,-5.13 -0.65,-7.75 2.12,-2.1 4.06,-3.87 5.92,-5.81 -0.69,-1.76 -1.61,-3.87 -2.51,-6.14 1.22,-0.33 2.2,-0.57 3.34,-0.79 -1.14,-1.67 -3.11,-3.17 -0.19,-4.69 l 0.76,-1.06 c -1.08,-3.43 1.98,-6.75 0.37,-10.46 -0.56,0.11 -1.2,0.35 -2.6,0.73 1.45,-2.95 0.74,-5.47 0.14,-8.02 -0.36,-1.25 1.31,-3.08 2.09,-4.72 1.11,0.76 1.88,1.13 3.05,2.01 0.36,-2.36 0.6,-4.14 0.84,-5.98 0.28,-3.44 0.9,-6.96 2.92,-9.84 1.27,-1.59 1.1,-3.01 0.15,-4.43 -0.9,-1.6 -2.01,-3.04 -3.31,-4.76 0.35,-0.26 1.03,-0.88 1.87,-1.9 -1.35,-0.49 -2.28,-0.81 -3.54,-1.27 0.11,-2.26 0.05,-4.91 0.58,-7.4 0.2,-0.79 1.44,-1.66 2.39,-2.12 0.21,-0.2 1.19,1.02 2.01,1.89 -0.9,-3.09 5.41,-3.14 2.54,-7.49 1.13,-0.76 2.38,-1.5 4.11,-2.64 -3.92,-0.74 -3.98,-4.11 -4.46,-6.28 -0.22,-1.84 -1.17,-2.81 -2.05,-3.97 0.31,-2.93 5.49,-2.77 3.14,-6.5 2.06,-0.88 3.43,-1.53 5.19,-2.51 -2.15,-2.12 -4.22,-4.06 -3.13,-7.17 l -0.63,-0.87 c -3.06,-2.91 -2.96,-3.46 0.63,-5.31 l 0.98,-0.81 c -1.61,-1.42 -3.41,-2.51 -4.67,-4.08 -1.2,-1.63 -1.36,-3.81 -2.47,-5.4 -1.64,-2.45 -3.55,-5.04 -5.89,-6.81 -4.46,-3.15 -9.48,-5.74 -14.33,-8.67 h -17.22 c -0.73,0.14 -1.33,0.67 -2.11,0.81 -12.91,3.11 -21.26,10.74 -24.72,23.93 -2.83,10.48 -4.67,20.95 -4.45,31.94 0.24,7.36 0.76,14.76 0.82,22.23 0.37,8.83 0.37,17.72 0.54,26.48 0,3.49 0.13,6.95 0.26,10.47 0.33,10.02 0.33,20.06 1.28,29.85 0.63,7.75 0.9,15.18 0.14,22.72 -0.14,1.5 0.21,3.05 0.22,4.48 0.17,3.16 0.17,6.39 0.17,9.57 0,4.03 0,8.14 0.03,12.18 0.19,5.8 1.3,11.53 -0.28,17.28 l 0.07,2.05 c 1.96,1.62 1.51,3.57 1.51,5.49 v 52.02 53.78 c 0.13,7.56 0.45,15.1 0.5,22.72 v 11.58 c -5.26,-3.06 -9.94,-5.49 -14.26,-8.52 -8.45,-6.07 -16.42,-12.47 -24.59,-18.63 -8.8,-6.91 -17.5,-13.76 -26.25,-20.49 -4.06,-3.39 -8.39,-6.58 -12.59,-9.9 -6.91,-5.32 -13.98,-10.74 -20.72,-16.31 -7.58,-6.11 -14.8,-12.54 -22.38,-18.66 -10.4,-8.65 -20.96,-17.03 -31.57,-25.6 -10.8,-8.98 -21.34,-17.95 -32.25,-26.96 -7.65,-6.44 -15.65,-12.85 -23.53,-19.28 -1.14,-0.92 -2.38,-2.25 -3.5,-3.46 -2.66,-2.63 -5.39,-5.26 -8.16,-8.03 -2.62,-2.76 -4.83,-6.03 -7.84,-8.67 -4.6,-4.24 -9.72,-7.97 -14.38,-12.39 -5.12,-4.66 -9.82,-9.69 -14.79,-14.7 -3.03,-2.89 -6.14,-5.77 -9.18,-8.7 -1.28,-1.46 -2.47,-3.5 -3.79,-5.03 -1.51,-1.88 -3.1,-3.68 -4.67,-5.39 -2.04,-2.19 -4.24,-4.31 -6.36,-6.5 -8.02,-8.34 -15.9,-16.97 -24.4,-25.01 -6.24,-5.65 -11.5,-12.15 -16.75,-18.54 -0.97,-1.17 -2.14,-2.21 -3.02,-3.22 -1.86,-2.08 -3.75,-3.99 -5.7,-5.93 -0.71,-0.85 -1.38,-1.61 -2.03,-2.46 -6.42,-6.02 -12.78,-12.13 -19.03,-18.15 -3.71,-3.56 -7.62,-7.08 -11.26,-10.6 -3.68,-3.4 -7.55,-5.67 -12.9,-5.73 -7.21,-0.12 -14.29,-0.12 -21.37,2.86 -11.1,4.78 -16.33,13.47 -17.77,24.9 -0.54,3.56 -1.2,7.16 0.11,10.63 0.9,2.22 1.45,4.64 2.73,6.71 2.32,3.54 4.8,7.01 7.45,10.33 9.53,11.87 20.13,22.87 31.39,33.12 6.33,5.66 12.43,11.62 18.45,17.45 10.21,9.63 20.01,19.3 30.41,28.45 16.42,14.5 33.12,28.65 49.76,42.78 8.37,7.19 16.84,13.91 25.21,20.97 5.86,5.06 11.33,10.55 17.29,15.62 4.92,4.19 10.54,8.09 15.54,12.19 8.02,6.55 15.75,13.1 23.68,19.48 4.49,3.56 9.16,7.12 13.7,10.74 5.73,4.79 11.61,9.47 17.52,14.47 3.24,2.77 6.65,5.79 10.1,8.32 6.91,5.26 14.07,10.07 21.1,15.16 10.8,7.95 21.39,15.97 32.19,23.85 6.74,4.87 13.58,9.59 20.39,14.59 6.47,4.53 12.82,9.23 19.08,13.96 11.15,8.47 22.08,17.1 33.42,25.45 8,5.98 16.29,11.59 25.15,17.84 0,5.73 0.11,12.24 0.2,18.6 0,3.66 -0.09,7.21 -0.33,10.83 0,0.94 -0.5,2.44 -1.11,2.58 -1.07,0.22 -2.29,-0.31 -3.11,-0.94 -5.65,-3.71 -11.36,-7.8 -17.01,-11.67 l -1.24,-0.48 c -3.96,-0.9 -7.71,-1.75 -11.34,-3.62 -3.4,-1.69 -6.66,-3.13 -11.06,-2.63 -3.7,0.49 -7.95,-1.29 -11.9,-2.23 -8.81,-1.78 -17.71,-1.78 -26.04,1.25 -10.48,4 -19.4,10.22 -23.51,21.84 -3.06,8.83 -4.59,17.78 -4.56,27.16 0.16,11.83 0.33,23.85 0.16,35.66 0,4.13 -0.94,8 -0.94,12.26 0,2.51 0.78,5.19 1.29,7.97 0.52,4.61 1.27,9.31 1.38,13.98 0.18,8.98 1.57,18 3.02,27.02 1.3,9.38 3.22,18.85 6.17,27.96 2.92,9.48 6.1,19.11 11.82,27.57 6.38,9.37 12.67,18.98 19.56,27.93 4.22,5.42 10.04,9.29 15.88,12.87 0.92,0.48 1.98,0.92 2.73,1.66 7.66,6.86 17.34,8.72 26.9,10.44 3.43,0.6 7.58,-0.54 10.82,-2.09 4.17,-2.01 4.57,-6.92 4.23,-10.82 -0.23,-4.45 -1.9,-8.67 -2.77,-13.11 -0.57,-3.4 -2.99,-5.8 -4.27,-8.77 -1.57,-3.68 -4.54,-6.23 -7.76,-8.43 -0.82,-0.51 -1.54,-1.1 -2.01,-1.96 -2.08,-3.62 -3.76,-7.47 -7.36,-10.24 l -0.44,-0.73 c -0.53,-4.6 -4.16,-7.77 -5.88,-11.87 -0.46,-1.04 -1.18,-2.38 -1.46,-3.65 -0.54,-3.47 -1.12,-6.79 -3.96,-9.52 -0.98,-1.07 -1.42,-2.69 -1.77,-4.08 -1.16,-4.5 -2.29,-9.11 -3.55,-13.78 -0.41,-1.29 -1.13,-2.8 -1.47,-4.2 -0.73,-4.65 -1.98,-9.08 -1.11,-13.76 0.15,-0.97 0.87,-1.86 1.3,-2.79 0.88,-2.3 0.97,-4.4 0,-6.73 -0.92,-1.73 -1.3,-3.69 -1.67,-5.55 -0.5,-4.02 -0.99,-7.85 -1.26,-11.76 -0.34,-2.26 -0.08,-4.54 -0.08,-6.83 0,-0.92 0.35,-2.03 0,-2.69 -2.77,-4.68 -0.83,-9.29 -0.65,-14.17 0.04,-2.61 -0.18,-5.29 -0.18,-7.98 -0.18,-5.19 2.17,-9.91 4.33,-14.37 2.28,-4.76 6.39,-7.54 12.15,-7.26 10.41,0.42 18.8,4.99 26.06,12.33 7.35,7.18 10.09,16.25 11.46,25.73 2.12,14.06 3.8,27.98 5.5,42 0.99,6.97 1.94,13.83 2.38,20.82 0.3,3.69 -0.29,7.38 -0.3,11.18 v 1.2 c 2.41,2.53 1.95,5.95 2.11,8.94 1.03,10.86 1.68,21.6 2.54,32.35 0.48,6.49 1.07,12.97 1.7,19.46 0.49,7.11 0.84,14.03 1.71,20.9 0.35,5.21 0.49,10.29 2.9,15.16 3.15,7.01 8.89,11.19 15.7,14.48 6.39,3.15 13,3.66 19.95,2.89 4.61,-0.66 9.36,-2.01 12.21,-6.23 1.66,-2.56 4.73,-4.25 4.91,-7.88 0,-1.14 0.39,-2.49 0.39,-3.78 -0.06,-3.95 -0.57,-8.1 -0.62,-12.08 0,-1.59 0.62,-3.19 1.22,-5.01 -0.25,-0.92 -1.9,-1.45 -0.99,-3.53 0.74,-1.54 0.33,-3.52 -0.69,-5.58 -0.92,-2.04 -0.71,-5.01 -0.22,-7.44 0.68,-3.48 -0.49,-6.88 0,-10.46 0.43,-3.28 -1.5,-6.78 -1.97,-10.24 -0.37,-1.25 -1.3,-2.6 0.37,-3.64 l 0.44,-0.53 c -3.3,-4.47 -2.06,-9.86 -2.6,-14.87 -1.36,-13.79 -2.11,-27.48 -3.09,-41.38 -0.73,-10.75 -1.52,-21.52 -2.28,-32.22 -0.19,-2.58 -1.26,-5.16 -1.15,-7.65 0.29,-7.06 -0.98,-13.93 -1.32,-20.87 -0.18,-2.76 -0.27,-5.28 0.63,-8.12 0.87,-2.27 0.87,-5.09 0.29,-7.37 -1.55,-4.49 -1.1,-8.92 -0.92,-13.21 0,-2.31 0.19,-4.52 -0.18,-6.83 -0.59,-4.44 -1.58,-8.69 -1.16,-13.46 0.38,-4.33 0,-8.78 0,-13.12 0,-0.85 0.32,-1.7 0.57,-3.17 1.69,0.87 2.84,1.57 4.17,2.44 6.6,4.36 13.13,9.03 20.08,13.29 12.06,7.49 24.24,15.03 36.44,22.54 3.53,2.18 7.02,4.35 10.5,6.44 7.24,4.74 14.06,10.1 21.65,14 9.46,4.59 16.97,12.26 27.06,15.12 1.88,0.55 3.09,2.45 4.96,3.06 3.11,0.98 3.98,5.81 8.32,4.22 2.82,1.62 5.72,3.42 8.57,5 2.88,1.62 5.56,3.08 8.26,4.73 2.97,1.65 5.83,3.31 8.69,5.19 2.88,1.66 5.51,3.58 8.58,5.34 3.86,2.27 7.8,4.48 11.78,6.62 14.32,8.15 28.7,16.32 43.3,24.37 11.44,6.57 23.19,12.79 34.61,19.37 12.61,7.12 25.08,14.54 37.5,21.86 2.78,1.64 5.29,3.3 8.5,5.24 -1.39,1.16 -1.97,1.92 -2.84,2.44 -7.38,3.48 -11.32,9.58 -12.78,17.16 -0.83,4.17 -0.83,8.5 -1.04,12.67 -0.23,5 -0.26,10 -0.26,14.9 v 1.38 c 2.76,6.28 0.65,13.01 2.34,19.41 0.27,0.81 0.27,1.83 -0.05,2.68 -2.26,5.68 -0.94,11.27 0.47,16.76 0.5,1.35 -0.15,2.86 -0.28,4.41 -0.28,1.33 -1.13,2.95 -0.7,4.04 1.87,3.19 0.83,6.76 1.73,10.17 0.94,3.52 0.72,7.49 0.78,11.34 0.16,10.64 0.16,21.25 0.16,31.94 0,3.01 -0.22,5.68 -1.97,8.21 -2.01,3.1 -4.48,5.27 -8.54,5.1 -2.07,-0.18 -4.37,0.46 -6.59,0.32 -5.88,-0.6 -10.31,-3.76 -14.74,-7.32 -1.35,-1.25 -3.26,-1.78 -4.46,-3.01 -1.71,-1.81 -3.2,-3.89 -4.17,-6.25 -0.74,-2.21 -2.12,-3.12 -3.79,-4.42 -2.76,-2.24 -5.63,-4.29 -6.54,-8.25 -0.64,-1.77 -3.24,-3.01 -5.13,-4.84 -0.52,-3.26 -0.48,-7.17 -3.16,-10.12 l -0.44,-1.81 c -0.28,-3.21 0.75,-6.67 -1.44,-9.53 -0.91,-1.09 2.45,-1.85 0.62,-3.38 -0.87,-0.68 -2.3,-0.86 -3.35,-1.39 -0.39,-0.16 -0.45,-0.66 -0.94,-1.5 1.04,-0.41 1.84,-0.81 2.47,-1.04 -0.27,-2.28 -0.39,-4.44 -0.61,-6.66 -3.81,-0.97 -3.99,-0.97 -3.19,-5.28 0.46,-1.87 1.03,-3.77 1.88,-5.58 1.05,-1.75 0.59,-3.75 -0.65,-4.45 -2.47,-1.29 -2.47,-3.83 -4.33,-5.37 -0.49,-0.39 -0.26,-3.02 0.44,-3.55 2.27,-1.77 2.79,-3.87 2.66,-6.68 -0.21,-1.4 0.46,-2.82 0.74,-4.43 -1.36,-0.92 -3.22,-1.87 -4.42,-3.24 -1.82,-1.86 0.09,-3.65 0.52,-4.43 -0.81,-2.7 -1.67,-4.53 -1.77,-6.51 -0.3,-3.2 -0.2,-6.41 -0.24,-9.59 -0.15,-2.69 -0.64,-5.44 3.58,-5.64 -2.09,-3.56 -5.12,-6.39 -1.3,-9.89 -0.7,-0.46 -1.25,-0.83 -1.74,-1.14 2.93,-2.53 2.61,-2.41 1.74,-5.83 -0.7,-2.43 -2.28,-4.79 -0.79,-7.44 0.09,-0.55 -0.29,-1.41 -0.29,-2.08 -0.17,-1.08 -0.66,-2.28 -0.26,-2.76 2.53,-2.68 0.64,-4.93 -0.94,-6.83 -3.03,-3.9 -4.81,-8.16 -5.54,-12.93 -0.23,-0.73 -0.44,-1.5 -0.97,-2 -4.13,-3.4 -7.96,-7.27 -13.05,-9.57 -3.68,-1.72 -7.16,-3.73 -10.95,-5.6 -5.51,-2.82 -11.54,-2.63 -17.42,-1.5 -7.47,1.45 -10.57,5.97 -11.56,14.85 -0.64,5.78 0.28,11.63 0.51,17.4 0.31,9.94 0.65,19.86 1.11,29.81 0.46,11.45 0.85,22.81 1.25,34.21 0.47,9.68 1.05,19.45 1.47,29.11 0.85,13.03 1.33,26.16 2.01,39.11 0.36,4.32 0.36,8.61 1.3,12.75 1.43,7.78 4.34,14.87 8.7,21.33 8.07,11.5 19.33,17.38 32.92,19.02 0.93,0.15 1.73,0.37 2.75,0.15 3.84,-0.33 7.47,-1.03 11.2,1.65 1.79,1.13 4.56,0 7.06,-1.08 4.26,-1.7 9.25,-2.52 14.08,-0.47 4.66,1.94 9.04,4.25 12.67,7.74 1.76,1.83 3.46,3.85 5.1,5.84 1.35,1.37 2.44,2.88 3.84,4.39 3.87,3.87 7.76,7.66 11.53,11.62 l 0.97,0.91 c 7.74,4.7 15.33,9.96 24.17,12.56 6.15,1.82 12.52,3.39 18.89,2.32 5.88,-1.2 11.44,-2.57 15.69,-7.53 4.13,-4.55 5.45,-6.1 6.55,-11.76 0.35,-2.07 0.66,-4.13 3,-5.09 l 0.86,-1.53 c -3.46,-3.01 -2.96,-5.66 0.85,-8.69 0.12,-2.75 0.22,-5 0.5,-7.67 -0.56,-0.35 -2.45,-0.69 -2.9,-1.7 -0.82,-1.41 -0.82,-3.19 -0.72,-4.92 0,-2.07 0.14,-4.07 0.44,-6.24 0.88,0.48 1.6,1.02 2.8,1.8 0.5,-3.07 -2.21,-6.08 1.7,-8.65 -1.32,-0.2 -1.82,-0.34 -3,-0.43 0.4,-4.45 0.77,-8.86 1.18,-13.69 -0.72,-0.08 -1.8,-0.4 -2.98,-0.63 -1.38,-2.79 0,-4.28 2.36,-5.65 -1.09,-0.89 -2.06,-1.7 -3.03,-2.53 0.67,-1.34 1.56,-2.57 1.85,-3.2 -0.95,-1.27 -2.08,-2.17 -2.08,-3.13 -0.17,-7.29 -0.32,-14.59 -0.15,-21.95 0,-1.69 1.28,-3.49 2,-5.38 -1.09,-1.52 -3.18,-2.99 -1.09,-5.53 l -0.39,-1.85 c -0.97,-3.1 -0.97,-3.38 1.8,-5.14 0,-2.42 0.15,-4.8 0.39,-7.74 -0.24,-0.12 -1.43,-1.27 -1.36,-2.12 0.4,-2.75 1.12,-5.26 -1.35,-7.49 l 0.15,-1.31 c 1.6,-2.41 1.6,-2.41 0.23,-4.85 l -0.55,-1.4 c 0.98,-0.66 1.92,-1.38 3.12,-2.43 -1.9,-0.92 -2.97,-1.94 -2.43,-4.17 0.39,-1.47 -1.37,-3.5 1.55,-4.44 l 0.64,-0.91 c -1.36,-2.93 0.91,-4.07 3.07,-5.18 -0.49,-1.15 -0.82,-1.96 -1.13,-2.63 -0.5,-0.69 -1.03,-1.1 -1.77,-2.02 2.34,-0.98 3.99,-2.15 3.73,-4.91 -0.1,-0.54 0.42,-3.39 2.76,-3.39 l 1.61,-1.32 c 3.03,-3.94 5.86,-5.02 10.8,-3.39 4.02,1.21 8.11,2.52 11.99,4.29 10.75,5.37 21.37,11.04 32,16.46 6.55,3.33 12.96,6.83 19.57,9.89 8.41,3.8 17.24,4.15 26.3,2.81 3.24,-0.5 6.51,-0.7 9.82,-0.74 3.7,-0.24 7.31,-3.11 9.16,-6.92 1.95,-4.19 4.42,-8.5 6.53,-12.67 v -1.94 c -1.45,-1.89 -1.89,-3.59 0,-5.47 v -1.79"
         style="fill:#ffffff;fill-opacity:1;fill-rule:nonzero;stroke:none"
         id="path50" />
    </g>
  </g>
</svg>
