<?xml version="1.0" encoding="UTF-8" standalone="no"?>
<!-- Created with Inkscape (http://www.inkscape.org/) -->

<svg
   version="1.1"
   id="svg2"
   width="610.58667"
   height="667.03998"
   viewBox="0 0 610.58667 667.03998"
   sodipodi:docname="VV_Logo_RGB_Largescale.eps"
   xmlns:inkscape="http://www.inkscape.org/namespaces/inkscape"
   xmlns:sodipodi="http://sodipodi.sourceforge.net/DTD/sodipodi-0.dtd"
   xmlns="http://www.w3.org/2000/svg"
   xmlns:svg="http://www.w3.org/2000/svg">
  <defs
     id="defs6">
    <clipPath
       clipPathUnits="userSpaceOnUse"
       id="clipPath36">
      <path
         d="M 2342.59,4508 H 1007.57 L 2344.03,2133.57 Z"
         id="path34" />
    </clipPath>
    <linearGradient
       x1="0"
       y1="0"
       x2="1"
       y2="0"
       gradientUnits="userSpaceOnUse"
       gradientTransform="matrix(1016.28,569.146,569.146,-1016.28,1673.24,3319.36)"
       spreadMethod="pad"
       id="linearGradient46">
      <stop
         style="stop-opacity:1;stop-color:#a21b21"
         offset="0"
         id="stop38" />
      <stop
         style="stop-opacity:1;stop-color:#a21b21"
         offset="0.08"
         id="stop40" />
      <stop
         style="stop-opacity:1;stop-color:#ea1d24"
         offset="0.65"
         id="stop42" />
      <stop
         style="stop-opacity:1;stop-color:#ea1d24"
         offset="1"
         id="stop44" />
    </linearGradient>
  </defs>
  <sodipodi:namedview
     id="namedview4"
     pagecolor="#ffffff"
     bordercolor="#000000"
     borderopacity="0.25"
     inkscape:showpageshadow="2"
     inkscape:pageopacity="0.0"
     inkscape:pagecheckerboard="0"
     inkscape:deskcolor="#d1d1d1" />
  <g
     id="g8"
     inkscape:groupmode="layer"
     inkscape:label="ink_ext_XXXXXX"
     transform="matrix(1.3333333,0,0,-1.3333333,0,667.04)">
    <g
       id="g10"
       transform="scale(0.1)">
      <path
         d="m 562.695,1002.31 h 53.7 L 769.754,719.629 923.113,1002.31 h 53.703 L 769.754,622.109 Z m -67.843,0 c 42.402,0 62.191,-15.54 79.855,-48.771 L 769.754,591.711 964.813,953.539 c 17.656,33.231 37.447,48.771 79.857,48.771 L 769.754,494.902 494.852,1002.31"
         style="fill:#ea1d24;fill-opacity:1;fill-rule:nonzero;stroke:none"
         id="path12" />
      <path
         d="m 1498.11,755.059 c 0,84.07 -68.55,152.613 -152.63,152.613 -84.08,0 -152.62,-68.543 -152.62,-152.613 0,-84.079 68.54,-152.618 152.62,-152.618 84.08,0 152.63,68.539 152.63,152.618 z m -350.46,0 c 0,109.531 88.32,197.851 197.83,197.851 109.52,0 197.85,-88.32 197.85,-197.851 0,-109.539 -88.33,-197.86 -197.85,-197.86 -109.51,0 -197.83,88.321 -197.83,197.86 z m 409.81,0 c 0,117.293 -94.68,211.98 -211.98,211.98 -117.29,0 -211.97,-94.687 -211.97,-211.98 0,-117.297 94.68,-211.989 211.97,-211.989 117.3,0 211.98,94.692 211.98,211.989 z m -469.17,0 c 0,142.031 115.17,257.191 257.19,257.191 142.03,0 257.21,-115.16 257.21,-257.191 0,-142.039 -115.18,-257.2 -257.21,-257.2 -142.02,0 -257.19,115.161 -257.19,257.2"
         style="fill:#ea1d24;fill-opacity:1;fill-rule:nonzero;stroke:none"
         id="path14" />
      <path
         d="m 1869.44,724.641 127.95,233.289 c 15.57,28.281 39.61,44.54 77.78,44.54 L 1914.68,711.219 V 507.621 h -45.24 z m -151.27,277.829 h 53.01 l 91.19,-168.251 91.21,168.251 h 53.01 L 1862.37,739.5 Z m 91.9,-494.849 V 711.219 L 1649.6,1002.47 c 38.16,0 62.21,-16.259 77.75,-44.54 L 1855.3,724.641 v -217.02 h -45.23"
         style="fill:#ea1d24;fill-opacity:1;fill-rule:nonzero;stroke:none"
         id="path16" />
      <path
         d="m 2344.12,887.832 207.06,-380.211 h -53.7 L 2344.12,790.309 2190.76,507.621 h -53.7 z m 0,127.208 274.91,-507.419 c -42.4,0 -62.19,15.551 -79.86,48.758 l -195.05,361.84 -195.05,-361.84 c -17.66,-33.207 -37.45,-48.758 -79.85,-48.758 l 274.9,507.419"
         style="fill:#ea1d24;fill-opacity:1;fill-rule:nonzero;stroke:none"
         id="path18" />
      <path
         d="m 3763.06,863.16 c 0,82.68 67.83,149.09 152.61,149.09 44.51,0 90.45,-13.418 126.51,-44.508 -11.31,-24.023 -29.69,-30.39 -60.06,-14.832 -19.79,9.891 -43.83,14.129 -65.02,14.129 -64.3,0 -108.81,-45.238 -108.81,-101.758 0,-65 55.8,-91.14 110.22,-113.051 54.43,-21.91 106.69,-45.929 106.69,-104.589 0,-50.86 -50.17,-90.442 -108.1,-90.442 -57.93,0 -110.94,26.871 -147.68,63.61 l 21.9,40.273 c 27.58,-29.672 79.86,-58.641 125.06,-58.641 38.16,0 63.59,16.95 63.59,44.508 0,25.43 -24,38.871 -81.23,62.883 -58.65,24.738 -135.68,57.25 -135.68,153.328 z m 321.5,-216.211 c 0,-86.91 -83.4,-149.09 -170.29,-149.09 -72.78,0 -127.89,28.961 -173.83,69.95 12.73,22.613 37.46,26.14 59.35,11.3 33.23,-22.597 72.8,-36.039 117.31,-36.039 62.19,0 122.25,44.532 122.25,104.571 0,69.961 -57.23,93.988 -113.05,116.609 -53.71,21.891 -103.89,48.75 -103.89,101.73 0,46.641 40.98,88.329 94.69,88.329 31.8,0 64.3,-12.008 97.52,-36.028 L 3992.7,879.41 c -28.26,23.332 -52.98,29.68 -75.6,29.68 -28.24,0 -49.45,-15.539 -49.45,-40.981 0,-22.609 21.21,-40.269 74.88,-62.89 63.59,-26.848 142.03,-57.207 142.03,-158.27"
         style="fill:#ea1d24;fill-opacity:1;fill-rule:nonzero;stroke:none"
         id="path20" />
      <path
         d="m 2765.79,755.059 c 0,-84.129 68.57,-152.707 152.7,-152.707 36.05,0 69.27,12.73 95.44,33.23 v 65.75 H 2898 l 24.72,45.238 h 141.39 V 621.441 c -43.1,-43.121 -86.95,-64.332 -145.62,-64.332 -109.57,0 -197.93,88.371 -197.93,197.95 0,109.57 88.36,197.941 197.93,197.941 37.48,0 72.11,-9.898 101.79,-27.57 l -21.91,-40.301 c -23.32,14.141 -50.9,22.621 -79.88,22.621 -84.13,0 -152.7,-68.57 -152.7,-152.691 z m 358.42,50.89 V 600.23 c -47.36,-62.21 -121.6,-102.5 -205.72,-102.5 -142.09,0 -257.33,115.231 -257.33,257.329 0,142.089 115.24,257.321 257.33,257.321 47.36,0 91.91,-12.72 130.07,-35.349 -13.43,-24.031 -34.63,-31.812 -60.07,-21.922 -21.22,8.493 -45.26,12.032 -70,12.032 -117.35,0 -212.07,-94.731 -212.07,-212.082 0,-117.36 94.72,-212.079 212.07,-212.079 63.63,0 120.89,28.27 159.76,72.102 v 145.629 h -147.73 l 24.72,45.238 h 168.97"
         style="fill:#ea1d24;fill-opacity:1;fill-rule:nonzero;stroke:none"
         id="path22" />
      <path
         d="m 3392.12,612.25 h 202.19 v -45.238 h -247.43 v 180.98 h 173.21 l -24.05,-45.25 h -103.92 z m -45.24,330.852 h 247.43 v -45.243 h -202.19 v -90.488 h 160.49 l -24.75,-45.242 h -180.98 z m -59.39,59.378 h 306.82 c 0,-29.691 -15.55,-45.25 -54.44,-45.25 H 3332.74 V 552.871 h 207.13 c 38.89,0 54.44,-15.562 54.44,-45.25 h -306.82 v 494.859"
         style="fill:#ea1d24;fill-opacity:1;fill-rule:nonzero;stroke:none"
         id="path24" />
      <path
         d="m 3915.15,4043.38 -139.85,0.22 c -154.67,-2.22 -289.28,-87.12 -361.97,-212.3 L 2343.92,1927.19 1271.73,3832.26 c -72.83,124.66 -207.09,208.89 -361.351,211.12 H 772.098 L 2343.64,1248.33 3915.15,4043.38"
         style="fill:#ea1d24;fill-opacity:1;fill-rule:nonzero;stroke:none"
         id="path26" />
      <path
         d="M 3677.61,4508 H 1007.57 L 2344.03,2133.57 Z"
         style="fill:#ea1d24;fill-opacity:1;fill-rule:nonzero;stroke:none"
         id="path28" />
      <g
         id="g30">
        <g
           id="g32"
           clip-path="url(#clipPath36)">
          <path
             d="M 2342.59,4508 H 1007.57 L 2344.03,2133.57 Z"
             style="fill:url(#linearGradient46);fill-opacity:1;fill-rule:nonzero;stroke:none"
             id="path48" />
        </g>
      </g>
      <path
         d="m 2660.48,4101.33 c -4.83,1.63 -9.55,1.39 -14.44,0.34 -9.45,-2.11 -17.16,-7.18 -24.04,-13.91 -5.1,-4.89 -8.16,-10.84 -10.14,-17.49 -1.73,-5.29 -1.42,-10.12 0.84,-15.02 0.82,-1.94 1.88,-4.06 3.52,-5.57 1.64,-1.44 3.73,-2.45 5.9,-2.98 7.05,-1.99 14.08,-3.08 20.64,1.94 l 1.84,1.04 c 4.49,3.27 9.18,5.73 12.23,10.76 2.01,3.34 4.68,6.33 7.36,9.15 4.41,4.45 5,10.56 7.69,15.72 l -0.07,1.31 c -0.92,5.17 -2.41,10.03 -6.14,13.77 -1.74,0.32 -3.69,0.34 -5.19,0.94 m -511.99,-253.04 c 3.24,-1.11 6.99,-2.3 10.89,-0.35 8.93,3.96 16.76,9.64 24.26,15.71 1.82,1.44 3.91,2.53 4.98,4.33 2.21,3.84 5.28,6.78 7.46,10.63 3.75,6.86 4.87,13.65 1.94,20.99 -0.86,2.2 -2.21,4.46 -2.78,6.73 -0.72,2.75 -2.5,4.07 -4.86,4.85 -1.68,0.39 -3.34,0.59 -4.92,0.59 -5.8,-0.13 -11.1,-1.7 -15.57,-4.72 -5.68,-3.67 -11.07,-7.95 -16.35,-12.38 -2.48,-1.93 -4.27,-4.63 -6.56,-6.75 -3.44,-3.13 -3.88,-7.74 -5.7,-11.52 -1.86,-3.62 -2.58,-7.75 -3.17,-9.96 0.4,-9.41 3.17,-15.52 10.38,-18.15 m 491.28,13.13 c -2.83,1.44 -2.51,4.17 -2.34,6.31 0.24,2.79 0.65,5.51 2.62,7.86 l 1.21,1.69 c -1.21,3.77 1.17,7.51 -0.9,11.14 -0.59,0.81 -0.31,2.15 0.06,3.1 0.39,1.08 0.33,1.98 0.12,3.29 -0.49,3 0,6.08 -0.12,9.13 0,2.22 -0.92,4.71 -0.25,6.69 1.38,3.27 0.25,6.27 0.19,9.42 -0.19,3.44 -0.31,6.9 -0.31,10.35 0.12,1.5 0.49,2.8 0.88,4.24 0.41,1.87 1.83,3.93 1.5,5.74 -0.53,1.99 -0.53,3.35 0.33,5.24 0.94,2.74 1.43,6.01 1.02,8.7 -0.67,4.13 0.98,7.73 1.56,11.49 0.53,3.53 1.51,6.69 -0.58,10.33 -1.14,2.07 -2.6,4.21 -2.6,7.14 0.13,4.78 -2.11,7.32 -7.07,7.87 -3.62,0.41 -7.5,0 -11.27,-0.55 -5.96,-0.84 -10.74,-4.45 -15.33,-8.47 -9.07,-7.83 -13.62,-18.13 -16.1,-29.32 -1.25,-6.22 -1.62,-12.6 -2.44,-18.92 -0.59,-4.38 -1.29,-8.73 -1.76,-13.12 -1.03,-10.37 -1.85,-20.75 -2.91,-31.26 -0.92,-8.19 -1.89,-16.48 -2.65,-24.79 -1.88,-17.98 -3.44,-36 -5.24,-53.89 -0.23,-3.27 -0.33,-6.38 -0.64,-9.63 -0.3,-5.94 -1.39,-11.86 -1.08,-17.77 0.26,-4.98 2.33,-10.08 7.54,-12.7 4.34,-2.22 9.06,-2.77 13.58,-1.11 10.29,3.73 19.78,8.83 28.08,16.25 4.22,3.81 5.82,9.04 9.63,12.88 0.2,5.29 3.07,10.44 0.63,15.7 -0.45,1.2 -0.43,2.65 -0.32,4 0.28,7.46 0.59,14.82 0.96,22.4 0.37,3.9 0.63,7.92 1.06,11.98 1.42,-0.27 2.55,-0.67 3.78,-1.08 -1.11,2.46 -2.01,4.36 -3.18,6.96 1.39,-0.76 2.07,-1.13 2.74,-1.45 1.54,1.84 1.17,3.44 -0.4,4.16 m -468.26,-101.6 c 0.34,4.73 -1.01,9.23 -4.33,12.87 -3.87,4.98 -9.55,5.04 -15,3.63 -12.48,-3.26 -22.8,-10.14 -30.51,-20.32 -9.67,-12.77 -13.07,-27.76 -14.4,-43.42 -0.42,-5.79 -0.93,-11.53 -1.48,-17.37 -0.18,-2.35 -0.35,-4.75 -0.35,-7.27 -0.1,-4.44 -0.1,-8.98 -0.37,-13.48 -0.53,-10 -1.08,-20.12 -1.66,-30.03 -0.14,-1.25 -0.55,-2.56 -0.71,-3.89 -0.33,-1.31 -0.74,-2.41 -0.74,-3.67 -0.31,-4.45 0,-8.81 -0.68,-13.19 -0.35,-4.79 -1.09,-9.42 -1.09,-14.34 0,-10.91 -1.1,-21.88 -1.43,-32.8 -0.29,-9.55 -1.07,-19.22 -0.08,-28.72 1,-10.27 3.65,-13.7 14.61,-14.97 4.38,-0.55 7.93,0.72 11.64,2.73 7.48,4.24 14.49,8.85 20.57,15.01 l 1.74,1 c 2.91,-0.87 3.2,1.34 3.82,3.09 4.34,-0.31 5.1,0.87 4.34,5.31 h -3.44 c 0.22,1.52 0.39,2.79 0.57,4.01 0.57,2.16 1.29,4.06 1.68,6.1 1.19,6.04 2.17,12.1 3.3,18.28 0.12,0.93 0.64,1.9 0.49,2.73 -1.94,7.05 0.15,14.33 -0.57,21.51 -0.19,0.79 0.08,1.47 0.08,2.36 1,6.1 2.03,12.21 2.77,18.4 0.65,5.12 1.08,10.42 2.52,15.48 0.53,2.2 0.26,4.63 0.51,6.73 0.02,2.3 0,4.63 0.41,6.91 0.8,3.43 2.32,6.75 2.81,10.21 0.57,5 0.82,10.03 0.65,15.06 -0.08,4.42 -0.37,8.54 1.29,12.84 1.58,3.66 1.58,8.01 2.13,11.88 0.33,2.71 0.91,5.47 0.76,8.06 -0.26,2.93 0.33,5.31 1.66,7.93 0.62,1.24 1.21,3.17 0.86,4.3 -1.21,2.49 -0.24,4.33 0.48,5.92 -1.26,3.05 -2.67,5.68 -3.12,8.42 -0.98,3.69 -0.25,4.52 3.55,6.18 -1.15,2.44 -3.55,3.64 -3.28,6.52 m 111.57,-19.37 c 0.99,2.15 1.4,4.35 1.62,6.67 0.68,3.83 1.97,7.86 3.51,11.66 3.3,7.47 8.44,13.98 14.18,19.81 6,6.14 13.07,11.4 19.94,16.51 5.75,4.22 10.94,8.37 14.77,14.47 3.83,6.15 3.53,12.64 2.19,18.99 -0.55,3.76 -3.42,7.02 -5.14,10.51 -3.05,6.1 -8.34,7.65 -14.47,6.92 -4.85,-0.47 -9.38,-2.24 -13.58,-4.8 -2.59,-1.57 -5.39,-2.71 -7.89,-3.77 -3.16,-1.3 -6.38,-2.04 -9.14,-3.51 -5.47,-3.04 -11.25,-4.95 -17.28,-5.41 -8.73,-0.91 -17.19,-2.93 -24.89,-6.94 -7.32,-3.96 -13.67,-9.23 -17.69,-16.78 -4.06,-7.48 -5.98,-15.98 -6.8,-24.46 -0.97,-10.34 -1.19,-20.82 -1.78,-31.33 -0.27,-5.24 -0.62,-10.51 -0.89,-15.88 -0.45,-6.27 -1.06,-12.4 -1.49,-18.65 -0.17,-2.75 0.08,-5.84 -0.8,-8.56 -1.33,-4.01 -2.34,-7.9 -2.13,-12.14 0.51,-5.12 -1.83,-10.26 0.26,-15.47 l -0.26,-1.73 c -1.35,-5.24 -2.6,-10.46 -0.51,-15.97 0.3,-0.68 0.28,-1.71 0.12,-2.7 -0.29,-3.26 -0.6,-6.48 -0.6,-9.82 0,-5.47 -2.39,-10.52 -1.27,-16.12 0.7,-5.23 0.04,-10.55 0.04,-15.88 0,-4.52 1.44,-8.76 3.63,-12.6 3.28,-5.93 9.22,-9.23 15.02,-8.15 11.03,2.15 22.05,7.47 31.13,16.37 7.83,7.64 11.43,17.19 12.38,28.08 0.47,4.96 -0.62,10.14 1.74,14.75 l 0.14,1.85 c -0.16,4.36 -0.65,8.76 -0.47,13.09 0.47,9.96 1.05,20.01 1.54,29.99 0.2,3.15 0.88,6.04 0.92,8.92 0.25,5.61 -0.04,11.31 0.29,16.88 0.32,2.3 0.12,5.5 2.99,6.45 0.2,3.42 -0.17,6.29 0.67,8.75 m -71.7,576.9 -0.92,-0.55 c -11.15,-2.7 -19.98,-8.81 -27.54,-17.12 -5.29,-5.68 -10.37,-11.37 -13.69,-18.64 -2.85,-6.28 -6.43,-12.03 -9.26,-18.29 -3.03,-7.27 -5.76,-14.69 -8.42,-22.16 -7.4,-19.37 -14.78,-38.64 -22.15,-57.93 -4.92,-12.98 -9.84,-26.12 -14.59,-39.37 -2.93,-7.8 -5.52,-15.84 -8.18,-23.54 -6.58,-18.42 -13.24,-36.81 -19.77,-55.05 -0.87,-2.45 -2.03,-4.65 -3.1,-7.15 -1.02,-2.6 -2.13,-5.18 -3.13,-7.89 -1.32,-4 -2.03,-8.03 -3.39,-11.83 -1.55,-4.66 -3.89,-8.9 -5.36,-13.62 -2.79,-9.48 -5.25,-18.95 -7.98,-28.38 -0.39,-1.43 -1.1,-2.84 -1.61,-4.18 -0.66,-2.12 -1.4,-4.35 -1.89,-6.52 -0.47,-3.16 0.53,-6.63 -2.29,-9.45 -0.62,-0.67 -0.48,-2.26 -0.89,-3.43 -0.37,-1.96 -0.82,-3.8 -1.25,-5.79 -4.24,-14.74 -8.7,-29.39 -12.82,-44.23 -1.66,-6.4 -2.11,-13.15 -3.84,-19.59 -1.8,-7.3 -4.36,-14.18 -6.27,-21.32 -3.97,-14.88 -7.76,-29.71 -11.66,-44.6 -0.57,-2.28 -1.35,-4.68 -1.8,-6.91 -1.13,-4.95 -2.13,-9.87 -3.32,-14.7 -1.02,-4.28 -2.44,-8.47 -3.22,-12.89 -3.21,-16.18 -6.08,-32.43 -9.57,-48.67 -2.8,-13.03 -5.61,-26.07 -7.58,-39.4 -2.09,-14.5 -5.04,-28.72 -7.6,-43.12 -1.29,-8.45 -2.23,-16.86 -3.55,-25.23 -2.29,-13.85 -4.4,-27.68 -6.59,-41.53 -1.13,-8.88 -2.11,-17.71 -3.49,-26.51 -0.2,-2.51 -1.35,-4.89 -2.31,-7.25 -1.29,1.18 -2.16,1.72 -2.95,2.62 -0.66,0.81 -1.54,1.73 -1.66,2.88 -0.29,2.6 -0.68,5.37 -0.19,7.95 0.56,2.95 -0.29,4.27 -2.66,5.03 -0.41,6.33 0.53,12.49 -1.79,18.39 -0.38,1.09 -0.28,2.4 -0.08,3.5 0.47,3.63 1.13,7.08 0.82,10.79 -0.3,2.2 -0.61,3.95 -1.98,5.81 -1.77,2.4 -3.9,5.12 -1.3,8.43 -1.02,0.2 -2.02,0.38 -3.48,0.72 0.66,4.66 0.35,9.41 1.99,13.42 2.13,4.47 1.06,8 -0.41,12.1 l -0.62,1.15 c -1.49,4.5 -3.73,8.87 -3.5,13.61 0.22,4.2 -0.7,8.02 -2.13,11.98 -1.25,3.62 -3.05,7.72 0,11.48 -2.83,5.07 -2.93,5.07 -3.3,11.46 -0.23,2.86 -1.6,5.34 -2.34,8.07 -1.64,3.8 -4.59,7.65 -2.97,11.53 -1.33,1.82 -2.58,3.15 -2.83,4.51 -0.43,4.22 -0.63,8.46 -1.76,12.66 -1.29,4.08 -1.45,8.45 -2.44,12.74 -0.59,3.1 -0.69,6.3 -1.29,9.39 -0.33,4.59 -3.46,9.11 -0.51,13.91 0.29,0.48 -0.29,1.4 -0.41,2.23 -0.21,1.1 -1.13,2.47 -0.84,3.45 1.25,2.72 -0.43,3.82 -1.5,4.52 -0.39,2.53 -0.39,4.48 -0.65,6.09 -0.29,2.15 -0.96,4.11 -1.38,6.21 -0.28,1.21 0.21,2.95 -0.32,3.72 -2.77,3.59 -1.81,7.99 -2.79,11.92 -1.72,7.84 -2.34,15.95 -3.63,23.94 -2.68,15.9 -5.51,31.74 -8.28,47.51 -1.12,6.4 -3.56,12.41 -7.25,17.54 -8.91,12.38 -27.29,14.58 -39.41,6.99 -6.61,-4.15 -11.02,-9.84 -13.72,-17.14 -1.83,-4.94 -3.47,-10.06 -5.02,-15.12 -3.92,-11.56 -7.65,-23.18 -11.54,-34.75 -0.56,-1.95 -1.13,-4.14 -2.15,-5.88 -1.48,-2.49 -2.22,-5.18 -2.77,-8.13 -0.62,-2.77 -2.01,-5.31 -2.75,-8.08 -1.18,-3.49 -2.66,-6.88 -3.27,-10.34 -1.62,-9.23 -5.6,-17.68 -8.24,-26.6 -1.15,-3.19 -2.44,-6.23 -3.26,-9.5 -1.46,-5.86 -2.75,-11.92 -6.27,-17.28 -1.31,-1.95 -1.7,-4.5 -1.93,-6.84 -0.43,-3.59 -1.1,-7.18 -3.36,-9.78 -1.51,-1.72 -2.52,-3.52 -2.85,-5.48 -0.94,-6.6 -3.25,-12.85 -5.75,-19.01 -1.99,-4.93 -4.14,-9.63 -5.17,-15.02 -1.6,-7.46 -4.86,-14.69 -7.31,-21.96 -2.18,-6.86 -4.66,-13.82 -6.7,-20.9 -0.25,-1.02 -0.43,-2.27 -0.15,-3.53 2.03,-10.3 7.93,-17.7 18.73,-19.98 3.24,-0.88 6.8,0 10.12,0.05 6.66,0.41 11.93,3.52 16.29,8.29 0.8,1.08 2.12,1.8 2.61,2.21 0.86,2.34 1.41,4.03 2.17,5.86 0.23,0.74 0.82,1.55 1.13,2.38 1.8,5.77 3.79,11.43 7.03,16.66 1.14,1.56 1.55,3.37 1.88,5.12 0.6,3.02 1.68,5.81 4.35,7.05 -0.09,1.13 -0.8,2.21 -0.58,2.91 1.35,3.3 3.07,6.64 4.35,9.89 0.38,0.81 0.38,1.71 0.45,2.58 0.3,1.73 0.37,3.37 0.51,5.16 3.11,0.23 1.72,2.65 2.31,4.33 1.29,3.37 0.6,7.44 3.67,10.06 l 0.33,0.85 c -1.45,4.59 3.3,7 3.4,10.93 3.2,2.76 2.71,6.63 2.56,10.48 1.03,0.57 2.26,1.2 2.81,1.42 0.45,1.35 0.84,3.24 1.02,3.24 2.44,0 2.63,1.93 3.28,3.32 1.09,2.7 1.93,5.39 2.98,8.01 0.4,0.85 1.49,2.03 2.09,1.94 1.82,-0.56 3.62,-1.29 5.14,-2.46 1.47,-1.25 2.66,-2.89 1.39,-5.1 -0.37,-0.59 0.08,-1.61 0.33,-2.55 1.41,0.54 2.58,0.94 3.5,1.31 0,-2.62 0.48,-4.87 -0.1,-7.12 -0.82,-3.3 0.1,-6.42 0.17,-9.61 0.02,-2.1 0.55,-3.56 1.88,-5.17 1.25,-1.5 2.71,-3.33 2.83,-4.96 0.14,-4.27 1.35,-7.94 1.84,-12 1.56,-9.81 3,-19.92 4.68,-29.67 1,-6.83 2.31,-13.45 1.57,-20.37 -0.12,-1.35 -0.12,-3.14 0.74,-4.02 2.26,-2.8 2.01,-6.27 2.38,-9.48 0.59,-3.57 1.15,-7.19 1.53,-10.88 2.26,-13.54 4.39,-27.26 6.48,-40.98 1.7,-11.97 3.16,-23.98 5.02,-36.06 1.64,-11.2 3.34,-22.4 5,-33.58 1.89,-11.25 3.55,-22.12 5.51,-33.26 1.11,-6.28 2.3,-12.47 0.23,-18.74 v -0.88 c 4.22,-3.53 5.7,-5.63 0.86,-11.14 3.05,0.64 4.26,-0.57 4.63,-3.1 1.27,-7.02 1.66,-14.28 3.54,-21.33 0.5,-2.13 1.25,-4.34 0,-6.62 -0.3,-0.59 0.5,-1.7 0.82,-2.59 0.15,-0.89 0.85,-1.77 1.11,-2.89 1.52,-8.68 2.85,-17.46 4.39,-26.26 1.64,-9.24 2.8,-18.26 4.51,-27.34 2.35,-11.02 5.08,-21.97 7.58,-32.89 1.14,-5.57 4.3,-9.85 8.56,-13.49 6.66,-5.57 14.28,-5.16 21.87,-3.32 9.77,2.55 15.69,8.9 18.83,18.33 3.32,9.54 4.49,19.74 6.13,29.76 1.82,9.59 3.01,19.45 4.4,29.27 1.52,11.53 3.18,23.16 4.63,34.76 2.54,19.05 4.76,38.29 7.09,57.43 1.17,9.03 2.3,18.14 3.45,27.08 0.61,5.15 1.1,10.49 2.6,15.26 1.35,4.16 3.24,8.21 2.87,12.63 5.59,2.01 5.86,3.76 2.19,8.03 l -1.09,2.15 c 0,2.31 0.25,4.59 0.62,6.84 0.55,5.26 1.68,10.48 1.68,15.86 0.18,3.87 1.68,7.05 4.01,9.72 1.6,1.72 2.12,3.51 2.48,5.59 0.17,1.03 0,1.93 0.39,2.62 2.98,4.56 1.89,9.55 1.81,14.5 0,0.44 -0.78,1.29 -1.46,1.42 -2.11,0.31 -2.11,1.76 -2.11,3.35 0.04,7.1 2.3,13.97 3.57,20.87 0.39,2.92 0.67,5.86 1.62,8.46 0.82,2.03 1.08,4 0.65,6.03 -0.57,1.99 -0.04,3.45 1.38,4.87 0.81,0.88 1.67,1.96 1.76,3.01 0.3,4.3 0.57,8.66 0.35,13 0,1.97 0.53,3.8 1.27,5.57 1.31,4.24 3.58,8.3 2.5,13.23 -0.39,1.38 0.75,3.33 1.49,4.92 0.84,1.95 2.44,3.58 2.93,5.52 0.84,3.94 1.46,7.97 -0.24,12.15 -0.66,1.29 -0.25,3.24 0.14,4.77 0.1,1.61 0.76,2.94 1.15,4.45 0.24,1.42 0.39,2.67 1.98,3.59 1.26,0.63 2.16,3.1 1.87,4.62 -0.21,1.4 -0.64,2.46 0.59,3.45 l 0.21,2.1 c -0.92,1.55 -0.51,2.56 0.41,3.83 0.31,0.78 0.16,1.75 0.31,2.62 0,1.48 -0.31,2.98 0,4.45 2.07,9.15 4.36,18.24 6.41,27.37 2.66,11.41 4.92,22.89 7.81,34.12 2.33,9.46 3.87,19.07 8.5,27.67 2.62,5.43 2.81,11.87 7.09,16.45 l 0.41,1.68 c 1.01,4.11 2.05,8.31 3.4,12.35 0.27,1.18 0.99,2.71 2.16,3.3 4.54,2.97 5.26,7.82 6.31,12.53 0.53,3.02 0.04,6.3 0.37,9.42 0.71,4.72 1.74,9.44 2.47,14.17 0.44,2.78 0.44,5.72 1.32,8.41 0.78,2.7 2.54,5.12 3.66,7.7 0.74,1.48 1.42,2.72 1.66,4.3 1.25,4.74 2.4,9.67 3.53,14.56 0.35,0.86 1.02,1.86 1.39,2.69 1.4,2.4 2.97,4.81 4.14,7.34 0.39,0.72 0.17,2.07 -0.37,2.9 -1.12,1.89 -0.8,3.59 0.25,5.6 1.43,2.99 2.74,6.29 3.93,9.57 0.47,0.58 0.09,1.35 0.21,2.03 0.26,1.29 0.26,2.38 0.53,3.48 0.35,1.29 0.68,2.48 0.96,3.87 1.09,3.94 2.03,8 3.02,11.96 1.47,4.59 3.23,9.08 4.75,13.69 1.52,4.37 2.68,8.95 4.36,13.28 1.11,3.37 2.61,6.75 3.9,10.1 1.1,2.6 2.62,5.12 3.32,7.73 2.07,8.02 4.42,16.04 8.99,23.2 0.76,1.24 1.34,2.73 2.11,3.97 1.44,3.14 3.04,6.25 4.29,9.44 0.67,1.49 1.21,3.12 1.12,4.74 -0.36,3.02 0.56,5.79 1.71,8.41 4.11,9.43 8.01,19 12.19,28.41 5.88,13.31 12.07,26.54 17.91,39.94 1.55,3.6 4.42,6.27 5.92,9.67 3.03,6.62 7.3,12.45 11.35,18.35 5.19,7.8 11.62,14.74 17.69,21.91 1.94,2.31 4.36,4.39 6.7,6.27 0.76,0.71 2.44,0.43 2.91,1.13 0.74,0.9 0.96,2.36 1.47,3.48 l 1.21,0.69 c 1.66,1.13 3.12,2.27 4.96,3.24 1.84,0.87 2.62,4.33 3.67,6.77 0.47,0.9 0,2.28 0.67,2.97 2.05,3.23 4.57,6.31 6.73,9.59 2.87,4.56 5.34,9.43 6.29,15 1.35,8.1 0.61,15.95 -1.58,23.9 -4.18,14.59 -13.63,23.88 -27.91,28.77 -3.83,1.23 -7.85,2.4 -11.72,3.49 z m 795.37,-419.54 -1.62,-0.52 c -0.84,-3.83 -4.77,-6.18 -5.26,-10.52 -0.13,-1.3 -1.95,-2.49 -2.81,-3.79 -3.38,-5.55 -7.83,-9.95 -12.99,-13.65 -3.16,-2.01 -6.03,-4.24 -9.08,-6.12 -10.57,-6.36 -22.01,-9.37 -33.48,-13.02 -13.51,-4.36 -27.15,-8.83 -40.58,-13.95 -14.4,-5.38 -28.38,-11.62 -42.37,-17.79 -5.68,-2.57 -11.44,-5.72 -17.03,-8.63 -19.53,-10.23 -39.04,-20.37 -58.59,-30.59 -7.79,-4.26 -15.65,-8.71 -23.58,-12.96 -4.08,-2.19 -8.32,-4.12 -12.44,-6.45 -6.36,-3.59 -12.61,-7.21 -18.96,-10.87 -9.1,-5.2 -18.54,-10.38 -27.79,-15.7 -10.06,-5.84 -20.28,-11.82 -30.41,-17.89 -8.25,-4.82 -16.35,-9.55 -24.58,-14.38 -7.98,-4.76 -16.01,-9.81 -23.96,-14.88 -11.13,-6.85 -22.23,-13.71 -33.14,-20.63 -1.96,-1.2 -3.29,-3.46 -5.16,-4.4 -1.9,-0.74 -3.57,-2.29 -5.2,-3.05 -5.62,-1.97 -9.84,-6.03 -14.72,-9.16 -7.78,-4.89 -15.06,-10.5 -22.66,-15.84 -2.48,-1.69 -4.82,-3.14 -6.52,-5.98 -1.29,-1.94 -4.18,-2.77 -6.27,-4.3 -2.27,-1.66 -5.06,-3.06 -3.99,-6.99 0.47,-2.3 -0.5,-4.92 -0.74,-7.49 -0.33,-2.58 -0.43,-5.33 -0.33,-8 0,-1.11 0.57,-2.33 0.96,-4.03 -0.63,-1.11 -1.7,-2.74 -2.93,-4.55 3.51,-2.91 0.68,-6.03 0.37,-9.52 2.4,-1.89 2.3,-4.56 1.38,-7.83 -1.07,-3.28 -3.2,-6.57 -0.21,-10.15 0.76,-1.01 0.1,-3.08 -2.56,-2.23 0.2,-1.22 0.2,-2.36 0.7,-3.17 1.63,-2.39 1.7,-4.78 0.32,-7.21 l -0.32,-1.22 c 2.99,-4.76 -0.25,-9.42 0.18,-14.13 0.33,-4.68 -0.68,-9.45 0.33,-14.31 0.31,-1.75 0.31,-3.58 0.59,-5.38 0.29,-1.17 1.19,-3.22 -1.1,-4.23 -0.7,-0.26 -1.19,-1.88 -0.11,-3.39 1.03,-1.57 1.29,-4.23 0.93,-6.16 -1.66,-7.71 -0.13,-15.28 -1.07,-23.02 -0.25,-2.66 -0.37,-5.27 -0.37,-7.99 0,-1.82 -0.98,-3.55 0.8,-5.13 l 0.33,-1.25 c -1.64,-3.18 -0.62,-6.64 -1.01,-10.01 -0.12,-3.27 0.5,-6.7 0.82,-10.44 -5.47,-0.92 -2.82,-5.76 -3.07,-9.54 1.56,-0.79 4.3,-1.1 3.44,-4.46 -0.94,-0.17 -2.03,-0.41 -3.77,-0.61 1.13,-1.75 2.07,-2.8 3.59,-4.82 l -1.74,-0.44 c 3.52,-5.83 -0.46,-9.94 -2.24,-14.93 1.23,-2.68 2.46,-5.74 3.79,-8.74 0.92,-1.85 1.07,-3.29 -1.02,-4.49 -2.77,-1.59 -3.12,-3.28 -1.95,-5.98 0.84,-1.84 1.95,-3.52 2.97,-5.44 -1.33,-0.42 -2.44,-0.73 -3.79,-1.14 0.21,-2.13 0.21,-4.11 0.39,-6.6 1.27,0.59 1.95,1.05 2.58,1.43 0.68,-1.66 1.19,-3.41 1.74,-5.34 -0.73,-0.43 -1.74,-0.93 -2.84,-1.48 0.76,-2.63 3.3,-5.14 -0.64,-7.75 2.13,-2.1 4.06,-3.87 5.92,-5.81 -0.69,-1.76 -1.61,-3.87 -2.5,-6.15 1.21,-0.32 2.18,-0.56 3.34,-0.78 -1.16,-1.67 -3.13,-3.17 -0.2,-4.69 l 0.76,-1.06 c -1.07,-3.43 1.98,-6.75 0.37,-10.46 -0.56,0.11 -1.21,0.34 -2.59,0.72 1.44,-2.94 0.74,-5.46 0.13,-8.01 -0.37,-1.25 1.31,-3.08 2.09,-4.72 1.12,0.76 1.88,1.13 3.05,2.01 0.35,-2.36 0.61,-4.14 0.84,-5.98 0.27,-3.44 0.9,-6.96 2.93,-9.84 1.27,-1.59 1.09,-3.02 0.14,-4.43 -0.9,-1.6 -2.02,-3.04 -3.3,-4.76 0.35,-0.26 1.01,-0.88 1.85,-1.9 -1.35,-0.49 -2.27,-0.81 -3.53,-1.27 0.11,-2.26 0.05,-4.91 0.58,-7.4 0.2,-0.79 1.45,-1.66 2.38,-2.12 0.22,-0.2 1.2,1.02 2.02,1.89 -0.9,-3.09 5.41,-3.14 2.53,-7.49 1.14,-0.76 2.39,-1.5 4.13,-2.65 -3.93,-0.73 -3.99,-4.1 -4.48,-6.27 -0.21,-1.84 -1.17,-2.81 -2.05,-3.97 0.32,-2.93 5.49,-2.77 3.15,-6.5 2.07,-0.88 3.43,-1.53 5.19,-2.51 -2.15,-2.12 -4.22,-4.07 -3.12,-7.17 l -0.65,-0.87 c -3.04,-2.91 -2.95,-3.46 0.65,-5.31 l 0.97,-0.81 c -1.62,-1.42 -3.41,-2.51 -4.66,-4.09 -1.21,-1.62 -1.37,-3.8 -2.48,-5.4 -1.65,-2.44 -3.56,-5.03 -5.88,-6.8 -4.48,-3.15 -9.5,-5.74 -14.34,-8.67 h -17.23 c -0.72,0.14 -1.32,0.67 -2.11,0.81 -12.91,3.11 -21.25,10.74 -24.7,23.93 -2.83,10.48 -4.69,20.95 -4.46,31.94 0.24,7.36 0.77,14.76 0.82,22.23 0.38,8.83 0.38,17.72 0.53,26.48 0,3.49 0.14,6.95 0.28,10.47 0.33,10.01 0.33,20.06 1.27,29.85 0.62,7.75 0.89,15.17 0.13,22.72 -0.13,1.5 0.22,3.05 0.24,4.48 0.15,3.16 0.15,6.39 0.15,9.57 0,4.03 0,8.14 0.04,12.17 0.2,5.81 1.29,11.54 -0.27,17.29 l 0.06,2.05 c 1.95,1.62 1.5,3.56 1.5,5.49 v 52.02 53.78 c 0.14,7.56 0.45,15.1 0.51,22.72 v 11.58 c -5.26,-3.06 -9.94,-5.49 -14.26,-8.52 -8.46,-6.07 -16.43,-12.47 -24.59,-18.63 -8.81,-6.91 -17.5,-13.76 -26.25,-20.49 -4.06,-3.39 -8.4,-6.58 -12.6,-9.9 -6.89,-5.33 -13.96,-10.75 -20.72,-16.31 -7.58,-6.11 -14.78,-12.54 -22.36,-18.66 -10.41,-8.65 -20.98,-17.03 -31.58,-25.6 -10.81,-8.98 -21.33,-17.95 -32.25,-26.96 -7.66,-6.44 -15.65,-12.85 -23.54,-19.28 -1.13,-0.92 -2.38,-2.26 -3.49,-3.46 -2.66,-2.63 -5.39,-5.26 -8.17,-8.03 -2.61,-2.76 -4.82,-6.03 -7.83,-8.68 -4.61,-4.23 -9.72,-7.96 -14.37,-12.38 -5.14,-4.66 -9.83,-9.7 -14.81,-14.71 -3.03,-2.88 -6.13,-5.76 -9.18,-8.69 -1.27,-1.46 -2.46,-3.5 -3.79,-5.04 -1.5,-1.87 -3.08,-3.67 -4.66,-5.38 -2.04,-2.19 -4.24,-4.31 -6.35,-6.5 -8.03,-8.34 -15.92,-16.97 -24.42,-25.01 -6.23,-5.65 -11.5,-12.15 -16.73,-18.55 -0.98,-1.16 -2.15,-2.2 -3.03,-3.21 -1.86,-2.08 -3.75,-3.99 -5.71,-5.94 -0.7,-0.85 -1.36,-1.6 -2.03,-2.45 -6.4,-6.02 -12.77,-12.14 -19.02,-18.15 -3.71,-3.57 -7.62,-7.08 -11.27,-10.6 -3.67,-3.41 -7.54,-5.67 -12.89,-5.73 -7.21,-0.12 -14.3,-0.12 -21.37,2.86 -11.11,4.78 -16.33,13.47 -17.77,24.89 -0.55,3.57 -1.19,7.17 0.12,10.64 0.9,2.22 1.44,4.64 2.71,6.71 2.33,3.54 4.81,7.01 7.46,10.33 9.53,11.87 20.14,22.87 31.39,33.12 6.33,5.66 12.42,11.62 18.46,17.45 10.19,9.63 20,19.3 30.41,28.44 16.4,14.51 33.1,28.66 49.74,42.79 8.38,7.18 16.86,13.91 25.22,20.97 5.86,5.06 11.33,10.55 17.28,15.62 4.92,4.19 10.55,8.08 15.55,12.19 8.03,6.55 15.74,13.1 23.67,19.48 4.49,3.56 9.16,7.12 13.71,10.74 5.72,4.79 11.6,9.46 17.52,14.47 3.24,2.77 6.64,5.79 10.1,8.31 6.91,5.27 14.06,10.08 21.09,15.17 10.8,7.95 21.39,15.97 32.19,23.85 6.76,4.87 13.59,9.59 20.39,14.59 6.49,4.53 12.83,9.23 19.08,13.96 11.16,8.47 22.09,17.1 33.42,25.45 8.01,5.98 16.29,11.59 25.16,17.84 0,5.73 0.11,12.24 0.19,18.6 0,3.66 -0.08,7.2 -0.33,10.83 0,0.94 -0.49,2.44 -1.09,2.58 -1.08,0.22 -2.31,-0.31 -3.13,-0.94 -5.64,-3.71 -11.35,-7.8 -17.01,-11.67 l -1.23,-0.48 c -3.97,-0.9 -7.72,-1.75 -11.35,-3.62 -3.4,-1.69 -6.66,-3.13 -11.05,-2.63 -3.69,0.49 -7.95,-1.29 -11.9,-2.23 -8.81,-1.78 -17.71,-1.78 -26.03,1.25 -10.49,4 -19.42,10.22 -23.52,21.84 -3.06,8.83 -4.59,17.78 -4.57,27.16 0.18,11.83 0.33,23.84 0.18,35.66 0,4.13 -0.96,8 -0.96,12.26 0,2.51 0.78,5.19 1.31,7.97 0.51,4.61 1.27,9.31 1.37,13.98 0.17,8.97 1.58,18 3.02,27.02 1.29,9.38 3.23,18.85 6.18,27.96 2.91,9.48 6.09,19.11 11.81,27.57 6.39,9.36 12.68,18.98 19.55,27.93 4.22,5.42 10.04,9.29 15.88,12.87 0.94,0.48 1.99,0.92 2.74,1.66 7.65,6.86 17.34,8.72 26.89,10.44 3.44,0.6 7.6,-0.54 10.82,-2.09 4.18,-2.01 4.57,-6.92 4.24,-10.82 -0.24,-4.45 -1.9,-8.67 -2.77,-13.11 -0.57,-3.4 -2.99,-5.8 -4.26,-8.78 -1.58,-3.67 -4.55,-6.23 -7.78,-8.42 -0.82,-0.51 -1.54,-1.1 -2.01,-1.97 -2.07,-3.61 -3.75,-7.46 -7.34,-10.23 l -0.45,-0.73 c -0.53,-4.6 -4.16,-7.77 -5.88,-11.87 -0.47,-1.04 -1.17,-2.38 -1.46,-3.65 -0.53,-3.47 -1.12,-6.79 -3.97,-9.52 -0.98,-1.07 -1.41,-2.69 -1.76,-4.08 -1.17,-4.51 -2.28,-9.12 -3.55,-13.78 -0.41,-1.29 -1.13,-2.81 -1.47,-4.2 -0.74,-4.65 -1.99,-9.08 -1.11,-13.76 0.16,-0.97 0.86,-1.86 1.31,-2.8 0.88,-2.29 0.96,-4.39 0,-6.72 -0.94,-1.73 -1.31,-3.7 -1.68,-5.55 -0.51,-4.02 -1,-7.85 -1.27,-11.76 -0.33,-2.26 -0.08,-4.54 -0.08,-6.83 0,-0.92 0.35,-2.04 0,-2.69 -2.75,-4.68 -0.82,-9.29 -0.64,-14.17 0.04,-2.61 -0.18,-5.29 -0.18,-7.98 -0.17,-5.19 2.17,-9.91 4.34,-14.37 2.26,-4.76 6.38,-7.54 12.15,-7.26 10.41,0.42 18.78,4.99 26.05,12.33 7.34,7.18 10.1,16.25 11.47,25.73 2.1,14.06 3.78,27.98 5.48,42 1,6.97 1.96,13.83 2.39,20.82 0.31,3.69 -0.3,7.38 -0.3,11.18 v 1.2 c 2.41,2.53 1.96,5.95 2.11,8.94 1.04,10.86 1.68,21.6 2.54,32.35 0.47,6.49 1.08,12.97 1.7,19.45 0.49,7.11 0.84,14.04 1.7,20.91 0.35,5.21 0.51,10.29 2.91,15.16 3.15,7.01 8.89,11.19 15.7,14.48 6.39,3.15 12.99,3.65 19.95,2.89 4.6,-0.66 9.35,-2.01 12.2,-6.23 1.66,-2.56 4.75,-4.26 4.92,-7.88 0,-1.14 0.39,-2.49 0.39,-3.78 -0.05,-3.95 -0.56,-8.1 -0.62,-12.08 0,-1.59 0.62,-3.19 1.21,-5.01 -0.23,-0.92 -1.89,-1.45 -0.98,-3.53 0.75,-1.54 0.34,-3.52 -0.7,-5.58 -0.92,-2.04 -0.7,-5.01 -0.21,-7.44 0.68,-3.48 -0.49,-6.89 0,-10.46 0.43,-3.28 -1.51,-6.78 -1.98,-10.24 -0.37,-1.25 -1.29,-2.6 0.37,-3.64 l 0.45,-0.53 c -3.3,-4.47 -2.07,-9.86 -2.59,-14.87 -1.37,-13.8 -2.11,-27.48 -3.11,-41.38 -0.72,-10.76 -1.5,-21.52 -2.27,-32.22 -0.19,-2.58 -1.26,-5.16 -1.15,-7.65 0.3,-7.06 -0.97,-13.93 -1.33,-20.87 -0.17,-2.76 -0.27,-5.28 0.65,-8.12 0.86,-2.27 0.86,-5.09 0.27,-7.37 -1.54,-4.49 -1.09,-8.92 -0.92,-13.21 0,-2.31 0.2,-4.52 -0.17,-6.83 -0.59,-4.44 -1.58,-8.69 -1.15,-13.46 0.37,-4.33 0,-8.78 0,-13.13 0,-0.85 0.31,-1.69 0.56,-3.16 1.68,0.87 2.83,1.57 4.16,2.44 6.6,4.36 13.15,9.03 20.08,13.29 12.07,7.49 24.26,15.03 36.45,22.54 3.53,2.18 7.03,4.35 10.5,6.44 7.23,4.74 14.07,10.1 21.64,14 9.48,4.59 16.98,12.26 27.07,15.12 1.88,0.55 3.09,2.45 4.97,3.06 3.1,0.98 3.96,5.81 8.32,4.21 2.81,1.63 5.72,3.43 8.55,5 2.89,1.63 5.57,3.09 8.26,4.74 2.97,1.65 5.84,3.31 8.69,5.19 2.89,1.66 5.51,3.58 8.6,5.34 3.85,2.27 7.79,4.48 11.78,6.62 14.31,8.15 28.69,16.32 43.3,24.36 11.42,6.58 23.18,12.8 34.61,19.38 12.59,7.12 25.07,14.54 37.5,21.85 2.77,1.65 5.29,3.31 8.49,5.25 -1.39,1.16 -1.97,1.92 -2.85,2.44 -7.36,3.48 -11.31,9.58 -12.77,17.16 -0.82,4.17 -0.82,8.49 -1.04,12.66 -0.23,5 -0.25,10.01 -0.25,14.91 v 1.38 c 2.75,6.28 0.64,13.01 2.32,19.41 0.27,0.81 0.27,1.83 -0.04,2.68 -2.26,5.68 -0.94,11.27 0.47,16.76 0.51,1.35 -0.16,2.86 -0.27,4.41 -0.3,1.33 -1.14,2.94 -0.71,4.04 1.86,3.19 0.82,6.76 1.72,10.17 0.94,3.52 0.73,7.48 0.78,11.34 0.16,10.64 0.16,21.25 0.16,31.93 0,3.02 -0.21,5.69 -1.95,8.22 -2.01,3.1 -4.49,5.27 -8.56,5.1 -2.07,-0.18 -4.35,0.45 -6.58,0.32 -5.88,-0.6 -10.31,-3.76 -14.75,-7.32 -1.34,-1.25 -3.26,-1.78 -4.45,-3.02 -1.72,-1.8 -3.2,-3.88 -4.18,-6.25 -0.74,-2.2 -2.11,-3.11 -3.79,-4.41 -2.75,-2.24 -5.62,-4.29 -6.54,-8.25 -0.62,-1.77 -3.22,-3.01 -5.12,-4.84 -0.52,-3.27 -0.49,-7.17 -3.16,-10.12 l -0.43,-1.81 c -0.29,-3.21 0.74,-6.67 -1.45,-9.53 -0.91,-1.09 2.45,-1.85 0.63,-3.38 -0.88,-0.68 -2.31,-0.86 -3.36,-1.39 -0.39,-0.16 -0.45,-0.66 -0.94,-1.5 1.04,-0.41 1.84,-0.81 2.46,-1.04 -0.25,-2.28 -0.39,-4.44 -0.6,-6.66 -3.81,-0.97 -3.99,-0.97 -3.19,-5.28 0.45,-1.87 1.04,-3.77 1.88,-5.58 1.05,-1.75 0.58,-3.75 -0.65,-4.46 -2.48,-1.28 -2.48,-3.82 -4.33,-5.36 -0.49,-0.39 -0.26,-3.02 0.45,-3.55 2.26,-1.77 2.77,-3.87 2.65,-6.68 -0.21,-1.4 0.45,-2.82 0.75,-4.44 -1.37,-0.91 -3.23,-1.86 -4.44,-3.23 -1.81,-1.86 0.1,-3.65 0.53,-4.43 -0.8,-2.7 -1.68,-4.53 -1.78,-6.51 -0.29,-3.2 -0.19,-6.41 -0.23,-9.59 -0.16,-2.69 -0.65,-5.44 3.57,-5.64 -2.09,-3.56 -5.11,-6.4 -1.29,-9.89 -0.7,-0.46 -1.25,-0.83 -1.74,-1.14 2.93,-2.53 2.6,-2.41 1.74,-5.83 -0.7,-2.43 -2.28,-4.79 -0.8,-7.45 0.1,-0.54 -0.27,-1.4 -0.27,-2.08 -0.18,-1.07 -0.67,-2.27 -0.27,-2.75 2.53,-2.69 0.64,-4.93 -0.94,-6.84 -3.03,-3.89 -4.81,-8.15 -5.55,-12.93 -0.21,-0.72 -0.43,-1.49 -0.96,-1.99 -4.14,-3.41 -7.96,-7.27 -13.04,-9.57 -3.69,-1.72 -7.17,-3.73 -10.96,-5.6 -5.51,-2.83 -11.54,-2.63 -17.42,-1.5 -7.46,1.45 -10.57,5.97 -11.56,14.85 -0.65,5.78 0.29,11.63 0.5,17.4 0.32,9.94 0.67,19.86 1.12,29.81 0.47,11.45 0.86,22.81 1.25,34.21 0.47,9.68 1.05,19.45 1.46,29.11 0.86,13.03 1.33,26.16 2.01,39.1 0.37,4.33 0.37,8.62 1.31,12.76 1.43,7.78 4.34,14.87 8.69,21.33 8.07,11.5 19.34,17.38 32.93,19.02 0.92,0.15 1.72,0.37 2.76,0.15 3.83,-0.32 7.46,-1.03 11.19,1.65 1.8,1.13 4.57,0 7.07,-1.08 4.26,-1.71 9.24,-2.52 14.06,-0.48 4.67,1.95 9.04,4.26 12.68,7.75 1.75,1.84 3.45,3.85 5.09,5.84 1.35,1.37 2.45,2.88 3.85,4.39 3.87,3.87 7.76,7.66 11.53,11.61 l 0.97,0.92 c 7.74,4.7 15.33,9.96 24.16,12.56 6.15,1.82 12.52,3.39 18.91,2.32 5.88,-1.2 11.42,-2.57 15.68,-7.54 4.12,-4.53 5.45,-6.09 6.55,-11.75 0.35,-2.07 0.66,-4.13 3,-5.09 l 0.86,-1.53 c -3.45,-3.01 -2.97,-5.66 0.84,-8.69 0.14,-2.75 0.24,-5 0.51,-7.67 -0.57,-0.35 -2.44,-0.7 -2.91,-1.7 -0.82,-1.42 -0.82,-3.19 -0.7,-4.92 0,-2.07 0.13,-4.08 0.43,-6.24 0.88,0.48 1.6,1.02 2.81,1.79 0.49,-3.06 -2.23,-6.07 1.7,-8.64 -1.33,-0.2 -1.84,-0.34 -3.01,-0.43 0.39,-4.45 0.76,-8.86 1.17,-13.69 -0.72,-0.08 -1.79,-0.4 -2.97,-0.63 -1.38,-2.79 0,-4.28 2.37,-5.65 -1.1,-0.89 -2.07,-1.7 -3.05,-2.53 0.68,-1.34 1.56,-2.58 1.86,-3.2 -0.94,-1.27 -2.07,-2.17 -2.07,-3.14 -0.18,-7.28 -0.34,-14.58 -0.16,-21.94 0,-1.69 1.29,-3.49 1.99,-5.38 -1.07,-1.52 -3.16,-2.99 -1.07,-5.53 l -0.39,-1.85 c -0.98,-3.1 -0.98,-3.38 1.79,-5.14 0,-2.42 0.14,-4.8 0.39,-7.74 -0.25,-0.12 -1.42,-1.27 -1.36,-2.12 0.41,-2.76 1.11,-5.27 -1.35,-7.49 l 0.16,-1.31 c 1.6,-2.41 1.6,-2.41 0.21,-4.85 l -0.55,-1.4 c 0.98,-0.66 1.94,-1.38 3.13,-2.43 -1.9,-0.92 -2.97,-1.95 -2.42,-4.17 0.39,-1.47 -1.37,-3.5 1.54,-4.44 l 0.64,-0.91 c -1.36,-2.93 0.9,-4.07 3.07,-5.18 -0.49,-1.15 -0.82,-1.96 -1.13,-2.63 -0.49,-0.69 -1.04,-1.1 -1.78,-2.02 2.34,-0.98 4,-2.15 3.73,-4.91 -0.1,-0.54 0.43,-3.39 2.77,-3.39 l 1.61,-1.32 c 3.02,-3.94 5.85,-5.02 10.8,-3.4 4.02,1.22 8.1,2.53 11.99,4.3 10.74,5.37 21.37,11.04 31.99,16.46 6.56,3.33 12.97,6.83 19.57,9.89 8.42,3.8 17.25,4.15 26.31,2.81 3.24,-0.5 6.5,-0.7 9.82,-0.74 3.7,-0.25 7.31,-3.11 9.16,-6.92 1.96,-4.19 4.42,-8.5 6.53,-12.67 v -1.94 c -1.45,-1.89 -1.9,-3.59 0,-5.47 v -1.79"
         style="fill:#ffffff;fill-opacity:1;fill-rule:nonzero;stroke:none"
         id="path50" />
    </g>
  </g>
</svg>
