<?xml version="1.0" encoding="UTF-8" standalone="no"?>
<!-- Created with Inkscape (http://www.inkscape.org/) -->

<svg
   version="1.1"
   id="svg2"
   width="628.61334"
   height="644.15997"
   viewBox="0 0 628.61334 644.15997"
   sodipodi:docname="VV_Logo_RGB_Smallscale.eps"
   xmlns:inkscape="http://www.inkscape.org/namespaces/inkscape"
   xmlns:sodipodi="http://sodipodi.sourceforge.net/DTD/sodipodi-0.dtd"
   xmlns="http://www.w3.org/2000/svg"
   xmlns:svg="http://www.w3.org/2000/svg">
  <defs
     id="defs6">
    <clipPath
       clipPathUnits="userSpaceOnUse"
       id="clipPath22">
      <path
         d="M 2356.25,4045.45 H 1021.23 L 2357.7,1671.01 Z"
         id="path20" />
    </clipPath>
    <linearGradient
       x1="0"
       y1="0"
       x2="1"
       y2="0"
       gradientUnits="userSpaceOnUse"
       gradientTransform="matrix(1016.28,569.145,569.145,-1016.28,1686.91,2856.8)"
       spreadMethod="pad"
       id="linearGradient32">
      <stop
         style="stop-opacity:1;stop-color:#a21b21"
         offset="0"
         id="stop24" />
      <stop
         style="stop-opacity:1;stop-color:#a21b21"
         offset="0.08"
         id="stop26" />
      <stop
         style="stop-opacity:1;stop-color:#ea1d24"
         offset="0.65"
         id="stop28" />
      <stop
         style="stop-opacity:1;stop-color:#ea1d24"
         offset="1"
         id="stop30" />
    </linearGradient>
  </defs>
  <sodipodi:namedview
     id="namedview4"
     pagecolor="#ffffff"
     bordercolor="#000000"
     borderopacity="0.25"
     inkscape:showpageshadow="2"
     inkscape:pageopacity="0.0"
     inkscape:pagecheckerboard="0"
     inkscape:deskcolor="#d1d1d1" />
  <g
     id="g8"
     inkscape:groupmode="layer"
     inkscape:label="ink_ext_XXXXXX"
     transform="matrix(1.3333333,0,0,-1.3333333,0,644.16)">
    <g
       id="g10"
       transform="scale(0.1)">
      <path
         d="m 3928.81,3580.82 -139.84,0.22 c -154.67,-2.22 -289.28,-87.11 -361.98,-212.3 L 2357.58,1464.63 1285.39,3369.71 c -72.83,124.65 -207.09,208.88 -361.347,211.11 H 785.762 L 2357.3,785.77 3928.81,3580.82"
         style="fill:#ea1d24;fill-opacity:1;fill-rule:nonzero;stroke:none"
         id="path12" />
      <path
         d="M 3691.27,4045.45 H 1021.23 L 2357.7,1671.01 Z"
         style="fill:#ea1d24;fill-opacity:1;fill-rule:nonzero;stroke:none"
         id="path14" />
      <g
         id="g16">
        <g
           id="g18"
           clip-path="url(#clipPath22)">
          <path
             d="M 2356.25,4045.45 H 1021.23 L 2357.7,1671.01 Z"
             style="fill:url(#linearGradient32);fill-opacity:1;fill-rule:nonzero;stroke:none"
             id="path34" />
        </g>
      </g>
      <path
         d="m 2674.14,3638.77 c -4.82,1.63 -9.55,1.4 -14.43,0.34 -9.46,-2.11 -17.17,-7.18 -24.05,-13.91 -5.09,-4.89 -8.16,-10.84 -10.13,-17.49 -1.74,-5.29 -1.43,-10.11 0.84,-15.02 0.82,-1.94 1.87,-4.06 3.51,-5.56 1.64,-1.45 3.73,-2.45 5.9,-2.99 7.05,-1.99 14.08,-3.08 20.65,1.94 l 1.83,1.05 c 4.49,3.26 9.18,5.72 12.23,10.75 2.01,3.34 4.69,6.34 7.36,9.15 4.42,4.45 5,10.57 7.7,15.72 l -0.08,1.31 c -0.92,5.18 -2.4,10.03 -6.13,13.77 -1.74,0.32 -3.7,0.34 -5.2,0.94 m -511.99,-253.04 c 3.24,-1.11 6.99,-2.29 10.9,-0.35 8.92,3.97 16.75,9.64 24.25,15.71 1.82,1.44 3.91,2.53 4.99,4.33 2.2,3.85 5.27,6.79 7.46,10.63 3.75,6.86 4.86,13.66 1.93,20.99 -0.86,2.21 -2.21,4.46 -2.77,6.73 -0.73,2.75 -2.5,4.07 -4.87,4.85 -1.68,0.39 -3.34,0.59 -4.92,0.59 -5.8,-0.13 -11.09,-1.7 -15.57,-4.72 -5.68,-3.67 -11.07,-7.95 -16.34,-12.38 -2.48,-1.93 -4.28,-4.63 -6.57,-6.75 -3.43,-3.12 -3.88,-7.73 -5.7,-11.51 -1.85,-3.63 -2.58,-7.76 -3.16,-9.96 0.39,-9.42 3.16,-15.53 10.37,-18.16 m 491.29,13.14 c -2.83,1.43 -2.52,4.17 -2.35,6.31 0.24,2.79 0.65,5.5 2.62,7.86 l 1.21,1.69 c -1.21,3.77 1.17,7.51 -0.9,11.13 -0.58,0.81 -0.31,2.16 0.06,3.1 0.39,1.08 0.33,1.99 0.12,3.3 -0.49,2.99 0,6.07 -0.12,9.13 0,2.21 -0.92,4.7 -0.25,6.69 1.39,3.27 0.25,6.27 0.19,9.41 -0.19,3.45 -0.31,6.9 -0.31,10.35 0.12,1.51 0.49,2.8 0.88,4.24 0.41,1.87 1.84,3.93 1.5,5.74 -0.52,1.99 -0.52,3.35 0.34,5.25 0.93,2.73 1.42,6 1.01,8.7 -0.66,4.13 0.98,7.72 1.56,11.48 0.53,3.54 1.51,6.69 -0.58,10.33 -1.13,2.07 -2.6,4.21 -2.6,7.14 0.14,4.79 -2.11,7.33 -7.07,7.87 -3.61,0.41 -7.5,0 -11.27,-0.54 -5.96,-0.84 -10.74,-4.46 -15.33,-8.48 -9.06,-7.82 -13.61,-18.13 -16.1,-29.32 -1.25,-6.22 -1.62,-12.59 -2.44,-18.91 -0.58,-4.39 -1.29,-8.73 -1.75,-13.13 -1.04,-10.37 -1.86,-20.75 -2.91,-31.26 -0.92,-8.19 -1.9,-16.47 -2.66,-24.78 -1.88,-17.99 -3.44,-36.01 -5.24,-53.9 -0.23,-3.27 -0.33,-6.38 -0.64,-9.63 -0.29,-5.94 -1.39,-11.85 -1.07,-17.76 0.25,-4.98 2.32,-10.09 7.54,-12.71 4.33,-2.21 9.06,-2.77 13.57,-1.11 10.29,3.73 19.78,8.84 28.09,16.25 4.21,3.82 5.82,9.04 9.62,12.88 0.2,5.29 3.07,10.44 0.63,15.7 -0.45,1.21 -0.43,2.65 -0.31,4.01 0.27,7.45 0.58,14.81 0.95,22.39 0.37,3.91 0.63,7.92 1.06,11.98 1.42,-0.27 2.56,-0.67 3.79,-1.08 -1.12,2.46 -2.01,4.36 -3.19,6.96 1.39,-0.76 2.07,-1.13 2.74,-1.44 1.54,1.83 1.17,3.43 -0.39,4.16 m -468.26,-101.61 c 0.33,4.73 -1.02,9.23 -4.34,12.88 -3.87,4.98 -9.55,5.04 -15,3.62 -12.48,-3.25 -22.79,-10.14 -30.51,-20.31 -9.67,-12.78 -13.06,-27.77 -14.39,-43.43 -0.43,-5.78 -0.94,-11.52 -1.49,-17.36 -0.17,-2.36 -0.35,-4.76 -0.35,-7.28 -0.1,-4.43 -0.1,-8.97 -0.37,-13.48 -0.53,-10 -1.07,-20.11 -1.66,-30.03 -0.14,-1.25 -0.55,-2.55 -0.7,-3.88 -0.33,-1.32 -0.74,-2.41 -0.74,-3.67 -0.32,-4.46 0,-8.81 -0.69,-13.2 -0.35,-4.78 -1.09,-9.42 -1.09,-14.33 0,-10.92 -1.1,-21.89 -1.43,-32.81 -0.29,-9.55 -1.07,-19.22 -0.08,-28.72 1,-10.27 3.66,-13.7 14.61,-14.97 4.38,-0.54 7.93,0.72 11.64,2.74 7.48,4.23 14.5,8.84 20.57,15.01 l 1.74,0.99 c 2.91,-0.87 3.2,1.34 3.83,3.09 4.33,-0.3 5.09,0.88 4.33,5.31 h -3.43 c 0.21,1.52 0.39,2.79 0.56,4.01 0.57,2.16 1.29,4.07 1.68,6.1 1.19,6.04 2.17,12.11 3.3,18.28 0.12,0.94 0.65,1.9 0.49,2.73 -1.93,7.05 0.16,14.33 -0.57,21.52 -0.19,0.78 0.08,1.46 0.08,2.35 1,6.1 2.03,12.22 2.78,18.4 0.64,5.13 1.07,10.42 2.52,15.49 0.52,2.2 0.25,4.63 0.5,6.73 0.02,2.29 0,4.63 0.41,6.9 0.8,3.43 2.33,6.75 2.82,10.22 0.56,5 0.82,10.02 0.64,15.05 -0.08,4.43 -0.37,8.54 1.29,12.85 1.58,3.66 1.58,8 2.13,11.87 0.33,2.72 0.92,5.47 0.76,8.07 -0.25,2.93 0.33,5.3 1.66,7.93 0.62,1.24 1.21,3.16 0.86,4.29 -1.21,2.49 -0.24,4.33 0.49,5.92 -1.27,3.05 -2.68,5.69 -3.13,8.42 -0.97,3.69 -0.25,4.52 3.56,6.18 -1.16,2.44 -3.56,3.64 -3.28,6.52 m 111.56,-19.37 c 0.99,2.15 1.4,4.36 1.62,6.67 0.68,3.84 1.97,7.86 3.52,11.66 3.3,7.47 8.43,13.98 14.17,19.81 6,6.15 13.07,11.4 19.95,16.52 5.74,4.22 10.93,8.37 14.76,14.46 3.83,6.15 3.54,12.65 2.19,19 -0.55,3.75 -3.42,7.02 -5.14,10.5 -3.04,6.11 -8.34,7.65 -14.47,6.93 -4.84,-0.48 -9.37,-2.25 -13.57,-4.81 -2.6,-1.57 -5.39,-2.7 -7.89,-3.77 -3.17,-1.3 -6.39,-2.04 -9.15,-3.5 -5.46,-3.05 -11.25,-4.95 -17.28,-5.41 -8.73,-0.92 -17.19,-2.93 -24.88,-6.95 -7.33,-3.96 -13.68,-9.23 -17.7,-16.77 -4.06,-7.48 -5.98,-15.99 -6.8,-24.47 -0.97,-10.34 -1.19,-20.82 -1.77,-31.33 -0.28,-5.24 -0.63,-10.5 -0.9,-15.87 -0.45,-6.27 -1.06,-12.41 -1.49,-18.66 -0.17,-2.75 0.08,-5.84 -0.8,-8.56 -1.32,-4 -2.34,-7.9 -2.13,-12.14 0.51,-5.12 -1.83,-10.25 0.26,-15.47 l -0.26,-1.73 c -1.34,-5.24 -2.59,-10.46 -0.5,-15.96 0.29,-0.69 0.27,-1.71 0.11,-2.71 -0.29,-3.26 -0.6,-6.47 -0.6,-9.81 0,-5.48 -2.38,-10.53 -1.27,-16.13 0.7,-5.23 0.04,-10.54 0.04,-15.88 0,-4.52 1.44,-8.75 3.63,-12.59 3.28,-5.94 9.22,-9.24 15.02,-8.16 11.04,2.15 22.05,7.47 31.13,16.37 7.84,7.65 11.43,17.2 12.39,28.09 0.46,4.96 -0.63,10.13 1.73,14.74 l 0.14,1.86 c -0.16,4.35 -0.64,8.76 -0.47,13.08 0.47,9.96 1.06,20.01 1.55,29.99 0.19,3.15 0.87,6.04 0.91,8.92 0.26,5.62 -0.04,11.32 0.3,16.88 0.31,2.3 0.11,5.5 2.98,6.45 0.2,3.43 -0.17,6.29 0.67,8.75 m -71.7,576.9 -0.92,-0.54 c -11.15,-2.71 -19.98,-8.82 -27.54,-17.13 -5.29,-5.67 -10.37,-11.37 -13.69,-18.64 -2.85,-6.27 -6.42,-12.03 -9.26,-18.29 -3.02,-7.27 -5.76,-14.68 -8.41,-22.15 -7.41,-19.38 -14.79,-38.65 -22.15,-57.93 -4.93,-12.99 -9.85,-26.13 -14.59,-39.38 -2.93,-7.8 -5.53,-15.84 -8.19,-23.54 -6.58,-18.42 -13.24,-36.81 -19.76,-55.05 -0.88,-2.45 -2.03,-4.65 -3.11,-7.14 -1.01,-2.61 -2.13,-5.19 -3.12,-7.89 -1.33,-4.01 -2.03,-8.04 -3.4,-11.84 -1.54,-4.66 -3.89,-8.89 -5.35,-13.61 -2.8,-9.48 -5.26,-18.96 -7.99,-28.39 -0.39,-1.42 -1.09,-2.84 -1.6,-4.18 -0.67,-2.12 -1.41,-4.34 -1.9,-6.51 -0.47,-3.17 0.53,-6.63 -2.28,-9.46 -0.63,-0.67 -0.49,-2.26 -0.9,-3.42 -0.37,-1.97 -0.82,-3.8 -1.25,-5.79 -4.24,-14.75 -8.69,-29.4 -12.81,-44.23 -1.66,-6.41 -2.11,-13.16 -3.85,-19.59 -1.8,-7.31 -4.36,-14.18 -6.27,-21.33 -3.97,-14.87 -7.75,-29.71 -11.66,-44.6 -0.57,-2.28 -1.35,-4.68 -1.8,-6.9 -1.13,-4.96 -2.13,-9.88 -3.32,-14.7 -1.01,-4.29 -2.44,-8.48 -3.22,-12.89 -3.2,-16.18 -6.07,-32.43 -9.57,-48.67 -2.79,-13.04 -5.61,-26.08 -7.58,-39.41 -2.09,-14.5 -5.04,-28.72 -7.6,-43.11 -1.29,-8.46 -2.22,-16.87 -3.55,-25.24 -2.29,-13.85 -4.4,-27.67 -6.58,-41.52 -1.14,-8.89 -2.11,-17.72 -3.5,-26.52 -0.19,-2.51 -1.35,-4.89 -2.3,-7.25 -1.29,1.18 -2.17,1.73 -2.95,2.63 -0.67,0.81 -1.55,1.72 -1.66,2.88 -0.3,2.59 -0.69,5.37 -0.2,7.95 0.57,2.94 -0.29,4.26 -2.66,5.02 -0.41,6.33 0.53,12.5 -1.79,18.39 -0.37,1.1 -0.28,2.41 -0.08,3.5 0.47,3.63 1.13,7.08 0.82,10.79 -0.29,2.21 -0.61,3.96 -1.97,5.81 -1.78,2.4 -3.91,5.13 -1.31,8.43 -1.02,0.2 -2.01,0.38 -3.48,0.72 0.67,4.66 0.35,9.42 1.99,13.42 2.13,4.47 1.06,8.01 -0.41,12.1 l -0.62,1.15 c -1.48,4.5 -3.73,8.87 -3.5,13.61 0.22,4.2 -0.7,8.02 -2.13,11.99 -1.25,3.61 -3.04,7.71 0,11.47 -2.83,5.07 -2.93,5.07 -3.3,11.47 -0.23,2.86 -1.6,5.33 -2.34,8.06 -1.64,3.8 -4.59,7.65 -2.97,11.54 -1.33,1.81 -2.58,3.14 -2.83,4.51 -0.43,4.22 -0.63,8.46 -1.76,12.65 -1.29,4.09 -1.44,8.45 -2.44,12.74 -0.59,3.1 -0.68,6.31 -1.29,9.39 -0.33,4.59 -3.46,9.11 -0.51,13.91 0.3,0.49 -0.29,1.41 -0.41,2.24 -0.21,1.09 -1.13,2.47 -0.84,3.44 1.25,2.73 -0.43,3.82 -1.5,4.52 -0.39,2.53 -0.39,4.49 -0.65,6.1 -0.29,2.15 -0.95,4.1 -1.38,6.2 -0.28,1.21 0.21,2.95 -0.31,3.72 -2.78,3.59 -1.82,7.99 -2.8,11.92 -1.72,7.85 -2.34,15.95 -3.63,23.94 -2.68,15.91 -5.51,31.75 -8.28,47.51 -1.11,6.41 -3.56,12.41 -7.25,17.55 -8.9,12.37 -27.28,14.58 -39.41,6.98 -6.6,-4.15 -11.02,-9.83 -13.71,-17.14 -1.84,-4.94 -3.48,-10.06 -5.02,-15.12 -3.93,-11.56 -7.66,-23.18 -11.55,-34.75 -0.56,-1.94 -1.13,-4.13 -2.14,-5.88 -1.49,-2.49 -2.23,-5.18 -2.78,-8.13 -0.62,-2.77 -2.01,-5.31 -2.75,-8.08 -1.17,-3.49 -2.66,-6.88 -3.26,-10.33 -1.62,-9.24 -5.61,-17.69 -8.24,-26.6 -1.16,-3.2 -2.45,-6.24 -3.27,-9.51 -1.46,-5.86 -2.75,-11.92 -6.27,-17.27 -1.3,-1.96 -1.7,-4.5 -1.93,-6.85 -0.43,-3.59 -1.09,-7.18 -3.36,-9.77 -1.5,-1.73 -2.52,-3.53 -2.85,-5.49 -0.94,-6.59 -3.24,-12.84 -5.74,-19.01 -2,-4.93 -4.14,-9.62 -5.18,-15.01 -1.6,-7.47 -4.86,-14.69 -7.3,-21.97 -2.19,-6.85 -4.67,-13.82 -6.7,-20.9 -0.26,-1.02 -0.43,-2.27 -0.16,-3.53 2.03,-10.29 7.93,-17.7 18.73,-19.97 3.24,-0.89 6.8,0 10.12,0.05 6.66,0.41 11.93,3.51 16.29,8.29 0.8,1.07 2.13,1.79 2.62,2.2 0.85,2.34 1.4,4.03 2.16,5.86 0.24,0.75 0.82,1.56 1.14,2.39 1.79,5.76 3.78,11.42 7.03,16.66 1.13,1.55 1.54,3.37 1.87,5.11 0.61,3.02 1.68,5.81 4.36,7.06 -0.1,1.13 -0.8,2.2 -0.59,2.91 1.35,3.3 3.07,6.64 4.36,9.89 0.37,0.8 0.37,1.71 0.45,2.58 0.29,1.72 0.37,3.37 0.5,5.15 3.11,0.24 1.72,2.65 2.31,4.33 1.29,3.38 0.6,7.44 3.67,10.07 l 0.33,0.85 c -1.44,4.59 3.3,6.99 3.4,10.92 3.2,2.77 2.72,6.64 2.56,10.48 1.03,0.57 2.27,1.2 2.81,1.42 0.45,1.36 0.84,3.24 1.02,3.24 2.44,0 2.63,1.93 3.28,3.32 1.09,2.71 1.93,5.39 2.99,8.01 0.39,0.85 1.48,2.03 2.09,1.94 1.81,-0.55 3.61,-1.29 5.13,-2.46 1.47,-1.25 2.66,-2.89 1.39,-5.1 -0.37,-0.58 0.08,-1.61 0.33,-2.55 1.41,0.54 2.58,0.94 3.5,1.31 0,-2.61 0.49,-4.87 -0.1,-7.12 -0.82,-3.3 0.1,-6.42 0.18,-9.6 0.02,-2.1 0.54,-3.57 1.87,-5.18 1.25,-1.49 2.72,-3.33 2.83,-4.96 0.14,-4.27 1.35,-7.94 1.84,-11.99 1.56,-9.82 3.01,-19.93 4.69,-29.67 0.99,-6.84 2.3,-13.46 1.56,-20.37 -0.12,-1.36 -0.12,-3.15 0.74,-4.03 2.27,-2.8 2.01,-6.27 2.38,-9.48 0.59,-3.56 1.16,-7.19 1.53,-10.88 2.26,-13.53 4.39,-27.25 6.48,-40.97 1.7,-11.98 3.17,-23.99 5.02,-36.07 1.64,-11.2 3.34,-22.4 5,-33.57 1.9,-11.25 3.56,-22.12 5.51,-33.26 1.11,-6.28 2.3,-12.48 0.23,-18.74 v -0.88 c 4.22,-3.54 5.71,-5.64 0.86,-11.15 3.05,0.64 4.26,-0.56 4.63,-3.09 1.27,-7.02 1.66,-14.29 3.54,-21.34 0.51,-2.13 1.25,-4.34 0,-6.62 -0.3,-0.59 0.51,-1.7 0.82,-2.59 0.15,-0.89 0.86,-1.77 1.11,-2.89 1.52,-8.68 2.85,-17.46 4.4,-26.26 1.64,-9.24 2.79,-18.26 4.51,-27.33 2.34,-11.03 5.08,-21.98 7.58,-32.89 1.13,-5.58 4.29,-9.86 8.55,-13.5 6.66,-5.57 14.28,-5.16 21.88,-3.32 9.76,2.56 15.68,8.91 18.82,18.33 3.32,9.54 4.5,19.75 6.14,29.77 1.81,9.59 3,19.44 4.39,29.26 1.52,11.54 3.18,23.17 4.63,34.76 2.54,19.05 4.77,38.29 7.09,57.43 1.17,9.03 2.3,18.14 3.46,27.08 0.6,5.16 1.09,10.49 2.59,15.26 1.35,4.16 3.25,8.22 2.88,12.63 5.58,2.01 5.85,3.76 2.18,8.04 l -1.09,2.15 c 0,2.3 0.25,4.59 0.62,6.83 0.55,5.27 1.68,10.48 1.68,15.86 0.18,3.87 1.68,7.05 4.01,9.72 1.6,1.73 2.13,3.51 2.48,5.59 0.17,1.03 0,1.94 0.39,2.62 2.99,4.56 1.89,9.55 1.82,14.5 0,0.44 -0.79,1.29 -1.47,1.42 -2.11,0.31 -2.11,1.77 -2.11,3.35 0.04,7.1 2.31,13.97 3.58,20.88 0.39,2.91 0.66,5.86 1.62,8.46 0.82,2.03 1.07,3.99 0.64,6.02 -0.57,1.99 -0.04,3.46 1.39,4.87 0.8,0.88 1.66,1.97 1.76,3.01 0.29,4.31 0.56,8.66 0.35,13 0,1.97 0.52,3.81 1.27,5.58 1.31,4.23 3.57,8.3 2.5,13.23 -0.39,1.38 0.74,3.32 1.48,4.91 0.84,1.95 2.44,3.58 2.93,5.53 0.84,3.93 1.47,7.97 -0.23,12.15 -0.67,1.29 -0.26,3.23 0.13,4.76 0.1,1.61 0.76,2.94 1.16,4.45 0.23,1.42 0.39,2.67 1.97,3.59 1.27,0.63 2.17,3.1 1.87,4.63 -0.21,1.39 -0.64,2.45 0.59,3.44 l 0.21,2.1 c -0.91,1.56 -0.5,2.56 0.41,3.83 0.32,0.78 0.16,1.75 0.32,2.62 0,1.48 -0.32,2.99 0,4.45 2.07,9.15 4.35,18.25 6.4,27.38 2.66,11.4 4.92,22.89 7.82,34.12 2.32,9.45 3.86,19.06 8.49,27.66 2.62,5.43 2.81,11.87 7.09,16.46 l 0.41,1.68 c 1.02,4.1 2.05,8.3 3.4,12.34 0.27,1.18 1,2.72 2.17,3.3 4.53,2.97 5.25,7.82 6.31,12.53 0.52,3.02 0.04,6.3 0.37,9.43 0.7,4.71 1.74,9.43 2.46,14.17 0.45,2.77 0.45,5.72 1.33,8.4 0.78,2.7 2.54,5.12 3.65,7.7 0.74,1.48 1.42,2.72 1.66,4.31 1.25,4.73 2.4,9.66 3.53,14.56 0.36,0.86 1.02,1.85 1.39,2.68 1.41,2.4 2.97,4.82 4.14,7.35 0.39,0.72 0.18,2.07 -0.37,2.9 -1.11,1.88 -0.8,3.58 0.25,5.59 1.43,2.99 2.74,6.29 3.93,9.57 0.47,0.59 0.1,1.35 0.21,2.03 0.26,1.29 0.26,2.39 0.53,3.48 0.35,1.29 0.69,2.48 0.96,3.88 1.09,3.93 2.03,7.99 3.03,11.95 1.46,4.59 3.22,9.08 4.74,13.69 1.53,4.38 2.68,8.96 4.36,13.28 1.11,3.37 2.62,6.75 3.9,10.1 1.1,2.6 2.62,5.13 3.32,7.73 2.08,8.02 4.42,16.04 8.99,23.2 0.76,1.24 1.35,2.73 2.11,3.97 1.44,3.15 3.05,6.25 4.3,9.45 0.66,1.48 1.21,3.11 1.11,4.73 -0.35,3.02 0.57,5.79 1.72,8.41 4.1,9.43 8.01,19 12.18,28.42 5.88,13.3 12.08,26.53 17.92,39.93 1.54,3.6 4.41,6.27 5.91,9.67 3.03,6.62 7.31,12.45 11.35,18.36 5.2,7.79 11.62,14.73 17.7,21.9 1.93,2.32 4.35,4.4 6.7,6.27 0.76,0.71 2.44,0.43 2.91,1.13 0.74,0.9 0.95,2.37 1.46,3.48 l 1.21,0.69 c 1.66,1.13 3.13,2.28 4.96,3.25 1.84,0.87 2.62,4.32 3.67,6.76 0.47,0.9 0,2.28 0.67,2.97 2.05,3.23 4.57,6.31 6.74,9.59 2.87,4.56 5.33,9.44 6.29,15 1.34,8.11 0.6,15.96 -1.59,23.91 -4.18,14.58 -13.63,23.87 -27.91,28.76 -3.82,1.23 -7.85,2.4 -11.72,3.49 z m 795.37,-419.54 -1.62,-0.51 c -0.84,-3.83 -4.77,-6.19 -5.25,-10.52 -0.14,-1.31 -1.96,-2.49 -2.82,-3.8 -3.38,-5.55 -7.83,-9.94 -12.99,-13.64 -3.16,-2.02 -6.03,-4.25 -9.08,-6.13 -10.56,-6.35 -22.01,-9.37 -33.47,-13.01 -13.52,-4.37 -27.15,-8.83 -40.59,-13.96 -14.39,-5.38 -28.38,-11.62 -42.36,-17.78 -5.69,-2.58 -11.45,-5.72 -17.03,-8.64 -19.54,-10.23 -39.05,-20.37 -58.6,-30.59 -7.79,-4.26 -15.64,-8.71 -23.57,-12.96 -4.08,-2.19 -8.32,-4.12 -12.44,-6.45 -6.37,-3.59 -12.62,-7.2 -18.97,-10.86 -9.1,-5.21 -18.53,-10.39 -27.79,-15.71 -10.06,-5.84 -20.28,-11.81 -30.41,-17.89 -8.24,-4.81 -16.35,-9.55 -24.57,-14.37 -7.99,-4.77 -16.02,-9.82 -23.97,-14.89 -11.13,-6.85 -22.22,-13.71 -33.14,-20.63 -1.95,-1.2 -3.28,-3.46 -5.16,-4.4 -1.89,-0.74 -3.57,-2.29 -5.19,-3.05 -5.63,-1.96 -9.85,-6.03 -14.73,-9.15 -7.77,-4.89 -15.06,-10.51 -22.66,-15.84 -2.48,-1.7 -4.82,-3.15 -6.52,-5.99 -1.29,-1.94 -4.18,-2.77 -6.27,-4.3 -2.26,-1.66 -5.06,-3.05 -3.98,-6.99 0.47,-2.29 -0.51,-4.92 -0.75,-7.49 -0.33,-2.58 -0.43,-5.33 -0.33,-8 0,-1.11 0.57,-2.33 0.96,-4.03 -0.63,-1.1 -1.7,-2.73 -2.93,-4.55 3.52,-2.91 0.68,-6.02 0.37,-9.52 2.4,-1.89 2.31,-4.56 1.39,-7.82 -1.08,-3.28 -3.21,-6.58 -0.22,-10.16 0.76,-1.01 0.1,-3.08 -2.56,-2.23 0.2,-1.22 0.2,-2.36 0.71,-3.17 1.62,-2.38 1.7,-4.78 0.31,-7.21 l -0.31,-1.22 c 2.99,-4.75 -0.26,-9.41 0.17,-14.13 0.34,-4.68 -0.68,-9.45 0.34,-14.31 0.31,-1.74 0.31,-3.58 0.58,-5.38 0.29,-1.17 1.19,-3.22 -1.09,-4.22 -0.71,-0.27 -1.19,-1.89 -0.12,-3.39 1.04,-1.58 1.29,-4.24 0.94,-6.17 -1.66,-7.71 -0.14,-15.28 -1.08,-23.01 -0.25,-2.67 -0.37,-5.28 -0.37,-8 0,-1.82 -0.97,-3.55 0.8,-5.13 l 0.34,-1.25 c -1.65,-3.17 -0.63,-6.64 -1.02,-10.01 -0.12,-3.27 0.51,-6.7 0.82,-10.44 -5.47,-0.92 -2.81,-5.76 -3.07,-9.54 1.57,-0.79 4.3,-1.09 3.44,-4.46 -0.94,-0.17 -2.03,-0.41 -3.77,-0.61 1.13,-1.74 2.07,-2.8 3.6,-4.82 l -1.74,-0.44 c 3.51,-5.83 -0.47,-9.94 -2.25,-14.92 1.23,-2.69 2.46,-5.74 3.79,-8.74 0.92,-1.86 1.07,-3.29 -1.02,-4.49 -2.77,-1.6 -3.12,-3.29 -1.95,-5.99 0.84,-1.84 1.95,-3.52 2.97,-5.44 -1.33,-0.42 -2.44,-0.72 -3.79,-1.13 0.22,-2.13 0.22,-4.11 0.39,-6.6 1.27,0.58 1.95,1.04 2.58,1.42 0.68,-1.66 1.19,-3.41 1.74,-5.34 -0.72,-0.43 -1.74,-0.93 -2.83,-1.48 0.76,-2.62 3.3,-5.13 -0.65,-7.75 2.13,-2.1 4.06,-3.87 5.92,-5.81 -0.68,-1.76 -1.6,-3.87 -2.5,-6.14 1.21,-0.32 2.19,-0.57 3.34,-0.78 -1.15,-1.67 -3.13,-3.18 -0.2,-4.7 l 0.77,-1.06 c -1.08,-3.42 1.97,-6.74 0.37,-10.45 -0.57,0.1 -1.21,0.34 -2.6,0.72 1.44,-2.95 0.74,-5.47 0.14,-8.02 -0.38,-1.25 1.3,-3.08 2.09,-4.72 1.11,0.77 1.87,1.14 3.04,2.02 0.35,-2.37 0.61,-4.15 0.84,-5.99 0.28,-3.44 0.9,-6.95 2.93,-9.83 1.27,-1.6 1.1,-3.02 0.14,-4.44 -0.9,-1.6 -2.01,-3.04 -3.3,-4.75 0.35,-0.27 1.01,-0.88 1.85,-1.91 -1.34,-0.49 -2.26,-0.81 -3.53,-1.27 0.12,-2.25 0.06,-4.91 0.58,-7.4 0.2,-0.79 1.45,-1.66 2.39,-2.12 0.21,-0.19 1.19,1.03 2.01,1.89 -0.9,-3.09 5.41,-3.14 2.54,-7.49 1.13,-0.76 2.38,-1.5 4.12,-2.64 -3.93,-0.73 -3.99,-4.1 -4.47,-6.28 -0.22,-1.84 -1.18,-2.8 -2.05,-3.97 0.31,-2.93 5.48,-2.77 3.14,-6.5 2.07,-0.88 3.44,-1.52 5.2,-2.51 -2.15,-2.12 -4.22,-4.06 -3.13,-7.17 l -0.64,-0.87 c -3.05,-2.91 -2.95,-3.45 0.64,-5.31 l 0.98,-0.81 c -1.62,-1.42 -3.42,-2.51 -4.67,-4.08 -1.21,-1.62 -1.37,-3.81 -2.48,-5.4 -1.64,-2.44 -3.56,-5.04 -5.88,-6.81 -4.47,-3.14 -9.49,-5.74 -14.34,-8.67 h -17.22 c -0.73,0.15 -1.33,0.67 -2.11,0.81 -12.91,3.12 -21.25,10.74 -24.71,23.94 -2.83,10.47 -4.69,20.94 -4.45,31.93 0.23,7.36 0.76,14.76 0.82,22.24 0.37,8.82 0.37,17.71 0.53,26.47 0,3.5 0.13,6.95 0.27,10.47 0.33,10.02 0.33,20.07 1.27,29.85 0.62,7.76 0.9,15.18 0.13,22.73 -0.13,1.49 0.22,3.04 0.24,4.47 0.16,3.16 0.16,6.4 0.16,9.57 0,4.03 0,8.14 0.03,12.18 0.2,5.8 1.29,11.53 -0.27,17.28 l 0.06,2.05 c 1.95,1.62 1.5,3.57 1.5,5.49 v 52.02 53.78 c 0.14,7.56 0.45,15.1 0.51,22.73 v 11.57 c -5.25,-3.06 -9.94,-5.49 -14.26,-8.52 -8.45,-6.07 -16.42,-12.47 -24.59,-18.63 -8.8,-6.9 -17.5,-13.76 -26.25,-20.49 -4.06,-3.39 -8.39,-6.58 -12.59,-9.9 -6.9,-5.32 -13.97,-10.74 -20.73,-16.31 -7.57,-6.11 -14.78,-12.54 -22.36,-18.66 -10.41,-8.64 -20.98,-17.03 -31.58,-25.6 -10.8,-8.98 -21.33,-17.95 -32.25,-26.96 -7.65,-6.43 -15.64,-12.85 -23.53,-19.28 -1.14,-0.91 -2.39,-2.25 -3.5,-3.45 -2.66,-2.64 -5.39,-5.27 -8.16,-8.04 -2.62,-2.75 -4.83,-6.03 -7.84,-8.67 -4.6,-4.24 -9.72,-7.97 -14.37,-12.39 -5.14,-4.65 -9.82,-9.69 -14.81,-14.7 -3.02,-2.88 -6.13,-5.76 -9.17,-8.69 -1.27,-1.47 -2.47,-3.51 -3.79,-5.04 -1.51,-1.88 -3.09,-3.67 -4.67,-5.38 -2.03,-2.2 -4.24,-4.32 -6.35,-6.51 -8.03,-8.34 -15.92,-16.97 -24.41,-25.01 -6.23,-5.65 -11.51,-12.15 -16.74,-18.54 -0.98,-1.16 -2.15,-2.21 -3.03,-3.21 -1.85,-2.09 -3.75,-4 -5.7,-5.94 -0.71,-0.85 -1.37,-1.6 -2.03,-2.45 -6.41,-6.03 -12.78,-12.14 -19.03,-18.16 -3.71,-3.56 -7.61,-7.08 -11.27,-10.59 -3.67,-3.41 -7.54,-5.68 -12.89,-5.74 -7.2,-0.11 -14.29,-0.11 -21.36,2.87 -11.12,4.77 -16.33,13.46 -17.78,24.89 -0.54,3.56 -1.19,7.17 0.12,10.63 0.9,2.22 1.44,4.64 2.71,6.71 2.33,3.55 4.81,7.01 7.47,10.33 9.53,11.87 20.13,22.87 31.38,33.12 6.33,5.66 12.42,11.62 18.46,17.45 10.19,9.63 20,19.31 30.41,28.45 16.41,14.5 33.1,28.65 49.75,42.78 8.37,7.19 16.85,13.92 25.21,20.98 5.86,5.06 11.33,10.54 17.29,15.61 4.92,4.19 10.54,8.09 15.54,12.19 8.03,6.55 15.74,13.11 23.67,19.48 4.5,3.57 9.16,7.12 13.71,10.74 5.73,4.79 11.61,9.47 17.52,14.48 3.25,2.76 6.65,5.78 10.1,8.31 6.92,5.26 14.06,10.08 21.1,15.16 10.8,7.95 21.38,15.97 32.18,23.85 6.76,4.87 13.6,9.59 20.39,14.59 6.49,4.53 12.84,9.23 19.09,13.97 11.15,8.46 22.09,17.1 33.41,25.45 8.01,5.97 16.29,11.59 25.16,17.84 0,5.72 0.12,12.23 0.2,18.59 0,3.66 -0.08,7.21 -0.34,10.83 0,0.94 -0.48,2.44 -1.09,2.58 -1.07,0.22 -2.3,-0.3 -3.13,-0.94 -5.64,-3.71 -11.34,-7.8 -17.01,-11.67 l -1.23,-0.48 c -3.96,-0.9 -7.71,-1.75 -11.35,-3.62 -3.39,-1.69 -6.66,-3.13 -11.05,-2.63 -3.69,0.49 -7.95,-1.29 -11.89,-2.22 -8.81,-1.79 -17.72,-1.79 -26.04,1.25 -10.49,3.99 -19.41,10.21 -23.52,21.83 -3.06,8.83 -4.58,17.79 -4.57,27.16 0.18,11.84 0.34,23.85 0.18,35.66 0,4.14 -0.96,8 -0.96,12.26 0,2.51 0.78,5.2 1.31,7.97 0.51,4.61 1.27,9.32 1.37,13.98 0.17,8.98 1.58,18 3.03,27.03 1.29,9.37 3.22,18.84 6.17,27.95 2.91,9.49 6.09,19.12 11.81,27.57 6.39,9.37 12.68,18.99 19.56,27.93 4.21,5.42 10.03,9.29 15.87,12.87 0.94,0.48 2,0.92 2.74,1.66 7.66,6.86 17.34,8.72 26.89,10.44 3.44,0.6 7.6,-0.53 10.82,-2.09 4.18,-2.01 4.57,-6.92 4.24,-10.82 -0.23,-4.45 -1.89,-8.67 -2.77,-13.1 -0.57,-3.41 -2.99,-5.8 -4.26,-8.78 -1.58,-3.67 -4.55,-6.23 -7.77,-8.43 -0.82,-0.51 -1.55,-1.09 -2.01,-1.96 -2.07,-3.62 -3.75,-7.46 -7.35,-10.24 l -0.45,-0.73 c -0.52,-4.6 -4.16,-7.76 -5.88,-11.86 -0.47,-1.05 -1.17,-2.39 -1.46,-3.66 -0.53,-3.46 -1.11,-6.78 -3.97,-9.52 -0.97,-1.06 -1.4,-2.68 -1.75,-4.08 -1.18,-4.5 -2.29,-9.11 -3.56,-13.78 -0.41,-1.29 -1.13,-2.8 -1.46,-4.2 -0.75,-4.65 -2,-9.08 -1.12,-13.76 0.16,-0.97 0.86,-1.85 1.31,-2.79 0.88,-2.3 0.96,-4.4 0,-6.73 -0.94,-1.73 -1.31,-3.69 -1.68,-5.55 -0.51,-4.02 -0.99,-7.85 -1.27,-11.76 -0.33,-2.26 -0.08,-4.54 -0.08,-6.83 0,-0.92 0.36,-2.03 0,-2.69 -2.75,-4.67 -0.82,-9.28 -0.64,-14.17 0.04,-2.6 -0.18,-5.29 -0.18,-7.97 -0.17,-5.2 2.17,-9.92 4.34,-14.38 2.27,-4.76 6.39,-7.54 12.15,-7.26 10.41,0.42 18.79,4.99 26.05,12.33 7.35,7.19 10.1,16.25 11.47,25.73 2.11,14.06 3.79,27.98 5.49,42 0.99,6.98 1.95,13.83 2.38,20.82 0.31,3.69 -0.29,7.39 -0.29,11.18 v 1.21 c 2.4,2.53 1.95,5.94 2.11,8.93 1.03,10.86 1.68,21.6 2.53,32.35 0.47,6.49 1.08,12.97 1.7,19.46 0.49,7.11 0.84,14.03 1.7,20.91 0.35,5.2 0.51,10.28 2.91,15.15 3.15,7.01 8.89,11.19 15.71,14.48 6.38,3.15 12.98,3.66 19.94,2.9 4.61,-0.67 9.35,-2.02 12.2,-6.23 1.67,-2.56 4.75,-4.26 4.93,-7.89 0,-1.14 0.39,-2.49 0.39,-3.78 -0.06,-3.95 -0.57,-8.1 -0.63,-12.08 0,-1.59 0.63,-3.19 1.21,-5 -0.23,-0.92 -1.89,-1.46 -0.97,-3.54 0.74,-1.53 0.33,-3.52 -0.71,-5.58 -0.91,-2.04 -0.7,-5.01 -0.21,-7.44 0.68,-3.47 -0.49,-6.88 0,-10.46 0.43,-3.28 -1.51,-6.77 -1.97,-10.24 -0.37,-1.25 -1.29,-2.6 0.37,-3.63 l 0.45,-0.54 c -3.3,-4.46 -2.07,-9.85 -2.6,-14.86 -1.37,-13.8 -2.11,-27.48 -3.11,-41.39 -0.72,-10.75 -1.5,-21.51 -2.26,-32.22 -0.2,-2.58 -1.27,-5.15 -1.15,-7.64 0.29,-7.06 -0.98,-13.94 -1.33,-20.87 -0.18,-2.77 -0.28,-5.29 0.64,-8.13 0.86,-2.26 0.86,-5.09 0.28,-7.37 -1.55,-4.48 -1.1,-8.92 -0.92,-13.2 0,-2.32 0.19,-4.53 -0.18,-6.84 -0.58,-4.43 -1.58,-8.69 -1.15,-13.46 0.37,-4.32 0,-8.78 0,-13.12 0,-0.85 0.31,-1.7 0.57,-3.17 1.68,0.87 2.83,1.58 4.16,2.45 6.6,4.35 13.14,9.02 20.07,13.29 12.07,7.49 24.26,15.03 36.45,22.54 3.53,2.17 7.03,4.34 10.51,6.43 7.22,4.75 14.06,10.1 21.64,14 9.47,4.59 16.97,12.26 27.07,15.12 1.87,0.55 3.08,2.45 4.96,3.06 3.1,0.98 3.96,5.81 8.32,4.22 2.81,1.62 5.72,3.42 8.55,5 2.89,1.62 5.57,3.08 8.27,4.73 2.96,1.65 5.84,3.31 8.69,5.19 2.89,1.66 5.5,3.58 8.59,5.34 3.85,2.28 7.79,4.48 11.78,6.62 14.31,8.16 28.69,16.32 43.3,24.37 11.42,6.57 23.18,12.79 34.61,19.37 12.6,7.12 25.08,14.54 37.5,21.86 2.77,1.64 5.29,3.3 8.49,5.24 -1.38,1.16 -1.97,1.93 -2.85,2.44 -7.36,3.48 -11.31,9.58 -12.77,17.16 -0.82,4.17 -0.82,8.5 -1.04,12.67 -0.23,5 -0.25,10.01 -0.25,14.9 v 1.39 c 2.75,6.28 0.64,13 2.32,19.4 0.28,0.81 0.28,1.84 -0.03,2.69 -2.27,5.67 -0.94,11.27 0.46,16.75 0.51,1.35 -0.15,2.87 -0.27,4.41 -0.29,1.34 -1.13,2.95 -0.7,4.04 1.85,3.19 0.82,6.76 1.72,10.18 0.93,3.51 0.72,7.48 0.78,11.34 0.15,10.63 0.15,21.25 0.15,31.93 0,3.02 -0.21,5.68 -1.95,8.21 -2.01,3.11 -4.49,5.28 -8.55,5.1 -2.07,-0.18 -4.36,0.46 -6.59,0.32 -5.87,-0.59 -10.31,-3.76 -14.74,-7.31 -1.35,-1.25 -3.26,-1.79 -4.46,-3.02 -1.71,-1.81 -3.2,-3.89 -4.17,-6.25 -0.75,-2.21 -2.11,-3.12 -3.79,-4.41 -2.76,-2.25 -5.63,-4.3 -6.55,-8.26 -0.62,-1.76 -3.22,-3 -5.11,-4.84 -0.53,-3.26 -0.49,-7.17 -3.17,-10.12 l -0.43,-1.8 c -0.29,-3.22 0.74,-6.67 -1.44,-9.54 -0.92,-1.09 2.44,-1.85 0.62,-3.37 -0.88,-0.69 -2.3,-0.86 -3.36,-1.4 -0.39,-0.16 -0.45,-0.66 -0.94,-1.49 1.04,-0.42 1.84,-0.82 2.47,-1.05 -0.26,-2.28 -0.39,-4.43 -0.61,-6.66 -3.81,-0.97 -3.98,-0.97 -3.18,-5.27 0.45,-1.88 1.03,-3.77 1.87,-5.59 1.06,-1.75 0.59,-3.75 -0.64,-4.45 -2.48,-1.29 -2.48,-3.83 -4.34,-5.36 -0.49,-0.39 -0.25,-3.03 0.45,-3.56 2.27,-1.77 2.77,-3.87 2.66,-6.68 -0.22,-1.39 0.45,-2.82 0.74,-4.43 -1.37,-0.92 -3.22,-1.87 -4.43,-3.23 -1.82,-1.87 0.09,-3.66 0.52,-4.44 -0.8,-2.69 -1.68,-4.53 -1.77,-6.51 -0.3,-3.19 -0.2,-6.41 -0.24,-9.59 -0.16,-2.69 -0.64,-5.44 3.58,-5.64 -2.09,-3.56 -5.12,-6.39 -1.29,-9.89 -0.71,-0.46 -1.25,-0.83 -1.74,-1.14 2.93,-2.53 2.6,-2.4 1.74,-5.83 -0.71,-2.42 -2.29,-4.79 -0.8,-7.44 0.09,-0.55 -0.28,-1.41 -0.28,-2.08 -0.17,-1.08 -0.66,-2.28 -0.27,-2.76 2.54,-2.68 0.64,-4.93 -0.94,-6.83 -3.03,-3.9 -4.8,-8.16 -5.55,-12.93 -0.21,-0.72 -0.43,-1.5 -0.95,-1.99 -4.14,-3.41 -7.97,-7.28 -13.05,-9.57 -3.69,-1.72 -7.17,-3.74 -10.96,-5.61 -5.5,-2.82 -11.54,-2.63 -17.42,-1.49 -7.46,1.44 -10.57,5.96 -11.56,14.84 -0.65,5.78 0.29,11.63 0.51,17.4 0.31,9.94 0.66,19.86 1.11,29.82 0.47,11.44 0.86,22.8 1.25,34.21 0.47,9.67 1.05,19.44 1.46,29.11 0.86,13.02 1.33,26.15 2.02,39.1 0.37,4.32 0.37,8.61 1.31,12.75 1.42,7.79 4.33,14.87 8.69,21.33 8.06,11.5 19.33,17.38 32.93,19.02 0.91,0.15 1.71,0.37 2.75,0.15 3.83,-0.32 7.46,-1.03 11.19,1.65 1.8,1.13 4.57,0 7.07,-1.07 4.26,-1.71 9.24,-2.52 14.06,-0.48 4.67,1.94 9.05,4.26 12.68,7.74 1.76,1.84 3.46,3.85 5.1,5.84 1.35,1.37 2.44,2.88 3.85,4.4 3.86,3.86 7.75,7.65 11.52,11.61 l 0.98,0.92 c 7.73,4.69 15.33,9.96 24.16,12.55 6.15,1.82 12.52,3.39 18.9,2.32 5.88,-1.19 11.43,-2.57 15.69,-7.53 4.12,-4.54 5.44,-6.09 6.54,-11.76 0.35,-2.07 0.66,-4.13 3.01,-5.09 l 0.86,-1.53 c -3.46,-3.01 -2.97,-5.65 0.84,-8.69 0.13,-2.75 0.23,-5 0.5,-7.67 -0.56,-0.35 -2.44,-0.69 -2.91,-1.7 -0.82,-1.41 -0.82,-3.19 -0.7,-4.92 0,-2.07 0.14,-4.07 0.43,-6.24 0.88,0.48 1.6,1.03 2.81,1.8 0.49,-3.07 -2.22,-6.08 1.7,-8.64 -1.33,-0.21 -1.83,-0.35 -3.01,-0.43 0.39,-4.46 0.77,-8.87 1.18,-13.7 -0.73,-0.08 -1.8,-0.4 -2.97,-0.63 -1.39,-2.78 0,-4.28 2.36,-5.64 -1.09,-0.89 -2.07,-1.7 -3.05,-2.53 0.69,-1.35 1.57,-2.58 1.86,-3.21 -0.94,-1.27 -2.07,-2.16 -2.07,-3.13 -0.18,-7.29 -0.33,-14.59 -0.16,-21.95 0,-1.68 1.29,-3.49 1.99,-5.38 -1.07,-1.52 -3.16,-2.98 -1.07,-5.52 l -0.39,-1.86 c -0.98,-3.09 -0.98,-3.38 1.8,-5.14 0,-2.42 0.13,-4.8 0.39,-7.74 -0.26,-0.12 -1.43,-1.27 -1.37,-2.12 0.41,-2.75 1.11,-5.26 -1.35,-7.49 l 0.16,-1.31 c 1.6,-2.41 1.6,-2.41 0.21,-4.85 l -0.54,-1.4 c 0.97,-0.66 1.93,-1.37 3.12,-2.43 -1.89,-0.92 -2.97,-1.94 -2.42,-4.17 0.39,-1.46 -1.37,-3.5 1.54,-4.43 l 0.65,-0.92 c -1.37,-2.93 0.9,-4.06 3.06,-5.18 -0.49,-1.15 -0.82,-1.96 -1.13,-2.62 -0.49,-0.7 -1.03,-1.11 -1.78,-2.02 2.35,-0.99 4.01,-2.15 3.73,-4.92 -0.09,-0.53 0.43,-3.39 2.78,-3.39 l 1.6,-1.31 c 3.03,-3.95 5.86,-5.02 10.8,-3.4 4.02,1.21 8.1,2.53 11.99,4.29 10.74,5.38 21.37,11.04 31.99,16.46 6.57,3.33 12.97,6.84 19.57,9.89 8.42,3.8 17.25,4.15 26.31,2.81 3.24,-0.49 6.51,-0.7 9.83,-0.74 3.69,-0.24 7.3,-3.1 9.16,-6.92 1.95,-4.19 4.41,-8.5 6.52,-12.67 v -1.94 c -1.44,-1.89 -1.89,-3.58 0,-5.47 v -1.79"
         style="fill:#ffffff;fill-opacity:1;fill-rule:nonzero;stroke:none"
         id="path36" />
    </g>
  </g>
</svg>
